<?xml version="1.0" standalone="no"?>
<!DOCTYPE svg PUBLIC "-//W3C//DTD SVG 1.1//EN" "http://www.w3.org/Graphics/SVG/1.1/DTD/svg11.dtd" >
<svg xmlns="http://www.w3.org/2000/svg" xmlns:xlink="http://www.w3.org/1999/xlink" version="1.1">
<metadata>
Created by FontForge 20161003 at Wed Mar 15 13:51:38 2017
 By www-data
Copyright (c) 2016 by Mans Greback. All rights reserved.
</metadata>
<defs>
<font id="BlackLarchPERSONALUSEONLY" horiz-adv-x="490" >
  <font-face 
    font-family="Black Larch PERSONAL USE ONLY"
    font-weight="400"
    font-stretch="normal"
    units-per-em="1000"
    panose-1="2 0 0 0 0 0 0 0 0 0"
    ascent="700"
    descent="-300"
    x-height="400"
    cap-height="650"
    bbox="-398.565 -357 1215.45 887"
    underline-thickness="50"
    underline-position="-100"
    unicode-range="U+000D-FB02"
  />
<missing-glyph horiz-adv-x="500" 
 />
    <glyph glyph-name="fi" unicode="fi" horiz-adv-x="523" 
d="M230 83q4 32 24.5 72.5t43.5 87.5l49 99h-80l-238 -491q-20 3 -45 2.5t-51.5 -3t-53 -6.5t-48.5 -8l249 506h-14l22 39h11l23 46q33 74 71 112.5t85 59.5q19 8 46.5 13t58 5t61 -6t55.5 -19q58 -33 72 -69t1 -67q-8 -20 -24 -34t-35.5 -20.5t-40.5 -5.5t-40 10
q-19 10 -30 25t-15.5 31.5t-3 33t8.5 30.5q13 28 42 42q-19 3 -41 -13t-36 -36q-14 -21 -27 -47t-27 -56l-17 -35h107q44 1 87 -0.5t78 9.5l-116 -242q-20 -38 -27 -58t2 -20q3 0 12.5 5t24.5 18t34 36t40 60l24 -14q-15 -23 -37.5 -53t-52.5 -57.5t-68 -46.5t-84 -19
q-17 0 -33 5t-27.5 15t-17 26t-2.5 38z" />
    <glyph glyph-name="fl" unicode="fl" horiz-adv-x="476" 
d="M185 83q2 32 23 72.5t44 87.5l161 327q-2 0 -3.5 -0.5t-3.5 0.5q-21 -2 -30 -16t-18 -30q-11 -19 -21.5 -42t-18.5 -43h19l-21 -39h-21l-266 -549q-20 3 -45 2.5t-51.5 -3t-53 -6.5t-48.5 -8l277 564h-31l22 39h34q23 62 56.5 99t74.5 56q12 6 31 10t41 5t44.5 -3.5
t42.5 -14.5q23 -2 49.5 -1.5t53 2.5t51.5 6.5t46 11.5l-227 -462q-42 -85 -20 -78q4 2 13 7.5t22.5 18t31.5 35t39 58.5l24 -14q-13 -20 -34 -49.5t-51 -58t-70 -48.5t-91 -20q-15 0 -30 4.5t-26 14.5t-16.5 26t-2.5 39z" />
    <glyph glyph-name="a_swsh" unicode="a&#x23;" horiz-adv-x="492" 
d="M213 90h-3l-11 -16q-31 -44 -56.5 -59t-58.5 -15q-35 0 -60 19.5t-34 52.5t0 78t42 96q31 48 69 83.5t79.5 54t86 18t89.5 -24.5q19 -10 41 -14.5t44 -4.5t43.5 4.5t40.5 11.5q-11 -22 -30.5 -60t-39 -77.5t-36 -72.5t-22.5 -44q-53 -103 -60 -162.5t26 -80.5
q12 -8 28 -10.5t36 -1t42 5.5t46 9q124 24 209.5 35.5t140.5 8.5t85 -20.5t44 -51.5q4 -16 4.5 -36t-5.5 -40.5t-20 -40.5t-38 -36l-67 -28q-21 48 -48 83.5t-66 57.5t-93.5 29.5t-129.5 -1.5q-47 -6 -92 -6.5t-83.5 3.5t-68.5 11t-46 17q-26 16 -37.5 38.5t-14 48.5t1 53
t7.5 52zM151 59q10 1 23 17.5t29.5 45t36 66.5t40.5 81l47 97q-13 1 -27.5 -12t-30 -34t-31.5 -47t-31 -51q-51 -84 -61 -124t5 -39z" />
    <glyph glyph-name="b_swsh" unicode="b&#x23;" horiz-adv-x="486" 
d="M202 595q19 -3 44.5 -2.5t52.5 3t53.5 6t48.5 8.5l-111 -224l-40 -52l2 -2l27 28q24 28 43 34t46 6q36 0 62 -18.5t35.5 -51.5t1 -79t-41.5 -101q-36 -60 -85.5 -99t-105.5 -52q8 -9 19 -16q30 -17 70.5 -21t93.5 -7q90 -6 149.5 -17t95.5 -29t52 -44t19 -61
q2 -24 -5.5 -49t-23.5 -44t-40 -30t-54 -7h-83q6 16 15 38t14 47t4 50t-15 46.5t-43 37t-79 21.5q-88 9 -142.5 30.5t-78.5 49.5q-33 -2 -65 6t-62 28q-8 6 -21 19t-27 29.5t-26.5 34t-19.5 32.5zM311 349q-27 -1 -54 -44h1q-6 -17 -14.5 -39.5t-16.5 -48.5t-14 -53.5
t-8 -54.5l42 65q48 82 64 128.5t0 46.5zM117 26q11 0 24 9.5t27 25.5q-10 34 -10 74z" />
    <glyph glyph-name="c_swsh" unicode="c&#x23;" horiz-adv-x="436" 
d="M236 -131q58 -7 121.5 -1.5t126.5 15t122.5 20.5t111.5 15.5t93 -0.5t66 -26.5t31.5 -64t-10.5 -112.5l-43 -12q-52 38 -107.5 60.5t-113.5 34.5t-118 17.5t-120.5 9.5t-121.5 11t-121 22q-59 15 -101.5 49t-62 84t-13 112.5t46.5 134.5q26 47 66 80t85 52.5t90 26.5
t82 3q36 -5 59 -17.5t35 -30.5t13 -39.5t-6 -42.5q-8 -25 -27.5 -48.5t-49 -39t-67.5 -18t-82 14.5q23 41 37 63t26 41q31 47 38.5 64.5t3.5 23.5q-7 10 -36 -27.5t-77 -122.5q-16 -28 -29.5 -64t-21.5 -74t-10 -75.5t6 -67t26.5 -49t51.5 -22.5z" />
    <glyph glyph-name="d_swsh" unicode="d&#x23;" horiz-adv-x="487" 
d="M214 95h-3l-9 -13q-30 -43 -56 -62.5t-63 -19.5q-35 0 -59.5 20t-32.5 54.5t2 79.5t43 96q33 49 70.5 82t77 50t79.5 18.5t76 -11.5l98 200q20 -3 47.5 -2.5t57 3t56.5 7.5t47 13q-8 -14 -27 -52l-43.5 -87t-51.5 -102.5t-50.5 -100t-40 -80t-20.5 -40.5
q-47 -93 -58.5 -146t12.5 -84q9 -14 25.5 -19t38.5 -5.5t48 2.5t53 7q136 21 227.5 30t147 0t80 -38.5t25.5 -86.5q-2 -35 -19 -61t-49 -47l-67 -25q-19 49 -44.5 86t-64 61t-92 34.5t-129.5 6.5q-48 -3 -93.5 -3t-84.5 3t-69 10t-45 19q-24 19 -38 38.5t-19.5 40t-4.5 42
t6 45.5zM149 60q10 0 23 16t28.5 43t34 63t39.5 76l56 109q-11 -1 -25.5 -14t-30.5 -33.5t-32.5 -45t-30.5 -48.5q-51 -84 -62.5 -125t0.5 -41z" />
    <glyph glyph-name="e_swsh" unicode="e&#x23;" horiz-adv-x="450" 
d="M243 -128q118 6 218 18.5t181 21t142 8.5t99.5 -20.5t54.5 -66t7 -126.5l-26 -38q-29 19 -58 40.5t-65.5 42.5t-84.5 39.5t-115 31t-157 17t-211 -1.5q-94 -6 -152 30t-82.5 95.5t-16.5 132.5t47 142q26 47 66.5 80t85.5 52.5t90 26.5t81 3q39 -5 62 -19.5t33.5 -34
t10.5 -41.5t-7 -42q-13 -35 -38.5 -64t-61.5 -49t-81 -30.5t-97 -8.5q-12 -45 -14 -89t7 -78.5t29 -54.5t53 -17zM212 221q-10 -17 -18 -35t-14 -38q23 14 46 45t53 83q24 41 33 64.5t10 28.5q-11 10 -36.5 -26.5t-73.5 -121.5z" />
    <glyph glyph-name="f_swsh" unicode="f&#x23;" horiz-adv-x="275" 
d="M295 400l-242 -501q11 -3 20.5 -6.5t19.5 -7.5q72 -27 126 -32.5t96.5 7t76.5 40.5t66 69l59 -40q19 -21 28 -42.5t10.5 -42t-3 -39t-11.5 -32.5q-21 -30 -53.5 -40.5t-86.5 -0.5t-134.5 39.5t-197.5 79.5q-10 5 -20.5 9.5t-21.5 8.5q-23 -20 -49.5 -29t-52.5 -9t-49 7.5
t-39 18.5t-22.5 24t1.5 26q14 26 63 26l229 467h-31l22 39h33q24 62 57.5 99t74.5 56q12 6 33 10.5t45 5.5t48 -3t44 -15q18 -11 27.5 -22.5t12.5 -22.5t0.5 -20t-8.5 -13q-9 -6 -20 -4.5t-20 9.5t-13.5 21.5t0.5 31.5q-23 -2 -33 -15t-22 -33q-12 -19 -22 -42t-18 -43h30
l-21 -39h-32z" />
    <glyph glyph-name="g_swsh" unicode="g&#x23;" horiz-adv-x="471" 
d="M122 -168q-32 -5 -64.5 -2t-54.5 12t-29 22.5t12 31.5q14 14 42.5 18t66.5 -1q7 10 15 22.5t16 28.5l50 97l26 42h-4l-23 -23q-20 -20 -35.5 -25.5t-35.5 -7.5q-47 -1 -72.5 20.5t-32.5 55t3.5 73t34.5 75.5q30 46 68 75.5t79.5 42.5t84.5 10t83 -23q17 -9 38 -13.5
t43.5 -4.5t45 4t40.5 11l-177 -344q-27 -53 -52 -90t-53 -60l25 -9q72 -27 126 -32.5t96.5 6.5t76.5 40.5t66 69.5l59 -40q19 -21 28 -42.5t10.5 -42.5t-3 -39.5t-11.5 -32.5q-21 -30 -53.5 -40t-86.5 0t-134.5 39t-197.5 79q-10 6 -20.5 10.5t-21.5 8.5q-16 -7 -36.5 -13.5
t-37.5 -8.5zM165 108q8 0 17.5 7.5t21.5 25.5t27.5 46.5t35.5 70.5l54 109q-26 -3 -49.5 -30.5t-60.5 -89.5q-25 -41 -37 -68t-15 -43t-0.5 -22t6.5 -6z" />
    <glyph glyph-name="h_swsh" unicode="h&#x23;" horiz-adv-x="478" 
d="M202 124q3 5 9 15.5t12.5 22t12.5 22.5t10 17q26 43 41 69t22 41t7 21t-3 9q-9 2 -19 -4t-25 -27t-37.5 -60t-56.5 -103l-70 -147h-191l284 595q19 -3 44.5 -2.5t52.5 3t54 6.5t48 8l-99 -206l-55 -64l3 -3q42 43 91 58.5t88 5.5q20 -5 36.5 -17t23.5 -31q6 -15 5 -30
t-7 -31.5t-16.5 -36t-22.5 -44.5q-2 -3 -9 -15.5t-15 -27t-15 -27t-9 -16.5q-21 -42 -35 -72.5t-21.5 -54t-8 -41t5.5 -34.5q7 -17 23 -24t37.5 -7t48 5.5t54.5 11.5q125 24 210 35.5t140.5 8.5t85 -20.5t43.5 -51.5q4 -16 4.5 -36t-5.5 -40.5t-20 -40.5t-38 -36l-66 -28
q-21 48 -48.5 83.5t-66.5 57.5t-93.5 29.5t-129.5 -1.5q-47 -6 -92 -7t-83.5 1.5t-68.5 9t-46 17.5q-55 31 -60.5 92t36.5 142z" />
    <glyph glyph-name="i_swsh" unicode="i&#x23;" horiz-adv-x="255" 
d="M-60 63q5 11 17.5 35.5t27 52.5t27.5 53.5t19 38.5l69 138q22 -2 48.5 -1t53.5 3t52 6.5t46 10.5l-169 -337h-191zM354 485q-12 -21 -29.5 -36t-38.5 -22.5t-43 -6.5t-42 10q-44 23 -55.5 63t12.5 84q11 21 28.5 34.5t38.5 20t43 5t42 -10.5q41 -23 52.5 -62.5
t-8.5 -78.5zM131 63q-32 -63 -44.5 -105t-10.5 -68t17 -38t38.5 -14.5t53.5 2t63 11.5q125 24 210 36t140.5 9t85 -20.5t43.5 -51.5q4 -17 4.5 -36.5t-5 -40t-19.5 -40.5t-38 -36l-67 -28q-21 47 -48 83t-66 58t-93.5 29.5t-129.5 -1.5q-47 -6 -92.5 -6.5t-84 3t-68.5 10.5
t-46 18q-23 15 -37 39t-18.5 54t0.5 64t21 69h191z" />
    <glyph glyph-name="j_swsh" unicode="j&#x23;" horiz-adv-x="247" 
d="M100 381q24 -2 50.5 -1t53 3t51.5 6.5t45 10.5l-197 -393q-17 -32 -31.5 -56.5t-29.5 -44.5q17 -5 35.5 -11t35.5 -13q72 -27 126 -32.5t96.5 6.5t76.5 40.5t66 69.5l59 -41q19 -20 28 -42t10.5 -42.5t-3 -39t-11.5 -32.5q-21 -30 -53.5 -40t-86.5 -0.5t-134.5 39
t-197.5 79.5q-17 10 -36.5 16.5t-38.5 10.5l-15 -13q-7 -5 -12.5 -9t-13.5 -8q-53 -24 -89 -22.5t-54.5 16t-20 36t15.5 37.5q15 15 53 18q7 17 16 38.5t22 47.5zM354 485q-12 -21 -29.5 -36t-38.5 -22.5t-43 -6.5t-42 10q-44 23 -55.5 63t12.5 84q11 21 28.5 34.5t38.5 20
t43 5t42 -10.5q41 -23 52.5 -62.5t-8.5 -78.5z" />
    <glyph glyph-name="k_swsh" unicode="k&#x23;" horiz-adv-x="456" 
d="M198 595q20 -3 45.5 -2.5t52.5 3t53 6t48 8.5l-191 -399l-33 -31l2 -4q31 23 59.5 51t49 57.5t31 57.5t6.5 51q27 11 55.5 16t52 1t39.5 -17t18 -38q2 -24 -11 -43t-38 -33t-59.5 -23t-74.5 -12l-7 -4q33 5 57.5 -4.5t29.5 -31.5q3 -17 0.5 -32t-8 -28.5t-13 -26.5
t-13.5 -28q-20 -42 -28.5 -74t-9.5 -56t4 -42t12 -31q15 -26 54.5 -30.5t86.5 6.5q125 24 209.5 36.5t139 11.5t83.5 -18t43 -51q4 -16 4.5 -36t-5.5 -40t-20 -40t-38 -36l-66 -28q-21 47 -48.5 82.5t-66.5 57.5t-93.5 30t-129.5 -1q-47 -6 -91 -6t-81 5.5t-64 15.5t-40 25
q-30 36 -40.5 79.5t3.5 108.5q6 22 15 42.5t16.5 36t10 25.5t-5.5 13q-1 -1 -3 -1l-20 -22h-1l-13 -23l-61 -129h-191z" />
    <glyph glyph-name="l_swsh" unicode="l&#x23;" horiz-adv-x="265" 
d="M-35 108q6 13 21 43.5t42.5 86.5t70 142t103.5 211q23 -2 49.5 -1.5t53 2.5t51.5 6.5t46 11.5l-247 -502q-53 -104 -64 -165t25 -84q22 -15 61.5 -9.5t84.5 14.5q125 24 210 35.5t140.5 8.5t85.5 -20.5t44 -51.5q4 -17 4.5 -36.5t-5.5 -40t-20 -40.5t-38 -36l-67 -28
q-21 48 -48 83.5t-66 57.5t-93.5 29.5t-129.5 -1.5q-47 -6 -93 -7t-85.5 2t-70 10.5t-45.5 19.5q-23 18 -38.5 42t-20 56t4 72t34.5 89z" />
    <glyph glyph-name="m_swsh" unicode="m&#x23;" horiz-adv-x="683" 
d="M231 201q5 12 18 33.5t25.5 43.5t20.5 40t4 23q-8 3 -15.5 -3t-19.5 -25.5t-31.5 -57t-51.5 -97.5l-76 -158h-191l184 385q17 -5 40.5 -4.5t50 3.5t54 7t51.5 8l-48 -49l2 -6q37 39 80.5 52.5t81.5 4.5q17 -5 34 -14t27 -23l-25 -47l2 -4q36 55 84 75.5t93 15.5
q23 -3 39 -15.5t21 -35.5q4 -19 3 -34.5t-6 -31.5t-15 -34t-24 -42q-1 -3 -12 -23.5t-23.5 -45t-24 -45.5t-13.5 -24q-24 -48 -37 -83t-16.5 -60.5t0.5 -42t15 -25.5q21 -17 61.5 -13t90.5 15q125 24 210 35.5t140.5 8.5t85 -20.5t43.5 -51.5q4 -17 4.5 -36.5t-5.5 -40
t-20 -40.5t-38 -36l-67 -28q-21 47 -48 83t-66 58t-93.5 29.5t-129.5 -1.5q-47 -6 -92.5 -6.5t-84 3t-68 11t-45.5 18.5q-24 15 -38 39.5t-18 54.5t2 63t21 66q3 6 12.5 24t21 39t21.5 39.5t14 25.5q25 44 39.5 70t22 40.5t8 20.5t-2.5 9q-8 1 -14.5 -4.5t-16 -23.5
t-25.5 -50t-43 -83l-89 -180h-191zM297 402v-2q-1 0 -1.5 -0.5t-1.5 -0.5z" />
    <glyph glyph-name="n_swsh" unicode="n&#x23;" horiz-adv-x="478" 
d="M377 88q-26 -51 -38.5 -88t-14.5 -62.5t5.5 -41t22.5 -22.5q24 -12 61 -7.5t79 13.5q125 24 210 36t140.5 9t85 -21t43.5 -52q4 -16 4.5 -36t-5.5 -40t-20 -40t-38 -36l-66 -28q-21 47 -48.5 82.5t-66.5 57.5t-93.5 30t-129.5 -1q-47 -6 -92 -6.5t-83.5 3t-68.5 10.5
t-46 18q-60 35 -66 91.5t32 129.5q3 5 11.5 21.5t18.5 35t19 35t13 22.5q26 43 41 69t22 41t7 21t-3 9q-8 2 -18 -4t-24.5 -25.5t-36 -55.5t-52.5 -96l-77 -160h-191l184 385q17 -5 40.5 -4.5t50.5 3.5t54.5 7t51.5 8l-49 -52l3 -7q41 42 89 56.5t87 4.5q20 -5 36.5 -17
t23.5 -31q6 -15 5 -30t-7 -31.5t-16.5 -36t-22.5 -44.5q-2 -3 -12 -21t-21.5 -39.5t-21.5 -40t-12 -22.5zM297 402v-2q-1 0 -2 -1z" />
    <glyph glyph-name="o_swsh" unicode="o&#x23;" 
d="M293 400q48 0 84.5 -16.5t58 -45t27 -66t-9.5 -78.5q-29 -79 -92 -132t-157 -62q6 -18 16.5 -33t27.5 -26q27 -14 64.5 -17t86.5 -3q90 -6 152.5 -12.5t102 -19t58.5 -34t22 -56.5q2 -24 -9.5 -52t-32 -51t-48 -37t-57.5 -11h-83q3 16 10.5 37.5t13.5 45t6 47.5
t-11.5 44.5t-39.5 35.5t-78 21q-95 10 -144.5 33.5t-70.5 54.5q-5 8 -9 16l-8 16h-2q-61 0 -98.5 21t-55.5 53t-19 71.5t12 75.5q13 37 39.5 69.5t63.5 57t83 39t97 14.5zM316 373q-15 0 -33.5 -24.5t-38.5 -58.5q-9 -21 -18.5 -47t-16.5 -54.5t-11.5 -58.5t-4.5 -58
q18 27 35.5 62.5t33.5 67.5q13 28 27.5 58.5t24 55.5t11.5 41t-9 16zM147 28q6 0 14 6q-10 41 -9.5 85.5t5.5 83.5q-12 -30 -19.5 -61t-9.5 -56.5t2.5 -41.5t16.5 -16z" />
    <glyph glyph-name="p_swsh" unicode="p&#x23;" horiz-adv-x="483" 
d="M99 385q19 -4 44 -4t51 2.5t51.5 7t45.5 9.5l5 -1l-45 -48l4 -5l25 24q9 10 16.5 14.5t15.5 7t16 4t18 4.5q44 3 74 -15t42 -52t4 -81t-41 -102q-46 -77 -109 -115.5t-126 -35.5q5 -14 14.5 -25.5t23.5 -18.5q31 -16 66.5 -15t86.5 7q90 4 155 1.5t108.5 -14.5t67 -34.5
t30.5 -56.5q4 -24 -7 -50t-31.5 -47.5t-48.5 -35t-58 -13.5l-83 -8q5 16 12 38.5t10.5 46.5t0 47t-18.5 42t-45.5 30.5t-81.5 11.5q-47 0 -79.5 4.5t-53.5 11.5t-33.5 14.5t-19.5 12.5q-29 25 -42 53q-28 7 -50 19l-82 -166q-23 1 -49.5 1t-52.5 -1t-50 -3.5t-43 -5.5z
M293 349q-16 -5 -28 -18t-26 -40q-7 -16 -16.5 -41.5t-18.5 -56t-15.5 -63t-7.5 -63.5q20 24 37.5 55t28.5 52q48 87 61 134t-15 41zM123 37q13 -4 29 5q-5 38 2 84.5t24 104.5l-5 2z" />
    <glyph glyph-name="q_swsh" unicode="q&#x23;" horiz-adv-x="493" 
d="M309 -82l41 -15q72 -26 126 -31.5t96.5 6.5t77 40t66.5 69l58 -40q20 -20 29 -42t10.5 -42.5t-3.5 -39t-12 -32.5q-21 -30 -53.5 -40.5t-86.5 -0.5t-134.5 39.5t-197.5 79.5q-10 5 -20.5 9.5t-21.5 8.5q-35 -31 -76.5 -36t-75 5.5t-52.5 30t-7 38.5q11 24 60 26l28 57
l52 84h-5l-19 -25q-26 -35 -47.5 -49.5t-50.5 -19.5q-40 -2 -66.5 17.5t-35.5 54t1.5 81t45.5 99.5q33 49 71.5 83.5t79.5 51.5t82.5 15.5t80.5 -23.5q18 -10 40.5 -14.5t46.5 -4.5t47.5 4t43.5 11zM158 69q8 1 21 17.5t29.5 43.5t35.5 64t40 80l42 87q-12 3 -26.5 -10
t-30 -34t-30.5 -45.5t-28 -45.5q-28 -45 -43 -76t-20 -49t-2 -25.5t12 -6.5z" />
    <glyph glyph-name="r_swsh" unicode="r&#x23;" horiz-adv-x="327" 
d="M121 397q55 12 91 10t59 -12t34.5 -26t17.5 -33q7 -28 1.5 -51.5t-20 -49.5t-36 -57.5t-45.5 -75.5q-21 -44 -36.5 -74.5t-23 -53.5t-6 -40t12.5 -33q7 -11 20.5 -15.5t32 -3.5t41 5t46.5 10q125 24 210 35.5t140.5 8.5t85 -20.5t43.5 -51.5q4 -16 4.5 -36t-5.5 -40.5
t-20 -40.5t-38 -36l-66 -27q-21 47 -48.5 82.5t-66.5 57.5t-93.5 29.5t-129.5 -1.5q-47 -5 -92 -5.5t-83.5 3t-68.5 10.5t-46 18q-60 35 -66 91.5t32 129.5q10 28 34.5 62.5t49 68t42 62.5t14.5 46q-2 8 -4.5 13.5t-12.5 6.5l-5 -3q-5 -15 -17 -42t-27 -57.5t-31 -59
t-27 -45.5l-23 13q16 29 29 52.5t23.5 45t20.5 44t20 49.5q-8 5 -10.5 14.5t-2.5 22.5h46z" />
    <glyph glyph-name="s_swsh" unicode="s&#x23;" horiz-adv-x="368" 
d="M263 411q21 0 36.5 -6.5t24 -16.5t9.5 -20.5t-6 -17.5q-8 -7 -17.5 -6.5t-19.5 6.5t-18.5 15.5t-12.5 19.5q-7 -7 -9.5 -13.5t-2.5 -14.5t0.5 -18t0.5 -22q-1 -37 4 -66.5t10.5 -56.5t9 -54t0.5 -60q-11 -39 -45 -69q17 -11 32 -23q61 -47 111.5 -68t95 -21.5t85 17
t82.5 47.5l44 -55q13 -26 15.5 -49.5t-2 -44t-14 -37t-20.5 -28.5q-29 -23 -63 -23t-83 25t-118 77t-167 134q-14 15 -30 27q-39 -22 -84 -22q-34 0 -60 8t-40 20.5t-14.5 27.5t17.5 28q25 17 77 11v1q6 21 4 41.5t-6.5 41.5t-8.5 41.5t-2 40.5l29 74l-3 1q-8 -15 -19 -34.5
t-23 -40t-23.5 -39.5t-21.5 -33l-23 13q19 32 39.5 64t38.5 64q15 27 33 48.5t40.5 35.5t51 22t66.5 8zM76 39q-17 2 -31 0t-17 -7q14 -7 26.5 -4.5t21.5 11.5z" />
    <glyph glyph-name="t_swsh" unicode="t&#x23;" horiz-adv-x="254" 
d="M299 400l-154 -315q-24 -47 -37 -82t-17 -60t0 -41.5t15 -25.5t27.5 -12.5t36.5 -2.5t43.5 5t48.5 9q125 24 210 35.5t140.5 9t85.5 -20.5t44 -52q4 -16 4.5 -36t-5.5 -40t-20 -40t-38 -36l-67 -28q-21 47 -48 82.5t-66 57.5t-93.5 30t-129.5 -1q-47 -6 -93 -7t-85.5 2.5
t-69.5 11t-46 18.5q-45 31 -53.5 92.5t23.5 131.5q5 11 15 31t27 56t44 91.5t67 136.5h-39l22 39h36l52 106q23 -2 49 -1.5t52.5 2.5t52 6.5t46.5 11.5l-61 -125h45l-21 -39h-43z" />
    <glyph glyph-name="u_swsh" unicode="u&#x23;" horiz-adv-x="483" 
d="M198 79q-39 -44 -75.5 -61.5t-68.5 -17.5q-29 0 -49 11t-30 31.5t-8 47.5t17 59l115 232q22 -2 48 -1.5t53 2.5t52.5 6.5t46.5 11.5l-126 -254q-41 -74 -14 -71q2 3 16.5 19t46.5 67l38 82l75 150q45 -2 95.5 0t98.5 7l-125 -252q-24 -48 -44 -91t-30.5 -78.5t-8.5 -63
t20 -43.5q10 -9 26 -12t36 -1.5t42.5 5.5t46.5 9q125 24 210 37t140.5 12t85 -17.5t43.5 -50.5q4 -16 4.5 -36t-5.5 -40.5t-20 -40.5t-38 -36l-67 -28q-21 48 -48 83.5t-66 57.5t-93.5 29.5t-129.5 -1.5q-47 -6 -90.5 -9t-81 -1t-67.5 10.5t-51 26.5q-43 35 -48 80t16 104
l2 1l16 27z" />
    <glyph glyph-name="v_swsh" unicode="v&#x23;" horiz-adv-x="454" 
d="M117 34q11 -11 30 5t41 49t43 78t35 93q11 33 18.5 65.5t9.5 64.5q49 19 84.5 16.5t55 -21.5t22.5 -51.5t-12 -73.5q-20 -55 -63.5 -109t-100.5 -92q2 -41 18 -74t46 -51q35 -23 74 -29t96 6q172 21 264 4.5t110 -83.5q2 -16 -2.5 -33.5t-13 -33.5t-20.5 -28t-25 -17
l-82 -10q-2 12 -5 29t-10.5 35.5t-21 37t-37 32.5t-58.5 21.5t-86 5.5q-48 -3 -82 -0.5t-59 10t-42.5 19t-30.5 24.5q-26 28 -40 58t-20 60q-34 -20 -69 -31.5t-69 -11.5q-47 0 -75.5 17t-42 43t-13 57t12.5 60l102 206q48 -3 98.5 2t89.5 17l-148 -300q-10 -21 -14 -33
t-5.5 -18t-1.5 -9t-1 -6z" />
    <glyph glyph-name="w_swsh" unicode="w&#x23;" horiz-adv-x="653" 
d="M326 34q5 -8 18.5 6.5t32 45.5t41 76t45.5 97q13 32 25.5 67t23.5 66q47 17 77.5 13.5t45 -22.5t13.5 -51t-16 -73q-13 -37 -36 -74.5t-53 -70.5q-9 -56 6 -106t55 -75q35 -23 74 -29t96 6q172 21 264 4.5t109 -83.5q2 -16 -2 -33.5t-12.5 -33.5t-20.5 -28t-25 -17
l-82 -10q-2 12 -5 29t-10.5 35.5t-21 37t-37 32.5t-58.5 21.5t-86 5.5q-48 -3 -82 -0.5t-59 10t-42.5 19t-30.5 24.5q-35 37 -49 77.5t-17 78.5q-42 -36 -88.5 -58.5t-94.5 -22.5q-60 0 -91.5 26t-39.5 63q-17 -26 -33.5 -43t-33 -27t-34 -13.5t-35.5 -3.5q-29 0 -49.5 11.5
t-31 31.5t-9 47t16.5 59l115 232q45 -4 94 0.5t91 18.5l-126 -254q-12 -22 -16.5 -36t-3.5 -21.5t5.5 -8.5t9.5 2q9 7 16 25.5t27 56.5q1 3 2 5.5t3 5.5l102 206q48 -3 98.5 2t90.5 17l-148 -300q-10 -21 -13.5 -33t-4.5 -18t0 -9t0 -6z" />
    <glyph glyph-name="x_swsh" unicode="x&#x23;" horiz-adv-x="382" 
d="M177 -40q-26 16 -45 41t-29.5 52.5t-13.5 54t3 46.5q-14 -6 -20 -16.5t-6.5 -23.5t2.5 -28t7 -28q5 -25 13.5 -38t16.5 -23q-20 -14 -41.5 -20.5t-41.5 -5t-36 10t-24 24.5q-11 19 -7.5 38t15 37t29 34t35 29.5t33 23.5t23.5 15q2 27 6.5 55t6.5 51l1.5 6l3.5 14t3.5 17
t0.5 15q-8 -18 -19.5 -43t-24 -51t-25.5 -50t-25 -41l-23 13q18 33 32.5 60.5t27 54t24 55t23.5 63.5q28 7 56.5 6.5t52.5 -10.5t39.5 -29t17.5 -48q1 -15 0 -29.5t-4 -31.5q17 19 21.5 38.5t2 39t-8 37.5t-9.5 33q17 11 45.5 21t55.5 10t47 -14t20 -50q-2 -17 -12.5 -36.5
t-32 -39.5t-53.5 -38.5t-77 -31.5q-11 -61 -13.5 -102.5t2 -69t14.5 -44t24 -27.5q31 -23 73.5 -23t87.5 11q125 24 210 35.5t140.5 8.5t85 -20.5t43.5 -51.5q4 -16 4.5 -36t-5 -40.5t-19.5 -40.5t-38 -36l-67 -28q-21 48 -48 83.5t-66 57.5t-93.5 29.5t-129.5 -1.5
q-47 -6 -92.5 -6.5t-84 3.5t-68.5 11t-46 18z" />
    <glyph glyph-name="y_swsh" unicode="y&#x23;" horiz-adv-x="498" 
d="M178 106q6 2 13 10.5t21 31.5l3 5l121 240q48 -3 98 -0.5t96 7.5l-171 -340q-17 -34 -37 -66t-44 -61q17 -5 35.5 -11t35.5 -13q71 -27 125 -32.5t97 7t77 40.5t66 69l59 -40q19 -21 28 -42.5t10.5 -42t-3 -39t-11.5 -32.5q-21 -30 -53.5 -40.5t-86.5 -0.5t-134.5 39.5
t-197.5 79.5q-18 10 -37.5 16.5t-38.5 10.5q-18 -16 -39 -31q-52 -25 -88 -23.5t-55 16.5t-21 36.5t15 37.5q9 9 25.5 13.5t39.5 5.5l45 92l26 36h-4q-31 -29 -59.5 -41.5t-55.5 -14.5q-29 -2 -51 9.5t-33.5 32t-11 48t16.5 59.5l100 203q23 -2 50 -1t54 3t51.5 6.5
t44.5 10.5l-111 -225q-18 -34 -22.5 -52.5t12.5 -16.5z" />
    <glyph glyph-name="z_swsh" unicode="z&#x23;" horiz-adv-x="382" 
d="M421 372l-441 -371q28 12 54 18t53 3t55 -16t60 -37q60 -47 108 -71.5t90 -29.5t80.5 9t80.5 44l44 -55q13 -26 15.5 -49.5t-2 -44t-14 -37t-20.5 -28.5q-24 -19 -55 -25.5t-69.5 4t-84.5 40.5t-98 83q-21 24 -44.5 52t-49.5 54t-56.5 46t-66.5 28q-9 0 -24.5 -0.5
t-33.5 -3.5t-37.5 -9.5t-36.5 -17.5l-12 24l385 326l-5 7q-8 -5 -20.5 -14t-27 -17.5t-28 -15.5t-23.5 -9q-15 -3 -29.5 0.5t-27 8t-24 8t-21.5 -0.5q-11 -4 -17 -12.5t-13 -22.5t-18 -35t-30 -49l-23 13q19 28 37.5 65.5t40 72.5t47.5 61.5t59 31.5q22 4 40.5 1.5t35 -6.5
t32.5 -8.5t34.5 -5.5t40 2.5t49.5 16.5z" />
    <glyph glyph-name="b_swsh2" unicode="b&#x25;" horiz-adv-x="501" 
d="M159 599q11 -5 22.5 -9t22.5 -7q21 22 46.5 32.5t51 12.5t49.5 -3.5t40.5 -15t24 -22t1.5 -25.5q-11 -24 -55 -29l-72 -147l-40 -52l2 -2l27 28q24 28 43 34t46 6q36 0 62 -18.5t35.5 -51.5t1 -79t-41.5 -101q-9 -16 -19 -29.5t-21 -26.5q34 5 66.5 29t55.5 66l24 -14
q-35 -59 -82.5 -86t-96.5 -28q-31 -27 -65.5 -43.5t-70.5 -21.5t-72 2.5t-69 29.5q-8 6 -21 19t-27 29.5t-26.5 34t-19.5 32.5l200 408l-43 12q-74 21 -143 23.5t-127.5 -12t-104 -46t-70.5 -77.5l-60 35q-5 20 -6 41t1 41.5t8 38.5t17 31q26 27 63 39t95 8t142.5 -25
t205.5 -61zM311 349q-14 0 -26.5 -10.5t-26.5 -32.5t-31 -56t-40 -82l-70 -142q12 0 28 13t33 34t34.5 47.5t34.5 53.5q48 82 64 128.5t0 46.5z" />
    <glyph glyph-name="d_swsh2" unicode="d&#x25;" horiz-adv-x="491" 
d="M243 599q65 -16 106.5 -24t73.5 -10q20 25 46 38t52.5 17t51 0.5t42 -12t25.5 -21t1 -25.5q-5 -12 -12.5 -19t-23.5 -10q-16 -32 -35.5 -70.5t-40 -78.5t-39.5 -78.5t-35 -70t-26.5 -53t-13.5 -27.5q-22 -43 -29.5 -64t3.5 -21q3 0 12.5 5t24 18t32.5 36.5t39 59.5
l24 -14q-19 -28 -41 -59t-50.5 -57t-65.5 -43t-86 -17q-14 0 -27 2.5t-24.5 9.5t-19 18.5t-10.5 28.5l17 37h-3l-9 -13q-30 -43 -56 -62.5t-63 -19.5q-35 0 -59.5 20t-32.5 54.5t2 79.5t43 96q33 49 70.5 82t77 50t79.5 18.5t76 -11.5l73 151q-41 5 -88 12.5t-101 19.5
q-45 11 -98 15t-108 0.5t-108.5 -13.5t-99.5 -27t-80.5 -41t-51.5 -55l-61 35q-8 40 -3.5 82.5t24.5 69.5q38 38 90.5 48t125 0.5t169 -33.5t221.5 -54zM149 60q10 0 23 16t28.5 43t34 63t39.5 76l56 109q-11 -1 -25.5 -14t-30.5 -33.5t-32.5 -45t-30.5 -48.5
q-51 -84 -62.5 -125t0.5 -41z" />
    <glyph glyph-name="f_swsh2" unicode="f&#x25;" horiz-adv-x="275" 
d="M295 400l-266 -549q-20 3 -45 2.5t-51.5 -3t-53 -6.5t-48.5 -8l277 564h-31l22 39h33q17 44 38.5 75t47.5 52q-74 21 -155.5 23.5t-155 -12t-131.5 -45t-83 -76.5l-60 35q-5 19 -6 40.5t1 42t8 38.5t17 31q52 52 199.5 46t389.5 -85l21 -11l1 1q38 18 70.5 21t56.5 -3.5
t37.5 -20.5t13.5 -30q0 -13 -17 -25.5t-42 -12.5q-17 -1 -35 2q-6 -21 -14.5 -44t-15.5 -42h30l-21 -39h-32zM414 563q1 9 -4 13t-14 3.5t-19 -7t-18 -19.5q19 -5 33 -3t22 13z" />
    <glyph glyph-name="h_swsh2" unicode="h&#x25;" horiz-adv-x="482" 
d="M156 599q11 -5 22.5 -9t22.5 -7q21 22 46.5 32.5t51 12.5t49.5 -3.5t40.5 -15t24 -22t1.5 -25.5q-11 -24 -55 -29l-61 -129l-55 -64l3 -3q42 43 91 58.5t88 5.5q20 -5 36.5 -17t23.5 -31q6 -15 5 -30t-7 -31.5t-16.5 -36t-22.5 -44.5q-10 -21 -27 -46t-31 -46t-20 -35.5
t7 -14.5q7 0 22 11.5t31.5 29.5t33 39t28.5 40l24 -14q-18 -25 -39.5 -55.5t-49 -57t-60.5 -44.5t-73 -18t-68.5 20.5t-30.5 55.5q-1 26 15.5 56.5t39.5 68.5q26 43 41 69t22 41t7 21t-3 9q-9 2 -19 -4t-25 -27t-37.5 -60t-56.5 -103l-70 -147h-191l263 551l-42 12
q-74 21 -143 23.5t-127.5 -12t-104 -46t-70.5 -77.5l-60 35q-5 20 -6 41t1 41.5t8 38.5t17 31q26 27 63 39t95 8t142.5 -25t205.5 -61z" />
    <glyph glyph-name="i_swsh2" unicode="i&#x25;" horiz-adv-x="255" 
d="M354 485q-12 -21 -29.5 -36t-38.5 -22.5t-43 -6.5t-42 10q-44 22 -55.5 62t11.5 83q-13 -3 -24 -8q-121 -40 -205.5 -61t-142.5 -25t-95 8t-63 39q-21 26 -24.5 69t4.5 83l61 35q25 -46 70 -77.5t103.5 -46t127.5 -12t143 23.5q27 8 48.5 16t41 14t38 8.5t39.5 -0.5
q15 -2 31 -10t29.5 -21.5t21.5 -32t5 -42.5q0 -26 -12 -50zM-37 83q4 32 24.5 72.5t43.5 87.5l69 138q22 -2 48.5 -1t53.5 3t52 6.5t46 10.5l-125 -252q-20 -38 -27 -58t2 -20q3 0 12.5 5t24 18t33.5 36t40 60l24 -14q-15 -23 -37 -53t-52 -57.5t-68 -46.5t-84 -19
q-17 0 -33 5t-27.5 15t-17 26t-2.5 38z" />
    <glyph glyph-name="j_swsh2" unicode="j&#x25;" horiz-adv-x="247" 
d="M100 381q24 -2 50.5 -1t53 3t51.5 6.5t45 10.5l-186 -371q-8 -15 -14.5 -28t-13.5 -24q46 44 91 101t76 111l24 -13q-25 -41 -57.5 -84.5t-66 -82.5t-66.5 -69t-60 -42l-17 -15q-19 -15 -42 -25t-48.5 -13t-52 1t-52.5 17q-16 8 -27.5 22t-17 29.5t-2.5 29t15 20.5
q12 6 22.5 1.5t18 -16t10 -30t-2.5 -40.5q17 -1 25.5 6.5t16.5 25.5t19.5 48.5t34.5 76.5zM354 485q-12 -21 -29.5 -36t-38.5 -22.5t-43 -6.5t-42 10q-44 22 -55.5 62t11.5 83q-13 -3 -24 -8q-121 -40 -205.5 -61t-142.5 -25t-95 8t-63 39q-21 26 -24.5 69t4.5 83l61 35
q25 -46 70 -77.5t103.5 -46t127.5 -12t143 23.5q27 8 48.5 16t41 14t38 8.5t39.5 -0.5q15 -2 31 -10t29.5 -21.5t21.5 -32t5 -42.5q0 -26 -12 -50z" />
    <glyph glyph-name="k_swsh2" unicode="k&#x25;" horiz-adv-x="450" 
d="M156 599q11 -5 22.5 -9t22.5 -7q21 22 46.5 32.5t51 12.5t49.5 -3.5t40.5 -15t24 -22t1.5 -25.5q-12 -24 -54 -29l-154 -322l-33 -31l2 -4q31 23 59.5 51t49 57.5t31 57.5t6.5 51q27 11 55.5 16t52 1t39.5 -17t18 -38q2 -24 -11 -43t-38 -33t-59.5 -23t-74.5 -12l-7 -4
q33 5 57.5 -4.5t29.5 -31.5q3 -17 1 -32t-7.5 -28.5t-13 -27t-14.5 -27.5q-5 -8 -2 -11.5t8 -4.5q8 0 21 11.5t27 29t28 38t25 37.5l24 -14q-19 -27 -41 -58t-48 -57t-58 -43t-72 -17q-34 0 -58.5 17t-26.5 52q-2 18 5 36t14.5 32.5t11.5 24.5t-4 13q-1 -1 -3 -1l-20 -22h-1
l-13 -23l-61 -129h-191l263 551l-42 12q-74 21 -143 23.5t-127.5 -12t-104 -46t-70.5 -77.5l-60 35q-5 20 -6 41t1 41.5t8 38.5t17 31q26 27 63 39t95 8t142.5 -25t205.5 -61z" />
    <glyph glyph-name="l_swsh2" unicode="l&#x25;" horiz-adv-x="254" 
d="M160 599q11 -5 22.5 -9t23.5 -7q21 22 46.5 32.5t51 12t49 -3.5t40.5 -14.5t24 -22t1 -25.5q-10 -25 -54 -30l-189 -384q-42 -85 -20 -78q4 2 13 7.5t22.5 18t31 35t38.5 58.5l24 -14q-13 -20 -33.5 -49.5t-50.5 -58t-70 -48.5t-91 -20q-15 0 -30 4.5t-26 14.5t-17 26
t-3 39q3 32 24 72.5t44 87.5l151 308l-42 12q-74 21 -143 23.5t-127.5 -12t-104 -46t-70.5 -77.5l-61 35q-4 20 -5.5 41t1 41.5t8 38.5t16.5 31q26 27 63 39t95 8t142.5 -25t205.5 -61z" />
    <glyph glyph-name="t_swsh2" unicode="t&#x25;" horiz-adv-x="254" 
d="M-36 83q3 32 23.5 72.5t43.5 87.5l77 157h-39l22 39h37l55 112q-24 5 -44 12q-74 21 -143 23.5t-127.5 -12t-104 -46t-70.5 -77.5l-60 35q-5 20 -6 41t1 41.5t8 38.5t17 31q26 27 63 39t95 8t142.5 -25t205.5 -61q11 -5 22.5 -9t22.5 -7q21 22 46.5 32.5t51 12.5
t49.5 -3.5t40.5 -15t24 -22t1.5 -25.5q-11 -24 -55 -29l-46 -94h46l-21 -39h-44l-123 -252q-20 -38 -25.5 -58t4.5 -20q3 0 12 4.5t22.5 17.5t31.5 36.5t40 60.5l24 -14q-18 -27 -39.5 -57.5t-50 -57t-64.5 -44t-83 -17.5q-17 0 -32.5 5t-27.5 15t-18.5 26t-4.5 38z" />
    <glyph glyph-name=".notdef" horiz-adv-x="500" 
 />
    <glyph glyph-name=".null" horiz-adv-x="0" 
 />
    <glyph glyph-name=".null" horiz-adv-x="0" 
 />
    <glyph glyph-name="nonmarkingreturn" unicode="&#xd;" horiz-adv-x="500" 
 />
    <glyph glyph-name="space" unicode=" " horiz-adv-x="256" 
 />
    <glyph glyph-name="N" unicode="N" horiz-adv-x="617" 
d="M216 440q18 39 36.5 66t39.5 39l53 19v8q-53 -3 -102 -35t-106 -105q-27 24 -39 51.5t-10.5 54t15 49.5t36.5 39q34 22 78.5 24.5t88.5 -8.5t83.5 -32t64.5 -46l6 -6l12 -258l-30 -162l1 -2q41 140 67.5 233.5t42 150.5t21 82.5t4.5 29.5q28 9 55 13t49.5 1.5t39.5 -12
t25 -26.5q7 -15 7.5 -29t-3 -27.5t-9.5 -26t-12 -24.5l-241 -501h-179v337l-64 -205l-56 -132q-18 3 -43 3t-52 -2.5t-54.5 -6.5t-49.5 -9z" />
    <glyph glyph-name="M" unicode="M" horiz-adv-x="804" 
d="M217 440q18 39 36.5 66t39.5 39l53 19v8q-53 -3 -102 -35t-106 -105q-27 24 -39 51.5t-10.5 54t15 49.5t36.5 39q34 22 78.5 24.5t88.5 -8.5t83.5 -32t64.5 -46l51 -51l-16 -118l-44 -71l6 -5l299 312q20 -4 48 -4t57 2t55 5t42 6l-251 -534q-20 -41 -25 -64t3 -41
q-29 -9 -56.5 -13t-50.5 -1.5t-40 11.5t-25 25q-7 15 -8 29.5t2 28t8 26t10 23.5l122 252l52 92l-6 2l-59 -79l-187 -299h-175l80 331h-3l-100 -276l-66 -153q-18 3 -41 3t-47.5 -2.5t-50 -6.5t-47.5 -9z" />
    <glyph glyph-name="L" unicode="L" horiz-adv-x="637" 
d="M726 400q-26 -48 -61.5 -70.5t-70.5 -25.5t-64 12t-41 44q21 14 41.5 44.5t37.5 61.5q11 22 20 44t13.5 40.5t5 32.5t-5.5 20q-8 6 -17 3t-18.5 -13t-19 -24t-18.5 -30q-30 -50 -56.5 -106.5t-51.5 -107t-51 -90t-56 -55.5q-26 -5 -56 -23q-1 -2 -2.5 -4.5t-2.5 -4.5
q14 8 28 12t34 9q19 4 44 1t50.5 -8t49.5 -9.5t42 -4.5q25 0 47 7.5t42 18.5q-1 -20 -6 -42t-15 -43.5t-25.5 -40t-38.5 -31.5q-16 -8 -34.5 -13t-40.5 -6q-24 -2 -49 4t-51.5 13.5t-55 14t-58.5 6.5q-21 -17 -44.5 -25.5t-46 -10t-43 3.5t-36.5 15q-37 21 -43 49.5t8.5 53
t45.5 41t69 14.5q5 -3 15.5 -5.5t23.5 -4.5q21 46 39 93.5t38.5 94t45 91t57.5 85.5q50 61 119.5 89t149.5 20q54 -7 85.5 -32t44.5 -59.5t7.5 -73.5t-24.5 -75z" />
    <glyph glyph-name="K" unicode="K" horiz-adv-x="570" 
d="M447 481q8 17 16 36.5t18.5 38.5t23.5 35.5t31 27.5q24 15 51 22t55 8t56 -4.5t53 -14.5v-30q-18 -5 -33 -12.5t-26 -21.5q-25 -29 -39 -59.5t-31 -73.5q-12 -32 -26 -53t-30.5 -34.5t-35.5 -21t-41 -11.5l-79 2l13 -9q38 -3 57 -11.5t30 -24.5q15 -23 17.5 -59t-9.5 -83
q-9 -34 -11 -54t0 -30.5t8 -12.5t13 1v-31q-29 -13 -59.5 -18.5t-58.5 -3.5t-51 12t-36 28q-16 22 -16.5 60t20.5 106q17 55 19 87.5t-23 45.5l-149 -318q-20 3 -44.5 3t-51.5 -2.5t-53.5 -6.5t-49.5 -9l224 454q18 38 36 65.5t41 40.5l53 19v8q-23 -2 -46.5 -9.5t-48.5 -23
t-53 -41.5t-61 -66q-27 24 -38.5 51.5t-10 54t15 50t36.5 38.5q34 22 78.5 24.5t88.5 -8.5t83.5 -32t64.5 -46l-97 -206q34 5 57 35t49 88z" />
    <glyph glyph-name="J" unicode="J" horiz-adv-x="529" 
d="M265 206q-33 -20 -56.5 -46.5t-38.5 -50.5q-12 -19 -21 -38t-13.5 -35t-3.5 -27.5t10 -15.5q16 -8 41.5 20.5t63.5 108.5l153 316q22 45 41 70t42 39l49 10v7q-81 -5 -146.5 -40.5t-121.5 -105.5q-27 24 -38.5 52.5t-9.5 56t16 52t39 39.5q34 22 80 25.5t95.5 -6.5
t99.5 -32t93 -50l-215 -465q-45 -100 -117 -133.5t-180 4.5q-46 17 -72.5 42t-39.5 53.5t-13.5 57t6.5 52.5q11 34 39.5 59t65.5 33t77 -3.5t75 -48.5z" />
    <glyph glyph-name="I" unicode="I" horiz-adv-x="329" 
d="M43 130q40 82 66 135t42 85t24 47.5t11.5 23t5 10t4.5 8.5q20 42 38.5 67t41.5 39l53 19v8q-24 -2 -47.5 -9.5t-49 -24t-53 -42.5t-58.5 -64q-27 24 -38.5 51.5t-10 54.5t14.5 50t36 38q34 22 78.5 24t88.5 -8.5t83.5 -31.5t64.5 -46l-214 -458q-20 -41 -25 -64t3 -41
q-29 -9 -56 -13t-50 -1.5t-40 11.5t-25 25q-7 13 -8 27.5t1.5 28t7.5 26.5t11 25z" />
    <glyph glyph-name="H" unicode="H" horiz-adv-x="620" 
d="M81 200l-11 -1l-61 83h112l78 157q18 38 36 65.5t41 40.5l53 19v8q-23 -2 -46.5 -9.5t-48.5 -23t-53 -41.5t-61 -66q-27 24 -38.5 51.5t-10 54t15 50t36.5 38.5q34 22 78.5 24.5t88.5 -8.5t83.5 -32t64.5 -46l-132 -282h119l168 349q20 -4 46 -4t52.5 1.5t51 5t42.5 6.5
l-251 -534q-20 -41 -25 -64t3 -41q-28 -9 -54.5 -13t-49 -1.5t-39.5 11.5t-26 25q-15 28 -8.5 56t17.5 51l49 102l-124 -13l-103 -219q-20 3 -44.5 3t-51.5 -2.5t-53.5 -6.5t-49.5 -9z" />
    <glyph glyph-name="G" unicode="G" 
d="M190 53q3 -1 10 -1l98 206q20 -3 45 -3t52 2.5t53 6.5t49 9l-169 -352q-20 3 -45 3t-51.5 -2.5t-53 -6.5t-49.5 -9l34 74l62 31q-25 -11 -52 -11q-75 0 -118 30.5t-61 78.5t-13 106t26 113q13 35 36 74.5t54.5 77t71.5 70.5t87 55.5t100.5 32.5t113.5 1q36 -5 62 -23
t40 -45t14 -61.5t-16 -72.5q-21 -52 -58 -82.5t-76.5 -39t-75.5 5.5t-56 51q35 26 61.5 52t44.5 49q16 21 27 43t16.5 41t5.5 33t-6 20q-12 10 -40.5 -5.5t-64.5 -53t-74 -94.5t-69 -129q-52 -120 -58 -192t43 -83z" />
    <glyph glyph-name="F" unicode="F" horiz-adv-x="485" 
d="M462 287l-88 -184q-21 -44 -52.5 -70.5t-67.5 -38.5t-73.5 -11t-71.5 10q-41 11 -68.5 31t-42.5 45t-17.5 52t6.5 52q18 44 51.5 65.5t70.5 20.5l-59 80h249l7 14q17 35 35.5 64.5t40.5 42.5l65 11v7q-45 2 -85 3t-76 -3.5t-69 -17t-64 -37.5q-21 24 -27.5 53.5t0.5 58.5
t25.5 54t47.5 39q27 12 64.5 15t80 1t89 -8.5t91.5 -12.5q35 18 61.5 21t55.5 -4q35 -8 52 -30.5t13.5 -47.5t-27.5 -47t-70 -31q-19 -3 -28 -4.5t-28 -2.5l-66 -138h113v-39zM215 187q-17 -8 -37 -31q-12 -13 -23.5 -30.5t-19 -35t-8.5 -32.5t7 -21q11 -12 23 11l108 222
l-139 -13q28 -5 51.5 -22t37.5 -48z" />
    <glyph glyph-name="E" unicode="E" horiz-adv-x="511" 
d="M456 87q-14 -14 -37 -29t-51 -27.5t-59 -21t-62 -9.5q-83 -6 -139 11.5t-87 49t-38 73t7 83.5q15 42 45.5 74t69 53t81.5 31t83 9l40 -7v9l-42 16q-37 24 -52 63t1 80q11 29 36.5 53t65.5 37.5t94 15t121 -13.5q36 -8 60.5 -26.5t37.5 -42t14.5 -49.5t-8.5 -48
q-21 -46 -54.5 -65t-67 -18t-62.5 18.5t-41 43.5q24 17 36.5 30t24.5 28q23 32 27 60t-8 40q-6 6 -17.5 7t-26 -6.5t-29 -26t-26.5 -53.5q-6 -17 -6 -38t6 -42t17 -39t28 -27l21 -22q-54 -8 -97 -18t-75.5 -27.5t-55.5 -43.5t-39 -65q-13 -32 -11.5 -58t13 -45.5t30.5 -30.5
t42 -12q26 -2 53 2.5t52.5 13.5t47.5 21.5t37 28.5v-40z" />
    <glyph glyph-name="D" unicode="D" horiz-adv-x="709" 
d="M195 289q-24 -23 -41 -47t-29 -54q-20 -51 -5 -91l218 451q20 -3 45.5 -2.5t52.5 3t53.5 6.5t47.5 8l-240 -496q-29 4 -69 2t-81 -8q16 -12 39 -19t55 -8q51 -3 91 16t74 56.5t62.5 93t56.5 126.5q22 53 35 101.5t13 86t-15 62t-48 30.5q-36 7 -72.5 2t-70 -20.5
t-62 -40.5t-47.5 -58q-20 -34 -31.5 -73.5t-11.5 -89.5q-46 -10 -78.5 3.5t-48.5 41t-14.5 63t23.5 70.5q24 38 65 68t96 48.5t123 24t146 -4.5q65 -9 106.5 -32.5t65 -55.5t32 -69.5t7 -75t-10 -72t-18.5 -59.5q-36 -89 -90 -147t-119.5 -90.5t-140 -41.5t-151.5 1
q-79 10 -132.5 33t-83.5 53t-37.5 64t6.5 67q13 35 37.5 57.5t56 31.5t68 5t72.5 -20z" />
    <glyph glyph-name="C" unicode="C" horiz-adv-x="451" 
d="M383 88q-42 -42 -93.5 -65t-99.5 -23q-77 0 -124.5 26t-69.5 71t-18.5 104.5t29.5 126.5q22 57 65 117.5t102.5 108t134.5 73t163 12.5q33 -6 58 -23t38.5 -42.5t14.5 -59.5t-13 -73q-20 -51 -56 -82t-75 -40.5t-75 3t-57 48.5q35 27 61 56t43 55q29 47 38.5 83t3.5 46
q-11 11 -40 -4.5t-65 -52.5t-74 -94.5t-66 -130.5q-51 -130 -49.5 -193.5t51.5 -74.5q22 -5 46 -1.5t46.5 13t43.5 24t37 31.5v-39z" />
    <glyph glyph-name="B" unicode="B" horiz-adv-x="694" 
d="M196 289q-23 -23 -41 -47.5t-29 -54.5q-5 -15 -6.5 -35.5t6.5 -42.5l212 439q20 -3 46 -2.5t53 3t53 6.5t47 8l-98 -202q29 5 63.5 30.5t61.5 75.5q28 51 13 89.5t-68 49.5q-36 9 -74 3.5t-73 -22t-64 -42t-47 -56.5q-21 -37 -31.5 -80.5t-8.5 -87.5q-45 -12 -78.5 1
t-51 40.5t-16.5 65t26 75.5q25 39 68.5 69.5t100.5 49t125 23.5t142 -5q63 -8 106.5 -25t69.5 -40t36.5 -51t6.5 -59q-3 -26 -15 -49t-30.5 -42.5t-42 -33.5t-48.5 -20h-76l14 -9q37 -2 62 -18t38 -41.5t13.5 -56.5t-11.5 -61q-17 -41 -53 -75.5t-90.5 -55t-129 -24
t-169.5 18.5q-83 17 -135.5 42.5t-81 54.5t-35 59.5t2.5 57.5q12 34 36.5 56.5t56.5 32.5t69 7t75 -19zM297 67q-28 4 -64.5 2t-74.5 -7q14 -11 34 -18.5t49 -9.5q31 -3 62 4.5t59.5 24t51.5 42t38 59.5q11 25 15 50t1 47t-14.5 38.5t-32.5 24.5z" />
    <glyph glyph-name="Z" unicode="Z" horiz-adv-x="513" 
d="M614 619q-89 -100 -177 -194q-38 -40 -78.5 -82.5t-81 -84t-79.5 -78.5t-72 -67l6 -7q11 9 23.5 21t25.5 24t27.5 21.5t30.5 12.5q20 4 40 1t39 -8t36.5 -10t33.5 -5q48 0 89 26q-2 -33 -13.5 -66.5t-34 -60.5t-55 -44.5t-74.5 -17.5q-34 0 -65.5 8.5t-64.5 14t-69.5 2.5
t-80.5 -25l-18 22l496 518l-6 6q-14 -12 -31.5 -26.5t-37 -27.5t-39 -23t-36.5 -13q-23 -4 -45 -2.5t-43 4t-40.5 3t-35.5 -5.5q-17 -9 -22 -18.5t-15 -22.5q-14 44 -10 83.5t20 69.5t40.5 49.5t53.5 23.5q36 6 75.5 -3t82 -17t88.5 -7t96 27z" />
    <glyph glyph-name="Y" unicode="Y" horiz-adv-x="543" 
d="M270 254q-12 2 -23 5t-19 8q-19 10 -29.5 30.5t-13 46.5t2.5 55t18 56q3 3 11 16t18.5 28.5t21 29t17.5 16.5l53 19v8q-26 -2 -50 -10t-48.5 -24.5t-50 -42.5t-55.5 -63q-27 24 -38.5 52t-10 54.5t14.5 49.5t36 38q34 22 77 24.5t86 -8t81.5 -31t63.5 -45.5
q-26 -67 -36 -95.5t-6 -14.5q-15 -31 -31 -58.5t-29 -50t-20 -38t-4 -21.5q1 -5 16.5 4.5t38 30t48.5 52t48.5 70t37 83.5t13.5 94q20 11 50.5 17t60 2.5t52 -18.5t26.5 -46q5 -35 -15.5 -79.5t-57 -88t-84.5 -80t-98 -53.5q-6 -2 -14 -4.5t-17 -4.5l-124 -267
q-20 3 -44.5 3t-51.5 -2.5t-53.5 -6.5t-49.5 -9l127 260z" />
    <glyph glyph-name="X" unicode="X" horiz-adv-x="595" 
d="M274 493q8 13 23 29.5t29 22.5l53 19v8q-26 -2 -50 -10t-48.5 -24.5t-50 -42.5t-55.5 -63q-27 24 -38.5 52t-10 54.5t14.5 49.5t36 38q34 22 77 24.5t86 -8t81.5 -31t63.5 -45.5q-14 -35 -19.5 -51.5t-6.5 -21.5v1q-17 -30 -31.5 -54t-24.5 -41.5t-14.5 -29.5t-0.5 -18
q0 -6 13.5 -1.5t33 18.5t42 37t41.5 55t31.5 72.5t11.5 89.5q20 11 50.5 17t60 2.5t52 -18.5t26.5 -46q5 -35 -11 -70.5t-46.5 -68t-74 -59t-94.5 -41.5q38 -17 41.5 -61.5t-34.5 -119.5q-23 -44 -35.5 -70.5t-18.5 -43t-7 -25.5t-1 -17q-25 -8 -50.5 -12t-47.5 -2t-39 10.5
t-25 25.5q-14 29 -7 62t36 88q20 38 34.5 61.5t24 37t13.5 20t2 12.5q-15 14 -38.5 7t-49.5 -29.5t-52 -57t-47 -76t-34 -87t-12 -88.5q-34 -14 -68 -16t-60 8.5t-41 33.5t-12 60q3 43 31 84.5t71.5 77.5t98.5 64.5t111 43.5q-42 19 -51 64.5t17 99.5z" />
    <glyph glyph-name="W" unicode="W" horiz-adv-x="794" 
d="M476 183q-14 -28 -28 -52.5t-24 -44t-14.5 -33.5t1.5 -21q11 -13 34 5t52 57t60.5 93.5t61 114.5t53 119.5t35.5 108.5q8 31 15 54.5t5 40.5q38 18 76 22.5t65.5 -6.5t39 -40t-4.5 -77q-13 -46 -43 -103.5t-71 -116t-90.5 -114t-102 -99t-104.5 -69.5t-99 -26
q-23 0 -39.5 5t-28.5 12.5t-19.5 16t-11.5 15.5q-8 43 5 75.5t27 60.5l-10 4q-43 -86 -92 -131.5t-93 -53.5q-51 -10 -87.5 1.5t-52 46.5t-6.5 93.5t50 142.5q21 42 48.5 81t56 72.5t55.5 61t46 46.5l52 19v8q-52 -3 -101 -35t-107 -105q-27 24 -39 52t-10.5 54.5t15 49.5
t36.5 38q34 22 80 25.5t92.5 -7t89 -33.5t71.5 -53q-26 -26 -56 -64t-59.5 -78.5t-54.5 -80t-40 -69.5q-52 -107 -63.5 -160t26.5 -41q20 6 39 25.5t39 52.5t43.5 79t52.5 105l135 271q20 -4 46 -4.5t52.5 1.5t51.5 5.5t42 6.5z" />
    <glyph glyph-name="V" unicode="V" horiz-adv-x="546" 
d="M177 163q-25 -51 -41.5 -83t-11.5 -44q9 -11 34 8.5t58.5 59t71.5 94t74 113t65.5 116t46.5 103.5q10 30 15.5 54t3.5 41q38 18 76.5 22.5t66 -6.5t39 -40t-4.5 -77q-14 -47 -49 -104.5t-83.5 -116t-106.5 -113.5t-117 -98t-114.5 -69t-99.5 -26q-39 0 -66.5 15t-41 40
t-13 57t16.5 65l129 265q18 38 36.5 65.5t41.5 40.5l52 19v8q-23 -2 -46 -9.5t-48.5 -23t-53.5 -41.5t-60 -66q-27 24 -39 51.5t-10.5 54t15 50t36.5 38.5q35 22 79 24.5t88.5 -8.5t83.5 -32t65 -46z" />
    <glyph glyph-name="U" unicode="U" horiz-adv-x="589" 
d="M496 106q-20 -41 -25 -64t3 -41q-29 -10 -55.5 -14t-49 -1.5t-39.5 11.5t-26 26q-10 17 -10.5 34.5t4.5 34.5l-22 -37l36 62l-2 3q-40 -55 -83.5 -84t-81.5 -36q-50 -9 -86.5 2.5t-52 46.5t-6.5 93t49 142q21 42 48.5 81t56 72.5t55.5 61t46 46.5l53 19v8
q-52 -3 -101 -35t-108 -105q-27 24 -38.5 52t-10 54.5t15 49.5t36.5 38q34 22 79.5 25.5t92 -7t89.5 -33.5t72 -53q-26 -26 -52.5 -61.5t-51 -73.5t-45 -75.5t-35.5 -67.5q-53 -106 -64.5 -159t27.5 -42q19 6 44.5 31t53.5 64t58 90t59 110l126 257q20 -4 46 -4t52.5 2
t51.5 5t42 6z" />
    <glyph glyph-name="T" unicode="T" horiz-adv-x="539" 
d="M232 229q-5 -2 -15.5 -12.5t-23 -25.5t-24 -31.5t-18.5 -31.5q-7 -16 -13.5 -31t-10 -27t-2 -21.5t9.5 -14.5q7 -5 16 -1t15 15l149 305q17 35 35.5 64.5t40.5 42.5l65 11v7q-45 2 -85 3t-76 -3.5t-69 -17t-64 -37.5q-21 24 -27.5 53.5t0.5 58.5t25.5 54t47.5 39
q27 12 64.5 15t80 1t89 -8.5t91.5 -12.5q35 18 61.5 21t55.5 -4q35 -8 52 -30.5t13.5 -47.5t-27.5 -47t-70 -31q-19 -3 -28 -4.5t-28 -2.5l-179 -374q-21 -44 -52.5 -70.5t-67.5 -38.5t-73.5 -11t-71.5 10q-45 13 -73 37.5t-40.5 54t-12.5 61t10 58.5q21 47 54 71.5t67 27
t64 -16t45 -57.5z" />
    <glyph glyph-name="S" unicode="S" horiz-adv-x="567" 
d="M461 450q22 13 32 26t23 33q17 29 22.5 55.5t-11.5 39.5q-8 5 -20.5 7t-25.5 -2.5t-25 -16t-19 -32.5q-14 -42 -2 -89t57 -104q32 -43 42.5 -86t2 -84t-32.5 -78.5t-61 -69.5q-29 -26 -69.5 -40t-84 -17t-85.5 5t-73 26q-45 27 -73.5 56t-43.5 59t-17.5 59.5t3.5 58.5
q11 51 41 91.5t76 54.5q17 5 36.5 5t38.5 -6t35 -18t26 -30q-26 -21 -44.5 -50t-36.5 -64q-12 -24 -19.5 -50t-7 -51t10.5 -48.5t34 -42.5q21 -17 45.5 -22.5t49 -0.5t46.5 20.5t38 39.5q17 25 16.5 50t-11.5 50.5t-29.5 51t-37.5 51.5q-26 35 -38.5 69.5t-15 67.5t5 64
t22.5 59q16 31 43.5 55t63.5 37.5t78 14.5t87 -15q49 -17 75 -42t35 -52.5t4 -54.5t-17 -46q-20 -35 -49 -50t-57 -13t-51 20t-32 49z" />
    <glyph glyph-name="R" unicode="R" horiz-adv-x="560" 
d="M312 179q14 46 17 74t-11 42l-142 -295q-18 3 -43 3t-51.5 -2t-53.5 -6.5t-50 -9.5l271 563q20 -3 45 -2.5t52 2.5t53.5 6t48.5 9l-106 -220q29 11 63 41.5t59 77.5q14 25 17 48.5t-4.5 43t-24.5 33t-43 19.5q-36 9 -70 3.5t-64 -22t-55.5 -42t-43.5 -56.5
q-21 -37 -32 -80.5t-9 -87.5q-45 -12 -78.5 1t-51 40.5t-16 65t26.5 75.5q25 39 64.5 69.5t92 49t116.5 23.5t138 -5q63 -8 106.5 -28t69.5 -47t36 -58t6 -62q-3 -26 -16 -49.5t-32.5 -43t-43.5 -34t-49 -20.5l-113 1l15 -9q38 -3 57.5 -13.5t30.5 -26.5q15 -23 18 -54
t-9 -78q-9 -34 -8.5 -52.5t5.5 -27t13 -9t15 2.5v-31q-29 -13 -59.5 -18.5t-58.5 -3.5t-51 12t-36 28q-8 12 -15 25.5t-9.5 32t0 43t13.5 59.5z" />
    <glyph glyph-name="Q" unicode="Q" horiz-adv-x="579" 
d="M449 640q56 -4 94.5 -29t56 -67.5t13 -101t-34.5 -128.5q-19 -44 -39 -81.5t-42.5 -69t-49.5 -58t-61 -50.5q-2 -15 12.5 -38t32.5 -42q-13 -29 -32 -49t-41 -30.5t-45 -11.5t-43 8q-25 14 -41.5 37t-27.5 68q-14 -5 -25.5 -1.5t-19.5 3.5q-65 3 -103 36t-52 83t-6 111
t35 121q28 63 68.5 118t92.5 95t116.5 61t141.5 16zM438 607q-14 2 -31 -2.5t-42 -31t-59 -81.5t-82 -154q-6 -13 -8.5 -17.5t-9.5 -15t-22 -32.5t-46 -69l5 -6q51 43 98 41t95 -38q5 37 18.5 66t29.5 64q34 75 52 126.5t23 84t-1.5 47.5t-19.5 18zM197 34q3 48 -6 71
t-21.5 30t-26 2t-19.5 -14q-13 -18 -11.5 -34.5t10 -29.5t20.5 -20.5t21 -7.5q10 0 15 1t18 2z" />
    <glyph glyph-name="P" unicode="P" horiz-adv-x="597" 
d="M139 319q-44 -8 -76 6.5t-47.5 43.5t-11.5 67.5t31 79.5q57 82 160 114t243 10q84 -14 133.5 -45t72.5 -70.5t22 -84.5t-17 -86q-24 -62 -67.5 -105t-98.5 -68.5t-115.5 -32t-117.5 5.5l-74 -154q-18 3 -43 3t-51.5 -2t-53.5 -6.5t-50 -9.5zM270 195q42 8 88.5 48.5
t90.5 130.5q23 49 30.5 89t2 70t-21.5 48.5t-39 24.5q-38 10 -71.5 5.5t-63 -20t-54.5 -42t-45 -60.5t-30.5 -75.5t-10.5 -79.5l103 214q20 -3 45 -2.5t52 2.5t53.5 6t48.5 9z" />
    <glyph glyph-name="n" unicode="n" horiz-adv-x="482" 
d="M98 385q17 -5 40.5 -4.5t50.5 3.5t54.5 7t51.5 8l-49 -52l3 -7q41 42 89 56.5t87 4.5q20 -5 36.5 -17t23.5 -31q6 -15 5 -30t-7 -31.5t-16.5 -36t-22.5 -44.5q-10 -21 -27 -46t-31 -46t-20 -35.5t7 -14.5q7 0 22 11.5t31.5 29.5t33 39t28.5 40l24 -14
q-18 -25 -39.5 -55.5t-49 -57t-60.5 -44.5t-73 -18t-68.5 20.5t-30.5 55.5q-1 26 15.5 56.5t39.5 68.5q26 43 41 69t22 41t7 21t-3 9q-8 2 -18 -4t-24.5 -25.5t-36 -55.5t-52.5 -96l-77 -160h-191zM297 402v-2q-1 0 -2 -1z" />
    <glyph glyph-name="m" unicode="m" horiz-adv-x="682" 
d="M231 201q5 12 18 33.5t25.5 43.5t20.5 40t4 23q-8 3 -15.5 -3t-19.5 -25.5t-31.5 -57t-51.5 -97.5l-76 -158h-191l184 385q17 -5 40.5 -4.5t50 3.5t54 7t51.5 8l-48 -49l2 -6q37 39 80.5 52.5t81.5 4.5q17 -5 34 -14t27 -23l-25 -47l2 -4q36 55 84 75.5t93 15.5
q23 -3 39 -15.5t21 -35.5q4 -19 3 -34.5t-6 -31.5t-15 -34t-24 -42q-9 -17 -25.5 -41t-31 -46.5t-20.5 -38.5t7 -16q7 0 22 11.5t31.5 29.5t33 39t28.5 40l24 -14q-18 -25 -40 -55.5t-49 -57t-60.5 -44.5t-73.5 -18q-39 0 -66.5 20t-28.5 55q0 32 15 60t37 66q25 44 39.5 70
t22 40.5t8 20.5t-2.5 9q-8 1 -14.5 -4.5t-16 -23.5t-25.5 -50t-43 -83l-89 -180h-191zM297 402v-2q-1 0 -1.5 -0.5t-1.5 -0.5z" />
    <glyph glyph-name="l" unicode="l" horiz-adv-x="254" 
d="M-37 83q3 32 24 72.5t44 87.5l171 348q23 -2 49.5 -1.5t53 2.5t51.5 6.5t46 11.5l-227 -462q-42 -85 -20 -78q4 2 13 7.5t22.5 18t31 35t38.5 58.5l24 -14q-13 -20 -33.5 -49.5t-50.5 -58t-70 -48.5t-91 -20q-15 0 -30 4.5t-26 14.5t-17 26t-3 39z" />
    <glyph glyph-name="k" unicode="k" horiz-adv-x="450" 
d="M198 595q20 -3 45.5 -2.5t52.5 3t53 6t48 8.5l-191 -399l-33 -31l2 -4q31 23 59.5 51t49 57.5t31 57.5t6.5 51q27 11 55.5 16t52 1t39.5 -17t18 -38q2 -24 -11 -43t-38 -33t-59.5 -23t-74.5 -12l-7 -4q33 5 57.5 -4.5t29.5 -31.5q3 -17 1 -32t-7.5 -28.5t-13 -27
t-14.5 -27.5q-5 -8 -2 -11.5t8 -4.5q8 0 21 11.5t27 29t28 38t25 37.5l24 -14q-19 -27 -41 -58t-48 -57t-58 -43t-72 -17q-34 0 -58.5 17t-26.5 52q-2 18 5 36t14.5 32.5t11.5 24.5t-4 13q-1 -1 -3 -1l-20 -22h-1l-13 -23l-61 -129h-191z" />
    <glyph glyph-name="j" unicode="j" horiz-adv-x="247" 
d="M100 381q24 -2 50.5 -1t53 3t51.5 6.5t45 10.5l-186 -371q-8 -15 -14.5 -28t-13.5 -24q46 44 91 101t76 111l24 -13q-25 -41 -57.5 -84.5t-66 -82.5t-66.5 -69t-60 -42l-17 -15q-19 -15 -42 -25t-48.5 -13t-52 1t-52.5 17q-16 8 -27.5 22t-17 29.5t-2.5 29t15 20.5
q12 6 22.5 1.5t18 -16t10 -30t-2.5 -40.5q17 -1 25.5 6.5t16.5 25.5t19.5 48.5t34.5 76.5zM354 485q-12 -21 -29.5 -36t-38.5 -22.5t-43 -6.5t-42 10q-44 23 -55.5 63t12.5 84q11 21 28.5 34.5t38.5 20t43 5t42 -10.5q41 -23 52.5 -62.5t-8.5 -78.5z" />
    <glyph glyph-name="i" unicode="i" horiz-adv-x="255" 
d="M-37 83q4 32 24.5 72.5t43.5 87.5l69 138q22 -2 48.5 -1t53.5 3t52 6.5t46 10.5l-125 -252q-20 -38 -27 -58t2 -20q3 0 12.5 5t24 18t33.5 36t40 60l24 -14q-15 -23 -37 -53t-52 -57.5t-68 -46.5t-84 -19q-17 0 -33 5t-27.5 15t-17 26t-2.5 38zM354 485
q-12 -21 -29.5 -36t-38.5 -22.5t-43 -6.5t-42 10q-44 23 -55.5 63t12.5 84q11 21 28.5 34.5t38.5 20t43 5t42 -10.5q41 -23 52.5 -62.5t-8.5 -78.5z" />
    <glyph glyph-name="h" unicode="h" horiz-adv-x="482" 
d="M198 595q19 -3 44.5 -2.5t52.5 3t54 6.5t48 8l-99 -206l-55 -64l3 -3q42 43 91 58.5t88 5.5q20 -5 36.5 -17t23.5 -31q6 -15 5 -30t-7 -31.5t-16.5 -36t-22.5 -44.5q-10 -21 -27 -46t-31 -46t-20 -35.5t7 -14.5q7 0 22 11.5t31.5 29.5t33 39t28.5 40l24 -14
q-18 -25 -39.5 -55.5t-49 -57t-60.5 -44.5t-73 -18t-68.5 20.5t-30.5 55.5q-1 26 15.5 56.5t39.5 68.5q26 43 41 69t22 41t7 21t-3 9q-9 2 -19 -4t-25 -27t-37.5 -60t-56.5 -103l-70 -147h-191z" />
    <glyph glyph-name="g" unicode="g" horiz-adv-x="466" 
d="M30 -132q-25 17 -38 34t-17 31t0.5 25.5t13.5 17.5q9 7 21 6t22 -11t15 -29.5t0 -49.5q10 -4 19 -2.5t18 9.5t19.5 24.5t24.5 42.5l48 95l26 42h-4l-23 -23q-20 -20 -35.5 -25.5t-35.5 -7.5q-47 -1 -72.5 20.5t-32.5 55t3.5 73t34.5 75.5q30 46 68 75.5t79.5 42.5
t84.5 10t83 -23q17 -9 38 -13.5t43.5 -4.5t45 4t40.5 11l-177 -344l-19 -35q42 42 81 93.5t68 101.5l24 -13q-24 -38 -53 -79t-60 -77.5t-62 -66t-57 -44.5q-31 -34 -67 -51q-18 -8 -39.5 -12t-43.5 -3.5t-44 6.5t-40 19zM165 108q8 0 17.5 7.5t21.5 25.5t27.5 46.5
t35.5 70.5l54 109q-26 -3 -49.5 -30.5t-60.5 -89.5q-25 -41 -37 -68t-15 -43t-0.5 -22t6.5 -6z" />
    <glyph glyph-name="f" unicode="f" horiz-adv-x="275" 
d="M466 514q-9 -6 -20 -4.5t-20 9.5t-13.5 21.5t0.5 31.5q-23 -2 -33 -15t-22 -33q-12 -19 -22 -42t-18 -43h30l-21 -39h-32l-266 -549q-20 3 -45 2.5t-51.5 -3t-53 -6.5t-48.5 -8l277 564h-31l22 39h33q24 62 57.5 99t74.5 56q12 6 33 10.5t45 5.5t48 -3t44 -15
q18 -11 27.5 -22.5t12.5 -22.5t0.5 -20t-8.5 -13z" />
    <glyph glyph-name="e" unicode="e" horiz-adv-x="445" 
d="M199 31q26 0 59 8t67.5 26t67 48.5t57.5 75.5l24 -14q-48 -81 -125.5 -128t-166.5 -47q-69 0 -112 20.5t-61.5 54.5t-14 76.5t29.5 86.5q26 47 66.5 80t85.5 52.5t90 26.5t81 3q39 -5 62 -19.5t33.5 -34t10.5 -41.5t-7 -42q-13 -35 -39 -64.5t-63 -49.5t-83 -30t-99 -7
q-11 -38 -3 -59.5t40 -21.5zM212 221q-12 -21 -21 -40t-17 -36q24 13 48.5 44.5t56.5 86.5q24 41 33 64.5t10 28.5q-11 10 -36.5 -26.5t-73.5 -121.5z" />
    <glyph glyph-name="d" unicode="d" horiz-adv-x="491" 
d="M36 250q33 49 70.5 82t77 50t79.5 18.5t76 -11.5l98 200q20 -3 47.5 -2.5t57 3t56.5 7.5t47 13q-8 -15 -26.5 -52t-43 -85t-51 -101t-49.5 -98.5t-39.5 -78.5t-20.5 -40q-22 -43 -29.5 -64t3.5 -21q3 0 12.5 5t24 18t32.5 36.5t39 59.5l24 -14q-19 -28 -41 -59t-50.5 -57
t-65.5 -43t-86 -17q-14 0 -27 2.5t-24.5 9.5t-19 18.5t-10.5 28.5l17 37h-3l-9 -13q-30 -43 -56 -62.5t-63 -19.5q-35 0 -59.5 20t-32.5 54.5t2 79.5t43 96zM149 60q10 0 23 16t28.5 43t34 63t39.5 76l56 109q-11 -1 -25.5 -14t-30.5 -33.5t-32.5 -45t-30.5 -48.5
q-51 -84 -62.5 -125t0.5 -41z" />
    <glyph glyph-name="c" unicode="c" horiz-adv-x="433" 
d="M198 31q25 0 56 8t63.5 26t64 48.5t56.5 75.5l24 -14q-47 -79 -119 -127t-163 -48q-69 0 -111 21.5t-60 55.5t-14 76.5t28 84.5q26 47 66 80t85 52.5t90 26.5t82 3q36 -5 59 -17.5t35 -30.5t13 -39.5t-6 -42.5q-8 -25 -27.5 -48.5t-49 -39t-67.5 -18t-82 14.5
q23 41 37 63t26 41q31 47 38.5 64.5t3.5 23.5q-7 10 -36 -27.5t-77 -122.5q-24 -42 -38 -77t-16.5 -60t7 -39t32.5 -14z" />
    <glyph glyph-name="b" unicode="b" horiz-adv-x="501" 
d="M202 595q19 -3 44.5 -2.5t52.5 3t53.5 6t48.5 8.5l-111 -224l-40 -52l2 -2l27 28q24 28 43 34t46 6q36 0 62 -18.5t35.5 -51.5t1 -79t-41.5 -101q-9 -16 -19 -29.5t-21 -26.5q34 5 66.5 29t55.5 66l24 -14q-35 -59 -82.5 -86t-96.5 -28q-31 -27 -65.5 -43.5t-70.5 -21.5
t-72 2.5t-69 29.5q-8 6 -21 19t-27 29.5t-26.5 34t-19.5 32.5zM311 349q-14 0 -26.5 -10.5t-26.5 -32.5t-31 -56t-40 -82l-70 -142q12 0 28 13t33 34t34.5 47.5t34.5 53.5q48 82 64 128.5t0 46.5z" />
    <glyph glyph-name="z" unicode="z" horiz-adv-x="382" 
d="M421 372l-337 -275l5 -5q27 20 55.5 41t60.5 27q19 4 33 -0.5t26 -11.5t25 -13.5t31 -6.5q7 0 13.5 1t14.5 6.5t17.5 18t22.5 35.5l24 -14q-19 -28 -39.5 -59t-46 -56.5t-56.5 -42.5t-70 -17q-34 0 -59 8.5t-49.5 14t-54 2.5t-73.5 -25l-12 24l348 285l-4 6
q-8 -5 -20.5 -14t-27 -17.5t-28 -15.5t-23.5 -9q-15 -3 -29.5 0.5t-27 8t-24 8t-21.5 -0.5q-11 -4 -17 -12.5t-13 -22.5t-18 -35t-30 -49l-23 13q19 28 37.5 65.5t40 72.5t47.5 61.5t59 31.5q22 4 40.5 1.5t35 -6.5t32.5 -8.5t34.5 -5.5t40 2.5t49.5 16.5z" />
    <glyph glyph-name="y" unicode="y" horiz-adv-x="498" 
d="M178 106q6 2 13 10.5t21 31.5l3 5l121 240q48 -3 98 -0.5t96 7.5l-171 -340q-11 -23 -24 -45t-27 -42q27 22 55 48t54 54t48.5 57t38.5 57l24 -13q-25 -40 -62 -83.5t-77 -82.5t-78 -68.5t-65 -42.5q-45 -41 -98.5 -54.5t-116.5 19.5q-23 11 -35.5 28t-16 34.5t1.5 31.5
t17 19q9 3 20 -0.5t19.5 -14.5t13 -28t0.5 -41q7 -2 15 -2t16 4.5t17.5 15.5t20.5 32l51 106l26 36h-4q-31 -29 -59.5 -41.5t-55.5 -14.5q-29 -2 -51 9.5t-33.5 32t-11 48t16.5 59.5l100 203q23 -2 50 -1t54 3t51.5 6.5t44.5 10.5l-111 -225q-18 -34 -22.5 -52.5t12.5 -16.5
z" />
    <glyph glyph-name="x" unicode="x" horiz-adv-x="393" 
d="M261 233q-5 -32 -9.5 -62t-3.5 -53t9.5 -36t29.5 -10q12 1 27 13t30 29t29.5 37t25.5 38l24 -14q-31 -43 -62 -82t-69 -65q-22 -15 -50 -23t-55.5 -6t-51 15t-35.5 42q-8 20 -11 43t-1 49q-17 -17 -18 -41t5 -49t14 -38t16 -23q-20 -14 -41.5 -20.5t-41.5 -5t-36 10
t-24 24.5q-13 24 -3 50.5t31 50.5t47 43t46 29l7 3q3 28 7 55t6 52l1.5 6l3.5 14t3.5 17t0.5 15q-8 -18 -19.5 -43t-24 -51t-25.5 -50t-25 -41l-23 13q18 33 32.5 60.5t27 54t24 55t23.5 63.5q28 7 56.5 6.5t52.5 -10.5t39.5 -29t17.5 -48q1 -14 0 -29.5t-3 -32.5
q17 19 21 39t2 39t-8 37t-10 34q17 11 45.5 21t55.5 10t47 -14t20 -50q-2 -17 -12.5 -36.5t-31.5 -39.5t-53 -38t-77 -31z" />
    <glyph glyph-name="w" unicode="w" horiz-adv-x="653" 
d="M326 34q5 -8 18.5 6.5t32 45.5t41 76t45.5 97q13 32 25.5 67t23.5 66q47 17 77.5 13.5t45 -22.5t13.5 -51t-16 -73q-15 -44 -43.5 -87t-66.5 -79q37 0 74.5 25t62.5 71l24 -14q-38 -64 -90.5 -91t-105.5 -22q-38 -29 -79.5 -46.5t-83.5 -17.5q-60 0 -91.5 26t-39.5 63
q-17 -26 -33.5 -43t-33 -27t-34 -13.5t-35.5 -3.5q-29 0 -49.5 11.5t-31 31.5t-9 47t16.5 59l115 232q45 -4 94 0.5t91 18.5l-126 -254q-12 -22 -16.5 -36t-3.5 -21.5t5.5 -8.5t9.5 2q9 7 16 25.5t27 56.5q1 3 2 5.5t3 5.5l102 206q48 -3 98.5 2t90.5 17l-148 -300
q-10 -21 -13.5 -33t-4.5 -18t0 -9t0 -6z" />
    <glyph glyph-name="v" unicode="v" horiz-adv-x="454" 
d="M117 34q11 -11 30 5t41 49t43 78t35 93q11 33 18.5 65.5t9.5 64.5q49 19 84.5 16.5t55 -21.5t22.5 -51.5t-12 -73.5q-16 -44 -47 -87t-73 -79q37 1 74 25.5t62 70.5l24 -14q-39 -65 -91.5 -91.5t-106.5 -21.5q-41 -29 -85 -46.5t-86 -17.5q-47 0 -75.5 17t-42 43t-13 57
t12.5 60l102 206q48 -3 98.5 2t89.5 17l-148 -300q-10 -21 -14 -33t-5.5 -18t-1.5 -9t-1 -6z" />
    <glyph glyph-name="u" unicode="u" horiz-adv-x="483" 
d="M198 79q-39 -44 -75.5 -61.5t-68.5 -17.5q-29 0 -49 11t-30 31.5t-8 47.5t17 59l115 232q22 -2 48 -1.5t53 2.5t52.5 6.5t46.5 11.5l-126 -254q-41 -74 -14 -71q2 3 16.5 19t46.5 67l38 82l75 150q45 -2 95.5 0t98.5 7l-125 -252q-20 -39 -27.5 -58.5t3.5 -17.5
q4 1 13.5 6t23.5 17.5t32.5 35t39.5 58.5l24 -14q-12 -18 -32.5 -48t-50.5 -58.5t-69.5 -49t-90.5 -20.5q-24 -1 -48 7.5t-34 34.5l-4 5l20 35z" />
    <glyph glyph-name="t" unicode="t" horiz-adv-x="254" 
d="M298 400l-123 -252q-20 -38 -25.5 -58t4.5 -20q3 0 12 4.5t22.5 17.5t31.5 36.5t40 60.5l24 -14q-18 -27 -39.5 -57.5t-50 -57t-64.5 -44t-83 -17.5q-17 0 -32.5 5t-27.5 15t-18.5 26t-4.5 38q3 32 23.5 72.5t43.5 87.5l77 157h-39l22 39h36l52 106q22 -2 48.5 -1.5t53 3
t52 7t46.5 10.5l-62 -125h46l-21 -39h-44z" />
    <glyph glyph-name="r" unicode="r" horiz-adv-x="332" 
d="M121 397q55 12 91 10t59 -12t34.5 -26t17.5 -33q9 -32 -6.5 -70.5t-38.5 -79.5q-10 -17 -23 -35.5t-23.5 -34.5t-16 -28t0.5 -17q8 -8 18 -5t21.5 13t23.5 24.5t24 30.5t22.5 31.5t14.5 22.5l23 -13q-11 -16 -25 -35.5t-30.5 -40t-34.5 -39.5t-36 -33t-38.5 -21
t-41.5 -8.5t-40.5 2.5t-34.5 12q-52 26 -52 81.5t42 120.5q31 46 51.5 81t18.5 48q-2 8 -4.5 13.5t-12.5 6.5l-5 -3q-5 -15 -17 -42t-27 -57.5t-31 -59t-27 -45.5l-23 13q16 29 29 52.5t23.5 45t20.5 44t20 49.5q-8 5 -10.5 14.5t-2.5 22.5h46zM340 188l-1 1q7 7 1 -1z" />
    <glyph glyph-name="q" unicode="q" horiz-adv-x="493" 
d="M298 -103l-20 -43q-24 1 -50 1.5t-52 -1t-50.5 -4t-43.5 -5.5l25 52h-52l22 39h49l35 72l52 84h-5l-19 -25q-26 -35 -47.5 -49.5t-50.5 -19.5q-40 -2 -66.5 17.5t-35.5 54t1.5 81t45.5 99.5q33 49 71.5 83.5t79.5 51.5t82.5 15.5t80.5 -23.5q18 -10 40.5 -14.5t46.5 -4.5
t47.5 4t43.5 11l-177 -367q39 38 78.5 83.5t69.5 99.5l24 -13q-22 -36 -48 -70.5t-52 -65.5t-50.5 -58t-44.5 -46h51l-21 -39h-60zM158 69q8 1 21 17.5t29.5 43.5t35.5 64t40 80l42 87q-12 3 -26.5 -10t-30 -34t-30.5 -45.5t-28 -45.5q-28 -45 -43 -76t-20 -49t-2 -25.5
t12 -6.5z" />
    <glyph glyph-name="p" unicode="p" horiz-adv-x="492" 
d="M99 385q19 -4 44 -4t51 2.5t51.5 7t45.5 9.5l5 -1l-45 -48l4 -5l25 24q9 10 16.5 14.5t15.5 7t16 4t18 4.5q44 3 74 -15t42 -52t4 -81t-41 -102q-18 -30 -39 -54q32 7 61.5 31t50.5 62l24 -14q-34 -56 -78 -83t-91 -30q-57 -49 -121.5 -60.5t-118.5 18.5l-82 -166
q-23 1 -49.5 1t-52.5 -1t-50 -3.5t-43 -5.5zM293 349q-14 -4 -24 -14.5t-20.5 -31.5t-24.5 -53.5t-37 -81.5l-64 -131q17 -6 35 8.5t34.5 37t30.5 48t24 43.5q48 87 61 134t-15 41z" />
    <glyph glyph-name="A" unicode="A" horiz-adv-x="626" 
d="M383 192l-149 -16q-33 -60 -50 -108q-10 -29 -15.5 -53.5t-3.5 -41.5q-38 -18 -76.5 -22.5t-66 6.5t-39 40t4.5 77q6 22 17.5 46.5t27.5 51.5l-48 67h94q34 46 77 94t89.5 92.5t95 83.5t94.5 68t88 46t75 17q39 0 66.5 -15t41 -40t13 -57t-16.5 -65l-170 -357
q-20 -41 -24 -64t4 -41q-27 -10 -54.5 -14t-50.5 -1.5t-40.5 12t-26.5 27.5q-8 15 -8 31t4 30t9 25.5t8 18.5zM574 601q-7 8 -24.5 -2.5t-42 -35.5t-54.5 -61.5t-61.5 -79.5t-63 -90t-58.5 -93h136l114 235q25 51 42 83t12 44z" />
    <glyph glyph-name="a" unicode="a" 
d="M32 246q31 48 69 83.5t79.5 54t86 18t89.5 -24.5q19 -10 41 -14.5t44 -4.5t43.5 4.5t40.5 11.5q-11 -22 -28 -55.5t-34.5 -68t-31.5 -63t-20 -39.5q-20 -38 -26.5 -58t5.5 -20q3 0 11.5 5t22.5 18t32.5 36t39.5 60l24 -14q-13 -20 -33 -50t-49 -58t-68 -48t-90 -20
q-13 0 -26.5 3t-25 9.5t-20 17.5t-10.5 28l15 33h-3l-11 -16q-31 -44 -56.5 -59t-58.5 -15q-35 0 -60 19.5t-34 52.5t0 78t42 96zM151 59q10 1 23 17.5t29.5 45t36 66.5t40.5 81l47 97q-13 1 -27.5 -12t-30 -34t-31.5 -47t-31 -51q-51 -84 -61 -124t5 -39z" />
    <glyph glyph-name="o" unicode="o" horiz-adv-x="491" 
d="M293 400q48 0 84.5 -16.5t58 -45t27 -66t-9.5 -78.5q-19 -52 -56 -95q29 10 55 32.5t45 57.5l24 -14q-32 -54 -74.5 -81t-87.5 -32q-37 -29 -84 -46t-104 -17q-61 0 -98.5 21t-55.5 53t-19 71.5t12 75.5q13 37 39.5 69.5t63.5 57t83 39t97 14.5zM316 373q-12 0 -26 -15.5
t-29 -39.5t-30.5 -53t-28.5 -56q-15 -31 -30 -63t-25 -58.5t-11.5 -43t11.5 -16.5q12 0 26.5 17.5t29.5 43t30.5 56t28.5 57.5q13 28 27.5 58.5t24 55.5t11.5 41t-9 16z" />
    <glyph glyph-name="O" unicode="O" horiz-adv-x="571" 
d="M449 640q56 -4 94.5 -29t56 -67.5t13 -101t-34.5 -128.5q-65 -155 -171.5 -238.5t-250.5 -76.5q-50 2 -83 20t-52 46t-25 64t-3.5 74t13 76t25.5 71q28 61 67 116t90.5 95.5t116.5 62.5t144 16zM440 606q-17 4 -35.5 -2t-43.5 -34.5t-58 -83.5t-78 -148q-39 -85 -61 -142
t-29 -91.5t-2 -51t20 -20.5q17 -5 37.5 1.5t47.5 37.5t62.5 92.5t83.5 166.5q33 72 51 122.5t24 82.5t0.5 48.5t-19.5 21.5z" />
    <glyph glyph-name="one" unicode="1" horiz-adv-x="1272" 
d="M358 143h42q5 -51 8.5 -101.5t5.5 -101.5q3 38 5.5 77t7.5 77l6 49h39q5 -42 9 -83t7 -83l3 -37q3 41 4.5 80.5t5.5 78.5q2 11 2.5 22t1.5 22h30l-20 -244h-46q-5 48 -9.5 96.5t-6.5 97.5q-2 -36 -5 -72.5t-7 -72.5l-4 -49h-47l-11 137l-12 -137h-45q-5 48 -10 96.5
t-7 97.5q-2 -36 -4.5 -72.5t-6.5 -72.5l-5 -49h-46l-12 140l-11 -140h-46q-5 48 -9.5 96t-6.5 97q-1 -37 -4 -72.5t-7 -71.5l-6 -49h-45l-21 244h30q5 -51 8.5 -101.5t5.5 -101.5q3 38 5.5 77t7.5 77l6 49h39q5 -42 9 -83t7 -83l3 -37q3 41 4.5 80.5t5.5 78.5l5 44h41
q5 -51 8.5 -101.5t6.5 -101.5q3 38 5.5 77t6.5 77q2 12 3 24t3 25h40q5 -42 8.5 -83t7.5 -83l2 -37q3 41 5 80.5t6 78.5zM1204 671h-1130v22h1130v-22zM1204 -257h-1130v22h1130v-22zM740 -101h-35v244h36q11 0 22 0.5t21 -4.5q17 -8 22 -27.5t5 -36.5v-19t-2.5 -22
t-7.5 -20t-14 -12l30 -103h-39l-21 97h-17v-97zM983 -47v-54h-33v244h32q12 -43 24.5 -85t22.5 -86q-4 43 -4.5 85.5t-0.5 85.5h32v-244h-33q-12 42 -24.5 83.5t-21.5 83.5q2 -29 3 -56.5t3 -56.5zM606 -101h-33l29 244h57l30 -244h-35l-7 58h-33zM1153 52q1 11 0 23.5
t-5 23.5q-3 8 -10.5 13t-14.5 -5q-6 -8 -7 -20.5t-2 -23.5q-1 -12 -1 -23.5v-22.5v-23t2 -23q0 -9 2 -22t11 -18q10 -6 16 1.5t8 20t2.5 25t0.5 17.5h-25v28h58v-123h-26l-1 33q-2 -11 -7.5 -22t-16.5 -14t-22 2t-18 13q-14 17 -16 42t-2 45q-2 26 -1 52.5t8 50.5q2 11 7 21
t15 15q10 6 22 7t23 -3q12 -5 19 -15t10 -22.5t4 -25.5t1 -24zM224 267q5 8 12 14t16 8q8 2 16 -1.5t17 -0.5l-18 -34q-2 -3 -5.5 -10t0.5 -9q5 -4 11 2t11 13q2 5 5 10l6 10l8 18q8 0 15 4l-19 -38q-2 -3 -5 -9.5t1 -9.5q4 -4 10 1.5t10 12.5q4 9 9.5 19t9.5 19q5 9 9 18
t9 18q8 -2 14 3l-27 -55q-2 -5 -4.5 -10t-4.5 -10t-4 -12.5t6 -3.5q5 2 9.5 7t8.5 11q3 8 8 15q5 8 12 14t16 8t17 -1.5t17 -0.5q-5 -8 -9 -16.5t-9 -17.5q-2 -3 -5 -10t0 -9q3 -3 6.5 -1t7 5.5t6.5 8l5 7.5l1 2l32 66q8 0 13 3q-5 -12 -10 -23.5t-13 -22.5q7 7 16.5 11.5
t16.5 -6.5q6 -10 0.5 -23t-12.5 -21q6 -1 11 2t10 7q4 9 9 18.5t10 18.5l18 36q7 -2 13 3q-7 -14 -13 -27.5t-14 -27.5q-2 -5 -4.5 -10t-5.5 -10q-1 -2 -2 -5.5t-1 -6.5t1 -4.5t6 0.5t10.5 8t8.5 12q3 13 12 22q3 3 9.5 7.5t14 6.5t13.5 0.5t8 -10.5q1 -8 -3.5 -15
t-12 -11.5t-16.5 -7t-15 -2.5q-1 -6 3 -9.5t10 -3.5q13 0 24 7t17 18l4 -2q-8 -14 -23 -22.5t-31 -5.5t-16 18q-4 -5 -8 -9.5t-9 -6.5q-7 -4 -14.5 -1.5t-5.5 12.5v2q-2 -2 -4 -2q-4 -3 -12 -3h-7q-2 0 -3 -2t-3 -2q-10 -6 -21.5 -5t-17.5 11q-7 -9 -17 -12q-9 -2 -12.5 3
t-0.5 13q-5 -7 -13.5 -13.5t-17.5 -0.5q-7 4 -7 14q-6 -9 -14 -14q-8 -4 -15 -1.5t-6 10.5q-7 -7 -11 -9q-8 -4 -15.5 -1.5t-5.5 11.5q-4 -4 -8 -7t-9 -5q-9 -2 -12.5 3t0.5 13h-1q-5 -7 -13.5 -13.5t-17.5 -0.5q-5 2 -6 6.5t0 9.5q-5 -5 -10 -6q-4 -2 -13 -2q-5 0 -6 -1
t-4 -3q-5 -3 -11.5 -5t-11.5 -1t-8 5.5t-1 12.5q2 11 8 22t11 21q5 0 13 4q-3 -8 -6 -15t-7 -14q-1 -3 -4 -7.5t-5 -9.5t-2 -9t4 -5q9 -2 17 8t11 15q5 8 8 17.5t3 18.5q9 2 10 -5t-1 -13q-4 -16 -18 -31q8 -2 15 3t11 12zM943 386q-11 0 -17.5 5t-9.5 13t-4.5 17.5
t-1.5 17.5q-2 19 -2 39.5t6 39.5q3 8 8.5 14.5t14.5 7.5q20 5 31 -13q9 -17 9 -37.5v-38.5q0 -9 -0.5 -20.5t-4 -21t-10.5 -16.5t-19 -7zM389 386q-11 0 -17.5 5t-10 13t-4.5 17.5t-2 17.5q-1 19 -1 39.5t6 39.5q3 8 8 14.5t15 7.5q21 5 31 -13q8 -17 8.5 -37.5t0.5 -38.5
q0 -9 -1 -20.5t-4.5 -21t-10 -16.5t-18.5 -7zM867 -101h-35v244h35v-244zM225 387h-21v152h23h14t13 -2q10 -5 13 -16.5t3 -20.5q1 -11 -1 -27.5t-14 -21.5l18 -64h-24l-13 61q-3 0 -5.5 0.5t-5.5 0.5v-62zM1006 421v-34h-20v152h19q8 -26 16 -52.5t14 -53.5q-2 26 -2.5 53
t-0.5 53h20v-152h-21q-8 26 -15.5 52t-13.5 53q2 -18 2.5 -35.5t1.5 -35.5zM88 387h-22v152h34q26 0 32 -26q4 -14 3.5 -32t-8.5 -32q-7 -10 -17.5 -11t-21.5 -1v-50zM452 421v-34h-20v152h19q8 -26 15.5 -52.5t13.5 -53.5q-2 26 -2.5 53t-0.5 53h20v-152h-21
q-7 26 -14.5 52t-13.5 53q2 -18 2 -35.5t2 -35.5zM524 387h-21l18 152h35l19 -152h-21l-5 37h-21zM701 386q-15 0 -22.5 8.5t-10 21t-2 26.5t0.5 26v71h22v-106q0 -5 -0.5 -10t1.5 -10t7 -7.5t10 2.5t5.5 13.5t0.5 14.5q1 12 0.5 24t-0.5 24v55h22v-71q0 -12 0.5 -26
t-2 -26.5t-9.5 -21t-23 -8.5zM1090 288q5 -1 13 3q-3 -6 -5.5 -10.5t-6.5 -9.5v-1q6 7 14.5 13.5t17.5 7.5q12 0 11.5 -9t-3.5 -17q-3 -4 -10 -14.5t-4 -15.5q2 -3 5.5 -2t7 5l7 8t5.5 7l19 38h-8l3 6h8l8 17q8 0 14 3l-10 -20h15l-4 -6h-14l-18 -37l-5 -10t-1 -10
q3 -3 7 -0.5t8.5 7t7.5 9t4 6.5l4 -2q-5 -8 -12 -17t-18 -11q-9 -2 -12 2t-1 10q-3 -3 -6 -5.5t-6 -4.5q-7 -4 -14.5 -2t-6.5 12q1 8 6.5 15.5t8.5 14.5q1 3 3.5 9.5t-4.5 5.5q-11 -2 -20 -14t-14 -20q-4 -5 -6.5 -11.5t-5.5 -12.5h-12l7 16l-1 -1q-4 -2 -10 -4h-9
q-5 -6 -10.5 -8t-8.5 -2q-10 -4 -18 3t-6.5 18t5.5 20q5 9 14 16.5t21 7.5q10 0 14.5 -6t4.5 -14t-3.5 -16.5t-7.5 -14.5q13 0 20 11zM304 458q-23 15 -26 39q-2 11 2 22.5t15 17.5q9 5 21.5 4t20.5 -9q9 -9 9 -19.5v-21.5q-6 0 -11.5 0.5t-10.5 0.5q0 6 0.5 12.5t-4.5 11.5
q-9 8 -14.5 1t-6.5 -15q0 -11 7.5 -18t15.5 -13t14 -13.5t8 -16.5q2 -11 0.5 -21.5t-7 -18.5t-14 -12.5t-20.5 -2.5q-20 4 -22.5 19.5t-1.5 31.5h20q0 -5 -0.5 -10t0.5 -10q2 -6 7.5 -10t11.5 1q5 4 6 12.5t-1 14.5q-2 8 -7 13.5t-12 9.5zM771 458q-23 13 -27 39
q-1 11 2.5 22.5t14.5 17.5q10 5 22 4t20 -9q9 -9 8.5 -19.5t-0.5 -21.5q-5 0 -10 0.5t-10 0.5q0 6 0.5 12.5t-4.5 11.5q-9 8 -14.5 1t-6.5 -15q0 -11 7 -18t15 -13q17 -12 23 -30q2 -11 0.5 -21.5t-7 -18.5t-14.5 -12.5t-21 -2.5q-20 4 -22.5 19.5t-2.5 31.5h22q0 -5 -1 -10
t1 -10q2 -6 7 -10t11 1q6 4 7 12.5t-1 14.5q-2 8 -7 13.5t-12 9.5zM198 387h-55v152h55v-20h-33v-43h27v-22h-27v-46h33v-21zM875 387h-54v152h54v-20h-32v-43h27v-22h-27v-46h32v-21zM128 259l-42 -2q-5 -8 -9 -17t-5 -19q-8 -2 -9.5 2.5t0 11.5t4.5 13.5t5 8.5l-14 -1
l-5 8h23q11 17 26 34t35 27q6 4 16 5t12 -10q2 -5 -0.5 -10.5t-4.5 -10.5q-5 -10 -9.5 -19.5t-9.5 -18.5q-3 -7 -9 -17.5t-3 -18.5q-8 -2 -10 2t-0.5 10t4.5 12.5t5 9.5zM1163 539h21q-5 -21 -10 -42.5t-10 -42.5q-5 -16 -3.5 -33t1.5 -34h-23q0 17 0.5 34t-3.5 33
q-5 21 -10 42.5t-10 42.5h21q4 -19 7.5 -38.5t5.5 -39.5q1 20 5 39t8 39zM800 227q-7 4 -5.5 11.5t4.5 13.5l17 35q6 0 14 4l-13 -27q-2 -4 -8 -14.5t-2 -14.5q6 -5 14.5 2.5t11.5 11.5t5 7.5t5 8.5l12 24q4 0 12 2q-4 -9 -8.5 -18.5t-9.5 -18.5l-5 -10t0 -10q4 -5 10 1
t11 13q4 9 9.5 19t10.5 19l8 18t9 18q7 -2 14 3l-27 -55l-10 -20q-2 -5 -3.5 -12.5t6.5 -3.5q8 3 15 13q4 10 9.5 20t10.5 19l8 18t9 18q7 -2 14 3l-27 -55l-10 -20q-1 -2 -2 -5.5t-1.5 -6.5t0.5 -4.5t6 0.5q7 2 12 9t8 13l4 -2q-5 -8 -10 -15t-13 -11q-7 -4 -14 -1.5
t-6 10.5q-6 -6 -12 -9q-7 -4 -14 -1.5t-6 11.5q-5 -5 -9.5 -9t-10.5 -4q-9 0 -10 6t2 12q-6 -7 -16.5 -14t-18.5 -2zM1114 387h-54v152h22v-133h32v-19zM634 387h-54v152h22v-133h32v-19zM740 21q6 0 12.5 -0.5t11.5 3.5q9 8 11 20t2 22q0 11 -2 24t-10 21q-5 5 -12 4.5
t-13 -0.5v-94zM675 288q6 -1 14 3q-3 -6 -5.5 -10.5t-6.5 -9.5v-1q6 7 14.5 13.5t17.5 7.5q12 0 11.5 -9t-4.5 -17q-2 -4 -9.5 -14.5t-4.5 -15.5q2 -4 6.5 -1.5t8.5 7t7.5 9t4.5 6.5l4 -2l-10 -14t-13 -12q-7 -4 -14 -2t-6 12q1 8 6.5 15.5t8.5 14.5q1 1 2 4t1.5 5.5
t-0.5 4.5t-5 1q-11 -2 -19.5 -14t-13.5 -20l-12 -24h-12l4 9q-2 -2 -4 -3.5t-4 -2.5q-8 -4 -15 -1.5t-5 12.5q0 8 4.5 15t7.5 15q6 9 9 18q10 0 15 4l-19 -38q-2 -3 -5 -9.5t0 -9.5t7 -0.5t8 7t7 9t4 6.5zM943 522q-6 0 -9 -7.5t-4 -17.5t-0.5 -20t0.5 -14t-0.5 -13.5
t0.5 -19.5t4 -17.5t9 -7.5t9 7.5t4 17.5t0.5 19.5t-0.5 13.5t0.5 14t-0.5 20t-4 17.5t-9 7.5zM389 522q-6 0 -9 -7.5t-4 -17.5t-0.5 -20t0.5 -14t-0.5 -13.5t0.5 -19.5t4 -17.5t9 -7.5t8.5 7.5t3.5 17.5t0.5 19.5t-0.5 13.5t0.5 14t-0.5 20t-3.5 17.5t-8.5 7.5zM1190 539h22
q0 -28 -1 -56t-3 -57h-14q-2 29 -3 56.5t-1 56.5zM152 324q-8 2 -18.5 -7t-15.5 -14q-16 -18 -29 -39h42l13 27q1 3 4 8t5 10.5t2.5 9.5t-3.5 5zM1039 311q-5 -3 -6.5 0.5t-0.5 7.5q-11 4 -16.5 -5.5t-7.5 -16.5h14l-3 -6h-14l-44 -90q-4 0 -14 -2l46 92h-15l3 6h15
q3 8 8 16t15 10q6 2 15 -1q2 -1 5.5 -4.5t-0.5 -6.5zM835 311q-5 -3 -7 0.5t-1 7.5q-11 4 -16.5 -5.5t-7.5 -16.5h14l-3 -6h-14l-44 -90q-5 0 -13 -2l45 92h-15l4 6h14q3 8 8 16t15 10q6 2 15 -1q2 -1 5.5 -4.5t0.5 -6.5zM622 31q-2 -10 -3 -20t-3 -20h29q-3 29 -8 58.5
t-7 59.5q-1 -20 -3.5 -39t-4.5 -39zM88 455q5 0 9.5 -0.5t7.5 3.5q5 5 5.5 14t0.5 16t-0.5 16t-5.5 14q-3 5 -7.5 4.5t-9.5 -0.5v-67zM1045 286q-8 0 -15 -9t-11 -19.5t-4 -19t8 -8.5q6 0 13 9t11.5 19.5t4.5 19t-7 8.5zM928 -81q0 -10 -6 -15t-13.5 -5t-13.5 5t-6 15t6 15
t13.5 5t13.5 -5t6 -15zM562 -81q0 -10 -6 -15t-13.5 -5t-13.5 5t-6 15t6 15t13.5 5t13.5 -5t6 -15zM462 283q-7 0 -12.5 -5t-10 -12.5t-8 -16t-6.5 -13.5q11 -8 21 0t15 16q1 2 4 7t4 10.5t0 9.5t-7 4zM231 232q7 0 13 6t10.5 14t8 16.5t6.5 14.5q-10 5 -20 -3t-15 -16
q-1 -2 -4 -7t-4.5 -10.5t-1 -10t6.5 -4.5zM225 464q4 0 8 -0.5t7 1.5q6 5 7 13t1 15q0 6 -1 14.5t-7 12.5q-3 2 -6.5 2h-8.5v-58zM366 232q7 0 13 6t10.5 14t8 16.5t6.5 14.5q-11 5 -20.5 -3t-14.5 -16q-1 -2 -4 -7t-4.5 -10.5t-1 -10t6.5 -4.5zM539 262q-3 -5 -4 -8l-2 -6
q11 0 24.5 9.5t13.5 21.5q0 8 -5.5 7t-10.5 -4q-5 -4 -9 -9.5t-7 -10.5zM533 469l-3 -24h17q-2 18 -4.5 36t-3.5 36q-1 -11 -2.5 -23t-3.5 -25zM1213 400q0 -6 -4 -9.5t-8.5 -3.5t-8 3.5t-3.5 9.5t3.5 9.5t8 3.5t8.5 -3.5t4 -9.5zM667 308q-4 -7 -11.5 -5t-5.5 10q1 4 5 5.5
t7.5 0.5t5 -4t-0.5 -7zM327 308q-3 -7 -10.5 -5t-5.5 10q1 4 4.5 5.5t7 0.5t5.5 -4t-1 -7zM1194 231q-4 -8 -11.5 -4.5t-3.5 10.5q4 8 11.5 4.5t3.5 -10.5zM1214 277q-2 -4 -5 -5t-6 0.5t-4 4t1 6.5q4 7 11 4t3 -10z" />
    <glyph glyph-name="eight" unicode="8" horiz-adv-x="1272" 
d="M358 143h42q5 -51 8.5 -101.5t5.5 -101.5q3 38 5.5 77t7.5 77l6 49h39q5 -42 9 -83t7 -83l3 -37q3 41 4.5 80.5t5.5 78.5q2 11 2.5 22t1.5 22h30l-20 -244h-46q-5 48 -9.5 96.5t-6.5 97.5q-2 -36 -5 -72.5t-7 -72.5l-4 -49h-47l-11 137l-12 -137h-45q-5 48 -10 96.5
t-7 97.5q-2 -36 -4.5 -72.5t-6.5 -72.5l-5 -49h-46l-12 140l-11 -140h-46q-5 48 -9.5 96t-6.5 97q-1 -37 -4 -72.5t-7 -71.5l-6 -49h-45l-21 244h30q5 -51 8.5 -101.5t5.5 -101.5q3 38 5.5 77t7.5 77l6 49h39q5 -42 9 -83t7 -83l3 -37q3 41 4.5 80.5t5.5 78.5l5 44h41
q5 -51 8.5 -101.5t6.5 -101.5q3 38 5.5 77t6.5 77q2 12 3 24t3 25h40q5 -42 8.5 -83t7.5 -83l2 -37q3 41 5 80.5t6 78.5zM1204 671h-1130v22h1130v-22zM1204 -257h-1130v22h1130v-22zM740 -101h-35v244h36q11 0 22 0.5t21 -4.5q17 -8 22 -27.5t5 -36.5v-19t-2.5 -22
t-7.5 -20t-14 -12l30 -103h-39l-21 97h-17v-97zM983 -47v-54h-33v244h32q12 -43 24.5 -85t22.5 -86q-4 43 -4.5 85.5t-0.5 85.5h32v-244h-33q-12 42 -24.5 83.5t-21.5 83.5q2 -29 3 -56.5t3 -56.5zM606 -101h-33l29 244h57l30 -244h-35l-7 58h-33zM1153 52q1 11 0 23.5
t-5 23.5q-3 8 -10.5 13t-14.5 -5q-6 -8 -7 -20.5t-2 -23.5q-1 -12 -1 -23.5v-22.5v-23t2 -23q0 -9 2 -22t11 -18q10 -6 16 1.5t8 20t2.5 25t0.5 17.5h-25v28h58v-123h-26l-1 33q-2 -11 -7.5 -22t-16.5 -14t-22 2t-18 13q-14 17 -16 42t-2 45q-2 26 -1 52.5t8 50.5q2 11 7 21
t15 15q10 6 22 7t23 -3q12 -5 19 -15t10 -22.5t4 -25.5t1 -24zM224 267q5 8 12 14t16 8q8 2 16 -1.5t17 -0.5l-18 -34q-2 -3 -5.5 -10t0.5 -9q5 -4 11 2t11 13q2 5 5 10l6 10l8 18q8 0 15 4l-19 -38q-2 -3 -5 -9.5t1 -9.5q4 -4 10 1.5t10 12.5q4 9 9.5 19t9.5 19q5 9 9 18
t9 18q8 -2 14 3l-27 -55q-2 -5 -4.5 -10t-4.5 -10t-4 -12.5t6 -3.5q5 2 9.5 7t8.5 11q3 8 8 15q5 8 12 14t16 8t17 -1.5t17 -0.5q-5 -8 -9 -16.5t-9 -17.5q-2 -3 -5 -10t0 -9q3 -3 6.5 -1t7 5.5t6.5 8l5 7.5l1 2l32 66q8 0 13 3q-5 -12 -10 -23.5t-13 -22.5q7 7 16.5 11.5
t16.5 -6.5q6 -10 0.5 -23t-12.5 -21q6 -1 11 2t10 7q4 9 9 18.5t10 18.5l18 36q7 -2 13 3q-7 -14 -13 -27.5t-14 -27.5q-2 -5 -4.5 -10t-5.5 -10q-1 -2 -2 -5.5t-1 -6.5t1 -4.5t6 0.5t10.5 8t8.5 12q3 13 12 22q3 3 9.5 7.5t14 6.5t13.5 0.5t8 -10.5q1 -8 -3.5 -15
t-12 -11.5t-16.5 -7t-15 -2.5q-1 -6 3 -9.5t10 -3.5q13 0 24 7t17 18l4 -2q-8 -14 -23 -22.5t-31 -5.5t-16 18q-4 -5 -8 -9.5t-9 -6.5q-7 -4 -14.5 -1.5t-5.5 12.5v2q-2 -2 -4 -2q-4 -3 -12 -3h-7q-2 0 -3 -2t-3 -2q-10 -6 -21.5 -5t-17.5 11q-7 -9 -17 -12q-9 -2 -12.5 3
t-0.5 13q-5 -7 -13.5 -13.5t-17.5 -0.5q-7 4 -7 14q-6 -9 -14 -14q-8 -4 -15 -1.5t-6 10.5q-7 -7 -11 -9q-8 -4 -15.5 -1.5t-5.5 11.5q-4 -4 -8 -7t-9 -5q-9 -2 -12.5 3t0.5 13h-1q-5 -7 -13.5 -13.5t-17.5 -0.5q-5 2 -6 6.5t0 9.5q-5 -5 -10 -6q-4 -2 -13 -2q-5 0 -6 -1
t-4 -3q-5 -3 -11.5 -5t-11.5 -1t-8 5.5t-1 12.5q2 11 8 22t11 21q5 0 13 4q-3 -8 -6 -15t-7 -14q-1 -3 -4 -7.5t-5 -9.5t-2 -9t4 -5q9 -2 17 8t11 15q5 8 8 17.5t3 18.5q9 2 10 -5t-1 -13q-4 -16 -18 -31q8 -2 15 3t11 12zM943 386q-11 0 -17.5 5t-9.5 13t-4.5 17.5
t-1.5 17.5q-2 19 -2 39.5t6 39.5q3 8 8.5 14.5t14.5 7.5q20 5 31 -13q9 -17 9 -37.5v-38.5q0 -9 -0.5 -20.5t-4 -21t-10.5 -16.5t-19 -7zM389 386q-11 0 -17.5 5t-10 13t-4.5 17.5t-2 17.5q-1 19 -1 39.5t6 39.5q3 8 8 14.5t15 7.5q21 5 31 -13q8 -17 8.5 -37.5t0.5 -38.5
q0 -9 -1 -20.5t-4.5 -21t-10 -16.5t-18.5 -7zM867 -101h-35v244h35v-244zM225 387h-21v152h23h14t13 -2q10 -5 13 -16.5t3 -20.5q1 -11 -1 -27.5t-14 -21.5l18 -64h-24l-13 61q-3 0 -5.5 0.5t-5.5 0.5v-62zM1006 421v-34h-20v152h19q8 -26 16 -52.5t14 -53.5q-2 26 -2.5 53
t-0.5 53h20v-152h-21q-8 26 -15.5 52t-13.5 53q2 -18 2.5 -35.5t1.5 -35.5zM88 387h-22v152h34q26 0 32 -26q4 -14 3.5 -32t-8.5 -32q-7 -10 -17.5 -11t-21.5 -1v-50zM452 421v-34h-20v152h19q8 -26 15.5 -52.5t13.5 -53.5q-2 26 -2.5 53t-0.5 53h20v-152h-21
q-7 26 -14.5 52t-13.5 53q2 -18 2 -35.5t2 -35.5zM524 387h-21l18 152h35l19 -152h-21l-5 37h-21zM701 386q-15 0 -22.5 8.5t-10 21t-2 26.5t0.5 26v71h22v-106q0 -5 -0.5 -10t1.5 -10t7 -7.5t10 2.5t5.5 13.5t0.5 14.5q1 12 0.5 24t-0.5 24v55h22v-71q0 -12 0.5 -26
t-2 -26.5t-9.5 -21t-23 -8.5zM1090 288q5 -1 13 3q-3 -6 -5.5 -10.5t-6.5 -9.5v-1q6 7 14.5 13.5t17.5 7.5q12 0 11.5 -9t-3.5 -17q-3 -4 -10 -14.5t-4 -15.5q2 -3 5.5 -2t7 5l7 8t5.5 7l19 38h-8l3 6h8l8 17q8 0 14 3l-10 -20h15l-4 -6h-14l-18 -37l-5 -10t-1 -10
q3 -3 7 -0.5t8.5 7t7.5 9t4 6.5l4 -2q-5 -8 -12 -17t-18 -11q-9 -2 -12 2t-1 10q-3 -3 -6 -5.5t-6 -4.5q-7 -4 -14.5 -2t-6.5 12q1 8 6.5 15.5t8.5 14.5q1 3 3.5 9.5t-4.5 5.5q-11 -2 -20 -14t-14 -20q-4 -5 -6.5 -11.5t-5.5 -12.5h-12l7 16l-1 -1q-4 -2 -10 -4h-9
q-5 -6 -10.5 -8t-8.5 -2q-10 -4 -18 3t-6.5 18t5.5 20q5 9 14 16.5t21 7.5q10 0 14.5 -6t4.5 -14t-3.5 -16.5t-7.5 -14.5q13 0 20 11zM304 458q-23 15 -26 39q-2 11 2 22.5t15 17.5q9 5 21.5 4t20.5 -9q9 -9 9 -19.5v-21.5q-6 0 -11.5 0.5t-10.5 0.5q0 6 0.5 12.5t-4.5 11.5
q-9 8 -14.5 1t-6.5 -15q0 -11 7.5 -18t15.5 -13t14 -13.5t8 -16.5q2 -11 0.5 -21.5t-7 -18.5t-14 -12.5t-20.5 -2.5q-20 4 -22.5 19.5t-1.5 31.5h20q0 -5 -0.5 -10t0.5 -10q2 -6 7.5 -10t11.5 1q5 4 6 12.5t-1 14.5q-2 8 -7 13.5t-12 9.5zM771 458q-23 13 -27 39
q-1 11 2.5 22.5t14.5 17.5q10 5 22 4t20 -9q9 -9 8.5 -19.5t-0.5 -21.5q-5 0 -10 0.5t-10 0.5q0 6 0.5 12.5t-4.5 11.5q-9 8 -14.5 1t-6.5 -15q0 -11 7 -18t15 -13q17 -12 23 -30q2 -11 0.5 -21.5t-7 -18.5t-14.5 -12.5t-21 -2.5q-20 4 -22.5 19.5t-2.5 31.5h22q0 -5 -1 -10
t1 -10q2 -6 7 -10t11 1q6 4 7 12.5t-1 14.5q-2 8 -7 13.5t-12 9.5zM198 387h-55v152h55v-20h-33v-43h27v-22h-27v-46h33v-21zM875 387h-54v152h54v-20h-32v-43h27v-22h-27v-46h32v-21zM128 259l-42 -2q-5 -8 -9 -17t-5 -19q-8 -2 -9.5 2.5t0 11.5t4.5 13.5t5 8.5l-14 -1
l-5 8h23q11 17 26 34t35 27q6 4 16 5t12 -10q2 -5 -0.5 -10.5t-4.5 -10.5q-5 -10 -9.5 -19.5t-9.5 -18.5q-3 -7 -9 -17.5t-3 -18.5q-8 -2 -10 2t-0.5 10t4.5 12.5t5 9.5zM1163 539h21q-5 -21 -10 -42.5t-10 -42.5q-5 -16 -3.5 -33t1.5 -34h-23q0 17 0.5 34t-3.5 33
q-5 21 -10 42.5t-10 42.5h21q4 -19 7.5 -38.5t5.5 -39.5q1 20 5 39t8 39zM800 227q-7 4 -5.5 11.5t4.5 13.5l17 35q6 0 14 4l-13 -27q-2 -4 -8 -14.5t-2 -14.5q6 -5 14.5 2.5t11.5 11.5t5 7.5t5 8.5l12 24q4 0 12 2q-4 -9 -8.5 -18.5t-9.5 -18.5l-5 -10t0 -10q4 -5 10 1
t11 13q4 9 9.5 19t10.5 19l8 18t9 18q7 -2 14 3l-27 -55l-10 -20q-2 -5 -3.5 -12.5t6.5 -3.5q8 3 15 13q4 10 9.5 20t10.5 19l8 18t9 18q7 -2 14 3l-27 -55l-10 -20q-1 -2 -2 -5.5t-1.5 -6.5t0.5 -4.5t6 0.5q7 2 12 9t8 13l4 -2q-5 -8 -10 -15t-13 -11q-7 -4 -14 -1.5
t-6 10.5q-6 -6 -12 -9q-7 -4 -14 -1.5t-6 11.5q-5 -5 -9.5 -9t-10.5 -4q-9 0 -10 6t2 12q-6 -7 -16.5 -14t-18.5 -2zM1114 387h-54v152h22v-133h32v-19zM634 387h-54v152h22v-133h32v-19zM740 21q6 0 12.5 -0.5t11.5 3.5q9 8 11 20t2 22q0 11 -2 24t-10 21q-5 5 -12 4.5
t-13 -0.5v-94zM675 288q6 -1 14 3q-3 -6 -5.5 -10.5t-6.5 -9.5v-1q6 7 14.5 13.5t17.5 7.5q12 0 11.5 -9t-4.5 -17q-2 -4 -9.5 -14.5t-4.5 -15.5q2 -4 6.5 -1.5t8.5 7t7.5 9t4.5 6.5l4 -2l-10 -14t-13 -12q-7 -4 -14 -2t-6 12q1 8 6.5 15.5t8.5 14.5q1 1 2 4t1.5 5.5
t-0.5 4.5t-5 1q-11 -2 -19.5 -14t-13.5 -20l-12 -24h-12l4 9q-2 -2 -4 -3.5t-4 -2.5q-8 -4 -15 -1.5t-5 12.5q0 8 4.5 15t7.5 15q6 9 9 18q10 0 15 4l-19 -38q-2 -3 -5 -9.5t0 -9.5t7 -0.5t8 7t7 9t4 6.5zM943 522q-6 0 -9 -7.5t-4 -17.5t-0.5 -20t0.5 -14t-0.5 -13.5
t0.5 -19.5t4 -17.5t9 -7.5t9 7.5t4 17.5t0.5 19.5t-0.5 13.5t0.5 14t-0.5 20t-4 17.5t-9 7.5zM389 522q-6 0 -9 -7.5t-4 -17.5t-0.5 -20t0.5 -14t-0.5 -13.5t0.5 -19.5t4 -17.5t9 -7.5t8.5 7.5t3.5 17.5t0.5 19.5t-0.5 13.5t0.5 14t-0.5 20t-3.5 17.5t-8.5 7.5zM1190 539h22
q0 -28 -1 -56t-3 -57h-14q-2 29 -3 56.5t-1 56.5zM152 324q-8 2 -18.5 -7t-15.5 -14q-16 -18 -29 -39h42l13 27q1 3 4 8t5 10.5t2.5 9.5t-3.5 5zM1039 311q-5 -3 -6.5 0.5t-0.5 7.5q-11 4 -16.5 -5.5t-7.5 -16.5h14l-3 -6h-14l-44 -90q-4 0 -14 -2l46 92h-15l3 6h15
q3 8 8 16t15 10q6 2 15 -1q2 -1 5.5 -4.5t-0.5 -6.5zM835 311q-5 -3 -7 0.5t-1 7.5q-11 4 -16.5 -5.5t-7.5 -16.5h14l-3 -6h-14l-44 -90q-5 0 -13 -2l45 92h-15l4 6h14q3 8 8 16t15 10q6 2 15 -1q2 -1 5.5 -4.5t0.5 -6.5zM622 31q-2 -10 -3 -20t-3 -20h29q-3 29 -8 58.5
t-7 59.5q-1 -20 -3.5 -39t-4.5 -39zM88 455q5 0 9.5 -0.5t7.5 3.5q5 5 5.5 14t0.5 16t-0.5 16t-5.5 14q-3 5 -7.5 4.5t-9.5 -0.5v-67zM1045 286q-8 0 -15 -9t-11 -19.5t-4 -19t8 -8.5q6 0 13 9t11.5 19.5t4.5 19t-7 8.5zM928 -81q0 -10 -6 -15t-13.5 -5t-13.5 5t-6 15t6 15
t13.5 5t13.5 -5t6 -15zM562 -81q0 -10 -6 -15t-13.5 -5t-13.5 5t-6 15t6 15t13.5 5t13.5 -5t6 -15zM462 283q-7 0 -12.5 -5t-10 -12.5t-8 -16t-6.5 -13.5q11 -8 21 0t15 16q1 2 4 7t4 10.5t0 9.5t-7 4zM231 232q7 0 13 6t10.5 14t8 16.5t6.5 14.5q-10 5 -20 -3t-15 -16
q-1 -2 -4 -7t-4.5 -10.5t-1 -10t6.5 -4.5zM225 464q4 0 8 -0.5t7 1.5q6 5 7 13t1 15q0 6 -1 14.5t-7 12.5q-3 2 -6.5 2h-8.5v-58zM366 232q7 0 13 6t10.5 14t8 16.5t6.5 14.5q-11 5 -20.5 -3t-14.5 -16q-1 -2 -4 -7t-4.5 -10.5t-1 -10t6.5 -4.5zM539 262q-3 -5 -4 -8l-2 -6
q11 0 24.5 9.5t13.5 21.5q0 8 -5.5 7t-10.5 -4q-5 -4 -9 -9.5t-7 -10.5zM533 469l-3 -24h17q-2 18 -4.5 36t-3.5 36q-1 -11 -2.5 -23t-3.5 -25zM1213 400q0 -6 -4 -9.5t-8.5 -3.5t-8 3.5t-3.5 9.5t3.5 9.5t8 3.5t8.5 -3.5t4 -9.5zM667 308q-4 -7 -11.5 -5t-5.5 10q1 4 5 5.5
t7.5 0.5t5 -4t-0.5 -7zM327 308q-3 -7 -10.5 -5t-5.5 10q1 4 4.5 5.5t7 0.5t5.5 -4t-1 -7zM1194 231q-4 -8 -11.5 -4.5t-3.5 10.5q4 8 11.5 4.5t3.5 -10.5zM1214 277q-2 -4 -5 -5t-6 0.5t-4 4t1 6.5q4 7 11 4t3 -10z" />
    <glyph glyph-name="nine" unicode="9" horiz-adv-x="1272" 
d="M358 143h42q5 -51 8.5 -101.5t5.5 -101.5q3 38 5.5 77t7.5 77l6 49h39q5 -42 9 -83t7 -83l3 -37q3 41 4.5 80.5t5.5 78.5q2 11 2.5 22t1.5 22h30l-20 -244h-46q-5 48 -9.5 96.5t-6.5 97.5q-2 -36 -5 -72.5t-7 -72.5l-4 -49h-47l-11 137l-12 -137h-45q-5 48 -10 96.5
t-7 97.5q-2 -36 -4.5 -72.5t-6.5 -72.5l-5 -49h-46l-12 140l-11 -140h-46q-5 48 -9.5 96t-6.5 97q-1 -37 -4 -72.5t-7 -71.5l-6 -49h-45l-21 244h30q5 -51 8.5 -101.5t5.5 -101.5q3 38 5.5 77t7.5 77l6 49h39q5 -42 9 -83t7 -83l3 -37q3 41 4.5 80.5t5.5 78.5l5 44h41
q5 -51 8.5 -101.5t6.5 -101.5q3 38 5.5 77t6.5 77q2 12 3 24t3 25h40q5 -42 8.5 -83t7.5 -83l2 -37q3 41 5 80.5t6 78.5zM1204 671h-1130v22h1130v-22zM1204 -257h-1130v22h1130v-22zM740 -101h-35v244h36q11 0 22 0.5t21 -4.5q17 -8 22 -27.5t5 -36.5v-19t-2.5 -22
t-7.5 -20t-14 -12l30 -103h-39l-21 97h-17v-97zM983 -47v-54h-33v244h32q12 -43 24.5 -85t22.5 -86q-4 43 -4.5 85.5t-0.5 85.5h32v-244h-33q-12 42 -24.5 83.5t-21.5 83.5q2 -29 3 -56.5t3 -56.5zM606 -101h-33l29 244h57l30 -244h-35l-7 58h-33zM1153 52q1 11 0 23.5
t-5 23.5q-3 8 -10.5 13t-14.5 -5q-6 -8 -7 -20.5t-2 -23.5q-1 -12 -1 -23.5v-22.5v-23t2 -23q0 -9 2 -22t11 -18q10 -6 16 1.5t8 20t2.5 25t0.5 17.5h-25v28h58v-123h-26l-1 33q-2 -11 -7.5 -22t-16.5 -14t-22 2t-18 13q-14 17 -16 42t-2 45q-2 26 -1 52.5t8 50.5q2 11 7 21
t15 15q10 6 22 7t23 -3q12 -5 19 -15t10 -22.5t4 -25.5t1 -24zM224 267q5 8 12 14t16 8q8 2 16 -1.5t17 -0.5l-18 -34q-2 -3 -5.5 -10t0.5 -9q5 -4 11 2t11 13q2 5 5 10l6 10l8 18q8 0 15 4l-19 -38q-2 -3 -5 -9.5t1 -9.5q4 -4 10 1.5t10 12.5q4 9 9.5 19t9.5 19q5 9 9 18
t9 18q8 -2 14 3l-27 -55q-2 -5 -4.5 -10t-4.5 -10t-4 -12.5t6 -3.5q5 2 9.5 7t8.5 11q3 8 8 15q5 8 12 14t16 8t17 -1.5t17 -0.5q-5 -8 -9 -16.5t-9 -17.5q-2 -3 -5 -10t0 -9q3 -3 6.5 -1t7 5.5t6.5 8l5 7.5l1 2l32 66q8 0 13 3q-5 -12 -10 -23.5t-13 -22.5q7 7 16.5 11.5
t16.5 -6.5q6 -10 0.5 -23t-12.5 -21q6 -1 11 2t10 7q4 9 9 18.5t10 18.5l18 36q7 -2 13 3q-7 -14 -13 -27.5t-14 -27.5q-2 -5 -4.5 -10t-5.5 -10q-1 -2 -2 -5.5t-1 -6.5t1 -4.5t6 0.5t10.5 8t8.5 12q3 13 12 22q3 3 9.5 7.5t14 6.5t13.5 0.5t8 -10.5q1 -8 -3.5 -15
t-12 -11.5t-16.5 -7t-15 -2.5q-1 -6 3 -9.5t10 -3.5q13 0 24 7t17 18l4 -2q-8 -14 -23 -22.5t-31 -5.5t-16 18q-4 -5 -8 -9.5t-9 -6.5q-7 -4 -14.5 -1.5t-5.5 12.5v2q-2 -2 -4 -2q-4 -3 -12 -3h-7q-2 0 -3 -2t-3 -2q-10 -6 -21.5 -5t-17.5 11q-7 -9 -17 -12q-9 -2 -12.5 3
t-0.5 13q-5 -7 -13.5 -13.5t-17.5 -0.5q-7 4 -7 14q-6 -9 -14 -14q-8 -4 -15 -1.5t-6 10.5q-7 -7 -11 -9q-8 -4 -15.5 -1.5t-5.5 11.5q-4 -4 -8 -7t-9 -5q-9 -2 -12.5 3t0.5 13h-1q-5 -7 -13.5 -13.5t-17.5 -0.5q-5 2 -6 6.5t0 9.5q-5 -5 -10 -6q-4 -2 -13 -2q-5 0 -6 -1
t-4 -3q-5 -3 -11.5 -5t-11.5 -1t-8 5.5t-1 12.5q2 11 8 22t11 21q5 0 13 4q-3 -8 -6 -15t-7 -14q-1 -3 -4 -7.5t-5 -9.5t-2 -9t4 -5q9 -2 17 8t11 15q5 8 8 17.5t3 18.5q9 2 10 -5t-1 -13q-4 -16 -18 -31q8 -2 15 3t11 12zM943 386q-11 0 -17.5 5t-9.5 13t-4.5 17.5
t-1.5 17.5q-2 19 -2 39.5t6 39.5q3 8 8.5 14.5t14.5 7.5q20 5 31 -13q9 -17 9 -37.5v-38.5q0 -9 -0.5 -20.5t-4 -21t-10.5 -16.5t-19 -7zM389 386q-11 0 -17.5 5t-10 13t-4.5 17.5t-2 17.5q-1 19 -1 39.5t6 39.5q3 8 8 14.5t15 7.5q21 5 31 -13q8 -17 8.5 -37.5t0.5 -38.5
q0 -9 -1 -20.5t-4.5 -21t-10 -16.5t-18.5 -7zM867 -101h-35v244h35v-244zM225 387h-21v152h23h14t13 -2q10 -5 13 -16.5t3 -20.5q1 -11 -1 -27.5t-14 -21.5l18 -64h-24l-13 61q-3 0 -5.5 0.5t-5.5 0.5v-62zM1006 421v-34h-20v152h19q8 -26 16 -52.5t14 -53.5q-2 26 -2.5 53
t-0.5 53h20v-152h-21q-8 26 -15.5 52t-13.5 53q2 -18 2.5 -35.5t1.5 -35.5zM88 387h-22v152h34q26 0 32 -26q4 -14 3.5 -32t-8.5 -32q-7 -10 -17.5 -11t-21.5 -1v-50zM452 421v-34h-20v152h19q8 -26 15.5 -52.5t13.5 -53.5q-2 26 -2.5 53t-0.5 53h20v-152h-21
q-7 26 -14.5 52t-13.5 53q2 -18 2 -35.5t2 -35.5zM524 387h-21l18 152h35l19 -152h-21l-5 37h-21zM701 386q-15 0 -22.5 8.5t-10 21t-2 26.5t0.5 26v71h22v-106q0 -5 -0.5 -10t1.5 -10t7 -7.5t10 2.5t5.5 13.5t0.5 14.5q1 12 0.5 24t-0.5 24v55h22v-71q0 -12 0.5 -26
t-2 -26.5t-9.5 -21t-23 -8.5zM1090 288q5 -1 13 3q-3 -6 -5.5 -10.5t-6.5 -9.5v-1q6 7 14.5 13.5t17.5 7.5q12 0 11.5 -9t-3.5 -17q-3 -4 -10 -14.5t-4 -15.5q2 -3 5.5 -2t7 5l7 8t5.5 7l19 38h-8l3 6h8l8 17q8 0 14 3l-10 -20h15l-4 -6h-14l-18 -37l-5 -10t-1 -10
q3 -3 7 -0.5t8.5 7t7.5 9t4 6.5l4 -2q-5 -8 -12 -17t-18 -11q-9 -2 -12 2t-1 10q-3 -3 -6 -5.5t-6 -4.5q-7 -4 -14.5 -2t-6.5 12q1 8 6.5 15.5t8.5 14.5q1 3 3.5 9.5t-4.5 5.5q-11 -2 -20 -14t-14 -20q-4 -5 -6.5 -11.5t-5.5 -12.5h-12l7 16l-1 -1q-4 -2 -10 -4h-9
q-5 -6 -10.5 -8t-8.5 -2q-10 -4 -18 3t-6.5 18t5.5 20q5 9 14 16.5t21 7.5q10 0 14.5 -6t4.5 -14t-3.5 -16.5t-7.5 -14.5q13 0 20 11zM304 458q-23 15 -26 39q-2 11 2 22.5t15 17.5q9 5 21.5 4t20.5 -9q9 -9 9 -19.5v-21.5q-6 0 -11.5 0.5t-10.5 0.5q0 6 0.5 12.5t-4.5 11.5
q-9 8 -14.5 1t-6.5 -15q0 -11 7.5 -18t15.5 -13t14 -13.5t8 -16.5q2 -11 0.5 -21.5t-7 -18.5t-14 -12.5t-20.5 -2.5q-20 4 -22.5 19.5t-1.5 31.5h20q0 -5 -0.5 -10t0.5 -10q2 -6 7.5 -10t11.5 1q5 4 6 12.5t-1 14.5q-2 8 -7 13.5t-12 9.5zM771 458q-23 13 -27 39
q-1 11 2.5 22.5t14.5 17.5q10 5 22 4t20 -9q9 -9 8.5 -19.5t-0.5 -21.5q-5 0 -10 0.5t-10 0.5q0 6 0.5 12.5t-4.5 11.5q-9 8 -14.5 1t-6.5 -15q0 -11 7 -18t15 -13q17 -12 23 -30q2 -11 0.5 -21.5t-7 -18.5t-14.5 -12.5t-21 -2.5q-20 4 -22.5 19.5t-2.5 31.5h22q0 -5 -1 -10
t1 -10q2 -6 7 -10t11 1q6 4 7 12.5t-1 14.5q-2 8 -7 13.5t-12 9.5zM198 387h-55v152h55v-20h-33v-43h27v-22h-27v-46h33v-21zM875 387h-54v152h54v-20h-32v-43h27v-22h-27v-46h32v-21zM128 259l-42 -2q-5 -8 -9 -17t-5 -19q-8 -2 -9.5 2.5t0 11.5t4.5 13.5t5 8.5l-14 -1
l-5 8h23q11 17 26 34t35 27q6 4 16 5t12 -10q2 -5 -0.5 -10.5t-4.5 -10.5q-5 -10 -9.5 -19.5t-9.5 -18.5q-3 -7 -9 -17.5t-3 -18.5q-8 -2 -10 2t-0.5 10t4.5 12.5t5 9.5zM1163 539h21q-5 -21 -10 -42.5t-10 -42.5q-5 -16 -3.5 -33t1.5 -34h-23q0 17 0.5 34t-3.5 33
q-5 21 -10 42.5t-10 42.5h21q4 -19 7.5 -38.5t5.5 -39.5q1 20 5 39t8 39zM800 227q-7 4 -5.5 11.5t4.5 13.5l17 35q6 0 14 4l-13 -27q-2 -4 -8 -14.5t-2 -14.5q6 -5 14.5 2.5t11.5 11.5t5 7.5t5 8.5l12 24q4 0 12 2q-4 -9 -8.5 -18.5t-9.5 -18.5l-5 -10t0 -10q4 -5 10 1
t11 13q4 9 9.5 19t10.5 19l8 18t9 18q7 -2 14 3l-27 -55l-10 -20q-2 -5 -3.5 -12.5t6.5 -3.5q8 3 15 13q4 10 9.5 20t10.5 19l8 18t9 18q7 -2 14 3l-27 -55l-10 -20q-1 -2 -2 -5.5t-1.5 -6.5t0.5 -4.5t6 0.5q7 2 12 9t8 13l4 -2q-5 -8 -10 -15t-13 -11q-7 -4 -14 -1.5
t-6 10.5q-6 -6 -12 -9q-7 -4 -14 -1.5t-6 11.5q-5 -5 -9.5 -9t-10.5 -4q-9 0 -10 6t2 12q-6 -7 -16.5 -14t-18.5 -2zM1114 387h-54v152h22v-133h32v-19zM634 387h-54v152h22v-133h32v-19zM740 21q6 0 12.5 -0.5t11.5 3.5q9 8 11 20t2 22q0 11 -2 24t-10 21q-5 5 -12 4.5
t-13 -0.5v-94zM675 288q6 -1 14 3q-3 -6 -5.5 -10.5t-6.5 -9.5v-1q6 7 14.5 13.5t17.5 7.5q12 0 11.5 -9t-4.5 -17q-2 -4 -9.5 -14.5t-4.5 -15.5q2 -4 6.5 -1.5t8.5 7t7.5 9t4.5 6.5l4 -2l-10 -14t-13 -12q-7 -4 -14 -2t-6 12q1 8 6.5 15.5t8.5 14.5q1 1 2 4t1.5 5.5
t-0.5 4.5t-5 1q-11 -2 -19.5 -14t-13.5 -20l-12 -24h-12l4 9q-2 -2 -4 -3.5t-4 -2.5q-8 -4 -15 -1.5t-5 12.5q0 8 4.5 15t7.5 15q6 9 9 18q10 0 15 4l-19 -38q-2 -3 -5 -9.5t0 -9.5t7 -0.5t8 7t7 9t4 6.5zM943 522q-6 0 -9 -7.5t-4 -17.5t-0.5 -20t0.5 -14t-0.5 -13.5
t0.5 -19.5t4 -17.5t9 -7.5t9 7.5t4 17.5t0.5 19.5t-0.5 13.5t0.5 14t-0.5 20t-4 17.5t-9 7.5zM389 522q-6 0 -9 -7.5t-4 -17.5t-0.5 -20t0.5 -14t-0.5 -13.5t0.5 -19.5t4 -17.5t9 -7.5t8.5 7.5t3.5 17.5t0.5 19.5t-0.5 13.5t0.5 14t-0.5 20t-3.5 17.5t-8.5 7.5zM1190 539h22
q0 -28 -1 -56t-3 -57h-14q-2 29 -3 56.5t-1 56.5zM152 324q-8 2 -18.5 -7t-15.5 -14q-16 -18 -29 -39h42l13 27q1 3 4 8t5 10.5t2.5 9.5t-3.5 5zM1039 311q-5 -3 -6.5 0.5t-0.5 7.5q-11 4 -16.5 -5.5t-7.5 -16.5h14l-3 -6h-14l-44 -90q-4 0 -14 -2l46 92h-15l3 6h15
q3 8 8 16t15 10q6 2 15 -1q2 -1 5.5 -4.5t-0.5 -6.5zM835 311q-5 -3 -7 0.5t-1 7.5q-11 4 -16.5 -5.5t-7.5 -16.5h14l-3 -6h-14l-44 -90q-5 0 -13 -2l45 92h-15l4 6h14q3 8 8 16t15 10q6 2 15 -1q2 -1 5.5 -4.5t0.5 -6.5zM622 31q-2 -10 -3 -20t-3 -20h29q-3 29 -8 58.5
t-7 59.5q-1 -20 -3.5 -39t-4.5 -39zM88 455q5 0 9.5 -0.5t7.5 3.5q5 5 5.5 14t0.5 16t-0.5 16t-5.5 14q-3 5 -7.5 4.5t-9.5 -0.5v-67zM1045 286q-8 0 -15 -9t-11 -19.5t-4 -19t8 -8.5q6 0 13 9t11.5 19.5t4.5 19t-7 8.5zM928 -81q0 -10 -6 -15t-13.5 -5t-13.5 5t-6 15t6 15
t13.5 5t13.5 -5t6 -15zM562 -81q0 -10 -6 -15t-13.5 -5t-13.5 5t-6 15t6 15t13.5 5t13.5 -5t6 -15zM462 283q-7 0 -12.5 -5t-10 -12.5t-8 -16t-6.5 -13.5q11 -8 21 0t15 16q1 2 4 7t4 10.5t0 9.5t-7 4zM231 232q7 0 13 6t10.5 14t8 16.5t6.5 14.5q-10 5 -20 -3t-15 -16
q-1 -2 -4 -7t-4.5 -10.5t-1 -10t6.5 -4.5zM225 464q4 0 8 -0.5t7 1.5q6 5 7 13t1 15q0 6 -1 14.5t-7 12.5q-3 2 -6.5 2h-8.5v-58zM366 232q7 0 13 6t10.5 14t8 16.5t6.5 14.5q-11 5 -20.5 -3t-14.5 -16q-1 -2 -4 -7t-4.5 -10.5t-1 -10t6.5 -4.5zM539 262q-3 -5 -4 -8l-2 -6
q11 0 24.5 9.5t13.5 21.5q0 8 -5.5 7t-10.5 -4q-5 -4 -9 -9.5t-7 -10.5zM533 469l-3 -24h17q-2 18 -4.5 36t-3.5 36q-1 -11 -2.5 -23t-3.5 -25zM1213 400q0 -6 -4 -9.5t-8.5 -3.5t-8 3.5t-3.5 9.5t3.5 9.5t8 3.5t8.5 -3.5t4 -9.5zM667 308q-4 -7 -11.5 -5t-5.5 10q1 4 5 5.5
t7.5 0.5t5 -4t-0.5 -7zM327 308q-3 -7 -10.5 -5t-5.5 10q1 4 4.5 5.5t7 0.5t5.5 -4t-1 -7zM1194 231q-4 -8 -11.5 -4.5t-3.5 10.5q4 8 11.5 4.5t3.5 -10.5zM1214 277q-2 -4 -5 -5t-6 0.5t-4 4t1 6.5q4 7 11 4t3 -10z" />
    <glyph glyph-name="six" unicode="6" horiz-adv-x="1272" 
d="M358 143h42q5 -51 8.5 -101.5t5.5 -101.5q3 38 5.5 77t7.5 77l6 49h39q5 -42 9 -83t7 -83l3 -37q3 41 4.5 80.5t5.5 78.5q2 11 2.5 22t1.5 22h30l-20 -244h-46q-5 48 -9.5 96.5t-6.5 97.5q-2 -36 -5 -72.5t-7 -72.5l-4 -49h-47l-11 137l-12 -137h-45q-5 48 -10 96.5
t-7 97.5q-2 -36 -4.5 -72.5t-6.5 -72.5l-5 -49h-46l-12 140l-11 -140h-46q-5 48 -9.5 96t-6.5 97q-1 -37 -4 -72.5t-7 -71.5l-6 -49h-45l-21 244h30q5 -51 8.5 -101.5t5.5 -101.5q3 38 5.5 77t7.5 77l6 49h39q5 -42 9 -83t7 -83l3 -37q3 41 4.5 80.5t5.5 78.5l5 44h41
q5 -51 8.5 -101.5t6.5 -101.5q3 38 5.5 77t6.5 77q2 12 3 24t3 25h40q5 -42 8.5 -83t7.5 -83l2 -37q3 41 5 80.5t6 78.5zM1204 671h-1130v22h1130v-22zM1204 -257h-1130v22h1130v-22zM740 -101h-35v244h36q11 0 22 0.5t21 -4.5q17 -8 22 -27.5t5 -36.5v-19t-2.5 -22
t-7.5 -20t-14 -12l30 -103h-39l-21 97h-17v-97zM983 -47v-54h-33v244h32q12 -43 24.5 -85t22.5 -86q-4 43 -4.5 85.5t-0.5 85.5h32v-244h-33q-12 42 -24.5 83.5t-21.5 83.5q2 -29 3 -56.5t3 -56.5zM606 -101h-33l29 244h57l30 -244h-35l-7 58h-33zM1153 52q1 11 0 23.5
t-5 23.5q-3 8 -10.5 13t-14.5 -5q-6 -8 -7 -20.5t-2 -23.5q-1 -12 -1 -23.5v-22.5v-23t2 -23q0 -9 2 -22t11 -18q10 -6 16 1.5t8 20t2.5 25t0.5 17.5h-25v28h58v-123h-26l-1 33q-2 -11 -7.5 -22t-16.5 -14t-22 2t-18 13q-14 17 -16 42t-2 45q-2 26 -1 52.5t8 50.5q2 11 7 21
t15 15q10 6 22 7t23 -3q12 -5 19 -15t10 -22.5t4 -25.5t1 -24zM224 267q5 8 12 14t16 8q8 2 16 -1.5t17 -0.5l-18 -34q-2 -3 -5.5 -10t0.5 -9q5 -4 11 2t11 13q2 5 5 10l6 10l8 18q8 0 15 4l-19 -38q-2 -3 -5 -9.5t1 -9.5q4 -4 10 1.5t10 12.5q4 9 9.5 19t9.5 19q5 9 9 18
t9 18q8 -2 14 3l-27 -55q-2 -5 -4.5 -10t-4.5 -10t-4 -12.5t6 -3.5q5 2 9.5 7t8.5 11q3 8 8 15q5 8 12 14t16 8t17 -1.5t17 -0.5q-5 -8 -9 -16.5t-9 -17.5q-2 -3 -5 -10t0 -9q3 -3 6.5 -1t7 5.5t6.5 8l5 7.5l1 2l32 66q8 0 13 3q-5 -12 -10 -23.5t-13 -22.5q7 7 16.5 11.5
t16.5 -6.5q6 -10 0.5 -23t-12.5 -21q6 -1 11 2t10 7q4 9 9 18.5t10 18.5l18 36q7 -2 13 3q-7 -14 -13 -27.5t-14 -27.5q-2 -5 -4.5 -10t-5.5 -10q-1 -2 -2 -5.5t-1 -6.5t1 -4.5t6 0.5t10.5 8t8.5 12q3 13 12 22q3 3 9.5 7.5t14 6.5t13.5 0.5t8 -10.5q1 -8 -3.5 -15
t-12 -11.5t-16.5 -7t-15 -2.5q-1 -6 3 -9.5t10 -3.5q13 0 24 7t17 18l4 -2q-8 -14 -23 -22.5t-31 -5.5t-16 18q-4 -5 -8 -9.5t-9 -6.5q-7 -4 -14.5 -1.5t-5.5 12.5v2q-2 -2 -4 -2q-4 -3 -12 -3h-7q-2 0 -3 -2t-3 -2q-10 -6 -21.5 -5t-17.5 11q-7 -9 -17 -12q-9 -2 -12.5 3
t-0.5 13q-5 -7 -13.5 -13.5t-17.5 -0.5q-7 4 -7 14q-6 -9 -14 -14q-8 -4 -15 -1.5t-6 10.5q-7 -7 -11 -9q-8 -4 -15.5 -1.5t-5.5 11.5q-4 -4 -8 -7t-9 -5q-9 -2 -12.5 3t0.5 13h-1q-5 -7 -13.5 -13.5t-17.5 -0.5q-5 2 -6 6.5t0 9.5q-5 -5 -10 -6q-4 -2 -13 -2q-5 0 -6 -1
t-4 -3q-5 -3 -11.5 -5t-11.5 -1t-8 5.5t-1 12.5q2 11 8 22t11 21q5 0 13 4q-3 -8 -6 -15t-7 -14q-1 -3 -4 -7.5t-5 -9.5t-2 -9t4 -5q9 -2 17 8t11 15q5 8 8 17.5t3 18.5q9 2 10 -5t-1 -13q-4 -16 -18 -31q8 -2 15 3t11 12zM943 386q-11 0 -17.5 5t-9.5 13t-4.5 17.5
t-1.5 17.5q-2 19 -2 39.5t6 39.5q3 8 8.5 14.5t14.5 7.5q20 5 31 -13q9 -17 9 -37.5v-38.5q0 -9 -0.5 -20.5t-4 -21t-10.5 -16.5t-19 -7zM389 386q-11 0 -17.5 5t-10 13t-4.5 17.5t-2 17.5q-1 19 -1 39.5t6 39.5q3 8 8 14.5t15 7.5q21 5 31 -13q8 -17 8.5 -37.5t0.5 -38.5
q0 -9 -1 -20.5t-4.5 -21t-10 -16.5t-18.5 -7zM867 -101h-35v244h35v-244zM225 387h-21v152h23h14t13 -2q10 -5 13 -16.5t3 -20.5q1 -11 -1 -27.5t-14 -21.5l18 -64h-24l-13 61q-3 0 -5.5 0.5t-5.5 0.5v-62zM1006 421v-34h-20v152h19q8 -26 16 -52.5t14 -53.5q-2 26 -2.5 53
t-0.5 53h20v-152h-21q-8 26 -15.5 52t-13.5 53q2 -18 2.5 -35.5t1.5 -35.5zM88 387h-22v152h34q26 0 32 -26q4 -14 3.5 -32t-8.5 -32q-7 -10 -17.5 -11t-21.5 -1v-50zM452 421v-34h-20v152h19q8 -26 15.5 -52.5t13.5 -53.5q-2 26 -2.5 53t-0.5 53h20v-152h-21
q-7 26 -14.5 52t-13.5 53q2 -18 2 -35.5t2 -35.5zM524 387h-21l18 152h35l19 -152h-21l-5 37h-21zM701 386q-15 0 -22.5 8.5t-10 21t-2 26.5t0.5 26v71h22v-106q0 -5 -0.5 -10t1.5 -10t7 -7.5t10 2.5t5.5 13.5t0.5 14.5q1 12 0.5 24t-0.5 24v55h22v-71q0 -12 0.5 -26
t-2 -26.5t-9.5 -21t-23 -8.5zM1090 288q5 -1 13 3q-3 -6 -5.5 -10.5t-6.5 -9.5v-1q6 7 14.5 13.5t17.5 7.5q12 0 11.5 -9t-3.5 -17q-3 -4 -10 -14.5t-4 -15.5q2 -3 5.5 -2t7 5l7 8t5.5 7l19 38h-8l3 6h8l8 17q8 0 14 3l-10 -20h15l-4 -6h-14l-18 -37l-5 -10t-1 -10
q3 -3 7 -0.5t8.5 7t7.5 9t4 6.5l4 -2q-5 -8 -12 -17t-18 -11q-9 -2 -12 2t-1 10q-3 -3 -6 -5.5t-6 -4.5q-7 -4 -14.5 -2t-6.5 12q1 8 6.5 15.5t8.5 14.5q1 3 3.5 9.5t-4.5 5.5q-11 -2 -20 -14t-14 -20q-4 -5 -6.5 -11.5t-5.5 -12.5h-12l7 16l-1 -1q-4 -2 -10 -4h-9
q-5 -6 -10.5 -8t-8.5 -2q-10 -4 -18 3t-6.5 18t5.5 20q5 9 14 16.5t21 7.5q10 0 14.5 -6t4.5 -14t-3.5 -16.5t-7.5 -14.5q13 0 20 11zM304 458q-23 15 -26 39q-2 11 2 22.5t15 17.5q9 5 21.5 4t20.5 -9q9 -9 9 -19.5v-21.5q-6 0 -11.5 0.5t-10.5 0.5q0 6 0.5 12.5t-4.5 11.5
q-9 8 -14.5 1t-6.5 -15q0 -11 7.5 -18t15.5 -13t14 -13.5t8 -16.5q2 -11 0.5 -21.5t-7 -18.5t-14 -12.5t-20.5 -2.5q-20 4 -22.5 19.5t-1.5 31.5h20q0 -5 -0.5 -10t0.5 -10q2 -6 7.5 -10t11.5 1q5 4 6 12.5t-1 14.5q-2 8 -7 13.5t-12 9.5zM771 458q-23 13 -27 39
q-1 11 2.5 22.5t14.5 17.5q10 5 22 4t20 -9q9 -9 8.5 -19.5t-0.5 -21.5q-5 0 -10 0.5t-10 0.5q0 6 0.5 12.5t-4.5 11.5q-9 8 -14.5 1t-6.5 -15q0 -11 7 -18t15 -13q17 -12 23 -30q2 -11 0.5 -21.5t-7 -18.5t-14.5 -12.5t-21 -2.5q-20 4 -22.5 19.5t-2.5 31.5h22q0 -5 -1 -10
t1 -10q2 -6 7 -10t11 1q6 4 7 12.5t-1 14.5q-2 8 -7 13.5t-12 9.5zM198 387h-55v152h55v-20h-33v-43h27v-22h-27v-46h33v-21zM875 387h-54v152h54v-20h-32v-43h27v-22h-27v-46h32v-21zM128 259l-42 -2q-5 -8 -9 -17t-5 -19q-8 -2 -9.5 2.5t0 11.5t4.5 13.5t5 8.5l-14 -1
l-5 8h23q11 17 26 34t35 27q6 4 16 5t12 -10q2 -5 -0.5 -10.5t-4.5 -10.5q-5 -10 -9.5 -19.5t-9.5 -18.5q-3 -7 -9 -17.5t-3 -18.5q-8 -2 -10 2t-0.5 10t4.5 12.5t5 9.5zM1163 539h21q-5 -21 -10 -42.5t-10 -42.5q-5 -16 -3.5 -33t1.5 -34h-23q0 17 0.5 34t-3.5 33
q-5 21 -10 42.5t-10 42.5h21q4 -19 7.5 -38.5t5.5 -39.5q1 20 5 39t8 39zM800 227q-7 4 -5.5 11.5t4.5 13.5l17 35q6 0 14 4l-13 -27q-2 -4 -8 -14.5t-2 -14.5q6 -5 14.5 2.5t11.5 11.5t5 7.5t5 8.5l12 24q4 0 12 2q-4 -9 -8.5 -18.5t-9.5 -18.5l-5 -10t0 -10q4 -5 10 1
t11 13q4 9 9.5 19t10.5 19l8 18t9 18q7 -2 14 3l-27 -55l-10 -20q-2 -5 -3.5 -12.5t6.5 -3.5q8 3 15 13q4 10 9.5 20t10.5 19l8 18t9 18q7 -2 14 3l-27 -55l-10 -20q-1 -2 -2 -5.5t-1.5 -6.5t0.5 -4.5t6 0.5q7 2 12 9t8 13l4 -2q-5 -8 -10 -15t-13 -11q-7 -4 -14 -1.5
t-6 10.5q-6 -6 -12 -9q-7 -4 -14 -1.5t-6 11.5q-5 -5 -9.5 -9t-10.5 -4q-9 0 -10 6t2 12q-6 -7 -16.5 -14t-18.5 -2zM1114 387h-54v152h22v-133h32v-19zM634 387h-54v152h22v-133h32v-19zM740 21q6 0 12.5 -0.5t11.5 3.5q9 8 11 20t2 22q0 11 -2 24t-10 21q-5 5 -12 4.5
t-13 -0.5v-94zM675 288q6 -1 14 3q-3 -6 -5.5 -10.5t-6.5 -9.5v-1q6 7 14.5 13.5t17.5 7.5q12 0 11.5 -9t-4.5 -17q-2 -4 -9.5 -14.5t-4.5 -15.5q2 -4 6.5 -1.5t8.5 7t7.5 9t4.5 6.5l4 -2l-10 -14t-13 -12q-7 -4 -14 -2t-6 12q1 8 6.5 15.5t8.5 14.5q1 1 2 4t1.5 5.5
t-0.5 4.5t-5 1q-11 -2 -19.5 -14t-13.5 -20l-12 -24h-12l4 9q-2 -2 -4 -3.5t-4 -2.5q-8 -4 -15 -1.5t-5 12.5q0 8 4.5 15t7.5 15q6 9 9 18q10 0 15 4l-19 -38q-2 -3 -5 -9.5t0 -9.5t7 -0.5t8 7t7 9t4 6.5zM943 522q-6 0 -9 -7.5t-4 -17.5t-0.5 -20t0.5 -14t-0.5 -13.5
t0.5 -19.5t4 -17.5t9 -7.5t9 7.5t4 17.5t0.5 19.5t-0.5 13.5t0.5 14t-0.5 20t-4 17.5t-9 7.5zM389 522q-6 0 -9 -7.5t-4 -17.5t-0.5 -20t0.5 -14t-0.5 -13.5t0.5 -19.5t4 -17.5t9 -7.5t8.5 7.5t3.5 17.5t0.5 19.5t-0.5 13.5t0.5 14t-0.5 20t-3.5 17.5t-8.5 7.5zM1190 539h22
q0 -28 -1 -56t-3 -57h-14q-2 29 -3 56.5t-1 56.5zM152 324q-8 2 -18.5 -7t-15.5 -14q-16 -18 -29 -39h42l13 27q1 3 4 8t5 10.5t2.5 9.5t-3.5 5zM1039 311q-5 -3 -6.5 0.5t-0.5 7.5q-11 4 -16.5 -5.5t-7.5 -16.5h14l-3 -6h-14l-44 -90q-4 0 -14 -2l46 92h-15l3 6h15
q3 8 8 16t15 10q6 2 15 -1q2 -1 5.5 -4.5t-0.5 -6.5zM835 311q-5 -3 -7 0.5t-1 7.5q-11 4 -16.5 -5.5t-7.5 -16.5h14l-3 -6h-14l-44 -90q-5 0 -13 -2l45 92h-15l4 6h14q3 8 8 16t15 10q6 2 15 -1q2 -1 5.5 -4.5t0.5 -6.5zM622 31q-2 -10 -3 -20t-3 -20h29q-3 29 -8 58.5
t-7 59.5q-1 -20 -3.5 -39t-4.5 -39zM88 455q5 0 9.5 -0.5t7.5 3.5q5 5 5.5 14t0.5 16t-0.5 16t-5.5 14q-3 5 -7.5 4.5t-9.5 -0.5v-67zM1045 286q-8 0 -15 -9t-11 -19.5t-4 -19t8 -8.5q6 0 13 9t11.5 19.5t4.5 19t-7 8.5zM928 -81q0 -10 -6 -15t-13.5 -5t-13.5 5t-6 15t6 15
t13.5 5t13.5 -5t6 -15zM562 -81q0 -10 -6 -15t-13.5 -5t-13.5 5t-6 15t6 15t13.5 5t13.5 -5t6 -15zM462 283q-7 0 -12.5 -5t-10 -12.5t-8 -16t-6.5 -13.5q11 -8 21 0t15 16q1 2 4 7t4 10.5t0 9.5t-7 4zM231 232q7 0 13 6t10.5 14t8 16.5t6.5 14.5q-10 5 -20 -3t-15 -16
q-1 -2 -4 -7t-4.5 -10.5t-1 -10t6.5 -4.5zM225 464q4 0 8 -0.5t7 1.5q6 5 7 13t1 15q0 6 -1 14.5t-7 12.5q-3 2 -6.5 2h-8.5v-58zM366 232q7 0 13 6t10.5 14t8 16.5t6.5 14.5q-11 5 -20.5 -3t-14.5 -16q-1 -2 -4 -7t-4.5 -10.5t-1 -10t6.5 -4.5zM539 262q-3 -5 -4 -8l-2 -6
q11 0 24.5 9.5t13.5 21.5q0 8 -5.5 7t-10.5 -4q-5 -4 -9 -9.5t-7 -10.5zM533 469l-3 -24h17q-2 18 -4.5 36t-3.5 36q-1 -11 -2.5 -23t-3.5 -25zM1213 400q0 -6 -4 -9.5t-8.5 -3.5t-8 3.5t-3.5 9.5t3.5 9.5t8 3.5t8.5 -3.5t4 -9.5zM667 308q-4 -7 -11.5 -5t-5.5 10q1 4 5 5.5
t7.5 0.5t5 -4t-0.5 -7zM327 308q-3 -7 -10.5 -5t-5.5 10q1 4 4.5 5.5t7 0.5t5.5 -4t-1 -7zM1194 231q-4 -8 -11.5 -4.5t-3.5 10.5q4 8 11.5 4.5t3.5 -10.5zM1214 277q-2 -4 -5 -5t-6 0.5t-4 4t1 6.5q4 7 11 4t3 -10z" />
    <glyph glyph-name="seven" unicode="7" horiz-adv-x="1272" 
d="M358 143h42q5 -51 8.5 -101.5t5.5 -101.5q3 38 5.5 77t7.5 77l6 49h39q5 -42 9 -83t7 -83l3 -37q3 41 4.5 80.5t5.5 78.5q2 11 2.5 22t1.5 22h30l-20 -244h-46q-5 48 -9.5 96.5t-6.5 97.5q-2 -36 -5 -72.5t-7 -72.5l-4 -49h-47l-11 137l-12 -137h-45q-5 48 -10 96.5
t-7 97.5q-2 -36 -4.5 -72.5t-6.5 -72.5l-5 -49h-46l-12 140l-11 -140h-46q-5 48 -9.5 96t-6.5 97q-1 -37 -4 -72.5t-7 -71.5l-6 -49h-45l-21 244h30q5 -51 8.5 -101.5t5.5 -101.5q3 38 5.5 77t7.5 77l6 49h39q5 -42 9 -83t7 -83l3 -37q3 41 4.5 80.5t5.5 78.5l5 44h41
q5 -51 8.5 -101.5t6.5 -101.5q3 38 5.5 77t6.5 77q2 12 3 24t3 25h40q5 -42 8.5 -83t7.5 -83l2 -37q3 41 5 80.5t6 78.5zM1204 671h-1130v22h1130v-22zM1204 -257h-1130v22h1130v-22zM740 -101h-35v244h36q11 0 22 0.5t21 -4.5q17 -8 22 -27.5t5 -36.5v-19t-2.5 -22
t-7.5 -20t-14 -12l30 -103h-39l-21 97h-17v-97zM983 -47v-54h-33v244h32q12 -43 24.5 -85t22.5 -86q-4 43 -4.5 85.5t-0.5 85.5h32v-244h-33q-12 42 -24.5 83.5t-21.5 83.5q2 -29 3 -56.5t3 -56.5zM606 -101h-33l29 244h57l30 -244h-35l-7 58h-33zM1153 52q1 11 0 23.5
t-5 23.5q-3 8 -10.5 13t-14.5 -5q-6 -8 -7 -20.5t-2 -23.5q-1 -12 -1 -23.5v-22.5v-23t2 -23q0 -9 2 -22t11 -18q10 -6 16 1.5t8 20t2.5 25t0.5 17.5h-25v28h58v-123h-26l-1 33q-2 -11 -7.5 -22t-16.5 -14t-22 2t-18 13q-14 17 -16 42t-2 45q-2 26 -1 52.5t8 50.5q2 11 7 21
t15 15q10 6 22 7t23 -3q12 -5 19 -15t10 -22.5t4 -25.5t1 -24zM224 267q5 8 12 14t16 8q8 2 16 -1.5t17 -0.5l-18 -34q-2 -3 -5.5 -10t0.5 -9q5 -4 11 2t11 13q2 5 5 10l6 10l8 18q8 0 15 4l-19 -38q-2 -3 -5 -9.5t1 -9.5q4 -4 10 1.5t10 12.5q4 9 9.5 19t9.5 19q5 9 9 18
t9 18q8 -2 14 3l-27 -55q-2 -5 -4.5 -10t-4.5 -10t-4 -12.5t6 -3.5q5 2 9.5 7t8.5 11q3 8 8 15q5 8 12 14t16 8t17 -1.5t17 -0.5q-5 -8 -9 -16.5t-9 -17.5q-2 -3 -5 -10t0 -9q3 -3 6.5 -1t7 5.5t6.5 8l5 7.5l1 2l32 66q8 0 13 3q-5 -12 -10 -23.5t-13 -22.5q7 7 16.5 11.5
t16.5 -6.5q6 -10 0.5 -23t-12.5 -21q6 -1 11 2t10 7q4 9 9 18.5t10 18.5l18 36q7 -2 13 3q-7 -14 -13 -27.5t-14 -27.5q-2 -5 -4.5 -10t-5.5 -10q-1 -2 -2 -5.5t-1 -6.5t1 -4.5t6 0.5t10.5 8t8.5 12q3 13 12 22q3 3 9.5 7.5t14 6.5t13.5 0.5t8 -10.5q1 -8 -3.5 -15
t-12 -11.5t-16.5 -7t-15 -2.5q-1 -6 3 -9.5t10 -3.5q13 0 24 7t17 18l4 -2q-8 -14 -23 -22.5t-31 -5.5t-16 18q-4 -5 -8 -9.5t-9 -6.5q-7 -4 -14.5 -1.5t-5.5 12.5v2q-2 -2 -4 -2q-4 -3 -12 -3h-7q-2 0 -3 -2t-3 -2q-10 -6 -21.5 -5t-17.5 11q-7 -9 -17 -12q-9 -2 -12.5 3
t-0.5 13q-5 -7 -13.5 -13.5t-17.5 -0.5q-7 4 -7 14q-6 -9 -14 -14q-8 -4 -15 -1.5t-6 10.5q-7 -7 -11 -9q-8 -4 -15.5 -1.5t-5.5 11.5q-4 -4 -8 -7t-9 -5q-9 -2 -12.5 3t0.5 13h-1q-5 -7 -13.5 -13.5t-17.5 -0.5q-5 2 -6 6.5t0 9.5q-5 -5 -10 -6q-4 -2 -13 -2q-5 0 -6 -1
t-4 -3q-5 -3 -11.5 -5t-11.5 -1t-8 5.5t-1 12.5q2 11 8 22t11 21q5 0 13 4q-3 -8 -6 -15t-7 -14q-1 -3 -4 -7.5t-5 -9.5t-2 -9t4 -5q9 -2 17 8t11 15q5 8 8 17.5t3 18.5q9 2 10 -5t-1 -13q-4 -16 -18 -31q8 -2 15 3t11 12zM943 386q-11 0 -17.5 5t-9.5 13t-4.5 17.5
t-1.5 17.5q-2 19 -2 39.5t6 39.5q3 8 8.5 14.5t14.5 7.5q20 5 31 -13q9 -17 9 -37.5v-38.5q0 -9 -0.5 -20.5t-4 -21t-10.5 -16.5t-19 -7zM389 386q-11 0 -17.5 5t-10 13t-4.5 17.5t-2 17.5q-1 19 -1 39.5t6 39.5q3 8 8 14.5t15 7.5q21 5 31 -13q8 -17 8.5 -37.5t0.5 -38.5
q0 -9 -1 -20.5t-4.5 -21t-10 -16.5t-18.5 -7zM867 -101h-35v244h35v-244zM225 387h-21v152h23h14t13 -2q10 -5 13 -16.5t3 -20.5q1 -11 -1 -27.5t-14 -21.5l18 -64h-24l-13 61q-3 0 -5.5 0.5t-5.5 0.5v-62zM1006 421v-34h-20v152h19q8 -26 16 -52.5t14 -53.5q-2 26 -2.5 53
t-0.5 53h20v-152h-21q-8 26 -15.5 52t-13.5 53q2 -18 2.5 -35.5t1.5 -35.5zM88 387h-22v152h34q26 0 32 -26q4 -14 3.5 -32t-8.5 -32q-7 -10 -17.5 -11t-21.5 -1v-50zM452 421v-34h-20v152h19q8 -26 15.5 -52.5t13.5 -53.5q-2 26 -2.5 53t-0.5 53h20v-152h-21
q-7 26 -14.5 52t-13.5 53q2 -18 2 -35.5t2 -35.5zM524 387h-21l18 152h35l19 -152h-21l-5 37h-21zM701 386q-15 0 -22.5 8.5t-10 21t-2 26.5t0.5 26v71h22v-106q0 -5 -0.5 -10t1.5 -10t7 -7.5t10 2.5t5.5 13.5t0.5 14.5q1 12 0.5 24t-0.5 24v55h22v-71q0 -12 0.5 -26
t-2 -26.5t-9.5 -21t-23 -8.5zM1090 288q5 -1 13 3q-3 -6 -5.5 -10.5t-6.5 -9.5v-1q6 7 14.5 13.5t17.5 7.5q12 0 11.5 -9t-3.5 -17q-3 -4 -10 -14.5t-4 -15.5q2 -3 5.5 -2t7 5l7 8t5.5 7l19 38h-8l3 6h8l8 17q8 0 14 3l-10 -20h15l-4 -6h-14l-18 -37l-5 -10t-1 -10
q3 -3 7 -0.5t8.5 7t7.5 9t4 6.5l4 -2q-5 -8 -12 -17t-18 -11q-9 -2 -12 2t-1 10q-3 -3 -6 -5.5t-6 -4.5q-7 -4 -14.5 -2t-6.5 12q1 8 6.5 15.5t8.5 14.5q1 3 3.5 9.5t-4.5 5.5q-11 -2 -20 -14t-14 -20q-4 -5 -6.5 -11.5t-5.5 -12.5h-12l7 16l-1 -1q-4 -2 -10 -4h-9
q-5 -6 -10.5 -8t-8.5 -2q-10 -4 -18 3t-6.5 18t5.5 20q5 9 14 16.5t21 7.5q10 0 14.5 -6t4.5 -14t-3.5 -16.5t-7.5 -14.5q13 0 20 11zM304 458q-23 15 -26 39q-2 11 2 22.5t15 17.5q9 5 21.5 4t20.5 -9q9 -9 9 -19.5v-21.5q-6 0 -11.5 0.5t-10.5 0.5q0 6 0.5 12.5t-4.5 11.5
q-9 8 -14.5 1t-6.5 -15q0 -11 7.5 -18t15.5 -13t14 -13.5t8 -16.5q2 -11 0.5 -21.5t-7 -18.5t-14 -12.5t-20.5 -2.5q-20 4 -22.5 19.5t-1.5 31.5h20q0 -5 -0.5 -10t0.5 -10q2 -6 7.5 -10t11.5 1q5 4 6 12.5t-1 14.5q-2 8 -7 13.5t-12 9.5zM771 458q-23 13 -27 39
q-1 11 2.5 22.5t14.5 17.5q10 5 22 4t20 -9q9 -9 8.5 -19.5t-0.5 -21.5q-5 0 -10 0.5t-10 0.5q0 6 0.5 12.5t-4.5 11.5q-9 8 -14.5 1t-6.5 -15q0 -11 7 -18t15 -13q17 -12 23 -30q2 -11 0.5 -21.5t-7 -18.5t-14.5 -12.5t-21 -2.5q-20 4 -22.5 19.5t-2.5 31.5h22q0 -5 -1 -10
t1 -10q2 -6 7 -10t11 1q6 4 7 12.5t-1 14.5q-2 8 -7 13.5t-12 9.5zM198 387h-55v152h55v-20h-33v-43h27v-22h-27v-46h33v-21zM875 387h-54v152h54v-20h-32v-43h27v-22h-27v-46h32v-21zM128 259l-42 -2q-5 -8 -9 -17t-5 -19q-8 -2 -9.5 2.5t0 11.5t4.5 13.5t5 8.5l-14 -1
l-5 8h23q11 17 26 34t35 27q6 4 16 5t12 -10q2 -5 -0.5 -10.5t-4.5 -10.5q-5 -10 -9.5 -19.5t-9.5 -18.5q-3 -7 -9 -17.5t-3 -18.5q-8 -2 -10 2t-0.5 10t4.5 12.5t5 9.5zM1163 539h21q-5 -21 -10 -42.5t-10 -42.5q-5 -16 -3.5 -33t1.5 -34h-23q0 17 0.5 34t-3.5 33
q-5 21 -10 42.5t-10 42.5h21q4 -19 7.5 -38.5t5.5 -39.5q1 20 5 39t8 39zM800 227q-7 4 -5.5 11.5t4.5 13.5l17 35q6 0 14 4l-13 -27q-2 -4 -8 -14.5t-2 -14.5q6 -5 14.5 2.5t11.5 11.5t5 7.5t5 8.5l12 24q4 0 12 2q-4 -9 -8.5 -18.5t-9.5 -18.5l-5 -10t0 -10q4 -5 10 1
t11 13q4 9 9.5 19t10.5 19l8 18t9 18q7 -2 14 3l-27 -55l-10 -20q-2 -5 -3.5 -12.5t6.5 -3.5q8 3 15 13q4 10 9.5 20t10.5 19l8 18t9 18q7 -2 14 3l-27 -55l-10 -20q-1 -2 -2 -5.5t-1.5 -6.5t0.5 -4.5t6 0.5q7 2 12 9t8 13l4 -2q-5 -8 -10 -15t-13 -11q-7 -4 -14 -1.5
t-6 10.5q-6 -6 -12 -9q-7 -4 -14 -1.5t-6 11.5q-5 -5 -9.5 -9t-10.5 -4q-9 0 -10 6t2 12q-6 -7 -16.5 -14t-18.5 -2zM1114 387h-54v152h22v-133h32v-19zM634 387h-54v152h22v-133h32v-19zM740 21q6 0 12.5 -0.5t11.5 3.5q9 8 11 20t2 22q0 11 -2 24t-10 21q-5 5 -12 4.5
t-13 -0.5v-94zM675 288q6 -1 14 3q-3 -6 -5.5 -10.5t-6.5 -9.5v-1q6 7 14.5 13.5t17.5 7.5q12 0 11.5 -9t-4.5 -17q-2 -4 -9.5 -14.5t-4.5 -15.5q2 -4 6.5 -1.5t8.5 7t7.5 9t4.5 6.5l4 -2l-10 -14t-13 -12q-7 -4 -14 -2t-6 12q1 8 6.5 15.5t8.5 14.5q1 1 2 4t1.5 5.5
t-0.5 4.5t-5 1q-11 -2 -19.5 -14t-13.5 -20l-12 -24h-12l4 9q-2 -2 -4 -3.5t-4 -2.5q-8 -4 -15 -1.5t-5 12.5q0 8 4.5 15t7.5 15q6 9 9 18q10 0 15 4l-19 -38q-2 -3 -5 -9.5t0 -9.5t7 -0.5t8 7t7 9t4 6.5zM943 522q-6 0 -9 -7.5t-4 -17.5t-0.5 -20t0.5 -14t-0.5 -13.5
t0.5 -19.5t4 -17.5t9 -7.5t9 7.5t4 17.5t0.5 19.5t-0.5 13.5t0.5 14t-0.5 20t-4 17.5t-9 7.5zM389 522q-6 0 -9 -7.5t-4 -17.5t-0.5 -20t0.5 -14t-0.5 -13.5t0.5 -19.5t4 -17.5t9 -7.5t8.5 7.5t3.5 17.5t0.5 19.5t-0.5 13.5t0.5 14t-0.5 20t-3.5 17.5t-8.5 7.5zM1190 539h22
q0 -28 -1 -56t-3 -57h-14q-2 29 -3 56.5t-1 56.5zM152 324q-8 2 -18.5 -7t-15.5 -14q-16 -18 -29 -39h42l13 27q1 3 4 8t5 10.5t2.5 9.5t-3.5 5zM1039 311q-5 -3 -6.5 0.5t-0.5 7.5q-11 4 -16.5 -5.5t-7.5 -16.5h14l-3 -6h-14l-44 -90q-4 0 -14 -2l46 92h-15l3 6h15
q3 8 8 16t15 10q6 2 15 -1q2 -1 5.5 -4.5t-0.5 -6.5zM835 311q-5 -3 -7 0.5t-1 7.5q-11 4 -16.5 -5.5t-7.5 -16.5h14l-3 -6h-14l-44 -90q-5 0 -13 -2l45 92h-15l4 6h14q3 8 8 16t15 10q6 2 15 -1q2 -1 5.5 -4.5t0.5 -6.5zM622 31q-2 -10 -3 -20t-3 -20h29q-3 29 -8 58.5
t-7 59.5q-1 -20 -3.5 -39t-4.5 -39zM88 455q5 0 9.5 -0.5t7.5 3.5q5 5 5.5 14t0.5 16t-0.5 16t-5.5 14q-3 5 -7.5 4.5t-9.5 -0.5v-67zM1045 286q-8 0 -15 -9t-11 -19.5t-4 -19t8 -8.5q6 0 13 9t11.5 19.5t4.5 19t-7 8.5zM928 -81q0 -10 -6 -15t-13.5 -5t-13.5 5t-6 15t6 15
t13.5 5t13.5 -5t6 -15zM562 -81q0 -10 -6 -15t-13.5 -5t-13.5 5t-6 15t6 15t13.5 5t13.5 -5t6 -15zM462 283q-7 0 -12.5 -5t-10 -12.5t-8 -16t-6.5 -13.5q11 -8 21 0t15 16q1 2 4 7t4 10.5t0 9.5t-7 4zM231 232q7 0 13 6t10.5 14t8 16.5t6.5 14.5q-10 5 -20 -3t-15 -16
q-1 -2 -4 -7t-4.5 -10.5t-1 -10t6.5 -4.5zM225 464q4 0 8 -0.5t7 1.5q6 5 7 13t1 15q0 6 -1 14.5t-7 12.5q-3 2 -6.5 2h-8.5v-58zM366 232q7 0 13 6t10.5 14t8 16.5t6.5 14.5q-11 5 -20.5 -3t-14.5 -16q-1 -2 -4 -7t-4.5 -10.5t-1 -10t6.5 -4.5zM539 262q-3 -5 -4 -8l-2 -6
q11 0 24.5 9.5t13.5 21.5q0 8 -5.5 7t-10.5 -4q-5 -4 -9 -9.5t-7 -10.5zM533 469l-3 -24h17q-2 18 -4.5 36t-3.5 36q-1 -11 -2.5 -23t-3.5 -25zM1213 400q0 -6 -4 -9.5t-8.5 -3.5t-8 3.5t-3.5 9.5t3.5 9.5t8 3.5t8.5 -3.5t4 -9.5zM667 308q-4 -7 -11.5 -5t-5.5 10q1 4 5 5.5
t7.5 0.5t5 -4t-0.5 -7zM327 308q-3 -7 -10.5 -5t-5.5 10q1 4 4.5 5.5t7 0.5t5.5 -4t-1 -7zM1194 231q-4 -8 -11.5 -4.5t-3.5 10.5q4 8 11.5 4.5t3.5 -10.5zM1214 277q-2 -4 -5 -5t-6 0.5t-4 4t1 6.5q4 7 11 4t3 -10z" />
    <glyph glyph-name="five" unicode="5" horiz-adv-x="1272" 
d="M358 143h42q5 -51 8.5 -101.5t5.5 -101.5q3 38 5.5 77t7.5 77l6 49h39q5 -42 9 -83t7 -83l3 -37q3 41 4.5 80.5t5.5 78.5q2 11 2.5 22t1.5 22h30l-20 -244h-46q-5 48 -9.5 96.5t-6.5 97.5q-2 -36 -5 -72.5t-7 -72.5l-4 -49h-47l-11 137l-12 -137h-45q-5 48 -10 96.5
t-7 97.5q-2 -36 -4.5 -72.5t-6.5 -72.5l-5 -49h-46l-12 140l-11 -140h-46q-5 48 -9.5 96t-6.5 97q-1 -37 -4 -72.5t-7 -71.5l-6 -49h-45l-21 244h30q5 -51 8.5 -101.5t5.5 -101.5q3 38 5.5 77t7.5 77l6 49h39q5 -42 9 -83t7 -83l3 -37q3 41 4.5 80.5t5.5 78.5l5 44h41
q5 -51 8.5 -101.5t6.5 -101.5q3 38 5.5 77t6.5 77q2 12 3 24t3 25h40q5 -42 8.5 -83t7.5 -83l2 -37q3 41 5 80.5t6 78.5zM1204 671h-1130v22h1130v-22zM1204 -257h-1130v22h1130v-22zM740 -101h-35v244h36q11 0 22 0.5t21 -4.5q17 -8 22 -27.5t5 -36.5v-19t-2.5 -22
t-7.5 -20t-14 -12l30 -103h-39l-21 97h-17v-97zM983 -47v-54h-33v244h32q12 -43 24.5 -85t22.5 -86q-4 43 -4.5 85.5t-0.5 85.5h32v-244h-33q-12 42 -24.5 83.5t-21.5 83.5q2 -29 3 -56.5t3 -56.5zM606 -101h-33l29 244h57l30 -244h-35l-7 58h-33zM1153 52q1 11 0 23.5
t-5 23.5q-3 8 -10.5 13t-14.5 -5q-6 -8 -7 -20.5t-2 -23.5q-1 -12 -1 -23.5v-22.5v-23t2 -23q0 -9 2 -22t11 -18q10 -6 16 1.5t8 20t2.5 25t0.5 17.5h-25v28h58v-123h-26l-1 33q-2 -11 -7.5 -22t-16.5 -14t-22 2t-18 13q-14 17 -16 42t-2 45q-2 26 -1 52.5t8 50.5q2 11 7 21
t15 15q10 6 22 7t23 -3q12 -5 19 -15t10 -22.5t4 -25.5t1 -24zM224 267q5 8 12 14t16 8q8 2 16 -1.5t17 -0.5l-18 -34q-2 -3 -5.5 -10t0.5 -9q5 -4 11 2t11 13q2 5 5 10l6 10l8 18q8 0 15 4l-19 -38q-2 -3 -5 -9.5t1 -9.5q4 -4 10 1.5t10 12.5q4 9 9.5 19t9.5 19q5 9 9 18
t9 18q8 -2 14 3l-27 -55q-2 -5 -4.5 -10t-4.5 -10t-4 -12.5t6 -3.5q5 2 9.5 7t8.5 11q3 8 8 15q5 8 12 14t16 8t17 -1.5t17 -0.5q-5 -8 -9 -16.5t-9 -17.5q-2 -3 -5 -10t0 -9q3 -3 6.5 -1t7 5.5t6.5 8l5 7.5l1 2l32 66q8 0 13 3q-5 -12 -10 -23.5t-13 -22.5q7 7 16.5 11.5
t16.5 -6.5q6 -10 0.5 -23t-12.5 -21q6 -1 11 2t10 7q4 9 9 18.5t10 18.5l18 36q7 -2 13 3q-7 -14 -13 -27.5t-14 -27.5q-2 -5 -4.5 -10t-5.5 -10q-1 -2 -2 -5.5t-1 -6.5t1 -4.5t6 0.5t10.5 8t8.5 12q3 13 12 22q3 3 9.5 7.5t14 6.5t13.5 0.5t8 -10.5q1 -8 -3.5 -15
t-12 -11.5t-16.5 -7t-15 -2.5q-1 -6 3 -9.5t10 -3.5q13 0 24 7t17 18l4 -2q-8 -14 -23 -22.5t-31 -5.5t-16 18q-4 -5 -8 -9.5t-9 -6.5q-7 -4 -14.5 -1.5t-5.5 12.5v2q-2 -2 -4 -2q-4 -3 -12 -3h-7q-2 0 -3 -2t-3 -2q-10 -6 -21.5 -5t-17.5 11q-7 -9 -17 -12q-9 -2 -12.5 3
t-0.5 13q-5 -7 -13.5 -13.5t-17.5 -0.5q-7 4 -7 14q-6 -9 -14 -14q-8 -4 -15 -1.5t-6 10.5q-7 -7 -11 -9q-8 -4 -15.5 -1.5t-5.5 11.5q-4 -4 -8 -7t-9 -5q-9 -2 -12.5 3t0.5 13h-1q-5 -7 -13.5 -13.5t-17.5 -0.5q-5 2 -6 6.5t0 9.5q-5 -5 -10 -6q-4 -2 -13 -2q-5 0 -6 -1
t-4 -3q-5 -3 -11.5 -5t-11.5 -1t-8 5.5t-1 12.5q2 11 8 22t11 21q5 0 13 4q-3 -8 -6 -15t-7 -14q-1 -3 -4 -7.5t-5 -9.5t-2 -9t4 -5q9 -2 17 8t11 15q5 8 8 17.5t3 18.5q9 2 10 -5t-1 -13q-4 -16 -18 -31q8 -2 15 3t11 12zM943 386q-11 0 -17.5 5t-9.5 13t-4.5 17.5
t-1.5 17.5q-2 19 -2 39.5t6 39.5q3 8 8.5 14.5t14.5 7.5q20 5 31 -13q9 -17 9 -37.5v-38.5q0 -9 -0.5 -20.5t-4 -21t-10.5 -16.5t-19 -7zM389 386q-11 0 -17.5 5t-10 13t-4.5 17.5t-2 17.5q-1 19 -1 39.5t6 39.5q3 8 8 14.5t15 7.5q21 5 31 -13q8 -17 8.5 -37.5t0.5 -38.5
q0 -9 -1 -20.5t-4.5 -21t-10 -16.5t-18.5 -7zM867 -101h-35v244h35v-244zM225 387h-21v152h23h14t13 -2q10 -5 13 -16.5t3 -20.5q1 -11 -1 -27.5t-14 -21.5l18 -64h-24l-13 61q-3 0 -5.5 0.5t-5.5 0.5v-62zM1006 421v-34h-20v152h19q8 -26 16 -52.5t14 -53.5q-2 26 -2.5 53
t-0.5 53h20v-152h-21q-8 26 -15.5 52t-13.5 53q2 -18 2.5 -35.5t1.5 -35.5zM88 387h-22v152h34q26 0 32 -26q4 -14 3.5 -32t-8.5 -32q-7 -10 -17.5 -11t-21.5 -1v-50zM452 421v-34h-20v152h19q8 -26 15.5 -52.5t13.5 -53.5q-2 26 -2.5 53t-0.5 53h20v-152h-21
q-7 26 -14.5 52t-13.5 53q2 -18 2 -35.5t2 -35.5zM524 387h-21l18 152h35l19 -152h-21l-5 37h-21zM701 386q-15 0 -22.5 8.5t-10 21t-2 26.5t0.5 26v71h22v-106q0 -5 -0.5 -10t1.5 -10t7 -7.5t10 2.5t5.5 13.5t0.5 14.5q1 12 0.5 24t-0.5 24v55h22v-71q0 -12 0.5 -26
t-2 -26.5t-9.5 -21t-23 -8.5zM1090 288q5 -1 13 3q-3 -6 -5.5 -10.5t-6.5 -9.5v-1q6 7 14.5 13.5t17.5 7.5q12 0 11.5 -9t-3.5 -17q-3 -4 -10 -14.5t-4 -15.5q2 -3 5.5 -2t7 5l7 8t5.5 7l19 38h-8l3 6h8l8 17q8 0 14 3l-10 -20h15l-4 -6h-14l-18 -37l-5 -10t-1 -10
q3 -3 7 -0.5t8.5 7t7.5 9t4 6.5l4 -2q-5 -8 -12 -17t-18 -11q-9 -2 -12 2t-1 10q-3 -3 -6 -5.5t-6 -4.5q-7 -4 -14.5 -2t-6.5 12q1 8 6.5 15.5t8.5 14.5q1 3 3.5 9.5t-4.5 5.5q-11 -2 -20 -14t-14 -20q-4 -5 -6.5 -11.5t-5.5 -12.5h-12l7 16l-1 -1q-4 -2 -10 -4h-9
q-5 -6 -10.5 -8t-8.5 -2q-10 -4 -18 3t-6.5 18t5.5 20q5 9 14 16.5t21 7.5q10 0 14.5 -6t4.5 -14t-3.5 -16.5t-7.5 -14.5q13 0 20 11zM304 458q-23 15 -26 39q-2 11 2 22.5t15 17.5q9 5 21.5 4t20.5 -9q9 -9 9 -19.5v-21.5q-6 0 -11.5 0.5t-10.5 0.5q0 6 0.5 12.5t-4.5 11.5
q-9 8 -14.5 1t-6.5 -15q0 -11 7.5 -18t15.5 -13t14 -13.5t8 -16.5q2 -11 0.5 -21.5t-7 -18.5t-14 -12.5t-20.5 -2.5q-20 4 -22.5 19.5t-1.5 31.5h20q0 -5 -0.5 -10t0.5 -10q2 -6 7.5 -10t11.5 1q5 4 6 12.5t-1 14.5q-2 8 -7 13.5t-12 9.5zM771 458q-23 13 -27 39
q-1 11 2.5 22.5t14.5 17.5q10 5 22 4t20 -9q9 -9 8.5 -19.5t-0.5 -21.5q-5 0 -10 0.5t-10 0.5q0 6 0.5 12.5t-4.5 11.5q-9 8 -14.5 1t-6.5 -15q0 -11 7 -18t15 -13q17 -12 23 -30q2 -11 0.5 -21.5t-7 -18.5t-14.5 -12.5t-21 -2.5q-20 4 -22.5 19.5t-2.5 31.5h22q0 -5 -1 -10
t1 -10q2 -6 7 -10t11 1q6 4 7 12.5t-1 14.5q-2 8 -7 13.5t-12 9.5zM198 387h-55v152h55v-20h-33v-43h27v-22h-27v-46h33v-21zM875 387h-54v152h54v-20h-32v-43h27v-22h-27v-46h32v-21zM128 259l-42 -2q-5 -8 -9 -17t-5 -19q-8 -2 -9.5 2.5t0 11.5t4.5 13.5t5 8.5l-14 -1
l-5 8h23q11 17 26 34t35 27q6 4 16 5t12 -10q2 -5 -0.5 -10.5t-4.5 -10.5q-5 -10 -9.5 -19.5t-9.5 -18.5q-3 -7 -9 -17.5t-3 -18.5q-8 -2 -10 2t-0.5 10t4.5 12.5t5 9.5zM1163 539h21q-5 -21 -10 -42.5t-10 -42.5q-5 -16 -3.5 -33t1.5 -34h-23q0 17 0.5 34t-3.5 33
q-5 21 -10 42.5t-10 42.5h21q4 -19 7.5 -38.5t5.5 -39.5q1 20 5 39t8 39zM800 227q-7 4 -5.5 11.5t4.5 13.5l17 35q6 0 14 4l-13 -27q-2 -4 -8 -14.5t-2 -14.5q6 -5 14.5 2.5t11.5 11.5t5 7.5t5 8.5l12 24q4 0 12 2q-4 -9 -8.5 -18.5t-9.5 -18.5l-5 -10t0 -10q4 -5 10 1
t11 13q4 9 9.5 19t10.5 19l8 18t9 18q7 -2 14 3l-27 -55l-10 -20q-2 -5 -3.5 -12.5t6.5 -3.5q8 3 15 13q4 10 9.5 20t10.5 19l8 18t9 18q7 -2 14 3l-27 -55l-10 -20q-1 -2 -2 -5.5t-1.5 -6.5t0.5 -4.5t6 0.5q7 2 12 9t8 13l4 -2q-5 -8 -10 -15t-13 -11q-7 -4 -14 -1.5
t-6 10.5q-6 -6 -12 -9q-7 -4 -14 -1.5t-6 11.5q-5 -5 -9.5 -9t-10.5 -4q-9 0 -10 6t2 12q-6 -7 -16.5 -14t-18.5 -2zM1114 387h-54v152h22v-133h32v-19zM634 387h-54v152h22v-133h32v-19zM740 21q6 0 12.5 -0.5t11.5 3.5q9 8 11 20t2 22q0 11 -2 24t-10 21q-5 5 -12 4.5
t-13 -0.5v-94zM675 288q6 -1 14 3q-3 -6 -5.5 -10.5t-6.5 -9.5v-1q6 7 14.5 13.5t17.5 7.5q12 0 11.5 -9t-4.5 -17q-2 -4 -9.5 -14.5t-4.5 -15.5q2 -4 6.5 -1.5t8.5 7t7.5 9t4.5 6.5l4 -2l-10 -14t-13 -12q-7 -4 -14 -2t-6 12q1 8 6.5 15.5t8.5 14.5q1 1 2 4t1.5 5.5
t-0.5 4.5t-5 1q-11 -2 -19.5 -14t-13.5 -20l-12 -24h-12l4 9q-2 -2 -4 -3.5t-4 -2.5q-8 -4 -15 -1.5t-5 12.5q0 8 4.5 15t7.5 15q6 9 9 18q10 0 15 4l-19 -38q-2 -3 -5 -9.5t0 -9.5t7 -0.5t8 7t7 9t4 6.5zM943 522q-6 0 -9 -7.5t-4 -17.5t-0.5 -20t0.5 -14t-0.5 -13.5
t0.5 -19.5t4 -17.5t9 -7.5t9 7.5t4 17.5t0.5 19.5t-0.5 13.5t0.5 14t-0.5 20t-4 17.5t-9 7.5zM389 522q-6 0 -9 -7.5t-4 -17.5t-0.5 -20t0.5 -14t-0.5 -13.5t0.5 -19.5t4 -17.5t9 -7.5t8.5 7.5t3.5 17.5t0.5 19.5t-0.5 13.5t0.5 14t-0.5 20t-3.5 17.5t-8.5 7.5zM1190 539h22
q0 -28 -1 -56t-3 -57h-14q-2 29 -3 56.5t-1 56.5zM152 324q-8 2 -18.5 -7t-15.5 -14q-16 -18 -29 -39h42l13 27q1 3 4 8t5 10.5t2.5 9.5t-3.5 5zM1039 311q-5 -3 -6.5 0.5t-0.5 7.5q-11 4 -16.5 -5.5t-7.5 -16.5h14l-3 -6h-14l-44 -90q-4 0 -14 -2l46 92h-15l3 6h15
q3 8 8 16t15 10q6 2 15 -1q2 -1 5.5 -4.5t-0.5 -6.5zM835 311q-5 -3 -7 0.5t-1 7.5q-11 4 -16.5 -5.5t-7.5 -16.5h14l-3 -6h-14l-44 -90q-5 0 -13 -2l45 92h-15l4 6h14q3 8 8 16t15 10q6 2 15 -1q2 -1 5.5 -4.5t0.5 -6.5zM622 31q-2 -10 -3 -20t-3 -20h29q-3 29 -8 58.5
t-7 59.5q-1 -20 -3.5 -39t-4.5 -39zM88 455q5 0 9.5 -0.5t7.5 3.5q5 5 5.5 14t0.5 16t-0.5 16t-5.5 14q-3 5 -7.5 4.5t-9.5 -0.5v-67zM1045 286q-8 0 -15 -9t-11 -19.5t-4 -19t8 -8.5q6 0 13 9t11.5 19.5t4.5 19t-7 8.5zM928 -81q0 -10 -6 -15t-13.5 -5t-13.5 5t-6 15t6 15
t13.5 5t13.5 -5t6 -15zM562 -81q0 -10 -6 -15t-13.5 -5t-13.5 5t-6 15t6 15t13.5 5t13.5 -5t6 -15zM462 283q-7 0 -12.5 -5t-10 -12.5t-8 -16t-6.5 -13.5q11 -8 21 0t15 16q1 2 4 7t4 10.5t0 9.5t-7 4zM231 232q7 0 13 6t10.5 14t8 16.5t6.5 14.5q-10 5 -20 -3t-15 -16
q-1 -2 -4 -7t-4.5 -10.5t-1 -10t6.5 -4.5zM225 464q4 0 8 -0.5t7 1.5q6 5 7 13t1 15q0 6 -1 14.5t-7 12.5q-3 2 -6.5 2h-8.5v-58zM366 232q7 0 13 6t10.5 14t8 16.5t6.5 14.5q-11 5 -20.5 -3t-14.5 -16q-1 -2 -4 -7t-4.5 -10.5t-1 -10t6.5 -4.5zM539 262q-3 -5 -4 -8l-2 -6
q11 0 24.5 9.5t13.5 21.5q0 8 -5.5 7t-10.5 -4q-5 -4 -9 -9.5t-7 -10.5zM533 469l-3 -24h17q-2 18 -4.5 36t-3.5 36q-1 -11 -2.5 -23t-3.5 -25zM1213 400q0 -6 -4 -9.5t-8.5 -3.5t-8 3.5t-3.5 9.5t3.5 9.5t8 3.5t8.5 -3.5t4 -9.5zM667 308q-4 -7 -11.5 -5t-5.5 10q1 4 5 5.5
t7.5 0.5t5 -4t-0.5 -7zM327 308q-3 -7 -10.5 -5t-5.5 10q1 4 4.5 5.5t7 0.5t5.5 -4t-1 -7zM1194 231q-4 -8 -11.5 -4.5t-3.5 10.5q4 8 11.5 4.5t3.5 -10.5zM1214 277q-2 -4 -5 -5t-6 0.5t-4 4t1 6.5q4 7 11 4t3 -10z" />
    <glyph glyph-name="four" unicode="4" horiz-adv-x="1272" 
d="M358 143h42q5 -51 8.5 -101.5t5.5 -101.5q3 38 5.5 77t7.5 77l6 49h39q5 -42 9 -83t7 -83l3 -37q3 41 4.5 80.5t5.5 78.5q2 11 2.5 22t1.5 22h30l-20 -244h-46q-5 48 -9.5 96.5t-6.5 97.5q-2 -36 -5 -72.5t-7 -72.5l-4 -49h-47l-11 137l-12 -137h-45q-5 48 -10 96.5
t-7 97.5q-2 -36 -4.5 -72.5t-6.5 -72.5l-5 -49h-46l-12 140l-11 -140h-46q-5 48 -9.5 96t-6.5 97q-1 -37 -4 -72.5t-7 -71.5l-6 -49h-45l-21 244h30q5 -51 8.5 -101.5t5.5 -101.5q3 38 5.5 77t7.5 77l6 49h39q5 -42 9 -83t7 -83l3 -37q3 41 4.5 80.5t5.5 78.5l5 44h41
q5 -51 8.5 -101.5t6.5 -101.5q3 38 5.5 77t6.5 77q2 12 3 24t3 25h40q5 -42 8.5 -83t7.5 -83l2 -37q3 41 5 80.5t6 78.5zM1204 671h-1130v22h1130v-22zM1204 -257h-1130v22h1130v-22zM740 -101h-35v244h36q11 0 22 0.5t21 -4.5q17 -8 22 -27.5t5 -36.5v-19t-2.5 -22
t-7.5 -20t-14 -12l30 -103h-39l-21 97h-17v-97zM983 -47v-54h-33v244h32q12 -43 24.5 -85t22.5 -86q-4 43 -4.5 85.5t-0.5 85.5h32v-244h-33q-12 42 -24.5 83.5t-21.5 83.5q2 -29 3 -56.5t3 -56.5zM606 -101h-33l29 244h57l30 -244h-35l-7 58h-33zM1153 52q1 11 0 23.5
t-5 23.5q-3 8 -10.5 13t-14.5 -5q-6 -8 -7 -20.5t-2 -23.5q-1 -12 -1 -23.5v-22.5v-23t2 -23q0 -9 2 -22t11 -18q10 -6 16 1.5t8 20t2.5 25t0.5 17.5h-25v28h58v-123h-26l-1 33q-2 -11 -7.5 -22t-16.5 -14t-22 2t-18 13q-14 17 -16 42t-2 45q-2 26 -1 52.5t8 50.5q2 11 7 21
t15 15q10 6 22 7t23 -3q12 -5 19 -15t10 -22.5t4 -25.5t1 -24zM224 267q5 8 12 14t16 8q8 2 16 -1.5t17 -0.5l-18 -34q-2 -3 -5.5 -10t0.5 -9q5 -4 11 2t11 13q2 5 5 10l6 10l8 18q8 0 15 4l-19 -38q-2 -3 -5 -9.5t1 -9.5q4 -4 10 1.5t10 12.5q4 9 9.5 19t9.5 19q5 9 9 18
t9 18q8 -2 14 3l-27 -55q-2 -5 -4.5 -10t-4.5 -10t-4 -12.5t6 -3.5q5 2 9.5 7t8.5 11q3 8 8 15q5 8 12 14t16 8t17 -1.5t17 -0.5q-5 -8 -9 -16.5t-9 -17.5q-2 -3 -5 -10t0 -9q3 -3 6.5 -1t7 5.5t6.5 8l5 7.5l1 2l32 66q8 0 13 3q-5 -12 -10 -23.5t-13 -22.5q7 7 16.5 11.5
t16.5 -6.5q6 -10 0.5 -23t-12.5 -21q6 -1 11 2t10 7q4 9 9 18.5t10 18.5l18 36q7 -2 13 3q-7 -14 -13 -27.5t-14 -27.5q-2 -5 -4.5 -10t-5.5 -10q-1 -2 -2 -5.5t-1 -6.5t1 -4.5t6 0.5t10.5 8t8.5 12q3 13 12 22q3 3 9.5 7.5t14 6.5t13.5 0.5t8 -10.5q1 -8 -3.5 -15
t-12 -11.5t-16.5 -7t-15 -2.5q-1 -6 3 -9.5t10 -3.5q13 0 24 7t17 18l4 -2q-8 -14 -23 -22.5t-31 -5.5t-16 18q-4 -5 -8 -9.5t-9 -6.5q-7 -4 -14.5 -1.5t-5.5 12.5v2q-2 -2 -4 -2q-4 -3 -12 -3h-7q-2 0 -3 -2t-3 -2q-10 -6 -21.5 -5t-17.5 11q-7 -9 -17 -12q-9 -2 -12.5 3
t-0.5 13q-5 -7 -13.5 -13.5t-17.5 -0.5q-7 4 -7 14q-6 -9 -14 -14q-8 -4 -15 -1.5t-6 10.5q-7 -7 -11 -9q-8 -4 -15.5 -1.5t-5.5 11.5q-4 -4 -8 -7t-9 -5q-9 -2 -12.5 3t0.5 13h-1q-5 -7 -13.5 -13.5t-17.5 -0.5q-5 2 -6 6.5t0 9.5q-5 -5 -10 -6q-4 -2 -13 -2q-5 0 -6 -1
t-4 -3q-5 -3 -11.5 -5t-11.5 -1t-8 5.5t-1 12.5q2 11 8 22t11 21q5 0 13 4q-3 -8 -6 -15t-7 -14q-1 -3 -4 -7.5t-5 -9.5t-2 -9t4 -5q9 -2 17 8t11 15q5 8 8 17.5t3 18.5q9 2 10 -5t-1 -13q-4 -16 -18 -31q8 -2 15 3t11 12zM943 386q-11 0 -17.5 5t-9.5 13t-4.5 17.5
t-1.5 17.5q-2 19 -2 39.5t6 39.5q3 8 8.5 14.5t14.5 7.5q20 5 31 -13q9 -17 9 -37.5v-38.5q0 -9 -0.5 -20.5t-4 -21t-10.5 -16.5t-19 -7zM389 386q-11 0 -17.5 5t-10 13t-4.5 17.5t-2 17.5q-1 19 -1 39.5t6 39.5q3 8 8 14.5t15 7.5q21 5 31 -13q8 -17 8.5 -37.5t0.5 -38.5
q0 -9 -1 -20.5t-4.5 -21t-10 -16.5t-18.5 -7zM867 -101h-35v244h35v-244zM225 387h-21v152h23h14t13 -2q10 -5 13 -16.5t3 -20.5q1 -11 -1 -27.5t-14 -21.5l18 -64h-24l-13 61q-3 0 -5.5 0.5t-5.5 0.5v-62zM1006 421v-34h-20v152h19q8 -26 16 -52.5t14 -53.5q-2 26 -2.5 53
t-0.5 53h20v-152h-21q-8 26 -15.5 52t-13.5 53q2 -18 2.5 -35.5t1.5 -35.5zM88 387h-22v152h34q26 0 32 -26q4 -14 3.5 -32t-8.5 -32q-7 -10 -17.5 -11t-21.5 -1v-50zM452 421v-34h-20v152h19q8 -26 15.5 -52.5t13.5 -53.5q-2 26 -2.5 53t-0.5 53h20v-152h-21
q-7 26 -14.5 52t-13.5 53q2 -18 2 -35.5t2 -35.5zM524 387h-21l18 152h35l19 -152h-21l-5 37h-21zM701 386q-15 0 -22.5 8.5t-10 21t-2 26.5t0.5 26v71h22v-106q0 -5 -0.5 -10t1.5 -10t7 -7.5t10 2.5t5.5 13.5t0.5 14.5q1 12 0.5 24t-0.5 24v55h22v-71q0 -12 0.5 -26
t-2 -26.5t-9.5 -21t-23 -8.5zM1090 288q5 -1 13 3q-3 -6 -5.5 -10.5t-6.5 -9.5v-1q6 7 14.5 13.5t17.5 7.5q12 0 11.5 -9t-3.5 -17q-3 -4 -10 -14.5t-4 -15.5q2 -3 5.5 -2t7 5l7 8t5.5 7l19 38h-8l3 6h8l8 17q8 0 14 3l-10 -20h15l-4 -6h-14l-18 -37l-5 -10t-1 -10
q3 -3 7 -0.5t8.5 7t7.5 9t4 6.5l4 -2q-5 -8 -12 -17t-18 -11q-9 -2 -12 2t-1 10q-3 -3 -6 -5.5t-6 -4.5q-7 -4 -14.5 -2t-6.5 12q1 8 6.5 15.5t8.5 14.5q1 3 3.5 9.5t-4.5 5.5q-11 -2 -20 -14t-14 -20q-4 -5 -6.5 -11.5t-5.5 -12.5h-12l7 16l-1 -1q-4 -2 -10 -4h-9
q-5 -6 -10.5 -8t-8.5 -2q-10 -4 -18 3t-6.5 18t5.5 20q5 9 14 16.5t21 7.5q10 0 14.5 -6t4.5 -14t-3.5 -16.5t-7.5 -14.5q13 0 20 11zM304 458q-23 15 -26 39q-2 11 2 22.5t15 17.5q9 5 21.5 4t20.5 -9q9 -9 9 -19.5v-21.5q-6 0 -11.5 0.5t-10.5 0.5q0 6 0.5 12.5t-4.5 11.5
q-9 8 -14.5 1t-6.5 -15q0 -11 7.5 -18t15.5 -13t14 -13.5t8 -16.5q2 -11 0.5 -21.5t-7 -18.5t-14 -12.5t-20.5 -2.5q-20 4 -22.5 19.5t-1.5 31.5h20q0 -5 -0.5 -10t0.5 -10q2 -6 7.5 -10t11.5 1q5 4 6 12.5t-1 14.5q-2 8 -7 13.5t-12 9.5zM771 458q-23 13 -27 39
q-1 11 2.5 22.5t14.5 17.5q10 5 22 4t20 -9q9 -9 8.5 -19.5t-0.5 -21.5q-5 0 -10 0.5t-10 0.5q0 6 0.5 12.5t-4.5 11.5q-9 8 -14.5 1t-6.5 -15q0 -11 7 -18t15 -13q17 -12 23 -30q2 -11 0.5 -21.5t-7 -18.5t-14.5 -12.5t-21 -2.5q-20 4 -22.5 19.5t-2.5 31.5h22q0 -5 -1 -10
t1 -10q2 -6 7 -10t11 1q6 4 7 12.5t-1 14.5q-2 8 -7 13.5t-12 9.5zM198 387h-55v152h55v-20h-33v-43h27v-22h-27v-46h33v-21zM875 387h-54v152h54v-20h-32v-43h27v-22h-27v-46h32v-21zM128 259l-42 -2q-5 -8 -9 -17t-5 -19q-8 -2 -9.5 2.5t0 11.5t4.5 13.5t5 8.5l-14 -1
l-5 8h23q11 17 26 34t35 27q6 4 16 5t12 -10q2 -5 -0.5 -10.5t-4.5 -10.5q-5 -10 -9.5 -19.5t-9.5 -18.5q-3 -7 -9 -17.5t-3 -18.5q-8 -2 -10 2t-0.5 10t4.5 12.5t5 9.5zM1163 539h21q-5 -21 -10 -42.5t-10 -42.5q-5 -16 -3.5 -33t1.5 -34h-23q0 17 0.5 34t-3.5 33
q-5 21 -10 42.5t-10 42.5h21q4 -19 7.5 -38.5t5.5 -39.5q1 20 5 39t8 39zM800 227q-7 4 -5.5 11.5t4.5 13.5l17 35q6 0 14 4l-13 -27q-2 -4 -8 -14.5t-2 -14.5q6 -5 14.5 2.5t11.5 11.5t5 7.5t5 8.5l12 24q4 0 12 2q-4 -9 -8.5 -18.5t-9.5 -18.5l-5 -10t0 -10q4 -5 10 1
t11 13q4 9 9.5 19t10.5 19l8 18t9 18q7 -2 14 3l-27 -55l-10 -20q-2 -5 -3.5 -12.5t6.5 -3.5q8 3 15 13q4 10 9.5 20t10.5 19l8 18t9 18q7 -2 14 3l-27 -55l-10 -20q-1 -2 -2 -5.5t-1.5 -6.5t0.5 -4.5t6 0.5q7 2 12 9t8 13l4 -2q-5 -8 -10 -15t-13 -11q-7 -4 -14 -1.5
t-6 10.5q-6 -6 -12 -9q-7 -4 -14 -1.5t-6 11.5q-5 -5 -9.5 -9t-10.5 -4q-9 0 -10 6t2 12q-6 -7 -16.5 -14t-18.5 -2zM1114 387h-54v152h22v-133h32v-19zM634 387h-54v152h22v-133h32v-19zM740 21q6 0 12.5 -0.5t11.5 3.5q9 8 11 20t2 22q0 11 -2 24t-10 21q-5 5 -12 4.5
t-13 -0.5v-94zM675 288q6 -1 14 3q-3 -6 -5.5 -10.5t-6.5 -9.5v-1q6 7 14.5 13.5t17.5 7.5q12 0 11.5 -9t-4.5 -17q-2 -4 -9.5 -14.5t-4.5 -15.5q2 -4 6.5 -1.5t8.5 7t7.5 9t4.5 6.5l4 -2l-10 -14t-13 -12q-7 -4 -14 -2t-6 12q1 8 6.5 15.5t8.5 14.5q1 1 2 4t1.5 5.5
t-0.5 4.5t-5 1q-11 -2 -19.5 -14t-13.5 -20l-12 -24h-12l4 9q-2 -2 -4 -3.5t-4 -2.5q-8 -4 -15 -1.5t-5 12.5q0 8 4.5 15t7.5 15q6 9 9 18q10 0 15 4l-19 -38q-2 -3 -5 -9.5t0 -9.5t7 -0.5t8 7t7 9t4 6.5zM943 522q-6 0 -9 -7.5t-4 -17.5t-0.5 -20t0.5 -14t-0.5 -13.5
t0.5 -19.5t4 -17.5t9 -7.5t9 7.5t4 17.5t0.5 19.5t-0.5 13.5t0.5 14t-0.5 20t-4 17.5t-9 7.5zM389 522q-6 0 -9 -7.5t-4 -17.5t-0.5 -20t0.5 -14t-0.5 -13.5t0.5 -19.5t4 -17.5t9 -7.5t8.5 7.5t3.5 17.5t0.5 19.5t-0.5 13.5t0.5 14t-0.5 20t-3.5 17.5t-8.5 7.5zM1190 539h22
q0 -28 -1 -56t-3 -57h-14q-2 29 -3 56.5t-1 56.5zM152 324q-8 2 -18.5 -7t-15.5 -14q-16 -18 -29 -39h42l13 27q1 3 4 8t5 10.5t2.5 9.5t-3.5 5zM1039 311q-5 -3 -6.5 0.5t-0.5 7.5q-11 4 -16.5 -5.5t-7.5 -16.5h14l-3 -6h-14l-44 -90q-4 0 -14 -2l46 92h-15l3 6h15
q3 8 8 16t15 10q6 2 15 -1q2 -1 5.5 -4.5t-0.5 -6.5zM835 311q-5 -3 -7 0.5t-1 7.5q-11 4 -16.5 -5.5t-7.5 -16.5h14l-3 -6h-14l-44 -90q-5 0 -13 -2l45 92h-15l4 6h14q3 8 8 16t15 10q6 2 15 -1q2 -1 5.5 -4.5t0.5 -6.5zM622 31q-2 -10 -3 -20t-3 -20h29q-3 29 -8 58.5
t-7 59.5q-1 -20 -3.5 -39t-4.5 -39zM88 455q5 0 9.5 -0.5t7.5 3.5q5 5 5.5 14t0.5 16t-0.5 16t-5.5 14q-3 5 -7.5 4.5t-9.5 -0.5v-67zM1045 286q-8 0 -15 -9t-11 -19.5t-4 -19t8 -8.5q6 0 13 9t11.5 19.5t4.5 19t-7 8.5zM928 -81q0 -10 -6 -15t-13.5 -5t-13.5 5t-6 15t6 15
t13.5 5t13.5 -5t6 -15zM562 -81q0 -10 -6 -15t-13.5 -5t-13.5 5t-6 15t6 15t13.5 5t13.5 -5t6 -15zM462 283q-7 0 -12.5 -5t-10 -12.5t-8 -16t-6.5 -13.5q11 -8 21 0t15 16q1 2 4 7t4 10.5t0 9.5t-7 4zM231 232q7 0 13 6t10.5 14t8 16.5t6.5 14.5q-10 5 -20 -3t-15 -16
q-1 -2 -4 -7t-4.5 -10.5t-1 -10t6.5 -4.5zM225 464q4 0 8 -0.5t7 1.5q6 5 7 13t1 15q0 6 -1 14.5t-7 12.5q-3 2 -6.5 2h-8.5v-58zM366 232q7 0 13 6t10.5 14t8 16.5t6.5 14.5q-11 5 -20.5 -3t-14.5 -16q-1 -2 -4 -7t-4.5 -10.5t-1 -10t6.5 -4.5zM539 262q-3 -5 -4 -8l-2 -6
q11 0 24.5 9.5t13.5 21.5q0 8 -5.5 7t-10.5 -4q-5 -4 -9 -9.5t-7 -10.5zM533 469l-3 -24h17q-2 18 -4.5 36t-3.5 36q-1 -11 -2.5 -23t-3.5 -25zM1213 400q0 -6 -4 -9.5t-8.5 -3.5t-8 3.5t-3.5 9.5t3.5 9.5t8 3.5t8.5 -3.5t4 -9.5zM667 308q-4 -7 -11.5 -5t-5.5 10q1 4 5 5.5
t7.5 0.5t5 -4t-0.5 -7zM327 308q-3 -7 -10.5 -5t-5.5 10q1 4 4.5 5.5t7 0.5t5.5 -4t-1 -7zM1194 231q-4 -8 -11.5 -4.5t-3.5 10.5q4 8 11.5 4.5t3.5 -10.5zM1214 277q-2 -4 -5 -5t-6 0.5t-4 4t1 6.5q4 7 11 4t3 -10z" />
    <glyph glyph-name="two" unicode="2" horiz-adv-x="1272" 
d="M358 143h42q5 -51 8.5 -101.5t5.5 -101.5q3 38 5.5 77t7.5 77l6 49h39q5 -42 9 -83t7 -83l3 -37q3 41 4.5 80.5t5.5 78.5q2 11 2.5 22t1.5 22h30l-20 -244h-46q-5 48 -9.5 96.5t-6.5 97.5q-2 -36 -5 -72.5t-7 -72.5l-4 -49h-47l-11 137l-12 -137h-45q-5 48 -10 96.5
t-7 97.5q-2 -36 -4.5 -72.5t-6.5 -72.5l-5 -49h-46l-12 140l-11 -140h-46q-5 48 -9.5 96t-6.5 97q-1 -37 -4 -72.5t-7 -71.5l-6 -49h-45l-21 244h30q5 -51 8.5 -101.5t5.5 -101.5q3 38 5.5 77t7.5 77l6 49h39q5 -42 9 -83t7 -83l3 -37q3 41 4.5 80.5t5.5 78.5l5 44h41
q5 -51 8.5 -101.5t6.5 -101.5q3 38 5.5 77t6.5 77q2 12 3 24t3 25h40q5 -42 8.5 -83t7.5 -83l2 -37q3 41 5 80.5t6 78.5zM1204 671h-1130v22h1130v-22zM1204 -257h-1130v22h1130v-22zM740 -101h-35v244h36q11 0 22 0.5t21 -4.5q17 -8 22 -27.5t5 -36.5v-19t-2.5 -22
t-7.5 -20t-14 -12l30 -103h-39l-21 97h-17v-97zM983 -47v-54h-33v244h32q12 -43 24.5 -85t22.5 -86q-4 43 -4.5 85.5t-0.5 85.5h32v-244h-33q-12 42 -24.5 83.5t-21.5 83.5q2 -29 3 -56.5t3 -56.5zM606 -101h-33l29 244h57l30 -244h-35l-7 58h-33zM1153 52q1 11 0 23.5
t-5 23.5q-3 8 -10.5 13t-14.5 -5q-6 -8 -7 -20.5t-2 -23.5q-1 -12 -1 -23.5v-22.5v-23t2 -23q0 -9 2 -22t11 -18q10 -6 16 1.5t8 20t2.5 25t0.5 17.5h-25v28h58v-123h-26l-1 33q-2 -11 -7.5 -22t-16.5 -14t-22 2t-18 13q-14 17 -16 42t-2 45q-2 26 -1 52.5t8 50.5q2 11 7 21
t15 15q10 6 22 7t23 -3q12 -5 19 -15t10 -22.5t4 -25.5t1 -24zM224 267q5 8 12 14t16 8q8 2 16 -1.5t17 -0.5l-18 -34q-2 -3 -5.5 -10t0.5 -9q5 -4 11 2t11 13q2 5 5 10l6 10l8 18q8 0 15 4l-19 -38q-2 -3 -5 -9.5t1 -9.5q4 -4 10 1.5t10 12.5q4 9 9.5 19t9.5 19q5 9 9 18
t9 18q8 -2 14 3l-27 -55q-2 -5 -4.5 -10t-4.5 -10t-4 -12.5t6 -3.5q5 2 9.5 7t8.5 11q3 8 8 15q5 8 12 14t16 8t17 -1.5t17 -0.5q-5 -8 -9 -16.5t-9 -17.5q-2 -3 -5 -10t0 -9q3 -3 6.5 -1t7 5.5t6.5 8l5 7.5l1 2l32 66q8 0 13 3q-5 -12 -10 -23.5t-13 -22.5q7 7 16.5 11.5
t16.5 -6.5q6 -10 0.5 -23t-12.5 -21q6 -1 11 2t10 7q4 9 9 18.5t10 18.5l18 36q7 -2 13 3q-7 -14 -13 -27.5t-14 -27.5q-2 -5 -4.5 -10t-5.5 -10q-1 -2 -2 -5.5t-1 -6.5t1 -4.5t6 0.5t10.5 8t8.5 12q3 13 12 22q3 3 9.5 7.5t14 6.5t13.5 0.5t8 -10.5q1 -8 -3.5 -15
t-12 -11.5t-16.5 -7t-15 -2.5q-1 -6 3 -9.5t10 -3.5q13 0 24 7t17 18l4 -2q-8 -14 -23 -22.5t-31 -5.5t-16 18q-4 -5 -8 -9.5t-9 -6.5q-7 -4 -14.5 -1.5t-5.5 12.5v2q-2 -2 -4 -2q-4 -3 -12 -3h-7q-2 0 -3 -2t-3 -2q-10 -6 -21.5 -5t-17.5 11q-7 -9 -17 -12q-9 -2 -12.5 3
t-0.5 13q-5 -7 -13.5 -13.5t-17.5 -0.5q-7 4 -7 14q-6 -9 -14 -14q-8 -4 -15 -1.5t-6 10.5q-7 -7 -11 -9q-8 -4 -15.5 -1.5t-5.5 11.5q-4 -4 -8 -7t-9 -5q-9 -2 -12.5 3t0.5 13h-1q-5 -7 -13.5 -13.5t-17.5 -0.5q-5 2 -6 6.5t0 9.5q-5 -5 -10 -6q-4 -2 -13 -2q-5 0 -6 -1
t-4 -3q-5 -3 -11.5 -5t-11.5 -1t-8 5.5t-1 12.5q2 11 8 22t11 21q5 0 13 4q-3 -8 -6 -15t-7 -14q-1 -3 -4 -7.5t-5 -9.5t-2 -9t4 -5q9 -2 17 8t11 15q5 8 8 17.5t3 18.5q9 2 10 -5t-1 -13q-4 -16 -18 -31q8 -2 15 3t11 12zM943 386q-11 0 -17.5 5t-9.5 13t-4.5 17.5
t-1.5 17.5q-2 19 -2 39.5t6 39.5q3 8 8.5 14.5t14.5 7.5q20 5 31 -13q9 -17 9 -37.5v-38.5q0 -9 -0.5 -20.5t-4 -21t-10.5 -16.5t-19 -7zM389 386q-11 0 -17.5 5t-10 13t-4.5 17.5t-2 17.5q-1 19 -1 39.5t6 39.5q3 8 8 14.5t15 7.5q21 5 31 -13q8 -17 8.5 -37.5t0.5 -38.5
q0 -9 -1 -20.5t-4.5 -21t-10 -16.5t-18.5 -7zM867 -101h-35v244h35v-244zM225 387h-21v152h23h14t13 -2q10 -5 13 -16.5t3 -20.5q1 -11 -1 -27.5t-14 -21.5l18 -64h-24l-13 61q-3 0 -5.5 0.5t-5.5 0.5v-62zM1006 421v-34h-20v152h19q8 -26 16 -52.5t14 -53.5q-2 26 -2.5 53
t-0.5 53h20v-152h-21q-8 26 -15.5 52t-13.5 53q2 -18 2.5 -35.5t1.5 -35.5zM88 387h-22v152h34q26 0 32 -26q4 -14 3.5 -32t-8.5 -32q-7 -10 -17.5 -11t-21.5 -1v-50zM452 421v-34h-20v152h19q8 -26 15.5 -52.5t13.5 -53.5q-2 26 -2.5 53t-0.5 53h20v-152h-21
q-7 26 -14.5 52t-13.5 53q2 -18 2 -35.5t2 -35.5zM524 387h-21l18 152h35l19 -152h-21l-5 37h-21zM701 386q-15 0 -22.5 8.5t-10 21t-2 26.5t0.5 26v71h22v-106q0 -5 -0.5 -10t1.5 -10t7 -7.5t10 2.5t5.5 13.5t0.5 14.5q1 12 0.5 24t-0.5 24v55h22v-71q0 -12 0.5 -26
t-2 -26.5t-9.5 -21t-23 -8.5zM1090 288q5 -1 13 3q-3 -6 -5.5 -10.5t-6.5 -9.5v-1q6 7 14.5 13.5t17.5 7.5q12 0 11.5 -9t-3.5 -17q-3 -4 -10 -14.5t-4 -15.5q2 -3 5.5 -2t7 5l7 8t5.5 7l19 38h-8l3 6h8l8 17q8 0 14 3l-10 -20h15l-4 -6h-14l-18 -37l-5 -10t-1 -10
q3 -3 7 -0.5t8.5 7t7.5 9t4 6.5l4 -2q-5 -8 -12 -17t-18 -11q-9 -2 -12 2t-1 10q-3 -3 -6 -5.5t-6 -4.5q-7 -4 -14.5 -2t-6.5 12q1 8 6.5 15.5t8.5 14.5q1 3 3.5 9.5t-4.5 5.5q-11 -2 -20 -14t-14 -20q-4 -5 -6.5 -11.5t-5.5 -12.5h-12l7 16l-1 -1q-4 -2 -10 -4h-9
q-5 -6 -10.5 -8t-8.5 -2q-10 -4 -18 3t-6.5 18t5.5 20q5 9 14 16.5t21 7.5q10 0 14.5 -6t4.5 -14t-3.5 -16.5t-7.5 -14.5q13 0 20 11zM304 458q-23 15 -26 39q-2 11 2 22.5t15 17.5q9 5 21.5 4t20.5 -9q9 -9 9 -19.5v-21.5q-6 0 -11.5 0.5t-10.5 0.5q0 6 0.5 12.5t-4.5 11.5
q-9 8 -14.5 1t-6.5 -15q0 -11 7.5 -18t15.5 -13t14 -13.5t8 -16.5q2 -11 0.5 -21.5t-7 -18.5t-14 -12.5t-20.5 -2.5q-20 4 -22.5 19.5t-1.5 31.5h20q0 -5 -0.5 -10t0.5 -10q2 -6 7.5 -10t11.5 1q5 4 6 12.5t-1 14.5q-2 8 -7 13.5t-12 9.5zM771 458q-23 13 -27 39
q-1 11 2.5 22.5t14.5 17.5q10 5 22 4t20 -9q9 -9 8.5 -19.5t-0.5 -21.5q-5 0 -10 0.5t-10 0.5q0 6 0.5 12.5t-4.5 11.5q-9 8 -14.5 1t-6.5 -15q0 -11 7 -18t15 -13q17 -12 23 -30q2 -11 0.5 -21.5t-7 -18.5t-14.5 -12.5t-21 -2.5q-20 4 -22.5 19.5t-2.5 31.5h22q0 -5 -1 -10
t1 -10q2 -6 7 -10t11 1q6 4 7 12.5t-1 14.5q-2 8 -7 13.5t-12 9.5zM198 387h-55v152h55v-20h-33v-43h27v-22h-27v-46h33v-21zM875 387h-54v152h54v-20h-32v-43h27v-22h-27v-46h32v-21zM128 259l-42 -2q-5 -8 -9 -17t-5 -19q-8 -2 -9.5 2.5t0 11.5t4.5 13.5t5 8.5l-14 -1
l-5 8h23q11 17 26 34t35 27q6 4 16 5t12 -10q2 -5 -0.5 -10.5t-4.5 -10.5q-5 -10 -9.5 -19.5t-9.5 -18.5q-3 -7 -9 -17.5t-3 -18.5q-8 -2 -10 2t-0.5 10t4.5 12.5t5 9.5zM1163 539h21q-5 -21 -10 -42.5t-10 -42.5q-5 -16 -3.5 -33t1.5 -34h-23q0 17 0.5 34t-3.5 33
q-5 21 -10 42.5t-10 42.5h21q4 -19 7.5 -38.5t5.5 -39.5q1 20 5 39t8 39zM800 227q-7 4 -5.5 11.5t4.5 13.5l17 35q6 0 14 4l-13 -27q-2 -4 -8 -14.5t-2 -14.5q6 -5 14.5 2.5t11.5 11.5t5 7.5t5 8.5l12 24q4 0 12 2q-4 -9 -8.5 -18.5t-9.5 -18.5l-5 -10t0 -10q4 -5 10 1
t11 13q4 9 9.5 19t10.5 19l8 18t9 18q7 -2 14 3l-27 -55l-10 -20q-2 -5 -3.5 -12.5t6.5 -3.5q8 3 15 13q4 10 9.5 20t10.5 19l8 18t9 18q7 -2 14 3l-27 -55l-10 -20q-1 -2 -2 -5.5t-1.5 -6.5t0.5 -4.5t6 0.5q7 2 12 9t8 13l4 -2q-5 -8 -10 -15t-13 -11q-7 -4 -14 -1.5
t-6 10.5q-6 -6 -12 -9q-7 -4 -14 -1.5t-6 11.5q-5 -5 -9.5 -9t-10.5 -4q-9 0 -10 6t2 12q-6 -7 -16.5 -14t-18.5 -2zM1114 387h-54v152h22v-133h32v-19zM634 387h-54v152h22v-133h32v-19zM740 21q6 0 12.5 -0.5t11.5 3.5q9 8 11 20t2 22q0 11 -2 24t-10 21q-5 5 -12 4.5
t-13 -0.5v-94zM675 288q6 -1 14 3q-3 -6 -5.5 -10.5t-6.5 -9.5v-1q6 7 14.5 13.5t17.5 7.5q12 0 11.5 -9t-4.5 -17q-2 -4 -9.5 -14.5t-4.5 -15.5q2 -4 6.5 -1.5t8.5 7t7.5 9t4.5 6.5l4 -2l-10 -14t-13 -12q-7 -4 -14 -2t-6 12q1 8 6.5 15.5t8.5 14.5q1 1 2 4t1.5 5.5
t-0.5 4.5t-5 1q-11 -2 -19.5 -14t-13.5 -20l-12 -24h-12l4 9q-2 -2 -4 -3.5t-4 -2.5q-8 -4 -15 -1.5t-5 12.5q0 8 4.5 15t7.5 15q6 9 9 18q10 0 15 4l-19 -38q-2 -3 -5 -9.5t0 -9.5t7 -0.5t8 7t7 9t4 6.5zM943 522q-6 0 -9 -7.5t-4 -17.5t-0.5 -20t0.5 -14t-0.5 -13.5
t0.5 -19.5t4 -17.5t9 -7.5t9 7.5t4 17.5t0.5 19.5t-0.5 13.5t0.5 14t-0.5 20t-4 17.5t-9 7.5zM389 522q-6 0 -9 -7.5t-4 -17.5t-0.5 -20t0.5 -14t-0.5 -13.5t0.5 -19.5t4 -17.5t9 -7.5t8.5 7.5t3.5 17.5t0.5 19.5t-0.5 13.5t0.5 14t-0.5 20t-3.5 17.5t-8.5 7.5zM1190 539h22
q0 -28 -1 -56t-3 -57h-14q-2 29 -3 56.5t-1 56.5zM152 324q-8 2 -18.5 -7t-15.5 -14q-16 -18 -29 -39h42l13 27q1 3 4 8t5 10.5t2.5 9.5t-3.5 5zM1039 311q-5 -3 -6.5 0.5t-0.5 7.5q-11 4 -16.5 -5.5t-7.5 -16.5h14l-3 -6h-14l-44 -90q-4 0 -14 -2l46 92h-15l3 6h15
q3 8 8 16t15 10q6 2 15 -1q2 -1 5.5 -4.5t-0.5 -6.5zM835 311q-5 -3 -7 0.5t-1 7.5q-11 4 -16.5 -5.5t-7.5 -16.5h14l-3 -6h-14l-44 -90q-5 0 -13 -2l45 92h-15l4 6h14q3 8 8 16t15 10q6 2 15 -1q2 -1 5.5 -4.5t0.5 -6.5zM622 31q-2 -10 -3 -20t-3 -20h29q-3 29 -8 58.5
t-7 59.5q-1 -20 -3.5 -39t-4.5 -39zM88 455q5 0 9.5 -0.5t7.5 3.5q5 5 5.5 14t0.5 16t-0.5 16t-5.5 14q-3 5 -7.5 4.5t-9.5 -0.5v-67zM1045 286q-8 0 -15 -9t-11 -19.5t-4 -19t8 -8.5q6 0 13 9t11.5 19.5t4.5 19t-7 8.5zM928 -81q0 -10 -6 -15t-13.5 -5t-13.5 5t-6 15t6 15
t13.5 5t13.5 -5t6 -15zM562 -81q0 -10 -6 -15t-13.5 -5t-13.5 5t-6 15t6 15t13.5 5t13.5 -5t6 -15zM462 283q-7 0 -12.5 -5t-10 -12.5t-8 -16t-6.5 -13.5q11 -8 21 0t15 16q1 2 4 7t4 10.5t0 9.5t-7 4zM231 232q7 0 13 6t10.5 14t8 16.5t6.5 14.5q-10 5 -20 -3t-15 -16
q-1 -2 -4 -7t-4.5 -10.5t-1 -10t6.5 -4.5zM225 464q4 0 8 -0.5t7 1.5q6 5 7 13t1 15q0 6 -1 14.5t-7 12.5q-3 2 -6.5 2h-8.5v-58zM366 232q7 0 13 6t10.5 14t8 16.5t6.5 14.5q-11 5 -20.5 -3t-14.5 -16q-1 -2 -4 -7t-4.5 -10.5t-1 -10t6.5 -4.5zM539 262q-3 -5 -4 -8l-2 -6
q11 0 24.5 9.5t13.5 21.5q0 8 -5.5 7t-10.5 -4q-5 -4 -9 -9.5t-7 -10.5zM533 469l-3 -24h17q-2 18 -4.5 36t-3.5 36q-1 -11 -2.5 -23t-3.5 -25zM1213 400q0 -6 -4 -9.5t-8.5 -3.5t-8 3.5t-3.5 9.5t3.5 9.5t8 3.5t8.5 -3.5t4 -9.5zM667 308q-4 -7 -11.5 -5t-5.5 10q1 4 5 5.5
t7.5 0.5t5 -4t-0.5 -7zM327 308q-3 -7 -10.5 -5t-5.5 10q1 4 4.5 5.5t7 0.5t5.5 -4t-1 -7zM1194 231q-4 -8 -11.5 -4.5t-3.5 10.5q4 8 11.5 4.5t3.5 -10.5zM1214 277q-2 -4 -5 -5t-6 0.5t-4 4t1 6.5q4 7 11 4t3 -10z" />
    <glyph glyph-name="three" unicode="3" horiz-adv-x="1272" 
d="M358 143h42q5 -51 8.5 -101.5t5.5 -101.5q3 38 5.5 77t7.5 77l6 49h39q5 -42 9 -83t7 -83l3 -37q3 41 4.5 80.5t5.5 78.5q2 11 2.5 22t1.5 22h30l-20 -244h-46q-5 48 -9.5 96.5t-6.5 97.5q-2 -36 -5 -72.5t-7 -72.5l-4 -49h-47l-11 137l-12 -137h-45q-5 48 -10 96.5
t-7 97.5q-2 -36 -4.5 -72.5t-6.5 -72.5l-5 -49h-46l-12 140l-11 -140h-46q-5 48 -9.5 96t-6.5 97q-1 -37 -4 -72.5t-7 -71.5l-6 -49h-45l-21 244h30q5 -51 8.5 -101.5t5.5 -101.5q3 38 5.5 77t7.5 77l6 49h39q5 -42 9 -83t7 -83l3 -37q3 41 4.5 80.5t5.5 78.5l5 44h41
q5 -51 8.5 -101.5t6.5 -101.5q3 38 5.5 77t6.5 77q2 12 3 24t3 25h40q5 -42 8.5 -83t7.5 -83l2 -37q3 41 5 80.5t6 78.5zM1204 671h-1130v22h1130v-22zM1204 -257h-1130v22h1130v-22zM740 -101h-35v244h36q11 0 22 0.5t21 -4.5q17 -8 22 -27.5t5 -36.5v-19t-2.5 -22
t-7.5 -20t-14 -12l30 -103h-39l-21 97h-17v-97zM983 -47v-54h-33v244h32q12 -43 24.5 -85t22.5 -86q-4 43 -4.5 85.5t-0.5 85.5h32v-244h-33q-12 42 -24.5 83.5t-21.5 83.5q2 -29 3 -56.5t3 -56.5zM606 -101h-33l29 244h57l30 -244h-35l-7 58h-33zM1153 52q1 11 0 23.5
t-5 23.5q-3 8 -10.5 13t-14.5 -5q-6 -8 -7 -20.5t-2 -23.5q-1 -12 -1 -23.5v-22.5v-23t2 -23q0 -9 2 -22t11 -18q10 -6 16 1.5t8 20t2.5 25t0.5 17.5h-25v28h58v-123h-26l-1 33q-2 -11 -7.5 -22t-16.5 -14t-22 2t-18 13q-14 17 -16 42t-2 45q-2 26 -1 52.5t8 50.5q2 11 7 21
t15 15q10 6 22 7t23 -3q12 -5 19 -15t10 -22.5t4 -25.5t1 -24zM224 267q5 8 12 14t16 8q8 2 16 -1.5t17 -0.5l-18 -34q-2 -3 -5.5 -10t0.5 -9q5 -4 11 2t11 13q2 5 5 10l6 10l8 18q8 0 15 4l-19 -38q-2 -3 -5 -9.5t1 -9.5q4 -4 10 1.5t10 12.5q4 9 9.5 19t9.5 19q5 9 9 18
t9 18q8 -2 14 3l-27 -55q-2 -5 -4.5 -10t-4.5 -10t-4 -12.5t6 -3.5q5 2 9.5 7t8.5 11q3 8 8 15q5 8 12 14t16 8t17 -1.5t17 -0.5q-5 -8 -9 -16.5t-9 -17.5q-2 -3 -5 -10t0 -9q3 -3 6.5 -1t7 5.5t6.5 8l5 7.5l1 2l32 66q8 0 13 3q-5 -12 -10 -23.5t-13 -22.5q7 7 16.5 11.5
t16.5 -6.5q6 -10 0.5 -23t-12.5 -21q6 -1 11 2t10 7q4 9 9 18.5t10 18.5l18 36q7 -2 13 3q-7 -14 -13 -27.5t-14 -27.5q-2 -5 -4.5 -10t-5.5 -10q-1 -2 -2 -5.5t-1 -6.5t1 -4.5t6 0.5t10.5 8t8.5 12q3 13 12 22q3 3 9.5 7.5t14 6.5t13.5 0.5t8 -10.5q1 -8 -3.5 -15
t-12 -11.5t-16.5 -7t-15 -2.5q-1 -6 3 -9.5t10 -3.5q13 0 24 7t17 18l4 -2q-8 -14 -23 -22.5t-31 -5.5t-16 18q-4 -5 -8 -9.5t-9 -6.5q-7 -4 -14.5 -1.5t-5.5 12.5v2q-2 -2 -4 -2q-4 -3 -12 -3h-7q-2 0 -3 -2t-3 -2q-10 -6 -21.5 -5t-17.5 11q-7 -9 -17 -12q-9 -2 -12.5 3
t-0.5 13q-5 -7 -13.5 -13.5t-17.5 -0.5q-7 4 -7 14q-6 -9 -14 -14q-8 -4 -15 -1.5t-6 10.5q-7 -7 -11 -9q-8 -4 -15.5 -1.5t-5.5 11.5q-4 -4 -8 -7t-9 -5q-9 -2 -12.5 3t0.5 13h-1q-5 -7 -13.5 -13.5t-17.5 -0.5q-5 2 -6 6.5t0 9.5q-5 -5 -10 -6q-4 -2 -13 -2q-5 0 -6 -1
t-4 -3q-5 -3 -11.5 -5t-11.5 -1t-8 5.5t-1 12.5q2 11 8 22t11 21q5 0 13 4q-3 -8 -6 -15t-7 -14q-1 -3 -4 -7.5t-5 -9.5t-2 -9t4 -5q9 -2 17 8t11 15q5 8 8 17.5t3 18.5q9 2 10 -5t-1 -13q-4 -16 -18 -31q8 -2 15 3t11 12zM943 386q-11 0 -17.5 5t-9.5 13t-4.5 17.5
t-1.5 17.5q-2 19 -2 39.5t6 39.5q3 8 8.5 14.5t14.5 7.5q20 5 31 -13q9 -17 9 -37.5v-38.5q0 -9 -0.5 -20.5t-4 -21t-10.5 -16.5t-19 -7zM389 386q-11 0 -17.5 5t-10 13t-4.5 17.5t-2 17.5q-1 19 -1 39.5t6 39.5q3 8 8 14.5t15 7.5q21 5 31 -13q8 -17 8.5 -37.5t0.5 -38.5
q0 -9 -1 -20.5t-4.5 -21t-10 -16.5t-18.5 -7zM867 -101h-35v244h35v-244zM225 387h-21v152h23h14t13 -2q10 -5 13 -16.5t3 -20.5q1 -11 -1 -27.5t-14 -21.5l18 -64h-24l-13 61q-3 0 -5.5 0.5t-5.5 0.5v-62zM1006 421v-34h-20v152h19q8 -26 16 -52.5t14 -53.5q-2 26 -2.5 53
t-0.5 53h20v-152h-21q-8 26 -15.5 52t-13.5 53q2 -18 2.5 -35.5t1.5 -35.5zM88 387h-22v152h34q26 0 32 -26q4 -14 3.5 -32t-8.5 -32q-7 -10 -17.5 -11t-21.5 -1v-50zM452 421v-34h-20v152h19q8 -26 15.5 -52.5t13.5 -53.5q-2 26 -2.5 53t-0.5 53h20v-152h-21
q-7 26 -14.5 52t-13.5 53q2 -18 2 -35.5t2 -35.5zM524 387h-21l18 152h35l19 -152h-21l-5 37h-21zM701 386q-15 0 -22.5 8.5t-10 21t-2 26.5t0.5 26v71h22v-106q0 -5 -0.5 -10t1.5 -10t7 -7.5t10 2.5t5.5 13.5t0.5 14.5q1 12 0.5 24t-0.5 24v55h22v-71q0 -12 0.5 -26
t-2 -26.5t-9.5 -21t-23 -8.5zM1090 288q5 -1 13 3q-3 -6 -5.5 -10.5t-6.5 -9.5v-1q6 7 14.5 13.5t17.5 7.5q12 0 11.5 -9t-3.5 -17q-3 -4 -10 -14.5t-4 -15.5q2 -3 5.5 -2t7 5l7 8t5.5 7l19 38h-8l3 6h8l8 17q8 0 14 3l-10 -20h15l-4 -6h-14l-18 -37l-5 -10t-1 -10
q3 -3 7 -0.5t8.5 7t7.5 9t4 6.5l4 -2q-5 -8 -12 -17t-18 -11q-9 -2 -12 2t-1 10q-3 -3 -6 -5.5t-6 -4.5q-7 -4 -14.5 -2t-6.5 12q1 8 6.5 15.5t8.5 14.5q1 3 3.5 9.5t-4.5 5.5q-11 -2 -20 -14t-14 -20q-4 -5 -6.5 -11.5t-5.5 -12.5h-12l7 16l-1 -1q-4 -2 -10 -4h-9
q-5 -6 -10.5 -8t-8.5 -2q-10 -4 -18 3t-6.5 18t5.5 20q5 9 14 16.5t21 7.5q10 0 14.5 -6t4.5 -14t-3.5 -16.5t-7.5 -14.5q13 0 20 11zM304 458q-23 15 -26 39q-2 11 2 22.5t15 17.5q9 5 21.5 4t20.5 -9q9 -9 9 -19.5v-21.5q-6 0 -11.5 0.5t-10.5 0.5q0 6 0.5 12.5t-4.5 11.5
q-9 8 -14.5 1t-6.5 -15q0 -11 7.5 -18t15.5 -13t14 -13.5t8 -16.5q2 -11 0.5 -21.5t-7 -18.5t-14 -12.5t-20.5 -2.5q-20 4 -22.5 19.5t-1.5 31.5h20q0 -5 -0.5 -10t0.5 -10q2 -6 7.5 -10t11.5 1q5 4 6 12.5t-1 14.5q-2 8 -7 13.5t-12 9.5zM771 458q-23 13 -27 39
q-1 11 2.5 22.5t14.5 17.5q10 5 22 4t20 -9q9 -9 8.5 -19.5t-0.5 -21.5q-5 0 -10 0.5t-10 0.5q0 6 0.5 12.5t-4.5 11.5q-9 8 -14.5 1t-6.5 -15q0 -11 7 -18t15 -13q17 -12 23 -30q2 -11 0.5 -21.5t-7 -18.5t-14.5 -12.5t-21 -2.5q-20 4 -22.5 19.5t-2.5 31.5h22q0 -5 -1 -10
t1 -10q2 -6 7 -10t11 1q6 4 7 12.5t-1 14.5q-2 8 -7 13.5t-12 9.5zM198 387h-55v152h55v-20h-33v-43h27v-22h-27v-46h33v-21zM875 387h-54v152h54v-20h-32v-43h27v-22h-27v-46h32v-21zM128 259l-42 -2q-5 -8 -9 -17t-5 -19q-8 -2 -9.5 2.5t0 11.5t4.5 13.5t5 8.5l-14 -1
l-5 8h23q11 17 26 34t35 27q6 4 16 5t12 -10q2 -5 -0.5 -10.5t-4.5 -10.5q-5 -10 -9.5 -19.5t-9.5 -18.5q-3 -7 -9 -17.5t-3 -18.5q-8 -2 -10 2t-0.5 10t4.5 12.5t5 9.5zM1163 539h21q-5 -21 -10 -42.5t-10 -42.5q-5 -16 -3.5 -33t1.5 -34h-23q0 17 0.5 34t-3.5 33
q-5 21 -10 42.5t-10 42.5h21q4 -19 7.5 -38.5t5.5 -39.5q1 20 5 39t8 39zM800 227q-7 4 -5.5 11.5t4.5 13.5l17 35q6 0 14 4l-13 -27q-2 -4 -8 -14.5t-2 -14.5q6 -5 14.5 2.5t11.5 11.5t5 7.5t5 8.5l12 24q4 0 12 2q-4 -9 -8.5 -18.5t-9.5 -18.5l-5 -10t0 -10q4 -5 10 1
t11 13q4 9 9.5 19t10.5 19l8 18t9 18q7 -2 14 3l-27 -55l-10 -20q-2 -5 -3.5 -12.5t6.5 -3.5q8 3 15 13q4 10 9.5 20t10.5 19l8 18t9 18q7 -2 14 3l-27 -55l-10 -20q-1 -2 -2 -5.5t-1.5 -6.5t0.5 -4.5t6 0.5q7 2 12 9t8 13l4 -2q-5 -8 -10 -15t-13 -11q-7 -4 -14 -1.5
t-6 10.5q-6 -6 -12 -9q-7 -4 -14 -1.5t-6 11.5q-5 -5 -9.5 -9t-10.5 -4q-9 0 -10 6t2 12q-6 -7 -16.5 -14t-18.5 -2zM1114 387h-54v152h22v-133h32v-19zM634 387h-54v152h22v-133h32v-19zM740 21q6 0 12.5 -0.5t11.5 3.5q9 8 11 20t2 22q0 11 -2 24t-10 21q-5 5 -12 4.5
t-13 -0.5v-94zM675 288q6 -1 14 3q-3 -6 -5.5 -10.5t-6.5 -9.5v-1q6 7 14.5 13.5t17.5 7.5q12 0 11.5 -9t-4.5 -17q-2 -4 -9.5 -14.5t-4.5 -15.5q2 -4 6.5 -1.5t8.5 7t7.5 9t4.5 6.5l4 -2l-10 -14t-13 -12q-7 -4 -14 -2t-6 12q1 8 6.5 15.5t8.5 14.5q1 1 2 4t1.5 5.5
t-0.5 4.5t-5 1q-11 -2 -19.5 -14t-13.5 -20l-12 -24h-12l4 9q-2 -2 -4 -3.5t-4 -2.5q-8 -4 -15 -1.5t-5 12.5q0 8 4.5 15t7.5 15q6 9 9 18q10 0 15 4l-19 -38q-2 -3 -5 -9.5t0 -9.5t7 -0.5t8 7t7 9t4 6.5zM943 522q-6 0 -9 -7.5t-4 -17.5t-0.5 -20t0.5 -14t-0.5 -13.5
t0.5 -19.5t4 -17.5t9 -7.5t9 7.5t4 17.5t0.5 19.5t-0.5 13.5t0.5 14t-0.5 20t-4 17.5t-9 7.5zM389 522q-6 0 -9 -7.5t-4 -17.5t-0.5 -20t0.5 -14t-0.5 -13.5t0.5 -19.5t4 -17.5t9 -7.5t8.5 7.5t3.5 17.5t0.5 19.5t-0.5 13.5t0.5 14t-0.5 20t-3.5 17.5t-8.5 7.5zM1190 539h22
q0 -28 -1 -56t-3 -57h-14q-2 29 -3 56.5t-1 56.5zM152 324q-8 2 -18.5 -7t-15.5 -14q-16 -18 -29 -39h42l13 27q1 3 4 8t5 10.5t2.5 9.5t-3.5 5zM1039 311q-5 -3 -6.5 0.5t-0.5 7.5q-11 4 -16.5 -5.5t-7.5 -16.5h14l-3 -6h-14l-44 -90q-4 0 -14 -2l46 92h-15l3 6h15
q3 8 8 16t15 10q6 2 15 -1q2 -1 5.5 -4.5t-0.5 -6.5zM835 311q-5 -3 -7 0.5t-1 7.5q-11 4 -16.5 -5.5t-7.5 -16.5h14l-3 -6h-14l-44 -90q-5 0 -13 -2l45 92h-15l4 6h14q3 8 8 16t15 10q6 2 15 -1q2 -1 5.5 -4.5t0.5 -6.5zM622 31q-2 -10 -3 -20t-3 -20h29q-3 29 -8 58.5
t-7 59.5q-1 -20 -3.5 -39t-4.5 -39zM88 455q5 0 9.5 -0.5t7.5 3.5q5 5 5.5 14t0.5 16t-0.5 16t-5.5 14q-3 5 -7.5 4.5t-9.5 -0.5v-67zM1045 286q-8 0 -15 -9t-11 -19.5t-4 -19t8 -8.5q6 0 13 9t11.5 19.5t4.5 19t-7 8.5zM928 -81q0 -10 -6 -15t-13.5 -5t-13.5 5t-6 15t6 15
t13.5 5t13.5 -5t6 -15zM562 -81q0 -10 -6 -15t-13.5 -5t-13.5 5t-6 15t6 15t13.5 5t13.5 -5t6 -15zM462 283q-7 0 -12.5 -5t-10 -12.5t-8 -16t-6.5 -13.5q11 -8 21 0t15 16q1 2 4 7t4 10.5t0 9.5t-7 4zM231 232q7 0 13 6t10.5 14t8 16.5t6.5 14.5q-10 5 -20 -3t-15 -16
q-1 -2 -4 -7t-4.5 -10.5t-1 -10t6.5 -4.5zM225 464q4 0 8 -0.5t7 1.5q6 5 7 13t1 15q0 6 -1 14.5t-7 12.5q-3 2 -6.5 2h-8.5v-58zM366 232q7 0 13 6t10.5 14t8 16.5t6.5 14.5q-11 5 -20.5 -3t-14.5 -16q-1 -2 -4 -7t-4.5 -10.5t-1 -10t6.5 -4.5zM539 262q-3 -5 -4 -8l-2 -6
q11 0 24.5 9.5t13.5 21.5q0 8 -5.5 7t-10.5 -4q-5 -4 -9 -9.5t-7 -10.5zM533 469l-3 -24h17q-2 18 -4.5 36t-3.5 36q-1 -11 -2.5 -23t-3.5 -25zM1213 400q0 -6 -4 -9.5t-8.5 -3.5t-8 3.5t-3.5 9.5t3.5 9.5t8 3.5t8.5 -3.5t4 -9.5zM667 308q-4 -7 -11.5 -5t-5.5 10q1 4 5 5.5
t7.5 0.5t5 -4t-0.5 -7zM327 308q-3 -7 -10.5 -5t-5.5 10q1 4 4.5 5.5t7 0.5t5.5 -4t-1 -7zM1194 231q-4 -8 -11.5 -4.5t-3.5 10.5q4 8 11.5 4.5t3.5 -10.5zM1214 277q-2 -4 -5 -5t-6 0.5t-4 4t1 6.5q4 7 11 4t3 -10z" />
    <glyph glyph-name="zero" unicode="0" horiz-adv-x="1272" 
d="M358 143h42q5 -51 8.5 -101.5t5.5 -101.5q3 38 5.5 77t7.5 77l6 49h39q5 -42 9 -83t7 -83l3 -37q3 41 4.5 80.5t5.5 78.5q2 11 2.5 22t1.5 22h30l-20 -244h-46q-5 48 -9.5 96.5t-6.5 97.5q-2 -36 -5 -72.5t-7 -72.5l-4 -49h-47l-11 137l-12 -137h-45q-5 48 -10 96.5
t-7 97.5q-2 -36 -4.5 -72.5t-6.5 -72.5l-5 -49h-46l-12 140l-11 -140h-46q-5 48 -9.5 96t-6.5 97q-1 -37 -4 -72.5t-7 -71.5l-6 -49h-45l-21 244h30q5 -51 8.5 -101.5t5.5 -101.5q3 38 5.5 77t7.5 77l6 49h39q5 -42 9 -83t7 -83l3 -37q3 41 4.5 80.5t5.5 78.5l5 44h41
q5 -51 8.5 -101.5t6.5 -101.5q3 38 5.5 77t6.5 77q2 12 3 24t3 25h40q5 -42 8.5 -83t7.5 -83l2 -37q3 41 5 80.5t6 78.5zM1204 671h-1130v22h1130v-22zM1204 -257h-1130v22h1130v-22zM740 -101h-35v244h36q11 0 22 0.5t21 -4.5q17 -8 22 -27.5t5 -36.5v-19t-2.5 -22
t-7.5 -20t-14 -12l30 -103h-39l-21 97h-17v-97zM983 -47v-54h-33v244h32q12 -43 24.5 -85t22.5 -86q-4 43 -4.5 85.5t-0.5 85.5h32v-244h-33q-12 42 -24.5 83.5t-21.5 83.5q2 -29 3 -56.5t3 -56.5zM606 -101h-33l29 244h57l30 -244h-35l-7 58h-33zM1153 52q1 11 0 23.5
t-5 23.5q-3 8 -10.5 13t-14.5 -5q-6 -8 -7 -20.5t-2 -23.5q-1 -12 -1 -23.5v-22.5v-23t2 -23q0 -9 2 -22t11 -18q10 -6 16 1.5t8 20t2.5 25t0.5 17.5h-25v28h58v-123h-26l-1 33q-2 -11 -7.5 -22t-16.5 -14t-22 2t-18 13q-14 17 -16 42t-2 45q-2 26 -1 52.5t8 50.5q2 11 7 21
t15 15q10 6 22 7t23 -3q12 -5 19 -15t10 -22.5t4 -25.5t1 -24zM224 267q5 8 12 14t16 8q8 2 16 -1.5t17 -0.5l-18 -34q-2 -3 -5.5 -10t0.5 -9q5 -4 11 2t11 13q2 5 5 10l6 10l8 18q8 0 15 4l-19 -38q-2 -3 -5 -9.5t1 -9.5q4 -4 10 1.5t10 12.5q4 9 9.5 19t9.5 19q5 9 9 18
t9 18q8 -2 14 3l-27 -55q-2 -5 -4.5 -10t-4.5 -10t-4 -12.5t6 -3.5q5 2 9.5 7t8.5 11q3 8 8 15q5 8 12 14t16 8t17 -1.5t17 -0.5q-5 -8 -9 -16.5t-9 -17.5q-2 -3 -5 -10t0 -9q3 -3 6.5 -1t7 5.5t6.5 8l5 7.5l1 2l32 66q8 0 13 3q-5 -12 -10 -23.5t-13 -22.5q7 7 16.5 11.5
t16.5 -6.5q6 -10 0.5 -23t-12.5 -21q6 -1 11 2t10 7q4 9 9 18.5t10 18.5l18 36q7 -2 13 3q-7 -14 -13 -27.5t-14 -27.5q-2 -5 -4.5 -10t-5.5 -10q-1 -2 -2 -5.5t-1 -6.5t1 -4.5t6 0.5t10.5 8t8.5 12q3 13 12 22q3 3 9.5 7.5t14 6.5t13.5 0.5t8 -10.5q1 -8 -3.5 -15
t-12 -11.5t-16.5 -7t-15 -2.5q-1 -6 3 -9.5t10 -3.5q13 0 24 7t17 18l4 -2q-8 -14 -23 -22.5t-31 -5.5t-16 18q-4 -5 -8 -9.5t-9 -6.5q-7 -4 -14.5 -1.5t-5.5 12.5v2q-2 -2 -4 -2q-4 -3 -12 -3h-7q-2 0 -3 -2t-3 -2q-10 -6 -21.5 -5t-17.5 11q-7 -9 -17 -12q-9 -2 -12.5 3
t-0.5 13q-5 -7 -13.5 -13.5t-17.5 -0.5q-7 4 -7 14q-6 -9 -14 -14q-8 -4 -15 -1.5t-6 10.5q-7 -7 -11 -9q-8 -4 -15.5 -1.5t-5.5 11.5q-4 -4 -8 -7t-9 -5q-9 -2 -12.5 3t0.5 13h-1q-5 -7 -13.5 -13.5t-17.5 -0.5q-5 2 -6 6.5t0 9.5q-5 -5 -10 -6q-4 -2 -13 -2q-5 0 -6 -1
t-4 -3q-5 -3 -11.5 -5t-11.5 -1t-8 5.5t-1 12.5q2 11 8 22t11 21q5 0 13 4q-3 -8 -6 -15t-7 -14q-1 -3 -4 -7.5t-5 -9.5t-2 -9t4 -5q9 -2 17 8t11 15q5 8 8 17.5t3 18.5q9 2 10 -5t-1 -13q-4 -16 -18 -31q8 -2 15 3t11 12zM943 386q-11 0 -17.5 5t-9.5 13t-4.5 17.5
t-1.5 17.5q-2 19 -2 39.5t6 39.5q3 8 8.5 14.5t14.5 7.5q20 5 31 -13q9 -17 9 -37.5v-38.5q0 -9 -0.5 -20.5t-4 -21t-10.5 -16.5t-19 -7zM389 386q-11 0 -17.5 5t-10 13t-4.5 17.5t-2 17.5q-1 19 -1 39.5t6 39.5q3 8 8 14.5t15 7.5q21 5 31 -13q8 -17 8.5 -37.5t0.5 -38.5
q0 -9 -1 -20.5t-4.5 -21t-10 -16.5t-18.5 -7zM867 -101h-35v244h35v-244zM225 387h-21v152h23h14t13 -2q10 -5 13 -16.5t3 -20.5q1 -11 -1 -27.5t-14 -21.5l18 -64h-24l-13 61q-3 0 -5.5 0.5t-5.5 0.5v-62zM1006 421v-34h-20v152h19q8 -26 16 -52.5t14 -53.5q-2 26 -2.5 53
t-0.5 53h20v-152h-21q-8 26 -15.5 52t-13.5 53q2 -18 2.5 -35.5t1.5 -35.5zM88 387h-22v152h34q26 0 32 -26q4 -14 3.5 -32t-8.5 -32q-7 -10 -17.5 -11t-21.5 -1v-50zM452 421v-34h-20v152h19q8 -26 15.5 -52.5t13.5 -53.5q-2 26 -2.5 53t-0.5 53h20v-152h-21
q-7 26 -14.5 52t-13.5 53q2 -18 2 -35.5t2 -35.5zM524 387h-21l18 152h35l19 -152h-21l-5 37h-21zM701 386q-15 0 -22.5 8.5t-10 21t-2 26.5t0.5 26v71h22v-106q0 -5 -0.5 -10t1.5 -10t7 -7.5t10 2.5t5.5 13.5t0.5 14.5q1 12 0.5 24t-0.5 24v55h22v-71q0 -12 0.5 -26
t-2 -26.5t-9.5 -21t-23 -8.5zM1090 288q5 -1 13 3q-3 -6 -5.5 -10.5t-6.5 -9.5v-1q6 7 14.5 13.5t17.5 7.5q12 0 11.5 -9t-3.5 -17q-3 -4 -10 -14.5t-4 -15.5q2 -3 5.5 -2t7 5l7 8t5.5 7l19 38h-8l3 6h8l8 17q8 0 14 3l-10 -20h15l-4 -6h-14l-18 -37l-5 -10t-1 -10
q3 -3 7 -0.5t8.5 7t7.5 9t4 6.5l4 -2q-5 -8 -12 -17t-18 -11q-9 -2 -12 2t-1 10q-3 -3 -6 -5.5t-6 -4.5q-7 -4 -14.5 -2t-6.5 12q1 8 6.5 15.5t8.5 14.5q1 3 3.5 9.5t-4.5 5.5q-11 -2 -20 -14t-14 -20q-4 -5 -6.5 -11.5t-5.5 -12.5h-12l7 16l-1 -1q-4 -2 -10 -4h-9
q-5 -6 -10.5 -8t-8.5 -2q-10 -4 -18 3t-6.5 18t5.5 20q5 9 14 16.5t21 7.5q10 0 14.5 -6t4.5 -14t-3.5 -16.5t-7.5 -14.5q13 0 20 11zM304 458q-23 15 -26 39q-2 11 2 22.5t15 17.5q9 5 21.5 4t20.5 -9q9 -9 9 -19.5v-21.5q-6 0 -11.5 0.5t-10.5 0.5q0 6 0.5 12.5t-4.5 11.5
q-9 8 -14.5 1t-6.5 -15q0 -11 7.5 -18t15.5 -13t14 -13.5t8 -16.5q2 -11 0.5 -21.5t-7 -18.5t-14 -12.5t-20.5 -2.5q-20 4 -22.5 19.5t-1.5 31.5h20q0 -5 -0.5 -10t0.5 -10q2 -6 7.5 -10t11.5 1q5 4 6 12.5t-1 14.5q-2 8 -7 13.5t-12 9.5zM771 458q-23 13 -27 39
q-1 11 2.5 22.5t14.5 17.5q10 5 22 4t20 -9q9 -9 8.5 -19.5t-0.5 -21.5q-5 0 -10 0.5t-10 0.5q0 6 0.5 12.5t-4.5 11.5q-9 8 -14.5 1t-6.5 -15q0 -11 7 -18t15 -13q17 -12 23 -30q2 -11 0.5 -21.5t-7 -18.5t-14.5 -12.5t-21 -2.5q-20 4 -22.5 19.5t-2.5 31.5h22q0 -5 -1 -10
t1 -10q2 -6 7 -10t11 1q6 4 7 12.5t-1 14.5q-2 8 -7 13.5t-12 9.5zM198 387h-55v152h55v-20h-33v-43h27v-22h-27v-46h33v-21zM875 387h-54v152h54v-20h-32v-43h27v-22h-27v-46h32v-21zM128 259l-42 -2q-5 -8 -9 -17t-5 -19q-8 -2 -9.5 2.5t0 11.5t4.5 13.5t5 8.5l-14 -1
l-5 8h23q11 17 26 34t35 27q6 4 16 5t12 -10q2 -5 -0.5 -10.5t-4.5 -10.5q-5 -10 -9.5 -19.5t-9.5 -18.5q-3 -7 -9 -17.5t-3 -18.5q-8 -2 -10 2t-0.5 10t4.5 12.5t5 9.5zM1163 539h21q-5 -21 -10 -42.5t-10 -42.5q-5 -16 -3.5 -33t1.5 -34h-23q0 17 0.5 34t-3.5 33
q-5 21 -10 42.5t-10 42.5h21q4 -19 7.5 -38.5t5.5 -39.5q1 20 5 39t8 39zM800 227q-7 4 -5.5 11.5t4.5 13.5l17 35q6 0 14 4l-13 -27q-2 -4 -8 -14.5t-2 -14.5q6 -5 14.5 2.5t11.5 11.5t5 7.5t5 8.5l12 24q4 0 12 2q-4 -9 -8.5 -18.5t-9.5 -18.5l-5 -10t0 -10q4 -5 10 1
t11 13q4 9 9.5 19t10.5 19l8 18t9 18q7 -2 14 3l-27 -55l-10 -20q-2 -5 -3.5 -12.5t6.5 -3.5q8 3 15 13q4 10 9.5 20t10.5 19l8 18t9 18q7 -2 14 3l-27 -55l-10 -20q-1 -2 -2 -5.5t-1.5 -6.5t0.5 -4.5t6 0.5q7 2 12 9t8 13l4 -2q-5 -8 -10 -15t-13 -11q-7 -4 -14 -1.5
t-6 10.5q-6 -6 -12 -9q-7 -4 -14 -1.5t-6 11.5q-5 -5 -9.5 -9t-10.5 -4q-9 0 -10 6t2 12q-6 -7 -16.5 -14t-18.5 -2zM1114 387h-54v152h22v-133h32v-19zM634 387h-54v152h22v-133h32v-19zM740 21q6 0 12.5 -0.5t11.5 3.5q9 8 11 20t2 22q0 11 -2 24t-10 21q-5 5 -12 4.5
t-13 -0.5v-94zM675 288q6 -1 14 3q-3 -6 -5.5 -10.5t-6.5 -9.5v-1q6 7 14.5 13.5t17.5 7.5q12 0 11.5 -9t-4.5 -17q-2 -4 -9.5 -14.5t-4.5 -15.5q2 -4 6.5 -1.5t8.5 7t7.5 9t4.5 6.5l4 -2l-10 -14t-13 -12q-7 -4 -14 -2t-6 12q1 8 6.5 15.5t8.5 14.5q1 1 2 4t1.5 5.5
t-0.5 4.5t-5 1q-11 -2 -19.5 -14t-13.5 -20l-12 -24h-12l4 9q-2 -2 -4 -3.5t-4 -2.5q-8 -4 -15 -1.5t-5 12.5q0 8 4.5 15t7.5 15q6 9 9 18q10 0 15 4l-19 -38q-2 -3 -5 -9.5t0 -9.5t7 -0.5t8 7t7 9t4 6.5zM943 522q-6 0 -9 -7.5t-4 -17.5t-0.5 -20t0.5 -14t-0.5 -13.5
t0.5 -19.5t4 -17.5t9 -7.5t9 7.5t4 17.5t0.5 19.5t-0.5 13.5t0.5 14t-0.5 20t-4 17.5t-9 7.5zM389 522q-6 0 -9 -7.5t-4 -17.5t-0.5 -20t0.5 -14t-0.5 -13.5t0.5 -19.5t4 -17.5t9 -7.5t8.5 7.5t3.5 17.5t0.5 19.5t-0.5 13.5t0.5 14t-0.5 20t-3.5 17.5t-8.5 7.5zM1190 539h22
q0 -28 -1 -56t-3 -57h-14q-2 29 -3 56.5t-1 56.5zM152 324q-8 2 -18.5 -7t-15.5 -14q-16 -18 -29 -39h42l13 27q1 3 4 8t5 10.5t2.5 9.5t-3.5 5zM1039 311q-5 -3 -6.5 0.5t-0.5 7.5q-11 4 -16.5 -5.5t-7.5 -16.5h14l-3 -6h-14l-44 -90q-4 0 -14 -2l46 92h-15l3 6h15
q3 8 8 16t15 10q6 2 15 -1q2 -1 5.5 -4.5t-0.5 -6.5zM835 311q-5 -3 -7 0.5t-1 7.5q-11 4 -16.5 -5.5t-7.5 -16.5h14l-3 -6h-14l-44 -90q-5 0 -13 -2l45 92h-15l4 6h14q3 8 8 16t15 10q6 2 15 -1q2 -1 5.5 -4.5t0.5 -6.5zM622 31q-2 -10 -3 -20t-3 -20h29q-3 29 -8 58.5
t-7 59.5q-1 -20 -3.5 -39t-4.5 -39zM88 455q5 0 9.5 -0.5t7.5 3.5q5 5 5.5 14t0.5 16t-0.5 16t-5.5 14q-3 5 -7.5 4.5t-9.5 -0.5v-67zM1045 286q-8 0 -15 -9t-11 -19.5t-4 -19t8 -8.5q6 0 13 9t11.5 19.5t4.5 19t-7 8.5zM928 -81q0 -10 -6 -15t-13.5 -5t-13.5 5t-6 15t6 15
t13.5 5t13.5 -5t6 -15zM562 -81q0 -10 -6 -15t-13.5 -5t-13.5 5t-6 15t6 15t13.5 5t13.5 -5t6 -15zM462 283q-7 0 -12.5 -5t-10 -12.5t-8 -16t-6.5 -13.5q11 -8 21 0t15 16q1 2 4 7t4 10.5t0 9.5t-7 4zM231 232q7 0 13 6t10.5 14t8 16.5t6.5 14.5q-10 5 -20 -3t-15 -16
q-1 -2 -4 -7t-4.5 -10.5t-1 -10t6.5 -4.5zM225 464q4 0 8 -0.5t7 1.5q6 5 7 13t1 15q0 6 -1 14.5t-7 12.5q-3 2 -6.5 2h-8.5v-58zM366 232q7 0 13 6t10.5 14t8 16.5t6.5 14.5q-11 5 -20.5 -3t-14.5 -16q-1 -2 -4 -7t-4.5 -10.5t-1 -10t6.5 -4.5zM539 262q-3 -5 -4 -8l-2 -6
q11 0 24.5 9.5t13.5 21.5q0 8 -5.5 7t-10.5 -4q-5 -4 -9 -9.5t-7 -10.5zM533 469l-3 -24h17q-2 18 -4.5 36t-3.5 36q-1 -11 -2.5 -23t-3.5 -25zM1213 400q0 -6 -4 -9.5t-8.5 -3.5t-8 3.5t-3.5 9.5t3.5 9.5t8 3.5t8.5 -3.5t4 -9.5zM667 308q-4 -7 -11.5 -5t-5.5 10q1 4 5 5.5
t7.5 0.5t5 -4t-0.5 -7zM327 308q-3 -7 -10.5 -5t-5.5 10q1 4 4.5 5.5t7 0.5t5.5 -4t-1 -7zM1194 231q-4 -8 -11.5 -4.5t-3.5 10.5q4 8 11.5 4.5t3.5 -10.5zM1214 277q-2 -4 -5 -5t-6 0.5t-4 4t1 6.5q4 7 11 4t3 -10z" />
    <glyph glyph-name="hyphen" unicode="-" horiz-adv-x="335" 
d="M56 176l23 49h196l-19 -49h-200z" />
    <glyph glyph-name="period" unicode="." horiz-adv-x="280" 
d="M205 59q-10 -20 -26 -33t-34.5 -20t-38.5 -6t-38 10q-39 20 -49 55.5t11 75.5q10 18 26 30.5t34.5 18t38 4.5t36.5 -10q37 -20 47.5 -55t-7.5 -70z" />
    <glyph glyph-name="dieresis" unicode="&#xa8;" horiz-adv-x="463" 
d="M229 491q-10 -20 -25.5 -33t-33.5 -19.5t-37.5 -5.5t-37.5 9q-38 20 -48.5 55.5t10.5 73.5q10 18 25.5 30t33.5 17.5t37.5 4.5t37.5 -9q35 -20 46 -55t-8 -68zM443 491q-10 -20 -25.5 -33t-33.5 -19.5t-37.5 -5.5t-37.5 9q-38 20 -48.5 55.5t11.5 73.5q9 18 24.5 30
t34 17.5t38 4.5t36.5 -9q35 -20 46 -55t-8 -68z" />
    <glyph glyph-name="slash" unicode="/" horiz-adv-x="372" 
d="M606 640l-676 -740h-50l677 740h49z" />
    <glyph glyph-name="comma" unicode="," horiz-adv-x="273" 
d="M28 135q18 28 46.5 36.5t54 0t41.5 -31.5t10 -59q-6 -32 -28.5 -59t-52 -45t-61.5 -25t-57 2q14 8 24.5 25t13.5 38q3 15 1 29t-3.5 28t0 29t11.5 32z" />
    <glyph glyph-name="colon" unicode=":" horiz-adv-x="299" 
d="M205 59q-10 -20 -26 -33t-34.5 -20t-38.5 -6t-38 10q-39 20 -49 55.5t11 75.5q10 18 26 30.5t34.5 18t38 4.5t36.5 -10q37 -20 47.5 -55t-7.5 -70zM304 270q-10 -19 -26 -32.5t-34.5 -20t-38 -6t-37.5 9.5q-40 20 -50 55.5t12 75.5q10 18 26 30.5t34.5 18t38 4.5
t36.5 -10q37 -20 47.5 -55t-8.5 -70z" />
    <glyph glyph-name="parenleft" unicode="(" horiz-adv-x="362" 
d="M536 619q-45 -26 -87.5 -66.5t-78.5 -90.5t-64.5 -107t-46.5 -115q-24 -85 -20.5 -163t42.5 -166l-19 -14q-69 10 -115 40t-71.5 73t-29.5 97t11 113q16 58 52 118.5t94 116t139 103.5t186 82z" />
    <glyph glyph-name="parenright" unicode=")" horiz-adv-x="362" 
d="M-126 -82q45 26 87.5 66.5t78.5 90.5t64.5 106.5t46.5 115.5q24 85 20.5 163t-42.5 166l19 14q69 -11 115 -40.5t71.5 -72.5t29.5 -97t-11 -113q-16 -59 -52 -119t-94 -115.5t-139 -103.5t-186 -82z" />
    <glyph glyph-name="less" unicode="&#x3c;" horiz-adv-x="431" 
d="M255 21l-180 181l9 35l310 167l19 -22l-177 -185l40 -167z" />
    <glyph glyph-name="asterisk" unicode="*" horiz-adv-x="419" 
d="M320 405q14 -8 22 -22.5t13 -30t8.5 -30t9.5 -23.5q-18 -1 -37.5 0.5t-36.5 4t-29 6.5t-14 8q-5 7 -3.5 19t5 24.5t9 24t10.5 19.5q-11 -6 -17 -17t-10.5 -23t-8.5 -23.5t-12 -18.5q-6 -6 -23.5 -11t-39 -8t-44.5 -4.5t-40 -0.5q10 13 26.5 29t36 31t40.5 27.5t39 18.5
h-117l11 23h123q-13 7 -21 21.5t-13.5 31t-10 32.5t-10.5 25q22 4 42.5 5t37.5 -0.5t28.5 -5.5t14.5 -8q5 -8 4 -22.5t-5 -30t-9.5 -29t-9.5 -19.5q11 7 17 20t11.5 27.5t11 28t15.5 21.5q13 11 49 16t80 -3q-11 -14 -26 -30.5t-33 -32t-37.5 -28.5t-37.5 -19h114l-9 -23
h-124z" />
    <glyph glyph-name="plus" unicode="+" horiz-adv-x="416" 
d="M205 276h-108l23 49h106l47 109h53l-48 -109h104l-19 -49h-107l-46 -106h-51z" />
    <glyph glyph-name="endash" unicode="&#x2013;" horiz-adv-x="486" 
d="M56 176l23 49h342l-19 -49h-346z" />
    <glyph glyph-name="emdash" unicode="&#x2014;" horiz-adv-x="636" 
d="M56 176l23 49h495l-19 -49h-499z" />
    <glyph glyph-name="ampersand" unicode="&#x26;" horiz-adv-x="548" 
d="M333 251q37 -7 68.5 -19.5t51.5 -32t26 -45.5t-7 -60q-11 -27 -38 -49t-67 -35.5t-90 -18t-106 3.5q-69 9 -109.5 34t-58.5 56.5t-17.5 66t13.5 62.5q21 45 65.5 76t119.5 32q-16 37 -18.5 68.5t13.5 61.5q11 21 29.5 40t46.5 33.5t65.5 23.5t86.5 12q53 3 91 -8
t61.5 -30.5t31.5 -43.5t1 -46q-5 -16 -20 -31.5t-39 -26t-58 -15t-77 0.5q19 24 29.5 48.5t12.5 46.5q3 34 -9 56.5t-33 21.5q-21 0 -33.5 -25t-18.5 -60q-2 -11 -4.5 -25t-2.5 -28t3.5 -26.5t12.5 -21.5l9 -21q-34 -2 -63.5 -17.5t-53 -37t-41 -46.5t-28.5 -46
q-15 -28 -23 -55t-8.5 -48.5t7 -36t24.5 -16.5q20 -3 38.5 6.5t33.5 26.5t25.5 38.5t15.5 42.5q5 19 9 38t5 34.5t-3 26.5t-15 14l13 31h220l-19 -49z" />
    <glyph glyph-name="quotesingle" unicode="'" horiz-adv-x="102" 
d="M93 503q16 30 42 44t49.5 12t39 -22t10.5 -57q-5 -38 -29 -69t-56.5 -51.5t-68.5 -29.5t-64 -3q15 15 24.5 36.5t17 45.5t15.5 48.5t20 45.5z" />
    <glyph glyph-name="tilde" unicode="&#x2dc;" horiz-adv-x="435" 
d="M11 477q18 39 49.5 72.5t67.5 51.5t72.5 14t65.5 -40q23 -29 45 -32.5t39 3.5q20 8 39 28l24 -20q-33 -38 -69.5 -67t-72 -43t-66.5 -9.5t-54 35.5t-44 32t-37 -10q-18 -13 -34 -40z" />
    <glyph glyph-name="acute" unicode="&#xb4;" horiz-adv-x="397" 
d="M189 589q21 25 48.5 31.5t50 -2t33 -30.5t-1.5 -55q-12 -36 -41 -60t-65 -36t-73 -11.5t-63 14.5q33 37 58 76.5t54 72.5z" />
    <glyph glyph-name="grave" unicode="`" horiz-adv-x="416" 
d="M53 596q42 26 74 35.5t59 -3.5q21 -10 33.5 -33.5t21 -52t16 -58t18.5 -50.5q-44 -19 -78 -13t-61 29.5t-47 61.5t-36 84z" />
    <glyph glyph-name="caron" unicode="&#x2c7;" horiz-adv-x="351" 
d="M335 592l-205 -165h-35l-66 162l45 22l93 -65l153 64z" />
    <glyph glyph-name="ring" unicode="&#x2da;" horiz-adv-x="269" 
d="M239 535q0 -23 -9.5 -43.5t-25 -36t-35.5 -25t-42 -9.5q-25 0 -46 9.5t-36 25t-23.5 36t-8.5 43.5q0 49 32 80.5t82 31.5q22 0 42 -8.5t35.5 -23.5t25 -35.5t9.5 -44.5zM211 534q0 38 -25.5 61.5t-59.5 23.5q-38 0 -62 -23.5t-24 -61.5q0 -35 24 -60.5t62 -25.5
q17 0 32.5 7t27 19t18.5 27.5t7 32.5z" />
    <glyph glyph-name="ogonek" unicode="&#x2db;" horiz-adv-x="294" 
d="M275 45q-12 -6 -31.5 -20.5t-40.5 -37.5q-27 -31 -35 -57t-9 -41q-1 -16 5 -24.5t11 -10.5v-20q-155 -30 -163 40q-2 18 4.5 34t23.5 32t46 33.5t71 38.5l19 9.5t32.5 16t33 15.5t19.5 9z" />
    <glyph glyph-name="cedilla" unicode="&#xb8;" horiz-adv-x="153" 
d="M39 -68l119 93l32 -7l-99 -83q49 5 81 2t50.5 -13t26 -26t7.5 -35q0 -18 -16.5 -38t-47.5 -33.5t-76 -17t-103 11.5v21q25 -6 44.5 -2.5t33 12t20.5 20.5t8 24q0 9 -4.5 19.5t-14.5 18.5t-25 11.5t-36 -0.5v22z" />
    <glyph glyph-name="dotaccent" unicode="&#x2d9;" horiz-adv-x="318" 
d="M243 488q-11 -20 -27 -33t-35 -20t-39.5 -6t-38.5 10q-40 20 -51 56.5t11 77.5q10 19 26.5 31.5t35.5 18.5t39.5 4.5t38.5 -10.5q37 -20 48 -57t-8 -72z" />
    <glyph glyph-name="breve" unicode="&#x2d8;" horiz-adv-x="358" 
d="M129 426q-46 0 -72.5 13.5t-36.5 35.5t-4.5 49.5t22.5 55.5h23q-11 -23 11.5 -27.5t76.5 -4.5q36 0 62.5 -0.5t46 2t32 9t19.5 21.5h25q-9 -24 -23.5 -51t-38.5 -50t-59 -38t-84 -15z" />
    <glyph glyph-name="bar" unicode="|" horiz-adv-x="343" 
d="M395 640l-362 -740h-50l363 740h49z" />
    <glyph glyph-name="dollar" unicode="$" horiz-adv-x="522" 
d="M559 640l-37 -64q47 -16 72 -40t34.5 -49.5t6.5 -48.5t-12 -36q-16 -30 -41 -42t-51 -8.5t-50.5 21.5t-39.5 47q10 6 16.5 10.5t11.5 9.5t9 11t10 16q10 17 13 34.5t-5 30.5l-76 -130q8 -11 19 -24.5t25 -30.5q27 -35 35.5 -71t0 -72.5t-32 -72t-60.5 -69.5
q-21 -18 -46.5 -30t-53.5 -17.5t-57 -5.5t-57 5l-66 -114h-54l74 127q-9 3 -17 7t-16 9q-45 27 -73.5 56t-43.5 59t-17.5 59.5t3.5 58.5q11 51 40.5 91.5t76.5 54.5q27 8 57 2.5t61 -19.5q-1 20 4.5 38t13.5 34q15 28 39.5 51.5t56 39t68 21t75.5 -0.5l31 52h53zM279 267
q-21 27 -34 51t-19 45q-20 -22 -39 -50t-33 -54q-12 -24 -19.5 -50t-7 -51t10.5 -48t33 -42l113 193q-4 4 -5 6zM333 97q17 27 10.5 57t-29.5 66l-101 -173q32 -8 65 5t55 45zM392 490q-7 -23 1 -43l59 102q-17 -3 -34 -17t-26 -42z" />
    <glyph glyph-name="percent" unicode="%" horiz-adv-x="522" 
d="M283 571q49 0 74.5 -18.5t31 -46.5t-7.5 -60t-41 -60t-70.5 -46.5t-94.5 -18.5q-46 0 -72 18.5t-33 46.5t4 60t38.5 60t70.5 46.5t100 18.5zM182 344q7 0 18.5 15t24 37.5t24.5 49t20 49t10.5 37.5t-3.5 15q-11 0 -24 -15t-25 -37.5t-22.5 -49t-17.5 -49t-9 -37.5t4 -15z
M586 571l-577 -570h-52l579 570h50zM379 250q49 0 74.5 -18.5t31 -46.5t-7.5 -60t-41 -60t-70.5 -46.5t-94.5 -18.5q-47 0 -72.5 18.5t-32.5 46.5t4 60t38.5 60t70.5 46.5t100 18.5zM278 23q7 0 18.5 15t24 37.5t24.5 49t20 49t10.5 37.5t-3.5 15q-11 0 -24 -15t-25 -37.5
t-22.5 -49t-17.5 -49t-9 -37.5t4 -15z" />
    <glyph glyph-name="exclam" unicode="!" horiz-adv-x="291" 
d="M375 480q-47 -46 -82 -82.5t-62 -68t-48.5 -61t-42.5 -61.5q-16 28 -21 65.5t-1 78t17.5 80.5t35.5 74.5t52 60.5t68 37q39 12 67 3.5t40.5 -28.5t7.5 -47t-31 -51zM205 59q-10 -20 -26 -33t-34.5 -20t-38.5 -6t-38 10q-39 20 -49 55.5t11 75.5q10 18 26 30.5t34.5 18
t38 4.5t36.5 -10q37 -20 47.5 -55t-7.5 -70z" />
    <glyph glyph-name="question" unicode="?" horiz-adv-x="430" 
d="M94 210q6 36 19.5 59t31 38t38.5 24.5t42.5 18.5t43.5 20.5t41 29.5q33 32 50.5 62.5t20 55t-9.5 40.5t-38 18q-22 2 -41.5 -6.5t-33 -22.5t-20.5 -30.5t-5 -31t13.5 -24t34.5 -9.5q4 -22 -8 -41.5t-33.5 -32t-49 -15t-52.5 11.5q-35 18 -48.5 44t-9 54t24.5 55t51 47
t72 31t87 6q85 -8 133 -36t66.5 -65.5t12 -77.5t-29.5 -72q-27 -37 -63 -58t-73.5 -32t-75 -15.5t-68 -9t-51 -12t-25.5 -24.5h-47zM205 59q-10 -20 -26 -33t-34.5 -20t-38.5 -6t-38 10q-39 20 -49 55.5t11 75.5q10 18 26 30.5t34.5 18t38 4.5t36.5 -10q37 -20 47.5 -55
t-7.5 -70z" />
    <glyph glyph-name="numbersign" unicode="#" horiz-adv-x="468" 
d="M446 464l-40 -74h46l-19 -49h-53l-61 -115h73l-19 -49h-80l-41 -78h-60l41 78h-93l-41 -78h-60l41 78h-43l23 49h46l62 115h-71l23 49h74l40 74h59l-40 -74h94l40 74h59zM166 226h93l62 115h-94z" />
    <glyph glyph-name="quotedbl" unicode="&#x22;" horiz-adv-x="330" 
d="M116 503q16 30 42 44t49.5 12t39 -22t10.5 -57q-5 -38 -29 -69t-56.5 -51.5t-68.5 -29.5t-64 -3q15 15 24.5 36.5t17 45.5t15.5 48.5t20 45.5zM294 503q17 30 43 44t49.5 11.5t38.5 -22t10 -56.5q-6 -41 -30 -71.5t-56 -50.5t-67.5 -28t-64.5 -3q15 15 24.5 36.5t17 45.5
t15.5 48.5t20 45.5z" />
    <glyph glyph-name="asciicircum" unicode="^" horiz-adv-x="351" 
d="M64 379l193 149h35l79 -155l-28 -19l-134 65l-130 -58z" />
    <glyph glyph-name="underscore" unicode="_" horiz-adv-x="335" 
d="M-99 -83l23 49h316l-19 -49h-320z" />
    <glyph glyph-name="asciitilde" unicode="~" horiz-adv-x="498" 
d="M57 157q19 37 49 68t63.5 47.5t67 13t60.5 -36.5q23 -28 43.5 -31.5t36.5 3.5q18 8 34 26l25 -20q-32 -37 -66.5 -65t-68 -41t-63.5 -8t-52 34q-22 28 -40.5 29t-32.5 -9q-17 -11 -31 -35z" />
    <glyph glyph-name="at" unicode="@" horiz-adv-x="683" 
d="M623 216q-12 -26 -32 -58t-48 -61t-62 -50t-74 -23q-53 -3 -76.5 17t-21.5 55q-13 -24 -25 -38t-24.5 -21t-26 -9t-29.5 -2q-44 0 -66 26t-23.5 65t16 85t51.5 85t82.5 65t109.5 26q18 0 30.5 -5.5t24.5 -13.5l171 19l-111 -235q-11 -23 -5 -33t22 -3.5t39 33t48 76.5
q30 60 31.5 110t-19.5 86t-61.5 56.5t-95.5 20.5q-54 0 -111.5 -22.5t-108 -60.5t-89 -88t-54.5 -105q-17 -54 -15.5 -102.5t21.5 -85t58 -58t94 -21.5q22 0 44 4t44 13l11 -22q-57 -23 -110 -23q-59 0 -101.5 23.5t-65.5 63.5t-26 94t16 114q18 61 59 115.5t96 95t118.5 64
t128.5 23.5q62 0 106.5 -23t67 -63t21.5 -94t-29 -115zM265 67q6 0 14.5 12.5t19 32t21.5 43.5t23 47l74 150q-18 -2 -39.5 -24t-42.5 -54t-39 -68t-29 -67t-12.5 -51.5t10.5 -20.5zM418 354q-1 0 0 -1v1z" />
    <glyph glyph-name="degree" unicode="&#xb0;" horiz-adv-x="269" 
d="M310 454q0 -21 -8.5 -39.5t-22.5 -33t-32.5 -23t-38.5 -8.5q-23 0 -42 8.5t-32.5 23t-21.5 33t-8 39.5q0 45 29.5 73.5t74.5 28.5q20 0 38.5 -7.5t32.5 -21t22.5 -32.5t8.5 -41zM280 453q0 33 -22 53t-51 20q-33 0 -53.5 -20t-20.5 -53q0 -29 20.5 -51.5t53.5 -22.5
q14 0 27.5 6t23.5 16.5t16 23.5t6 28z" />
    <glyph glyph-name="copyright" unicode="&#xa9;" horiz-adv-x="857" 
d="M212 485q57 54 124.5 83t135.5 32t130.5 -21t109.5 -75t67 -116t14 -134t-37.5 -136t-88.5 -121q-57 -55 -124 -84t-135 -31t-130.5 22.5t-110.5 75.5q-47 50 -67 115t-14 133.5t38 135.5t88 121zM230 466q-52 -50 -81 -111.5t-34.5 -125t12.5 -123t62 -105.5
q44 -47 102 -69.5t120.5 -20t124.5 28.5t114 77q52 50 81 111.5t34.5 125t-13 123t-61.5 106.5t-100.5 69t-120 20t-125.5 -28.5t-115 -77.5zM515 51q-32 -32 -71.5 -49.5t-76.5 -17.5q-44 0 -77 20.5t-50.5 56.5t-18 85.5t21.5 107.5q18 48 45.5 90t68 73t95.5 46.5
t130 11.5q41 -2 61 -20.5t24 -46.5t-5.5 -60.5t-27.5 -62t-42.5 -52t-49.5 -30t-49 4t-42 49.5q19 13 41.5 37.5t40.5 52t28 53t5 39.5q-3 8 -18.5 4t-38 -24.5t-49.5 -60.5t-53 -104q-22 -58 -31.5 -98.5t-10 -66.5t5 -40t13.5 -18q16 -4 34 -1.5t35.5 9.5t33.5 18t28 25
v-31z" />
    <glyph glyph-name="questiondown" unicode="&#xbf;" horiz-adv-x="536" 
d="M462 311q-6 -36 -19.5 -59t-31 -38t-38.5 -24.5t-42.5 -18.5t-43.5 -20.5t-41 -29.5q-33 -32 -50.5 -62.5t-20 -55t9.5 -40.5t38 -18q22 -2 41.5 6.5t33 22.5t20.5 30.5t5 31t-13.5 24t-34.5 9.5q-4 22 8 41.5t33.5 32t48.5 14.5t53 -11q35 -18 48.5 -44t9 -54t-24.5 -55
t-51 -47t-72 -31t-87 -6q-85 8 -133 36t-66.5 65.5t-12 77.5t29.5 72q27 37 63 58t73.5 32t75 15.5t68 9t51 12t25.5 24.5h47zM351 462q10 19 26 32.5t34.5 20.5t38.5 6t38 -10q39 -20 49 -55.5t-11 -75.5q-10 -18 -26 -30.5t-34.5 -18t-38 -4.5t-36.5 10q-37 20 -47.5 55
t7.5 70z" />
    <glyph glyph-name="section" unicode="&#xa7;" horiz-adv-x="467" 
d="M309 197q8 -42 2.5 -76.5t-21.5 -62t-42 -47.5t-59 -34q-23 -9 -54 -16.5t-60 -4t-51.5 22.5t-27.5 63q-2 25 7 52t30 48t55 33t82 6q-21 51 -63 117l129 124q-6 40 0 72t21.5 56.5t39.5 42.5t55 31q27 11 61 17.5t64.5 1.5t52 -26t24.5 -66q1 -24 -8.5 -49t-31 -45
t-54 -31.5t-75.5 -7.5q12 -27 25 -52t26 -45zM365 603q-13 -8 -16.5 -25.5t-0.5 -41t11.5 -51t20.5 -55.5q14 14 26.5 44.5t14.5 63.5q3 45 -15 63t-41 2zM174 -3q9 3 16.5 14.5t9.5 33.5t-3.5 54t-23.5 74q-8 -6 -15.5 -17.5t-14.5 -26t-11 -31.5t-4 -35q0 -15 2 -29.5
t7.5 -24t14 -13.5t22.5 1zM301 227l19 19l-77 145l-20 -20z" />
    <glyph glyph-name="currency" unicode="&#xa4;" horiz-adv-x="409" 
d="M304 194q0 -21 -8.5 -40t-22.5 -33l17 -27l-44 -29l-18 29q-12 -4 -26 -4q-41 0 -70 27l-72 -50l-42 30l87 60q-7 17 -7 37q0 41 26 69l-18 31l47 27l18 -30q15 5 31 5q38 0 66 -25l73 50l43 -31l-87 -60q7 -19 7 -36zM276 193q0 34 -22.5 54.5t-52.5 20.5
q-34 0 -55 -20.5t-21 -54.5q0 -31 21 -53.5t55 -22.5q30 0 52.5 22.5t22.5 53.5z" />
    <glyph glyph-name="brokenbar" unicode="&#xa6;" horiz-adv-x="343" 
d="M11 -107l110 357h50l-110 -357h-50zM301 673l-97 -314h-49l97 314h49z" />
    <glyph glyph-name="ordfeminine" unicode="&#xaa;" horiz-adv-x="475" 
d="M136 462q21 33 47 57t55 37t59.5 12.5t61.5 -16.5q26 -14 58.5 -13t58.5 11q-8 -15 -19.5 -38.5t-23.5 -47t-22 -43t-14 -27.5q-14 -26 -18 -40t4 -14q4 0 23.5 16t49.5 66l16 -9q-9 -14 -22.5 -34.5t-33.5 -40t-47 -33.5t-62 -14q-18 0 -35.5 8.5t-21.5 31.5l11 23h-2
l-8 -11q-21 -31 -38.5 -41t-40.5 -10q-24 0 -41.5 13.5t-23.5 36.5t0 54t29 66zM218 333q7 0 16 11.5t20.5 31t24.5 45.5l28 56l32 67q-9 1 -19 -8t-20.5 -23.5t-21.5 -32.5t-21 -35q-35 -57 -42.5 -85t3.5 -27z" />
    <glyph glyph-name="logicalnot" unicode="&#xac;" horiz-adv-x="416" 
d="M352 225l-69 -158h-51l47 109h-223l23 49h273z" />
    <glyph glyph-name="macron" unicode="&#xaf;" horiz-adv-x="350" 
d="M21 496l23 49h279l-19 -49h-283z" />
    <glyph glyph-name="paragraph" unicode="&#xb6;" horiz-adv-x="458" 
d="M180 441q6 35 35 59.5t64 24.5h207l-296 -612h-50l273 563h-75l-271 -563h-48l213 445q-28 6 -42.5 29.5t-9.5 53.5z" />
    <glyph glyph-name="multiply" unicode="&#xd7;" horiz-adv-x="416" 
d="M194 278l-58 96l47 27l55 -92l133 92l43 -31l-150 -103l56 -93l-44 -29l-56 91l-130 -89l-42 30z" />
    <glyph glyph-name="germandbls" unicode="&#xdf;" horiz-adv-x="498" 
d="M78 -41q-18 3 -43 3t-52 -2.5t-53.5 -6.5t-48.5 -9l219 436q34 68 80 117t94 78q34 20 72 28.5t73.5 6t65 -15.5t47 -37t19.5 -58t-18 -79q-30 -66 -71.5 -90t-98.5 -15l-2 -5l41 -6q12 -8 20 -24.5t11 -38t-1.5 -48t-18.5 -55.5q-6 -12 -12 -22.5t-12 -20.5q32 7 63 31
t52 63l24 -14q-33 -55 -76.5 -82t-88.5 -31q-25 -27 -54.5 -43t-61 -22t-64 -1.5t-62.5 20.5l12 23q13 0 27.5 10t30 27t30.5 39.5t28 46.5q16 32 26 59.5t13 48t-3 34t-23 18.5l11 22q31 1 52.5 27t44.5 79q23 51 33.5 84t-0.5 40q-15 9 -29.5 -7t-27.5 -42
q-10 -21 -20 -49.5t-25 -59.5z" />
    <glyph glyph-name="eth" unicode="&#xf0;" horiz-adv-x="481" 
d="M471 550q21 -31 27.5 -67.5t3 -73t-14 -70.5t-21.5 -61q-20 -48 -52.5 -96t-77.5 -89q40 -5 82 20t69 76l24 -14q-42 -69 -98 -95t-113 -16q-39 -29 -84 -46.5t-95 -17.5q-49 0 -79 23.5t-40.5 60t-1.5 80.5t36 86q62 94 138 129t144 12q2 29 3.5 53.5t0.5 45.5l-80 -32
l13 43l65 26q-6 46 -29 72l17 40q48 -8 82 -24t57 -37l109 44l-12 -43zM137 34q15 0 32.5 15.5t35.5 41.5t35 59.5t32 70t26 73t17 68.5q-7 -5 -19 -18t-26.5 -31t-30.5 -40t-31 -47q-26 -42 -42.5 -77t-25 -60.5t-9.5 -40t6 -14.5z" />
    <glyph glyph-name="fraction" unicode="&#x2044;" horiz-adv-x="372" 
d="M606 640l-676 -740h-50l677 740h49z" />
    <glyph glyph-name="hungarumlaut" unicode="&#x2dd;" horiz-adv-x="451" 
d="M189 589q21 25 44 31.5t40 -2t23 -30.5t-6 -55q-12 -36 -36.5 -60t-55 -36t-63 -11.5t-58.5 14.5q33 37 58 76.5t54 72.5zM362 589q21 25 44 31.5t40 -2t23 -30.5t-6 -55q-11 -36 -36 -60t-55.5 -36t-63 -11.5t-58.5 14.5q34 37 58.5 76.5t53.5 72.5z" />
    <glyph glyph-name="backslash" unicode="\" horiz-adv-x="372" 
d="M156 640l72 -740h-35l-71 740h34z" />
    <glyph glyph-name="braceleft" unicode="{" horiz-adv-x="362" 
d="M530 619q-42 -22 -71 -41t-48.5 -43t-30.5 -56t-17 -79q-3 -20 -6.5 -39t-14 -35.5t-30.5 -29.5t-56 -21q19 -8 27 -21t8 -29t-7.5 -33t-20.5 -33q-25 -31 -48.5 -64t-36 -64.5t-9.5 -61.5t31 -55l-20 -14q-63 10 -105 38.5t-57 69t-0.5 90.5t62.5 103q12 13 22 24t14 20
t0.5 16.5t-16.5 13.5l10 23q19 0 28 7.5t12 19.5t3 28t2 34q9 55 41 96.5t81.5 72t112.5 51t133 33.5z" />
    <glyph glyph-name="braceright" unicode="}" horiz-adv-x="362" 
d="M-79 -79q42 22 71 41t48.5 43t30.5 56t17 79q3 19 6.5 38.5t14 36t30.5 29.5t56 21q-19 8 -27 21t-8 29t7.5 33t20.5 33q25 31 48.5 64t36 64.5t9.5 61.5t-31 55l20 14q64 -10 105.5 -38.5t56.5 -69t1 -90.5t-63 -104q-12 -14 -22 -24.5t-14 -19.5t-1 -16t17 -13l-9 -23
q-20 0 -28.5 -7.5t-11.5 -19.5t-3.5 -28t-2.5 -34q-8 -55 -40.5 -96.5t-82 -72t-112.5 -51t-133 -33.5z" />
    <glyph glyph-name="bracketleft" unicode="[" horiz-adv-x="343" 
d="M-65 -100l363 740h269l-11 -28h-117l-335 -684h116l-11 -28h-274z" />
    <glyph glyph-name="bracketright" unicode="]" horiz-adv-x="343" 
d="M459 640l-363 -740h-269l11 28h117l334 684h-115l11 28h274z" />
    <glyph glyph-name="equal" unicode="=" horiz-adv-x="416" 
d="M71 218l23 49h262l-19 -49h-266zM121 328l23 49h262l-19 -49h-266z" />
    <glyph glyph-name="minus" unicode="&#x2212;" horiz-adv-x="416" 
d="M97 276l23 49h262l-19 -49h-266z" />
    <glyph glyph-name="plusminus" unicode="&#xb1;" horiz-adv-x="416" 
d="M205 276h-108l23 49h106l47 109h53l-48 -109h104l-19 -49h-107l-46 -106h-51zM27 76l23 49h262l-19 -49h-266z" />
    <glyph glyph-name="semicolon" unicode=";" horiz-adv-x="299" 
d="M304 270q-10 -19 -26 -32.5t-34.5 -20t-38 -6t-37.5 9.5q-40 20 -50 55.5t12 75.5q10 18 26 30.5t34.5 18t38 4.5t36.5 -10q37 -20 47.5 -55t-8.5 -70zM28 135q18 28 46.5 36.5t54 0t41.5 -31.5t10 -59q-6 -32 -28.5 -59t-52 -45t-61.5 -25t-57 2q14 8 24.5 25t13.5 38
q3 15 1 29t-3.5 28t0 29t11.5 32z" />
    <glyph glyph-name="greater" unicode="&#x3e;" horiz-adv-x="431" 
d="M186 404l202 -155l-9 -35l-332 -193l-19 22l187 206l-50 146z" />
    <glyph glyph-name="registered" unicode="&#xae;" horiz-adv-x="857" 
d="M171 -24l-4 4q-47 50 -67 115t-14 133.5t38 135.5t88 121q57 54 124.5 83t135.5 32t130.5 -21t109.5 -75t67 -116t14 -134t-37.5 -136t-88.5 -121q-55 -54 -120.5 -82.5t-131.5 -32t-128.5 18.5t-110.5 69q-2 0 -8 -2zM299 250q-37 -10 -65 0.5t-42.5 34t-13.5 55
t22 63.5q43 66 132 99.5t214 15.5q53 -7 89 -24t58 -39.5t30 -48.5t5 -52q-3 -21 -13.5 -41t-27 -36.5t-37 -29t-41.5 -17.5l-93 1l11 -7q32 -2 48 -11t26 -23q13 -18 15.5 -45t-8.5 -66q-7 -28 -7 -43.5t4.5 -23t11.5 -8t13 1.5v-7q5 4 10 8.5t10 9.5q52 50 81 111.5
t34.5 125t-13 123t-61.5 106.5t-100.5 69t-120 20t-125.5 -28.5t-115 -77.5q-51 -50 -80.5 -111t-35.5 -123.5t11.5 -121.5t59.5 -105l211 436q16 -3 37.5 -2.5t44 2.5t44.5 5.5t41 7.5l-90 -186q25 9 54 34.5t50 65.5q23 42 10 77.5t-58 44.5q-30 7 -58 2.5t-53.5 -18.5
t-47 -35.5t-37.5 -47.5q-17 -31 -26.5 -67.5t-7.5 -73.5zM449 130q11 38 14 62.5t-9 35.5l-120 -248q-23 4 -55 3t-64 -6q38 -32 83.5 -48t94.5 -17.5t98.5 12.5t94.5 43q-39 -8 -75 -1.5t-53 30.5q-7 10 -12.5 21t-7.5 26.5t0 36.5t11 50z" />
    <glyph glyph-name="quotedblright" unicode="&#x201d;" horiz-adv-x="336" 
d="M120 532q19 27 47.5 34.5t54 -1t40.5 -32t8 -58.5q-7 -32 -30.5 -58t-54 -43t-62.5 -23t-57 4q14 7 25 23t16 36q3 15 2 29t-2 28.5t1 29.5t12 31zM290 531q18 27 46.5 35t54 -0.5t41 -32t7.5 -58.5q-7 -32 -30.5 -58t-53.5 -43t-62.5 -23t-56.5 4q14 7 25 23t16 36
q3 15 1.5 29t-2.5 28.5t1 29t13 30.5z" />
    <glyph glyph-name="daggerdbl" unicode="&#x2021;" horiz-adv-x="525" 
d="M199 37l-67 -137h-50l67 137h-102l23 49h103l181 370h-112l23 49h113l67 135h49l-66 -135h99l-19 -49h-104l-181 -370h109l-19 -49h-114z" />
    <glyph glyph-name="dagger" unicode="&#x2020;" horiz-adv-x="525" 
d="M404 456l-272 -556h-50l272 556h-112l23 49h113l67 135h49l-66 -135h99l-19 -49h-104z" />
    <glyph glyph-name="periodcentered" unicode="&#xb7;" horiz-adv-x="318" 
d="M269 242q-11 -21 -28.5 -35.5t-37.5 -21.5t-42 -6t-41 10q-42 22 -54 61.5t12 81.5q10 20 27.5 33.5t37.5 19.5t41.5 4.5t41.5 -10.5q39 -22 50.5 -60.5t-7.5 -76.5z" />
    <glyph glyph-name="bullet" unicode="&#x2022;" horiz-adv-x="548" 
d="M411 239q-15 -30 -39 -50t-52 -30t-57.5 -9t-56.5 13q-59 32 -74.5 85.5t17.5 112.5q14 27 37.5 45.5t51 27t57.5 7t57 -14.5q27 -15 44.5 -37t25.5 -46.5t5 -51.5t-16 -52z" />
    <glyph glyph-name="trademark" unicode="&#x2122;" horiz-adv-x="755" 
d="M455 485q3 7 9.5 18.5t9.5 16.5q-14 2 -26 0.5t-21.5 -5.5t-16.5 -8.5t-11 -8.5l-99 -208q-12 -24 -27.5 -38.5t-33.5 -21t-36.5 -6t-35.5 5.5q-21 6 -34.5 19t-20 28.5t-6 33t7.5 32.5q11 23 28 35t35 13t33 -9t22 -29q-12 -9 -21 -23t-17 -26q-6 -7 -11.5 -15.5t-9 -16
t-4 -13.5t4.5 -8q2 -3 7.5 -2.5t10.5 9.5l88 183q8 18 17 31.5t20 18.5l29 5v3q-25 1 -47 2.5t-41.5 0.5t-37 -7t-33.5 -20q-11 13 -12.5 29t3 30t14.5 26t22 18q14 7 35 9t46 0.5t51 -5t51 -6.5q17 4 42.5 8.5t54 1.5t56 -18t48.5 -49l-8 -79l-21 -35l1 -1l169 177l100 5
l-139 -294q-11 -23 -13.5 -35.5t1.5 -22.5q-26 -8 -51.5 -7t-33.5 19q-8 15 -2 31t11 28l73 153l29 50l-4 1l-32 -43l-122 -178h-76l38 176h-3l-44 -115l-52 -115q-19 2 -43.5 -1t-47.5 -8z" />
    <glyph glyph-name="exclamdown" unicode="&#xa1;" horiz-adv-x="358" 
d="M13 40q47 46 82 82.5t62 68t48.5 61t42.5 61.5q16 -29 21 -66t1 -77.5t-17.5 -80.5t-35.5 -74.5t-52.5 -60.5t-67.5 -37q-39 -12 -67 -3.5t-40.5 28.5t-7.5 47t31 51zM183 461q10 19 26 32.5t34.5 20.5t38.5 6t38 -10q39 -20 49 -55.5t-11 -75.5q-10 -18 -26 -30.5
t-34.5 -18t-38 -4.5t-36.5 10q-37 20 -47.5 55t7.5 70z" />
    <glyph glyph-name="uni00A0" unicode="&#xa0;" horiz-adv-x="256" 
 />
    <glyph glyph-name="twosuperior" unicode="&#xb2;" horiz-adv-x="428" 
d="M3 211q15 38 36 67.5t45 52.5t50 41.5t50 35.5q-18 4 -31.5 15t-20.5 27t-6.5 35t9.5 39q9 18 26 34t41 27t54.5 15.5t66.5 0.5q44 -7 67.5 -24t31 -39.5t0.5 -48t-25 -49.5q-21 -32 -58 -54t-77.5 -40.5t-79.5 -35.5t-63 -39l5 -4q19 20 48.5 31.5t55.5 11.5
q15 0 20.5 -2.5t9.5 -6t8.5 -7t17.5 -4.5q20 -2 39.5 7t30.5 17q-10 -60 -48 -87.5t-108 -26.5q-24 0 -44 6t-40.5 9.5t-44 1.5t-54.5 -17zM247 510q-16 -33 -20 -73q25 18 45 39q35 38 48 67t-6 34q-14 4 -33 -16.5t-34 -50.5z" />
    <glyph glyph-name="threesuperior" unicode="&#xb3;" horiz-adv-x="493" 
d="M302 434q-36 -5 -61 0.5t-38.5 18.5t-16.5 31t6 38q7 16 19 31t32 26t48 17.5t67 5.5q64 -2 99.5 -26.5t36.5 -60.5q1 -26 -10.5 -43.5t-30.5 -29.5t-42.5 -19.5t-46.5 -11.5l1 -3h33q11 -4 18.5 -13t12 -20.5t6 -23.5t0.5 -23q-3 -26 -18 -50.5t-40.5 -43t-61.5 -29
t-81 -8.5q-55 2 -86.5 14.5t-45.5 31t-14.5 40t6.5 41.5t22.5 37t37 26t48 9t57.5 -14q-11 -8 -21 -23t-16 -35q-17 -46 -16 -74.5t24 -30.5q9 0 20.5 8.5t22 23t19 34t12.5 41.5q3 11 4 24.5t-1 25t-8.5 20t-18.5 10.5v15q31 2 54.5 29.5t37.5 59.5q12 31 9.5 51.5
t-23.5 22.5q-10 1 -19.5 -5t-17 -16.5t-13.5 -23t-9 -25.5q-10 -30 -7 -46.5t10 -33.5z" />
    <glyph glyph-name="onesuperior" unicode="&#xb9;" horiz-adv-x="273" 
d="M17 199l167 340l-21 -1l9 22l177 40l-198 -401h-134z" />
    <glyph glyph-name="ordmasculine" unicode="&#xba;" horiz-adv-x="485" 
d="M368 602q38 -3 61 -19t33 -42t7.5 -59.5t-15.5 -70.5q-15 -43 -40 -82.5t-58 -70t-71.5 -47.5t-79.5 -15q-40 3 -63.5 22t-32.5 49t-4.5 68t21.5 78q16 36 40.5 71.5t56 62.5t68 42.5t77.5 12.5zM210 212q3 0 13.5 16.5t25.5 43.5t31.5 61.5t31.5 69.5q15 33 27.5 66
t20.5 59.5t9.5 43t-6.5 18.5q-9 2 -21.5 -16t-27 -47t-29 -64t-28.5 -67q-15 -35 -27 -68t-19 -58.5t-8 -41.5t7 -16z" />
    <glyph glyph-name="mu" unicode="&#xb5;" horiz-adv-x="483" 
d="M198 79q-39 -44 -75.5 -61.5t-68.5 -17.5q-35 0 -56.5 16t-28.5 44l-63 -214h-82l190 364l85 171q22 -2 48 -1.5t53 2.5t52.5 6.5t46.5 11.5l-126 -254q-41 -74 -14 -71q2 3 16.5 19t46.5 67l38 82l75 150q45 -2 95.5 0t98.5 7l-125 -252q-20 -39 -27.5 -58.5t3.5 -17.5
q4 1 13.5 6t23.5 17.5t32.5 35t39.5 58.5l24 -14q-12 -18 -32.5 -48t-50.5 -58.5t-69.5 -49t-90.5 -20.5q-24 -1 -48 7.5t-34 34.5l-4 5l20 35z" />
    <glyph glyph-name="onequarter" unicode="&#xbc;" horiz-adv-x="954" 
d="M488 -100l71 146l-126 -15l-61 83q35 30 58 64t41 70t33 74t34 77l-456 -499h-50l677 740h49l-201 -220l173 28q-39 -72 -68.5 -128t-57 -96.5t-57.5 -67.5t-70 -42h116l163 331l205 26l-176 -357h42v-37l-64 -8l-83 -169h-192zM-4 99l238 485l-30 -2l14 31l252 58
l-282 -572h-192z" />
    <glyph glyph-name="onehalf" unicode="&#xbd;" horiz-adv-x="952" 
d="M315 -84q22 54 52.5 96t65 75t70.5 59.5t71 49.5q-26 5 -45.5 21t-29.5 38.5t-10 49.5t14 55l-421 -460h-50l677 740h49l-191 -210q36 24 87.5 36.5t115.5 4.5q63 -9 96.5 -33.5t44 -56.5t0.5 -68.5t-35 -70.5q-20 -30 -50.5 -54t-67 -43.5t-76 -37t-76.5 -34t-70 -34
t-56 -37.5l7 -6q13 13 31 24.5t38 19.5t40.5 12.5t38.5 4.5q21 0 29 -4t13 -9t12 -10t25 -6q29 -2 56.5 10.5t44.5 23.5q-14 -85 -68.5 -124t-154.5 -38q-34 0 -62.5 8.5t-58 14t-63 2.5t-77.5 -25zM-4 99l238 485l-30 -2l14 31l252 58l-282 -572h-192zM662 341
q-21 -44 -29 -104q19 14 35 27.5t30 28.5q24 27 41.5 51.5t26 44t6.5 32.5t-15 16q-10 3 -22 -3.5t-24.5 -20t-25 -32.5t-23.5 -40z" />
    <glyph glyph-name="threequarters" unicode="&#xbe;" horiz-adv-x="1120" 
d="M674 -100l71 146l-126 -15l-61 83q35 30 58 64t41 70t33 74t34 77l-456 -499h-50l677 740h49l-201 -220l173 28q-39 -72 -68.5 -128t-57 -96.5t-57.5 -67.5t-70 -42h116l163 331l205 26l-176 -357h42v-37l-64 -8l-83 -169h-192zM337 434q-51 -7 -86.5 1t-55 26t-23 43.5
t8.5 54.5q9 22 26.5 43.5t46 37t68.5 24.5t94 7q91 -3 141 -37t52 -86q1 -37 -15 -62t-43 -41.5t-60.5 -26.5t-66.5 -16l2 -5h47q16 -6 26.5 -18.5t17 -28.5t8.5 -33.5t0 -32.5q-5 -37 -26 -71.5t-57 -60.5t-87 -41t-114 -13q-78 3 -122.5 20.5t-64.5 44t-21 57t10 59.5
q10 28 31.5 52t52 37t68 12.5t81.5 -19.5q-15 -12 -29.5 -32.5t-22.5 -49.5q-23 -66 -22 -106.5t33 -42.5q13 0 29 12t31 32.5t27 48t18 58.5q3 16 5 34.5t-1 35t-12 28.5t-26 15v22q22 1 41 12.5t35.5 29t30 39.5t23.5 45q17 44 13.5 73t-33.5 31q-14 1 -27 -7.5t-24 -23
t-19.5 -32.5t-13.5 -36q-7 -21 -9 -37t-0.5 -28.5t5.5 -24t9 -23.5z" />
    <glyph glyph-name="divide" unicode="&#xf7;" horiz-adv-x="404" 
d="M253 256q29 -21 36 -53t-9 -64q-10 -20 -26 -33t-34.5 -20t-38.5 -6t-38 10q-39 20 -49 55.5t11 75.5q12 21 32 35h-67l23 49h142q-35 20 -43 54.5t13 72.5q10 18 26 30.5t34.5 18t38 4.5t36.5 -10q37 -20 47.5 -55t-8.5 -70q-16 -30 -44 -45h20l-19 -49h-83z" />
    <glyph glyph-name="s" unicode="s" horiz-adv-x="368" 
d="M263 411q21 0 36.5 -6.5t24 -16.5t9.5 -20.5t-6 -17.5q-8 -7 -17.5 -6.5t-19.5 6.5t-18.5 15.5t-12.5 19.5q-7 -7 -9.5 -13.5t-2.5 -14.5t0.5 -18t0.5 -22q-1 -37 4.5 -66.5t12 -56.5t10.5 -54t0 -60q-2 -11 -9 -16t-12 -9v-1q37 29 70 66t50 69l24 -14q-17 -29 -44 -61
t-58.5 -60t-63.5 -49t-59 -27q-38 -13 -78 -8.5t-66 22.5q-20 15 -29.5 31t-10.5 30t5.5 24.5t17.5 13.5q12 3 21 -3t14 -18t5.5 -28.5t-2.5 -34.5q6 8 19.5 21.5t21.5 34.5q6 21 4 41.5t-6.5 41.5t-8.5 41.5t-2 40.5l29 74l-3 1q-8 -15 -19 -34.5t-23 -40t-23.5 -39.5
t-21.5 -33l-23 13q19 32 39.5 64t38.5 64q15 27 33 48.5t40.5 35.5t51 22t66.5 8z" />
    <glyph glyph-name="b_alt" horiz-adv-x="492" 
d="M202 595q19 -3 44.5 -2.5t52.5 3t53.5 6t48.5 8.5l-111 -224l-40 -52l2 -2l27 28q24 28 43 34t46 6q36 0 62 -18.5t35.5 -51.5t1 -79t-41.5 -101q-18 -30 -39 -54q32 7 61.5 31t50.5 62l24 -14q-34 -56 -78 -83t-91 -30q-31 -27 -66 -44t-71 -22t-72 2.5t-69 29.5
q-8 6 -21 19t-27 29.5t-26.5 34t-19.5 32.5zM229 176q0 26 16.5 45.5t40.5 24.5q25 49 31 76t-6 27q-14 0 -26.5 -10.5t-26.5 -32.5t-31 -56t-40 -82l-70 -142q11 0 24.5 10.5t29 28t31.5 40.5t31 47q-4 9 -4 24z" />
    <glyph glyph-name="o_alt" horiz-adv-x="486" 
d="M293 400q48 0 84.5 -16.5t58 -45t27 -66t-9.5 -78.5q-20 -52 -54 -92q27 11 51.5 33t41.5 54l24 -14q-32 -52 -72.5 -79.5t-83.5 -32.5q-38 -30 -85 -47t-104 -17q-61 0 -98.5 21t-55.5 53t-19 71.5t12 75.5q13 37 39.5 69.5t63.5 57t83 39t97 14.5zM316 373
q-12 0 -26 -15.5t-29 -39.5t-30.5 -53t-28.5 -56q-15 -31 -30 -63t-25 -58.5t-11.5 -43t11.5 -16.5q9 0 19.5 10.5t21.5 27t23 37.5t24 44q-6 13 -6 29q0 25 15.5 44.5t38.5 25.5q11 24 21 47t15.5 40.5t5.5 28.5t-9 11z" />
    <glyph glyph-name="p_alt" horiz-adv-x="487" 
d="M99 385q19 -4 44 -4t52 2.5t53.5 7t49.5 9.5l-4 -7l-40 -52l2 -2l24 25q11 13 19 19t15.5 8.5t14.5 4t17 4.5q44 3 74 -15t42 -52t4 -81t-41 -102q-18 -30 -38 -53q30 9 58 32.5t48 59.5l24 -14q-32 -54 -75.5 -81t-88.5 -32q-56 -49 -121 -60.5t-119 18.5l-82 -166
q-23 1 -49.5 1t-52.5 -1t-50 -3.5t-43 -5.5zM293 349q-14 -4 -24 -14.5t-20.5 -31.5t-24.5 -53.5t-37 -81.5l-64 -131q14 -5 29 5t29.5 27.5t28 39t24.5 41.5q-5 13 -5 26q0 25 16 44.5t39 25.5q25 53 27.5 80.5t-18.5 22.5z" />
    <glyph glyph-name="v_alt" horiz-adv-x="454" 
d="M117 34q7 -8 19 -2.5t25.5 21t28.5 39t30 52.5q-8 14 -8 32q0 23 13.5 42t35.5 26l5 15q11 33 18.5 65.5t9.5 64.5q49 19 84.5 16.5t55 -21.5t22.5 -51.5t-12 -73.5q-16 -44 -47 -87t-73 -79q37 1 74 25.5t62 70.5l24 -14q-39 -65 -91.5 -91.5t-106.5 -21.5
q-41 -29 -85 -46.5t-86 -17.5q-47 0 -75.5 17t-42 43t-13 57t12.5 60l102 206q48 -3 98.5 2t89.5 17l-148 -300q-10 -21 -14 -33t-5.5 -18t-1.5 -9t-1 -6z" />
    <glyph glyph-name="f_alt" horiz-adv-x="271" 
d="M207 219h126l-21 -39h-124l-159 -329q-20 3 -45 2.5t-51.5 -3t-53 -6.5t-48.5 -8l299 598q30 61 61 101t73 59q12 6 33 10.5t45 5.5t48 -3t44 -15q18 -11 27.5 -22.5t12.5 -22.5t0.5 -20t-8.5 -13q-9 -6 -20 -4.5t-20 9.5t-13.5 21.5t0.5 31.5q-10 -6 -18 -11.5
t-18.5 -19.5t-25 -40t-36.5 -72z" />
    <glyph glyph-name="b_fina" horiz-adv-x="487" 
d="M202 595q19 -3 44.5 -2.5t52.5 3t53.5 6t48.5 8.5l-111 -224l-40 -52l2 -2l27 28q24 28 43 34t46 6q36 0 62 -18.5t35.5 -51.5t1 -79t-41.5 -101q-31 -52 -73 -88.5t-88.5 -54t-95.5 -13.5t-93 34q-8 6 -21 19t-27 29.5t-26.5 34t-19.5 32.5zM311 349q-14 0 -26.5 -10.5
t-26.5 -32.5t-31 -56t-40 -82l-70 -142q12 0 28 13t33 34t34.5 47.5t34.5 53.5q48 82 64 128.5t0 46.5z" />
    <glyph glyph-name="c_fina" horiz-adv-x="432" 
d="M324 37q-66 -37 -144 -37q-69 0 -111 21.5t-60 55.5t-14 76.5t28 84.5q26 47 66 80t85 52.5t90 26.5t82 3q36 -5 59 -17.5t35 -30.5t13 -39.5t-6 -42.5q-8 -25 -29 -48.5t-51.5 -39t-69.5 -18t-84 14.5q23 41 37.5 63t25.5 41q31 47 43 63.5t7 24.5q-6 12 -35.5 -26.5
t-77.5 -123.5q-24 -42 -38 -77t-16.5 -60t7 -39t32.5 -14q26 0 57.5 8t64.5 28z" />
    <glyph glyph-name="e_fina" horiz-adv-x="446" 
d="M328 35q-68 -35 -146 -35q-69 0 -112 20.5t-61.5 54.5t-14 76.5t29.5 86.5q26 47 67 80t86 52.5t89.5 26.5t78.5 3q40 -5 63.5 -19.5t34.5 -34.5t11.5 -42t-6.5 -42q-13 -35 -39 -64t-63.5 -49.5t-84 -30t-99.5 -6.5q-11 -38 -3 -59.5t40 -21.5q26 0 59 7.5t68 26.5z
M212 221q-25 -44 -38 -77q19 11 41.5 41t56.5 91q24 41 37 66.5t13 29.5q-11 11 -36.5 -27.5t-73.5 -123.5z" />
    <glyph glyph-name="g_fina" horiz-adv-x="458" 
d="M165 108q8 0 17.5 7.5t21.5 25.5t27.5 46.5t35.5 70.5l57 113q-26 -2 -51 -32t-62 -92q-25 -41 -37 -68t-15 -43t-0.5 -22t6.5 -6zM30 -132q-25 17 -38 34t-17 31t0.5 25.5t13.5 17.5q9 7 21 6t22 -11t15 -29.5t0 -49.5q10 -4 19 -2.5t18 9.5t19.5 24.5t24.5 42.5l48 95
l26 42h-4l-23 -23q-20 -20 -35.5 -25.5t-35.5 -7.5q-47 -1 -72.5 20.5t-32.5 55t3.5 73t34.5 75.5q30 46 68.5 76t80.5 44t85 11.5t83 -21.5q17 -9 38 -13.5t43.5 -4.5t45 4t40.5 11l-179 -349q-36 -71 -69.5 -111t-75.5 -60q-18 -8 -39.5 -12t-43.5 -3.5t-44 6.5t-40 19z
" />
    <glyph glyph-name="j_fina" horiz-adv-x="233" 
d="M100 381q24 -2 50.5 -1t53 3t51.5 6.5t45 10.5l-186 -371q-27 -54 -51.5 -89t-52.5 -57q-19 -15 -42 -25t-48.5 -13t-52 1t-52.5 17q-16 8 -27.5 22t-17 29.5t-2.5 29t15 20.5q12 6 22.5 1.5t18 -16t10 -30t-2.5 -40.5q17 -1 25.5 6.5t16.5 25.5t19.5 48.5t34.5 76.5z
M354 485q-12 -21 -29.5 -36t-38.5 -22.5t-43 -6.5t-42 10q-44 23 -55.5 63t12.5 84q11 21 28.5 34.5t38.5 20t43 5t42 -10.5q41 -23 52.5 -62.5t-8.5 -78.5z" />
    <glyph glyph-name="o_fina" horiz-adv-x="482" 
d="M293 400q48 0 84.5 -16.5t58 -45t27 -66t-9.5 -78.5t-41.5 -77t-62 -62t-80.5 -41t-98 -15q-61 0 -98.5 21t-55.5 53t-19 71.5t12 75.5q13 37 39.5 69.5t63.5 57t83 39t97 14.5zM316 373q-12 0 -26 -15.5t-29 -39.5t-30.5 -53t-28.5 -56q-15 -31 -30 -63t-25 -58.5
t-11.5 -43t11.5 -16.5q12 0 26.5 17.5t29.5 43t30.5 56t28.5 57.5q13 28 27.5 58.5t24 55.5t11.5 41t-9 16z" />
    <glyph glyph-name="p_fina" horiz-adv-x="475" 
d="M99 385q19 -4 44 -4t52 2.5t53.5 7t49.5 9.5l-4 -7l-40 -52l2 -2l24 25q11 13 19 19t15.5 8.5t14.5 4t17 4.5q44 3 74 -15t42 -52t4 -81t-41 -102q-30 -51 -68.5 -85t-80.5 -51t-84 -15.5t-79 21.5l-82 -166q-23 1 -49.5 1t-52.5 -1t-50 -3.5t-43 -5.5zM293 349
q-14 -4 -24 -14.5t-20.5 -31.5t-24.5 -53.5t-37 -81.5l-64 -131q17 -6 35 8.5t34.5 37t30.5 48t24 43.5q48 87 61 134t-15 41z" />
    <glyph glyph-name="q_fina" horiz-adv-x="487" 
d="M298 -103l-20 -43q-24 1 -50 1.5t-52 -1t-50.5 -4t-43.5 -5.5l25 52h-52l22 39h49l35 72l52 84h-5l-19 -25q-26 -35 -47.5 -49.5t-50.5 -19.5q-40 -2 -66.5 17.5t-35.5 54t1.5 81t45.5 99.5q33 49 71.5 83.5t79.5 51.5t82.5 15.5t80.5 -23.5q18 -10 40.5 -14.5t46.5 -4.5
t47.5 4t43.5 11l-211 -437h62l-21 -39h-60zM155 57q12 3 26 21t30 47t34 67.5t39 81.5l42 87q-12 3 -26.5 -10t-30 -34t-30.5 -45.5t-28 -45.5q-28 -45 -43.5 -78t-21 -54t-3 -30t11.5 -7z" />
    <glyph glyph-name="s_fina" horiz-adv-x="333" 
d="M263 411q21 0 36.5 -6.5t24 -16.5t9.5 -20.5t-6 -17.5q-8 -7 -17.5 -6.5t-19.5 6.5t-18.5 15.5t-12.5 19.5q-7 -7 -9.5 -13.5t-2.5 -14.5t0.5 -18t0.5 -22q-1 -37 4 -66t11 -55.5t9.5 -53.5t0.5 -60q-7 -33 -32 -60.5t-60 -42.5t-75 -13.5t-77 26.5q-20 15 -29.5 31
t-10.5 30.5t5.5 24.5t17.5 13q12 3 21 -3t14 -18t5.5 -28.5t-2.5 -34.5q14 9 23.5 24t17.5 32q6 21 4 41.5t-6.5 41.5t-8.5 41.5t-2 40.5l29 74l-3 1q-8 -15 -19 -34.5t-23 -40t-23.5 -39.5t-21.5 -33l-23 13q19 32 39.5 64t38.5 64q15 27 33 48.5t40.5 35.5t51 22t66.5 8z
" />
    <glyph glyph-name="v_fina" horiz-adv-x="443" 
d="M117 34q11 -11 30 5t41 49t43 78t35 93q11 33 18.5 65.5t9.5 64.5q49 19 84.5 16.5t55 -21.5t22.5 -51.5t-12 -73.5q-17 -47 -52 -93.5t-80.5 -83.5t-96.5 -60.5t-100 -23.5q-47 0 -75.5 17t-42 43t-13 57t12.5 60l102 206q48 -3 98.5 2t89.5 17l-148 -300
q-10 -21 -14 -33t-5.5 -18t-1.5 -9t-1 -6z" />
    <glyph glyph-name="w_fina" horiz-adv-x="638" 
d="M326 34q5 -8 18.5 6.5t32 45.5t41 76t45.5 97q13 32 25.5 67t23.5 66q47 17 77.5 13.5t45 -22.5t13.5 -51t-16 -73q-16 -47 -48 -93.5t-73.5 -83.5t-89.5 -60.5t-97 -23.5q-60 0 -91.5 26t-39.5 63q-17 -26 -33.5 -43t-33 -27t-34 -13.5t-35.5 -3.5q-29 0 -49.5 11.5
t-31 31.5t-9 47t16.5 59l115 232q45 -4 94 0.5t91 18.5l-126 -254q-12 -22 -16.5 -36t-3.5 -21.5t5.5 -8.5t9.5 2q9 7 16 25.5t27 56.5q1 3 2 5.5t3 5.5l102 206q48 -3 98.5 2t90.5 17l-148 -300q-10 -21 -13.5 -33t-4.5 -18t0 -9t0 -6z" />
    <glyph glyph-name="y_fina" horiz-adv-x="460" 
d="M178 106q6 2 13 10.5t21 31.5l3 5l121 240q48 -3 98 -0.5t96 7.5l-171 -340q-25 -50 -58 -98t-74 -79.5t-90 -40t-106 21.5q-23 11 -35.5 28t-16 34.5t1.5 31.5t17 19q9 3 20 -0.5t19.5 -14.5t13 -28t0.5 -41q7 -2 15 -2t16 4.5t17.5 15.5t20.5 32l51 106l26 36h-4
q-31 -29 -59.5 -41.5t-55.5 -14.5q-29 -2 -51 9.5t-33.5 32t-11 48t16.5 59.5l100 203q23 -2 50 -1t54 3t51.5 6.5t44.5 10.5l-111 -225q-18 -34 -22.5 -52.5t12.5 -16.5z" />
    <glyph glyph-name="s_init" horiz-adv-x="337" 
d="M232 411q21 0 36.5 -6.5t24 -16.5t9.5 -20.5t-6 -17.5q-8 -7 -17.5 -6.5t-19.5 6.5t-18.5 15.5t-12.5 19.5q-14 -14 -13 -29.5t1 -38.5q-2 -38 4 -67.5t13 -56t11 -53.5t0 -60q-2 -11 -9 -16t-12 -9v-1q37 29 70 66t50 69l24 -14q-17 -29 -44 -61t-58.5 -60t-63.5 -49
t-59 -27q-38 -13 -78 -8.5t-66 22.5q-20 15 -29.5 31t-10.5 30t5.5 24.5t17.5 13.5q12 3 21 -3t14 -18t5.5 -28.5t-2.5 -34.5q5 8 19 21.5t22 34.5q8 27 3 52.5t-11.5 53.5t-8 60.5t12.5 73.5q21 62 67.5 84.5t108.5 23.5z" />
    <glyph glyph-name="x_init" horiz-adv-x="416" 
d="M284 233q-5 -32 -9.5 -62t-3.5 -53t9.5 -36t29.5 -10q12 1 27 13t30 29t29.5 37t25.5 38l24 -14q-31 -43 -62 -82t-69 -65q-22 -15 -50 -23t-55.5 -6t-51 15t-35.5 42q-9 20 -12 42.5t-2 47.5q-16 -17 -16.5 -40.5t5.5 -47.5q6 -25 14 -38t16 -23q-20 -14 -41.5 -20.5
t-41.5 -5t-36 10t-24 24.5q-13 24 -3 50.5t31 50.5t47 43t46 29l7 3q4 25 10.5 51.5t15.5 56.5q11 26 5.5 48.5t-20.5 27.5l1 36q28 7 56.5 6.5t52.5 -10.5t39.5 -29t17.5 -48q1 -14 0 -29.5t-3 -31.5q17 19 21 39t2 39t-8 37t-10 33q17 11 45.5 21t55.5 10t47 -14t20 -50
q-2 -17 -12.5 -36.5t-31.5 -39.5t-53 -38t-77 -31z" />
    <glyph glyph-name="s_infi" horiz-adv-x="303" 
d="M232 411q21 0 36.5 -6.5t24 -16.5t9.5 -20.5t-6 -17.5q-8 -7 -17.5 -6.5t-19.5 6.5t-18.5 15.5t-12.5 19.5q-14 -14 -13 -29.5t1 -38.5q-2 -38 4 -67.5t12.5 -55.5t10.5 -53t-1 -61q-6 -35 -30.5 -62t-59.5 -41.5t-76 -12t-78 27.5q-20 15 -29.5 31t-10.5 30t5.5 24.5
t17.5 13.5q12 3 21 -3t14 -18t5.5 -28.5t-2.5 -34.5q9 8 20 19.5t19 30.5q10 28 6.5 57.5t-9.5 60.5t-8.5 63t9.5 65q10 31 27.5 51.5t40 33t50 17.5t58.5 6z" />
    <glyph glyph-name="dotlessi" unicode="&#x131;" horiz-adv-x="255" 
d="M-37 83q4 32 24.5 72.5t43.5 87.5l69 138q22 -2 48.5 -1t53.5 3t52 6.5t46 10.5l-125 -252q-20 -38 -27 -58t2 -20q3 0 12.5 5t24 18t33.5 36t40 60l24 -14q-15 -23 -37 -53t-52 -57.5t-68 -46.5t-84 -19q-17 0 -33 5t-27.5 15t-17 26t-2.5 38z" />
    <glyph glyph-name="circumflex" unicode="&#x2c6;" horiz-adv-x="351" 
d="M29 461l205 165h35l66 -162l-45 -23l-93 66l-153 -64z" />
    <glyph glyph-name="Lslash" unicode="&#x141;" horiz-adv-x="637" 
d="M726 400q-26 -48 -61.5 -70.5t-70.5 -25.5t-64 12t-41 44q21 14 41.5 44.5t37.5 61.5q11 22 20 44t13.5 40.5t5 32.5t-5.5 20q-8 6 -17 3t-18.5 -13t-19 -24t-18.5 -30q-16 -26 -30.5 -54.5t-28.5 -57.5l48 17l-19 -49l-53 -18q-16 -34 -31.5 -65t-31.5 -57t-33 -45.5
t-36 -29.5q-26 -5 -56 -23q-1 -2 -2.5 -4.5t-2.5 -4.5q14 8 28 12t34 9q19 4 44 1t50.5 -8t49.5 -9.5t42 -4.5q25 0 47 7.5t42 18.5q-1 -20 -6 -42t-15 -43.5t-25.5 -40t-38.5 -31.5q-16 -8 -34.5 -13t-40.5 -6q-24 -2 -49 4t-51.5 13.5t-55 14t-58.5 6.5
q-21 -17 -44.5 -25.5t-46 -10t-43 3.5t-36.5 15q-37 21 -43 49.5t8.5 53t45.5 41t69 14.5q5 -3 15.5 -5.5t23.5 -4.5q15 32 28 65.5t27 66.5l-107 -36l23 49l103 36q21 48 46 94.5t60 88.5q50 61 119.5 89t149.5 20q54 -7 85.5 -32t44.5 -59.5t7.5 -73.5t-24.5 -75z" />
    <glyph glyph-name="lslash" unicode="&#x142;" horiz-adv-x="254" 
d="M-37 83q3 32 24 72.5t44 87.5l95 193l-79 -26l23 49l80 27l52 105q23 -2 49.5 -1.5t53 2.5t51.5 6.5t46 11.5l-23 -47l70 24l-19 -49l-76 -26l-179 -364q-42 -85 -20 -78q4 2 13 7.5t22.5 18t31 35t38.5 58.5l24 -14q-13 -20 -33.5 -49.5t-50.5 -58t-70 -48.5t-91 -20
q-15 0 -30 4.5t-26 14.5t-17 26t-3 39z" />
    <glyph glyph-name="Zcaron" unicode="&#x17d;" horiz-adv-x="513" 
d="M614 619q-89 -100 -177 -194q-38 -40 -78.5 -82.5t-81 -84t-79.5 -78.5t-72 -67l6 -7q11 9 23.5 21t25.5 24t27.5 21.5t30.5 12.5q20 4 40 1t39 -8t36.5 -10t33.5 -5q48 0 89 26q-2 -33 -13.5 -66.5t-34 -60.5t-55 -44.5t-74.5 -17.5q-34 0 -65.5 8.5t-64.5 14t-69.5 2.5
t-80.5 -25l-18 22l496 518l-6 6q-14 -12 -31.5 -26.5t-37 -27.5t-39 -23t-36.5 -13q-23 -4 -45 -2.5t-43 4t-40.5 3t-35.5 -5.5q-17 -9 -22 -18.5t-15 -22.5q-14 44 -10 83.5t20 69.5t40.5 49.5t53.5 23.5q36 6 75.5 -3t82 -17t88.5 -7t96 27zM621 832l-205 -165h-35
l-66 162l45 22l93 -65l153 64z" />
    <glyph glyph-name="zcaron" unicode="&#x17e;" horiz-adv-x="382" 
d="M421 372l-337 -275l5 -5q27 20 55.5 41t60.5 27q19 4 33 -0.5t26 -11.5t25 -13.5t31 -6.5q7 0 13.5 1t14.5 6.5t17.5 18t22.5 35.5l24 -14q-19 -28 -39.5 -59t-46 -56.5t-56.5 -42.5t-70 -17q-34 0 -59 8.5t-49.5 14t-54 2.5t-73.5 -25l-12 24l348 285l-4 6
q-8 -5 -20.5 -14t-27 -17.5t-28 -15.5t-23.5 -9q-15 -3 -29.5 0.5t-27 8t-24 8t-21.5 -0.5q-11 -4 -17 -12.5t-13 -22.5t-18 -35t-30 -49l-23 13q19 28 37.5 65.5t40 72.5t47.5 61.5t59 31.5q22 4 40.5 1.5t35 -6.5t32.5 -8.5t34.5 -5.5t40 2.5t49.5 16.5zM471 592
l-205 -165h-35l-66 162l45 22l93 -65l153 64z" />
    <glyph glyph-name="sterling" unicode="&#xa3;" horiz-adv-x="637" 
d="M351 218q-16 -17 -38 -30q-14 -2 -28 -12.5t-28 -18.5q-1 -2 -2.5 -4.5t-2.5 -4.5q14 8 28.5 14t34.5 11q19 4 43.5 0.5t50 -9.5t49.5 -11t42 -5q25 0 47 7.5t42 18.5q-1 -20 -6 -42t-15 -43.5t-25.5 -40t-38.5 -31.5q-16 -8 -34.5 -13t-40.5 -6q-24 -2 -49 4t-51.5 13.5
t-55 14t-58.5 6.5q-21 -17 -44.5 -25.5t-46 -10t-43 3.5t-36.5 15q-37 21 -43 49.5t8.5 53t45.5 41t69 14.5q5 -3 18 -6.5t21 -3.5l22 51h-55l23 49h50q6 16 11.5 31t12.5 30h-47l23 49h47q11 20 25 41t34 44q50 62 119.5 89.5t148.5 19.5q54 -7 86 -31.5t44.5 -59t7.5 -74
t-25 -75.5q-26 -48 -61.5 -70.5t-70.5 -25t-63.5 12.5t-40.5 43q21 14 41.5 44.5t37.5 61.5q11 22 20 44.5t13.5 41t5 32.5t-5.5 20q-8 6 -17 2.5t-18.5 -13.5t-19 -24t-18.5 -30q-16 -25 -28 -48t-23 -45h43l-19 -49h-48l-32 -61h49l-19 -49h-66z" />
    <glyph glyph-name="yen" unicode="&#xa5;" horiz-adv-x="543" 
d="M252 213q-26 3 -42 12q-39 20 -48.5 60t16.5 94q2 3 10.5 16t19 28.5t21 29t17.5 16.5l52 19v8q-26 -2 -49.5 -10t-48 -24.5t-50.5 -42.5t-56 -63q-27 24 -38.5 52t-10 54.5t14.5 49.5t36 38q34 22 77 24.5t86.5 -8t82 -31t63.5 -45.5q-26 -67 -36.5 -95.5t-5.5 -14.5
q-15 -31 -29.5 -53.5t-25.5 -38t-16.5 -25.5t-2.5 -16q0 -5 15 1.5t36.5 23.5t46 44t46 62t35 77.5t13.5 91.5q20 10 50.5 16t60 2.5t52 -18.5t26.5 -45q4 -35 -15 -74.5t-53.5 -76.5t-80.5 -68t-96 -49q-6 -2 -14 -4.5t-17 -4.5l-18 -38h27l-19 -49h-31l-29 -61h29l-19 -49
h-33l-13 -28q-20 3 -44.5 3t-51.5 -2.5t-53.5 -6.5t-49.5 -9l21 43h-42l23 49h43l31 61h-47l23 49h48l8 16z" />
    <glyph glyph-name="Euro" unicode="&#x20ac;" horiz-adv-x="567" 
d="M268 238q-13 -45 -16 -76.5t1.5 -53t14.5 -33t24 -15.5q22 -5 46 -1.5t46.5 13t43 24t36.5 31.5v-39q-42 -42 -93 -65t-100 -23q-51 0 -91 17.5t-66.5 49t-37.5 75.5t-3 96h-64l23 49h52q2 8 5 15.5t6 15.5l12 30h-48l23 49h51q27 45 63 81.5t83.5 60.5t107 32.5
t133.5 -2.5q33 -6 58 -23t39 -42.5t15 -59.5t-14 -73q-20 -51 -56 -82t-75 -40.5t-74.5 3t-56.5 48.5q35 27 61 56t43 55q29 47 38 83t4 46q-8 7 -25.5 5t-40 -17.5t-49.5 -47.5t-55 -83h56l-19 -49h-62l-12 -30l-12 -31h55l-19 -49h-51z" />
    <glyph glyph-name="cent" unicode="&#xa2;" horiz-adv-x="550" 
d="M490 600l-36 -72q48 -4 73 -23.5t33.5 -47.5t1.5 -60.5t-24.5 -62.5t-42.5 -54t-52.5 -33.5t-56.5 -2t-53 39.5l-87 -176l9 -3q22 -5 46 -1.5t46.5 13t43 24t36.5 31.5v-39q-42 -42 -93.5 -65t-99.5 -23h-9t-9 1l-32 -65h-54l36 72q-50 14 -80.5 45.5t-44 69.5t-12.5 78
t13 72q18 46 47.5 85t73 67.5t102.5 44t136 15.5l35 70h54zM243 318q-25 -65 -31.5 -105.5t0.5 -64.5l177 356q-15 -5 -33 -18t-37.5 -35t-39 -55t-36.5 -78zM375 368q29 29 46.5 61t12.5 57z" />
    <glyph glyph-name="quotedblleft" unicode="&#x201c;" horiz-adv-x="336" 
d="M387 387q-19 -27 -47.5 -34.5t-54 1t-41 32t-7.5 58.5q7 31 30.5 57.5t54 43.5t62.5 22.5t57 -3.5q-14 -7 -25 -23t-16 -36q-3 -15 -2 -29t2 -28.5t-1 -29.5t-12 -31zM217 387q-18 -27 -46.5 -34.5t-54 1t-41 32t-7.5 58.5q7 31 30.5 57.5t53.5 43.5t62.5 23t56.5 -4
q-14 -7 -24.5 -23t-15.5 -36q-3 -15 -2 -29t2 -28.5t-1.5 -29.5t-12.5 -31z" />
    <glyph glyph-name="quoteleft" unicode="&#x2018;" horiz-adv-x="231" 
d="M217 387q-18 -27 -46.5 -34.5t-54 1t-41 32t-7.5 58.5q7 31 30.5 57.5t53.5 43.5t62.5 23t56.5 -4q-14 -7 -24.5 -23t-15.5 -36q-3 -15 -2 -29t2 -28.5t-1.5 -29.5t-12.5 -31z" />
    <glyph glyph-name="quoteright" unicode="&#x2019;" horiz-adv-x="225" 
d="M120 532q19 27 47.5 34.5t54 -1t40.5 -32t8 -58.5q-7 -32 -30.5 -58t-54 -43t-62.5 -23t-57 4q14 7 25 23t16 36q3 15 2 29t-2 28.5t1 29.5t12 31z" />
    <glyph glyph-name="guilsinglleft" unicode="&#x2039;" horiz-adv-x="431" 
d="M255 21l-180 181l9 35l310 167l19 -22l-177 -185l40 -167z" />
    <glyph glyph-name="guilsinglright" unicode="&#x203a;" horiz-adv-x="431" 
d="M186 404l202 -155l-9 -35l-332 -193l-19 22l187 206l-50 146z" />
    <glyph glyph-name="guillemotleft" unicode="&#xab;" horiz-adv-x="583" 
d="M255 21l-180 181l9 35l310 167l19 -22l-177 -185l40 -167zM463 21l-180 181l9 35l310 167l19 -22l-177 -185l40 -167z" />
    <glyph glyph-name="guillemotright" unicode="&#xbb;" horiz-adv-x="583" 
d="M133 404l180 -181l-9 -35l-309 -167l-20 22l178 185l-41 167zM341 404l180 -181l-9 -35l-310 -167l-19 22l178 185l-41 167z" />
    <glyph glyph-name="quotesinglbase" unicode="&#x201a;" horiz-adv-x="225" 
d="M-10 132q19 27 47.5 34.5t54 -1t40.5 -32t8 -58.5q-7 -32 -30.5 -58t-54 -43t-62.5 -23t-57 4q14 7 25 23t16 36q3 15 2 29t-2 28.5t1 29.5t12 31z" />
    <glyph glyph-name="quotedblbase" unicode="&#x201e;" horiz-adv-x="336" 
d="M-72 132q19 27 47.5 34.5t53.5 -1t40.5 -32t7.5 -58.5q-7 -32 -30 -58t-53.5 -43t-62.5 -23t-57 4q14 7 25 23t16 36q3 15 1.5 29t-2.5 28.5t1 29.5t13 31zM97 131q19 27 47.5 35t54 -0.5t40.5 -32t8 -58.5q-7 -32 -30.5 -58t-54 -43t-62.5 -23t-57 4q14 7 25 23t16 36
q3 15 2 29t-2 28.5t1 29t12 30.5z" />
    <glyph glyph-name="perthousand" unicode="&#x2030;" horiz-adv-x="712" 
d="M554 250q49 0 74.5 -18.5t31 -46.5t-7.5 -60t-41 -60t-70.5 -46.5t-94.5 -18.5q-48 0 -75 21q-22 -10 -47 -15.5t-53 -5.5q-47 0 -72.5 18.5t-32.5 46.5t4 60t38.5 60t70.5 46.5t100 18.5q25 0 43 -5.5t31 -13.5q46 19 101 19zM283 571q49 0 74.5 -18.5t31 -46.5
t-7.5 -60t-41 -60t-70.5 -46.5t-94.5 -18.5q-46 0 -72 18.5t-33 46.5t4 60t38.5 60t70.5 46.5t100 18.5zM586 571l-577 -570h-52l579 570h50zM454 23q7 0 18.5 15t24 37.5t24.5 49t20 49t10 37.5t-4 15q-14 0 -31.5 -25t-32.5 -58q-4 -15 -14 -35q-13 -34 -18 -59.5t3 -25.5
zM182 344q7 0 18.5 15t24 37.5t24.5 49t20 49t10.5 37.5t-3.5 15q-11 0 -24 -15t-25 -37.5t-22.5 -49t-17.5 -49t-9 -37.5t4 -15zM278 23q5 0 13 9t17.5 23.5t19 33t18.5 38.5q3 8 8 17q14 32 20 57t-2 25q-11 0 -24 -15t-25 -37.5t-22.5 -49t-17.5 -49t-9 -37.5t4 -15z" />
    <glyph glyph-name="ellipsis" unicode="&#x2026;" horiz-adv-x="781" 
d="M205 59q-10 -20 -26 -33t-34.5 -20t-38.5 -6t-38 10q-39 20 -49 55.5t11 75.5q10 18 26 30.5t34.5 18t38 4.5t36.5 -10q37 -20 47.5 -55t-7.5 -70zM444 59q-10 -20 -26 -33t-34.5 -20t-38 -6t-37.5 10q-40 20 -50 55.5t11 75.5q10 18 26 30.5t35 18t38.5 4.5t36.5 -10
q37 -20 47 -55t-8 -70zM683 59q-10 -20 -26 -33t-34.5 -20t-38 -6t-37.5 10q-40 20 -50 55.5t12 75.5q10 18 26 30.5t34.5 18t38 4.5t36.5 -10q37 -20 47.5 -55t-8.5 -70z" />
    <glyph glyph-name="florin" unicode="&#x192;" horiz-adv-x="275" 
d="M466 514q-9 -6 -20 -4.5t-20 9.5t-13.5 21.5t0.5 31.5q-23 -2 -33 -15t-22 -33q-12 -19 -22 -42t-18 -43h30l-21 -39h-32l-266 -549q-20 3 -45 2.5t-51.5 -3t-53 -6.5t-48.5 -8l277 564h-31l22 39h33q24 62 57.5 99t74.5 56q12 6 33 10.5t45 5.5t48 -3t44 -15
q18 -11 27.5 -22.5t12.5 -22.5t0.5 -20t-8.5 -13z" />
    <glyph glyph-name="Thorn" unicode="&#xde;" horiz-adv-x="640" 
d="M82 241q-46 -11 -77.5 2.5t-45 42.5t-8 69t33.5 81q40 58 111 90.5t162 39.5l28 59q20 -3 45 -2.5t52 2.5t53.5 6t48.5 9l-42 -86q75 -16 119 -47t64 -69.5t19 -81.5t-17 -82q-25 -63 -71 -107.5t-103 -69.5t-119.5 -29.5t-120.5 10.5l-38 -78q-18 3 -43 3t-51.5 -2
t-53.5 -6.5t-50 -9.5l246 511q-24 -16 -46 -37.5t-41 -49.5q-25 -35 -38.5 -79t-16.5 -89zM427 294q40 83 35 140.5t-38 80.5l-194 -402q22 1 47 10.5t50 30.5t50.5 55.5t49.5 84.5z" />
    <glyph glyph-name="thorn" unicode="&#xfe;" horiz-adv-x="487" 
d="M201 595q19 -4 44 -4t52 2.5t53.5 7t49.5 9.5l-106 -217l-40 -52l2 -2l24 25q11 13 19 19t15.5 8.5t14.5 4t17 4.5q44 3 74 -15t42 -52t4 -81t-41 -102q-18 -30 -38 -53q30 9 58 32.5t48 59.5l24 -14q-32 -54 -75.5 -81t-88.5 -32q-56 -49 -121 -60.5t-119 18.5l-82 -166
q-23 1 -49.5 1t-52.5 -1t-50 -3.5t-43 -5.5zM293 349q-14 -4 -24 -14.5t-20.5 -31.5t-24.5 -53.5t-37 -81.5l-64 -131q17 -6 35 8.5t34.5 37t30.5 48t24 43.5q48 87 61 134t-15 41z" />
    <glyph glyph-name="z_init" horiz-adv-x="402" 
d="M85 309q17 24 31.5 40.5t28 27t26.5 16t27 7.5q22 4 40.5 1.5t35 -6.5t32.5 -8.5t34.5 -5.5t40 2.5t49.5 16.5l11 -28l-337 -275l5 -5q27 20 55.5 41t60.5 27q19 4 33 -0.5t26 -11.5t25 -13.5t31 -6.5q7 0 13.5 1t14.5 6.5t17.5 18t22.5 35.5l24 -14q-19 -28 -39.5 -59
t-46 -56.5t-56.5 -42.5t-70 -17q-34 0 -59 8.5t-49.5 14t-54 2.5t-73.5 -25l-12 24l347 285l-4 6q-8 -5 -20.5 -13.5t-26.5 -17t-27.5 -15.5t-23.5 -9q-15 -3 -30.5 2t-30 11.5t-27 10.5t-21.5 0z" />
    <glyph glyph-name="OE" unicode="&#x152;" horiz-adv-x="813" 
d="M739 87q-14 -14 -37 -29t-51 -27.5t-59 -21t-62 -9.5q-64 -5 -111.5 4t-79.5 29q-82 -37 -183 -34q-50 2 -83 20t-52 46t-25 64t-3.5 74t13 76t25.5 71q28 61 67 116t90.5 95.5t116.5 62.5t144 16q58 -4 98 -32q41 29 108 39.5t161 -10.5q36 -8 60.5 -26.5t37.5 -42
t14.5 -49.5t-8.5 -48q-21 -46 -54.5 -65t-67 -18t-62.5 18.5t-41 43.5q24 17 36.5 30t24.5 28q23 32 27 60t-8 40q-6 6 -17.5 7t-26 -6.5t-29 -26t-26.5 -53.5q-6 -17 -6 -38t6 -42t17 -39t28 -27l21 -22q-54 -8 -97 -18t-75.5 -27.5t-55.5 -43.5t-39 -65q-13 -32 -11.5 -58
t13 -45.5t30.5 -30.5t42 -12q26 -2 53 2.5t52.5 13.5t47.5 21.5t37 28.5v-40zM270 116q-16 48 3 101q15 42 45.5 74t69 53t81.5 31t83 9l40 -7v9l-42 16q-37 24 -52 63t1 80q2 4 3.5 8t3.5 8q-11 29 -29 36t-37 9q-18 1 -36.5 -6t-43 -34t-57.5 -81t-78 -147
q-39 -85 -61 -142t-29 -91.5t-2 -51t20 -20.5q10 -3 21 -2t25.5 9.5t31.5 26.5t39 49z" />
    <glyph glyph-name="oe" unicode="&#x153;" horiz-adv-x="704" 
d="M459 31q26 0 59 8t67.5 26t67 48.5t57.5 75.5l24 -14q-48 -81 -125.5 -128t-166.5 -47q-44 0 -76 8.5t-55 22.5q-31 -15 -66 -23.5t-74 -8.5q-61 0 -98.5 21t-55.5 53t-19 71.5t12 75.5q13 37 39.5 69.5t63.5 57t83 39t97 14.5q38 0 68.5 -10.5t52.5 -29.5
q50 26 101 35.5t92 4.5q39 -5 62 -19.5t33.5 -34t10.5 -41.5t-7 -42q-13 -35 -39 -64.5t-63 -49.5t-83 -30t-99 -7q-11 -38 -3 -59.5t40 -21.5zM316 373q-12 0 -26 -15.5t-29 -39.5t-30.5 -53t-28.5 -56q-15 -31 -30 -63t-25 -58.5t-11.5 -43t11.5 -16.5q12 0 26.5 17.5
t29.5 43t30.5 56t28.5 57.5q13 28 27.5 58.5t24 55.5t11.5 41t-9 16zM472 221q-12 -21 -21 -40t-17 -36q24 13 48.5 44.5t56.5 86.5q24 41 33 64.5t10 28.5q-11 10 -36.5 -26.5t-73.5 -121.5z" />
    <glyph glyph-name="AE" unicode="&#xc6;" horiz-adv-x="873" 
d="M794 87q-14 -14 -37 -29t-51 -27.5t-59 -21t-62 -9.5q-76 -5 -129 9t-85 41t-44 63t-6 75l-86 -10q-17 -31 -30 -59t-21 -51q-10 -29 -15.5 -53.5t-3.5 -41.5q-38 -18 -76.5 -22.5t-66 6.5t-39 40t4.5 77q6 22 17.5 46.5t27.5 51.5l-48 67h94q34 46 77 94t89.5 92.5
t95 83.5t94.5 68t88 46t75 17q27 0 49 -8q41 16 96.5 18.5t127.5 -13.5q36 -8 60.5 -26.5t37.5 -42t14.5 -49.5t-8.5 -48q-21 -46 -54.5 -65t-67 -18t-62.5 18.5t-41 43.5q24 17 36.5 30t24.5 28q23 32 27 60t-8 40q-6 6 -17.5 7t-26 -6.5t-29 -26t-26.5 -53.5
q-6 -17 -6 -38t6 -42t17 -39t28 -27l21 -22q-54 -8 -97 -18t-75.5 -27.5t-55.5 -43.5t-39 -65q-13 -32 -11.5 -58t13 -45.5t30.5 -30.5t42 -12q26 -2 53 2.5t52.5 13.5t47.5 21.5t37 28.5v-40zM574 601q-7 8 -24.5 -2.5t-42 -35.5t-54.5 -61.5t-61.5 -79.5t-63 -90
t-58.5 -93h67q18 36 48.5 64t67 46t76.5 27t78 8l40 -7v9l-42 16q-37 24 -52 63t1 80q5 16 15 29q6 19 5 27z" />
    <glyph glyph-name="ae" unicode="&#xe6;" horiz-adv-x="936" 
d="M441 31q26 0 59 8t67.5 26t67 48.5t57.5 75.5l24 -14q-48 -81 -125.5 -128t-166.5 -47q-88 0 -133.5 32t-53.5 81l-26 -39q-30 -44 -62 -59t-65 -15q-35 0 -60 19.5t-34 52.5t0 78t42 96q63 97 145 128.5t179 2.5l46 -14q48 24 97.5 33t89.5 4q39 -5 62 -19.5t33.5 -34
t10.5 -41.5t-7 -42q-13 -35 -39 -64.5t-63 -49.5t-83 -30t-99 -7q-11 -38 -3 -59.5t40 -21.5zM151 59q16 0 36 27t51 76q6 38 28 76q20 35 47.5 62t59.5 47q-26 13 -49.5 4.5t-44 -29t-39 -48t-33.5 -52.5q-51 -84 -61 -123.5t5 -39.5zM454 221q-12 -21 -21 -40t-17 -36
q24 13 48.5 44.5t56.5 86.5q24 41 33 64.5t10 28.5q-11 10 -36.5 -26.5t-73.5 -121.5z" />
    <glyph glyph-name="Agrave" unicode="&#xc0;" horiz-adv-x="626" 
d="M383 192l-149 -16q-33 -60 -50 -108q-10 -29 -15.5 -53.5t-3.5 -41.5q-38 -18 -76.5 -22.5t-66 6.5t-39 40t4.5 77q6 22 17.5 46.5t27.5 51.5l-48 67h94q34 46 77 94t89.5 92.5t95 83.5t94.5 68t88 46t75 17q39 0 66.5 -15t41 -40t13 -57t-16.5 -65l-170 -357
q-20 -41 -24 -64t4 -41q-27 -10 -54.5 -14t-50.5 -1.5t-40.5 12t-26.5 27.5q-8 15 -8 31t4 30t9 25.5t8 18.5zM574 601q-7 8 -24.5 -2.5t-42 -35.5t-54.5 -61.5t-61.5 -79.5t-63 -90t-58.5 -93h136l114 235q25 51 42 83t12 44zM502 836q42 26 74 35.5t59 -3.5
q21 -10 33.5 -33.5t21 -52t16 -58t18.5 -50.5q-44 -19 -78 -13t-61 29.5t-47 61.5t-36 84z" />
    <glyph glyph-name="Aacute" unicode="&#xc1;" horiz-adv-x="626" 
d="M383 192l-149 -16q-33 -60 -50 -108q-10 -29 -15.5 -53.5t-3.5 -41.5q-38 -18 -76.5 -22.5t-66 6.5t-39 40t4.5 77q6 22 17.5 46.5t27.5 51.5l-48 67h94q34 46 77 94t89.5 92.5t95 83.5t94.5 68t88 46t75 17q39 0 66.5 -15t41 -40t13 -57t-16.5 -65l-170 -357
q-20 -41 -24 -64t4 -41q-27 -10 -54.5 -14t-50.5 -1.5t-40.5 12t-26.5 27.5q-8 15 -8 31t4 30t9 25.5t8 18.5zM574 601q-7 8 -24.5 -2.5t-42 -35.5t-54.5 -61.5t-61.5 -79.5t-63 -90t-58.5 -93h136l114 235q25 51 42 83t12 44zM639 829q21 25 48.5 31.5t50 -2t33 -30.5
t-1.5 -55q-12 -36 -41 -60t-65 -36t-73 -11.5t-63 14.5q33 37 58 76.5t54 72.5z" />
    <glyph glyph-name="Acircumflex" unicode="&#xc2;" horiz-adv-x="626" 
d="M383 192l-149 -16q-33 -60 -50 -108q-10 -29 -15.5 -53.5t-3.5 -41.5q-38 -18 -76.5 -22.5t-66 6.5t-39 40t4.5 77q6 22 17.5 46.5t27.5 51.5l-48 67h94q34 46 77 94t89.5 92.5t95 83.5t94.5 68t88 46t75 17q39 0 66.5 -15t41 -40t13 -57t-16.5 -65l-170 -357
q-20 -41 -24 -64t4 -41q-27 -10 -54.5 -14t-50.5 -1.5t-40.5 12t-26.5 27.5q-8 15 -8 31t4 30t9 25.5t8 18.5zM574 601q-7 8 -24.5 -2.5t-42 -35.5t-54.5 -61.5t-61.5 -79.5t-63 -90t-58.5 -93h136l114 235q25 51 42 83t12 44zM459 701l205 165h35l66 -162l-45 -23l-93 66
l-153 -64z" />
    <glyph glyph-name="Atilde" unicode="&#xc3;" horiz-adv-x="626" 
d="M383 192l-149 -16q-33 -60 -50 -108q-10 -29 -15.5 -53.5t-3.5 -41.5q-38 -18 -76.5 -22.5t-66 6.5t-39 40t4.5 77q6 22 17.5 46.5t27.5 51.5l-48 67h94q34 46 77 94t89.5 92.5t95 83.5t94.5 68t88 46t75 17q39 0 66.5 -15t41 -40t13 -57t-16.5 -65l-170 -357
q-20 -41 -24 -64t4 -41q-27 -10 -54.5 -14t-50.5 -1.5t-40.5 12t-26.5 27.5q-8 15 -8 31t4 30t9 25.5t8 18.5zM452 717q18 39 49.5 72.5t67.5 51.5t72.5 14t65.5 -40q23 -29 45 -32.5t39 3.5q20 8 39 28l24 -20q-33 -38 -69.5 -67t-72 -43t-66.5 -9.5t-54 35.5t-44 32
t-37 -10q-18 -13 -34 -40zM574 601q-7 8 -24.5 -2.5t-42 -35.5t-54.5 -61.5t-61.5 -79.5t-63 -90t-58.5 -93h136l114 235q25 51 42 83t12 44z" />
    <glyph glyph-name="Adieresis" unicode="&#xc4;" horiz-adv-x="626" 
d="M383 192l-149 -16q-33 -60 -50 -108q-10 -29 -15.5 -53.5t-3.5 -41.5q-38 -18 -76.5 -22.5t-66 6.5t-39 40t4.5 77q6 22 17.5 46.5t27.5 51.5l-48 67h94q34 46 77 94t89.5 92.5t95 83.5t94.5 68t88 46t75 17q39 0 66.5 -15t41 -40t13 -57t-16.5 -65l-170 -357
q-20 -41 -24 -64t4 -41q-27 -10 -54.5 -14t-50.5 -1.5t-40.5 12t-26.5 27.5q-8 15 -8 31t4 30t9 25.5t8 18.5zM574 601q-7 8 -24.5 -2.5t-42 -35.5t-54.5 -61.5t-61.5 -79.5t-63 -90t-58.5 -93h136l114 235q25 51 42 83t12 44zM631 731q-10 -20 -25.5 -33t-33.5 -19.5
t-37.5 -5.5t-37.5 9q-38 20 -48.5 55.5t10.5 73.5q10 18 25.5 30t33.5 17.5t37.5 4.5t37.5 -9q35 -20 46 -55t-8 -68zM845 731q-10 -20 -25.5 -33t-33.5 -19.5t-37.5 -5.5t-37.5 9q-38 20 -48.5 55.5t11.5 73.5q9 18 24.5 30t34 17.5t38 4.5t36.5 -9q35 -20 46 -55t-8 -68z
" />
    <glyph glyph-name="Aring" unicode="&#xc5;" horiz-adv-x="626" 
d="M383 192l-149 -16q-33 -60 -50 -108q-10 -29 -15.5 -53.5t-3.5 -41.5q-38 -18 -76.5 -22.5t-66 6.5t-39 40t4.5 77q6 22 17.5 46.5t27.5 51.5l-48 67h94q34 46 77 94t89.5 92.5t95 83.5t94.5 68t88 46t75 17q39 0 66.5 -15t41 -40t13 -57t-16.5 -65l-170 -357
q-20 -41 -24 -64t4 -41q-27 -10 -54.5 -14t-50.5 -1.5t-40.5 12t-26.5 27.5q-8 15 -8 31t4 30t9 25.5t8 18.5zM762 775q0 -23 -9.5 -43.5t-25 -36t-35.5 -25t-42 -9.5q-25 0 -46 9.5t-36 25t-23.5 36t-8.5 43.5q0 49 32 80.5t82 31.5q22 0 42 -8.5t35.5 -23.5t25 -35.5
t9.5 -44.5zM574 601q-7 8 -24.5 -2.5t-42 -35.5t-54.5 -61.5t-61.5 -79.5t-63 -90t-58.5 -93h136l114 235q25 51 42 83t12 44zM734 774q0 38 -25.5 61.5t-59.5 23.5q-38 0 -62 -23.5t-24 -61.5q0 -35 24 -60.5t62 -25.5q17 0 32.5 7t27 19t18.5 27.5t7 32.5z" />
    <glyph glyph-name="Ccedilla" unicode="&#xc7;" horiz-adv-x="451" 
d="M89 -68l87 68q-72 3 -117 30t-65 71t-16 102.5t29 124.5q22 57 65 117.5t102.5 108t134.5 73t163 12.5q33 -6 58 -23t38.5 -42.5t14.5 -59.5t-13 -73q-20 -51 -56 -82t-75 -40.5t-75 3t-57 48.5q35 27 61 56t43 55q29 47 38.5 83t3.5 46q-11 11 -40 -4.5t-65 -52.5
t-74 -94.5t-66 -130.5q-51 -130 -49.5 -193.5t51.5 -74.5q22 -5 46 -1.5t46.5 13t43.5 24t37 31.5v-39q-35 -35 -77.5 -57t-84.5 -29l-80 -67q49 5 81 2t50.5 -13t26 -26t7.5 -35q0 -18 -16.5 -38t-47.5 -33.5t-76 -17t-103 11.5v21q25 -6 44.5 -2.5t33 12t20.5 20.5t8 24
q0 9 -4.5 19.5t-14.5 18.5t-25 11.5t-36 -0.5v22z" />
    <glyph glyph-name="Egrave" unicode="&#xc8;" horiz-adv-x="511" 
d="M456 87q-14 -14 -37 -29t-51 -27.5t-59 -21t-62 -9.5q-83 -6 -139 11.5t-87 49t-38 73t7 83.5q15 42 45.5 74t69 53t81.5 31t83 9l40 -7v9l-42 16q-37 24 -52 63t1 80q11 29 36.5 53t65.5 37.5t94 15t121 -13.5q36 -8 60.5 -26.5t37.5 -42t14.5 -49.5t-8.5 -48
q-21 -46 -54.5 -65t-67 -18t-62.5 18.5t-41 43.5q24 17 36.5 30t24.5 28q23 32 27 60t-8 40q-6 6 -17.5 7t-26 -6.5t-29 -26t-26.5 -53.5q-6 -17 -6 -38t6 -42t17 -39t28 -27l21 -22q-54 -8 -97 -18t-75.5 -27.5t-55.5 -43.5t-39 -65q-13 -32 -11.5 -58t13 -45.5t30.5 -30.5
t42 -12q26 -2 53 2.5t52.5 13.5t47.5 21.5t37 28.5v-40zM345 836q42 26 74 35.5t59 -3.5q21 -10 33.5 -33.5t21 -52t16 -58t18.5 -50.5q-44 -19 -78 -13t-61 29.5t-47 61.5t-36 84z" />
    <glyph glyph-name="Eacute" unicode="&#xc9;" horiz-adv-x="511" 
d="M456 87q-14 -14 -37 -29t-51 -27.5t-59 -21t-62 -9.5q-83 -6 -139 11.5t-87 49t-38 73t7 83.5q15 42 45.5 74t69 53t81.5 31t83 9l40 -7v9l-42 16q-37 24 -52 63t1 80q11 29 36.5 53t65.5 37.5t94 15t121 -13.5q36 -8 60.5 -26.5t37.5 -42t14.5 -49.5t-8.5 -48
q-21 -46 -54.5 -65t-67 -18t-62.5 18.5t-41 43.5q24 17 36.5 30t24.5 28q23 32 27 60t-8 40q-6 6 -17.5 7t-26 -6.5t-29 -26t-26.5 -53.5q-6 -17 -6 -38t6 -42t17 -39t28 -27l21 -22q-54 -8 -97 -18t-75.5 -27.5t-55.5 -43.5t-39 -65q-13 -32 -11.5 -58t13 -45.5t30.5 -30.5
t42 -12q26 -2 53 2.5t52.5 13.5t47.5 21.5t37 28.5v-40zM530 829q21 25 48.5 31.5t50 -2t33 -30.5t-1.5 -55q-12 -36 -41 -60t-65 -36t-73 -11.5t-63 14.5q33 37 58 76.5t54 72.5z" />
    <glyph glyph-name="Ecircumflex" unicode="&#xca;" horiz-adv-x="511" 
d="M456 87q-14 -14 -37 -29t-51 -27.5t-59 -21t-62 -9.5q-83 -6 -139 11.5t-87 49t-38 73t7 83.5q15 42 45.5 74t69 53t81.5 31t83 9l40 -7v9l-42 16q-37 24 -52 63t1 80q11 29 36.5 53t65.5 37.5t94 15t121 -13.5q36 -8 60.5 -26.5t37.5 -42t14.5 -49.5t-8.5 -48
q-21 -46 -54.5 -65t-67 -18t-62.5 18.5t-41 43.5q24 17 36.5 30t24.5 28q23 32 27 60t-8 40q-6 6 -17.5 7t-26 -6.5t-29 -26t-26.5 -53.5q-6 -17 -6 -38t6 -42t17 -39t28 -27l21 -22q-54 -8 -97 -18t-75.5 -27.5t-55.5 -43.5t-39 -65q-13 -32 -11.5 -58t13 -45.5t30.5 -30.5
t42 -12q26 -2 53 2.5t52.5 13.5t47.5 21.5t37 28.5v-40zM332 701l205 165h35l66 -162l-45 -23l-93 66l-153 -64z" />
    <glyph glyph-name="Edieresis" unicode="&#xcb;" horiz-adv-x="511" 
d="M456 87q-14 -14 -37 -29t-51 -27.5t-59 -21t-62 -9.5q-83 -6 -139 11.5t-87 49t-38 73t7 83.5q15 42 45.5 74t69 53t81.5 31t83 9l40 -7v9l-42 16q-37 24 -52 63t1 80q11 29 36.5 53t65.5 37.5t94 15t121 -13.5q36 -8 60.5 -26.5t37.5 -42t14.5 -49.5t-8.5 -48
q-21 -46 -54.5 -65t-67 -18t-62.5 18.5t-41 43.5q24 17 36.5 30t24.5 28q23 32 27 60t-8 40q-6 6 -17.5 7t-26 -6.5t-29 -26t-26.5 -53.5q-6 -17 -6 -38t6 -42t17 -39t28 -27l21 -22q-54 -8 -97 -18t-75.5 -27.5t-55.5 -43.5t-39 -65q-13 -32 -11.5 -58t13 -45.5t30.5 -30.5
t42 -12q26 -2 53 2.5t52.5 13.5t47.5 21.5t37 28.5v-40zM483 731q-10 -20 -25.5 -33t-33.5 -19.5t-37.5 -5.5t-37.5 9q-38 20 -48.5 55.5t10.5 73.5q10 18 25.5 30t33.5 17.5t37.5 4.5t37.5 -9q35 -20 46 -55t-8 -68zM697 731q-10 -20 -25.5 -33t-33.5 -19.5t-37.5 -5.5
t-37.5 9q-38 20 -48.5 55.5t11.5 73.5q9 18 24.5 30t34 17.5t38 4.5t36.5 -9q35 -20 46 -55t-8 -68z" />
    <glyph glyph-name="Igrave" unicode="&#xcc;" horiz-adv-x="329" 
d="M43 130q40 82 66 135t42 85t24 47.5t11.5 23t5 10t4.5 8.5q20 42 38.5 67t41.5 39l53 19v8q-24 -2 -47.5 -9.5t-49 -24t-53 -42.5t-58.5 -64q-27 24 -38.5 51.5t-10 54.5t14.5 50t36 38q34 22 78.5 24t88.5 -8.5t83.5 -31.5t64.5 -46l-214 -458q-20 -41 -25 -64t3 -41
q-29 -9 -56 -13t-50 -1.5t-40 11.5t-25 25q-7 13 -8 27.5t1.5 28t7.5 26.5t11 25zM249 836q42 26 74 35.5t59 -3.5q21 -10 33.5 -33.5t21 -52t16 -58t18.5 -50.5q-44 -19 -78 -13t-61 29.5t-47 61.5t-36 84z" />
    <glyph glyph-name="Iacute" unicode="&#xcd;" horiz-adv-x="329" 
d="M43 130q40 82 66 135t42 85t24 47.5t11.5 23t5 10t4.5 8.5q20 42 38.5 67t41.5 39l53 19v8q-24 -2 -47.5 -9.5t-49 -24t-53 -42.5t-58.5 -64q-27 24 -38.5 51.5t-10 54.5t14.5 50t36 38q34 22 78.5 24t88.5 -8.5t83.5 -31.5t64.5 -46l-214 -458q-20 -41 -25 -64t3 -41
q-29 -9 -56 -13t-50 -1.5t-40 11.5t-25 25q-7 13 -8 27.5t1.5 28t7.5 26.5t11 25zM420 829q21 25 48.5 31.5t50 -2t33 -30.5t-1.5 -55q-12 -36 -41 -60t-65 -36t-73 -11.5t-63 14.5q33 37 58 76.5t54 72.5z" />
    <glyph glyph-name="Icircumflex" unicode="&#xce;" horiz-adv-x="329" 
d="M43 130q40 82 66 135t42 85t24 47.5t11.5 23t5 10t4.5 8.5q20 42 38.5 67t41.5 39l53 19v8q-24 -2 -47.5 -9.5t-49 -24t-53 -42.5t-58.5 -64q-27 24 -38.5 51.5t-10 54.5t14.5 50t36 38q34 22 78.5 24t88.5 -8.5t83.5 -31.5t64.5 -46l-214 -458q-20 -41 -25 -64t3 -41
q-29 -9 -56 -13t-50 -1.5t-40 11.5t-25 25q-7 13 -8 27.5t1.5 28t7.5 26.5t11 25zM217 701l205 165h35l66 -162l-45 -23l-93 66l-153 -64z" />
    </font>
</defs>
</svg>
