<?xml version="1.0" standalone="no"?>
<!DOCTYPE svg PUBLIC "-//W3C//DTD SVG 1.1//EN" "http://www.w3.org/Graphics/SVG/1.1/DTD/svg11.dtd" >
<svg xmlns="http://www.w3.org/2000/svg" xmlns:xlink="http://www.w3.org/1999/xlink" version="1.1">
<metadata>
Created by FontForge 20161003 at Wed Mar 15 12:35:21 2017
 By www-data
Copyright (c) 2016 by MA^ns Grebck. All rights reserved.
</metadata>
<defs>
<font id="SpecifyPERSONALCondensed-Bold" horiz-adv-x="524" >
  <font-face 
    font-family="Specify PERSONAL Condensed"
    font-weight="700"
    font-stretch="condensed"
    units-per-em="1000"
    panose-1="0 0 0 0 0 0 0 0 0 0"
    ascent="800"
    descent="-200"
    x-height="601"
    cap-height="800"
    bbox="-115 -336 1238.45 1075"
    underline-thickness="50"
    underline-position="-100"
    unicode-range="U+000D-FB02"
  />
<missing-glyph horiz-adv-x="281" 
 />
    <glyph glyph-name="fi" unicode="fi" horiz-adv-x="539" 
d="M19 601h39v38q0 74 16.5 119.5t47.5 66t75 19t99 -22.5v-125q-23 8 -36.5 10t-21.5 -4t-10.5 -21.5t-2.5 -41.5v-38h298v-601h-167v476h-131v-476h-167v476h-39v125zM344 735q0 43 26 68.5t69 25.5t69 -25.5t26 -68.5q0 -44 -26 -69.5t-69 -25.5t-69 25.5t-26 69.5z" />
    <glyph glyph-name="fl" unicode="fl" horiz-adv-x="547" 
d="M19 551h39v66q0 65 18.5 109.5t51.5 67.5t79 25t101 -19v-125q-49 18 -66 6.5t-17 -64.5v-66h75v-125h-75v-426h-167v426h-39v125zM359 0v810h167v-810h-167z" />
    <glyph glyph-name="f_t" unicode="ft" horiz-adv-x="644" 
d="M19 601h57v16q0 65 20.5 109.5t56.5 67.5t84.5 25t104.5 -19v-128q-31 11 -50 12.5t-30 -5.5t-15 -23t-4 -39v-16h135v180h167v-180h75v-125h-75v-299q0 -20 2.5 -34.5t10.5 -22t23 -7t40 11.5v-125q-50 -20 -94.5 -17.5t-77.5 25.5t-52 66t-19 103v299h-135v-476h-167
v476h-57v125z" />
    <glyph glyph-name="t_f" unicode="tf" horiz-adv-x="644" 
d="M641 675q-32 11 -52.5 12t-32 -6.5t-16 -24t-4.5 -39.5v-16h103v-125h-103v-476h-167v476h-126v-299q0 -20 2.5 -34.5t10 -22t22.5 -7t41 11.5v-125q-51 -20 -95 -17.5t-77 25.5t-52 66t-19 103v299h-66v125h66v180h167v-180h126v16q0 65 21.5 109.5t59 67.5t86.5 25
t105 -19v-125z" />
    <glyph glyph-name="f_y" unicode="fy" horiz-adv-x="746" 
d="M19 601h39v16q0 65 20.5 109.5t56.5 67.5t84.5 25t104.5 -19v-127q-32 12 -51.5 13t-30 -6.5t-14 -23.5t-3.5 -39v-16h187l72 -315l-16 -95l122 410h154l-252 -811h-144l70 235l-136 451h-57v-476h-167v476h-39v125z" />
    <glyph glyph-name=".notdef" horiz-adv-x="281" 
 />
    <glyph glyph-name="NULL" horiz-adv-x="0" 
 />
    <glyph glyph-name="NULL" horiz-adv-x="0" 
 />
    <glyph glyph-name="nonmarkingreturn" unicode="&#xd;" horiz-adv-x="281" 
 />
    <glyph glyph-name="space" unicode=" " horiz-adv-x="281" 
 />
    <glyph glyph-name="D" unicode="D" horiz-adv-x="555" 
d="M35 800h179q88 0 149 -23.5t99.5 -72.5t55.5 -124.5t17 -179.5t-17 -179t-55.5 -124.5t-99.5 -73t-149 -23.5h-179v800zM368 400q0 77 -8.5 129.5t-27 85t-47.5 46.5t-71 14h-12v-550h12q42 0 71 13.5t47.5 46t27 85t8.5 130.5z" />
    <glyph glyph-name="E" unicode="E" horiz-adv-x="495" 
d="M35 0v800h429v-125h-262v-188h192v-125h-192v-237h272v-125h-439z" />
    <glyph glyph-name="G" unicode="G" horiz-adv-x="600" 
d="M285 437h283v-437h-117l-11 47q-25 -32 -64 -49.5t-98 -17.5q-41 0 -85 23.5t-80.5 74t-60 130t-23.5 192.5q0 110 20.5 189.5t58.5 130.5t91.5 75.5t120.5 24.5q68 0 116 -22.5t78 -59.5t42.5 -83.5t10.5 -95.5h-157q1 28 -6 53t-19.5 43.5t-29.5 29t-35 10.5
q-21 0 -43 -14t-40 -48t-29.5 -91t-11.5 -142q0 -86 11.5 -143t29.5 -90.5t40 -47.5t43 -14q24 0 41.5 11t29 29t16.5 41t5 47v79h-127v125z" />
    <glyph glyph-name="H" unicode="H" horiz-adv-x="594" 
d="M35 0v800h167v-333h189v333h167v-800h-167v342h-189v-342h-167z" />
    <glyph glyph-name="I" unicode="I" horiz-adv-x="276" 
d="M55 0v800h166v-800h-166z" />
    <glyph glyph-name="J" unicode="J" horiz-adv-x="565" 
d="M527 277q0 -62 -13 -116.5t-43 -94.5t-79 -63t-120 -23q-79 0 -129 24t-78.5 64.5t-39 93.5t-10.5 112h167q0 -46 6.5 -78t18.5 -52.5t28.5 -29.5t36.5 -9q42 0 65 45.5t23 126.5v523h167v-523z" />
    <glyph glyph-name="K" unicode="K" horiz-adv-x="553" 
d="M35 0v800h167v-341l203 341h180l-243 -371l236 -429h-174l-162 318l-40 -40v-278h-167z" />
    <glyph glyph-name="L" unicode="L" horiz-adv-x="497" 
d="M35 800h167v-675h272v-125h-439v800z" />
    <glyph glyph-name="N" unicode="N" horiz-adv-x="612" 
d="M35 0v800h158l226 -499v499h158v-800h-158l-226 497v-497h-158z" />
    <glyph glyph-name="M" unicode="M" horiz-adv-x="741" 
d="M35 0v800h209l108 -435l19 -144l18 144l108 435h209v-800h-146v581l-37 -177l-79 -345h-147l-85 344l-38 177v-580h-139z" />
    <glyph glyph-name="P" unicode="P" horiz-adv-x="574" 
d="M35 0v800h252q76 0 128.5 -19t85 -54t47 -84.5t14.5 -110.5t-14.5 -110t-47 -84t-85 -54t-128.5 -19h-85v-265h-167zM287 390q50 0 79 35t29 107q0 70 -29 106.5t-79 36.5h-85v-285h85z" />
    <glyph glyph-name="Q" unicode="Q" horiz-adv-x="681" 
d="M340 -20q-156 0 -232 108.5t-76 311.5q0 205 75.5 312.5t232.5 107.5t232.5 -107.5t75.5 -312.5q0 -200 -73 -306l63 -56l-90 -94l-67 66q-60 -30 -141 -30zM381 268l75 -68q12 34 18.5 83t6.5 117q0 88 -11 145t-30 90.5t-45 46.5t-55 13t-55 -13t-45 -46.5t-30 -90.5
t-11 -145q0 -89 11 -146t30 -90t45 -46t55 -13q21 0 39 6l-74 74z" />
    <glyph glyph-name="R" unicode="R" horiz-adv-x="552" 
d="M35 0v800h253q51 0 94 -17t74.5 -49.5t49 -78.5t17.5 -104q0 -81 -33 -137.5t-90 -85.5l13 -24l124 -304h-170l-102 303h-63v-303h-167zM356 551q0 63 -21 93.5t-47 30.5h-86v-247h86q26 0 47 30t21 93z" />
    <glyph glyph-name="S" unicode="S" horiz-adv-x="573" 
d="M27 591q0 41 15.5 82t47.5 73.5t80 53t113 20.5q73 0 125.5 -20t85.5 -54.5t46.5 -81t8.5 -99.5l-167 -14q3 31 -2.5 57.5t-18 45.5t-31.5 30t-43 11q-38 0 -65.5 -26t-27.5 -68q0 -30 15.5 -51t40 -37.5t56.5 -30.5t65.5 -29.5t65.5 -35t56.5 -46.5t40 -64.5t15.5 -88.5
q0 -41 -15.5 -83.5t-47 -77t-79.5 -56t-113 -21.5q-72 0 -125 20t-86 55.5t-47 84t-9 104.5l167 14q-3 -32 3 -59.5t18.5 -48.5t31.5 -33t42 -12q20 0 37 8.5t29.5 23t19.5 34t7 41.5q0 42 -26.5 66t-65.5 42t-85.5 35.5t-85.5 45.5t-65.5 72.5t-26.5 117.5z" />
    <glyph glyph-name="T" unicode="T" horiz-adv-x="582" 
d="M211 0v675h-211v125h582v-125h-204v-675h-167z" />
    <glyph glyph-name="U" unicode="U" horiz-adv-x="630" 
d="M202 279q0 -87 27 -130.5t86 -43.5t86 43.5t27 130.5v521h167v-521q0 -145 -69 -222t-211 -77t-211 77t-69 222v521h167v-521z" />
    <glyph glyph-name="V" unicode="V" horiz-adv-x="620" 
d="M-8 800h169l137 -533l11 -83l12 83l138 533h169l-238 -800h-161z" />
    <glyph glyph-name="W" unicode="W" horiz-adv-x="868" 
d="M434 426l-89 -426h-201l-143 800h173l84 -551l108 472h135l110 -479l93 558h163l-143 -800h-202z" />
    <glyph glyph-name="X" unicode="X" horiz-adv-x="626" 
d="M229 411l-214 389h167l131 -238l131 238h167l-215 -389l227 -411h-167l-143 259l-143 -259h-167z" />
    <glyph glyph-name="Y" unicode="Y" horiz-adv-x="557" 
d="M194 0v272l-224 528h183l125 -382l125 382h183l-225 -542v-258h-167z" />
    <glyph glyph-name="Z" unicode="Z" horiz-adv-x="468" 
d="M-16 800h492v-125l-312 -550h312v-125h-492v125l319 550h-319v125z" />
    <glyph glyph-name="C" unicode="C" horiz-adv-x="605" 
d="M579 259q0 -59 -19 -110t-53.5 -88.5t-82.5 -59t-106 -21.5q-70 0 -124 24t-90.5 75t-55.5 130.5t-19 190.5q0 112 19 191.5t55.5 130.5t90.5 74.5t124 23.5q62 0 110.5 -21.5t82 -58.5t50.5 -86.5t17 -106.5l-166 -14q0 75 -21.5 118.5t-72.5 43.5q-68 0 -95 -72.5
t-27 -222.5q0 -151 27 -223t95 -72q45 0 70 45t24 123z" />
    <glyph glyph-name="a" unicode="a" horiz-adv-x="507" 
d="M472 0h-125l-20 67q-23 -41 -60 -64t-81 -23q-33 0 -63.5 12.5t-53.5 35t-36.5 54.5t-13.5 71q0 54 21.5 87t53.5 53t69.5 30.5t69.5 19t53.5 19t21.5 31.5q0 51 -11 77t-49 26q-23 0 -41.5 -26.5t-16.5 -75.5l-161 15q-4 39 10.5 77t44 68t71 48.5t90.5 18.5
q56 0 98.5 -16.5t71 -46.5t43 -72t14.5 -93v-393zM238 105q26 0 47 23.5t23 68.5v75q-19 -17 -41 -23.5t-41 -14.5t-32 -21.5t-13 -43.5t17 -47t40 -17z" />
    <glyph glyph-name="o" unicode="o" horiz-adv-x="528" 
d="M264 -20q-110 0 -171 79t-61 241q0 163 61 242t171 79q109 0 170.5 -79t61.5 -242q0 -162 -61 -241t-171 -79zM264 105q18 0 30 8t20 29.5t11.5 59.5t3.5 98t-3.5 98t-11.5 59.5t-20 30t-30 8.5q-17 0 -29.5 -8.5t-20.5 -30t-11.5 -59.5t-3.5 -98t3.5 -98t11.5 -59.5
t20.5 -29.5t29.5 -8z" />
    <glyph glyph-name="l" unicode="l" horiz-adv-x="248" 
d="M38 0v810h167v-810h-167z" />
    <glyph glyph-name="i" unicode="i" horiz-adv-x="241" 
d="M35 0v601h167v-601h-167zM23 735q0 43 26 68.5t69 25.5t69 -25.5t26 -68.5q0 -44 -26 -69.5t-69 -25.5t-69 25.5t-26 69.5z" />
    <glyph glyph-name="m" unicode="m" horiz-adv-x="734" 
d="M532 0v407q0 49 -10 69t-28 20q-14 0 -28.5 -20t-14.5 -69v-407h-167v407q0 49 -12 69t-27 20q-14 0 -28.5 -21.5t-14.5 -77.5v-397h-167v601h111l17 -53q22 38 53.5 55t67.5 17q45 0 76 -17.5t49 -55.5q23 40 57.5 57t72.5 17t68 -11t50.5 -36.5t31 -66t10.5 -100.5
v-407h-167z" />
    <glyph glyph-name="b" unicode="b" horiz-adv-x="538" 
d="M35 0v810h167v-237q21 26 49.5 37t63.5 11q41 0 77.5 -20t63.5 -59.5t43 -100t16 -141.5t-15 -141t-42 -99.5t-63.5 -59.5t-79.5 -20q-45 0 -78.5 17t-54.5 61l-12 -58h-135zM273 496q-12 0 -24.5 -7t-22.5 -22.5t-16.5 -41.5t-7.5 -64v-113q0 -41 6.5 -68.5t16.5 -44
t23 -23.5t25 -7q44 0 59.5 47.5t15.5 147.5t-15.5 148t-59.5 48z" />
    <glyph glyph-name="c" unicode="c" horiz-adv-x="498" 
d="M306 361q-1 39 -7 65t-14 41.5t-17 22t-16 6.5q-14 0 -24 -10t-17.5 -33.5t-11 -61t-3.5 -91.5q0 -56 3.5 -93t10.5 -60t17.5 -32.5t24.5 -9.5q16 0 33 35t19 103l166 -9q-2 -54 -17.5 -100.5t-44 -80.5t-68 -53.5t-88.5 -19.5q-103 0 -163 80t-60 240t60 240.5t163 80.5
q56 0 97 -19t67.5 -53t39.5 -79.5t13 -99.5z" />
    <glyph glyph-name="d" unicode="d" horiz-adv-x="538" 
d="M22 300q0 81 16 141.5t43 100t63.5 59.5t77.5 20q34 0 62.5 -11t50.5 -37v237h167v-810h-136l-11 57q-22 -43 -55.5 -60t-77.5 -17q-43 0 -79.5 20t-63.5 59.5t-42 99.5t-15 141zM264 105q12 0 25 7t23 23.5t16.5 44t6.5 68.5v113q-1 38 -7.5 64t-16.5 41.5t-22.5 22.5
t-24.5 7q-44 0 -59.5 -48t-15.5 -148t15.5 -147.5t59.5 -47.5z" />
    <glyph glyph-name="e" unicode="e" horiz-adv-x="510" 
d="M256 621q105 0 163.5 -67t58.5 -190v-113h-279q-2 -41 1.5 -69t11 -45t18 -24.5t24.5 -7.5q21 0 34 22t18 57h167q-7 -50 -27 -88t-49 -64t-65.5 -39t-75.5 -13q-103 0 -163.5 80t-60.5 240t60.5 240.5t163.5 80.5zM254 496q-23 0 -39 -32t-16 -104v-8h112v20
q0 66 -18 95t-39 29z" />
    <glyph glyph-name="f" unicode="f" horiz-adv-x="321" 
d="M19 551h39v66q0 65 20.5 109.5t56.5 67.5t84.5 25t104.5 -19v-125q-32 11 -51.5 12t-30 -6.5t-14 -24t-3.5 -39.5v-66h91v-125h-91v-426h-167v426h-39v125z" />
    <glyph glyph-name="g" unicode="g" horiz-adv-x="536" 
d="M22 310q0 81 17 139.5t45.5 97t64 56.5t73.5 18q44 0 78.5 -18t55.5 -66l15 64h131v-609q0 -50 -16.5 -91t-47.5 -70t-74 -45t-97 -16q-53 0 -96.5 13.5t-73.5 38t-44.5 58t-10.5 74.5l169 5q-5 -26 9.5 -46.5t50.5 -20.5q34 -1 49 21t15 57v76q-21 -26 -49.5 -36
t-63.5 -10q-40 0 -76 18t-63.5 56t-44 96.5t-16.5 139.5zM264 125q12 0 24.5 6.5t22.5 22t16.5 41.5t7.5 64v102q-1 38 -7.5 64t-16.5 41.5t-22.5 22.5t-24.5 7q-37 0 -56 -43t-19 -143q0 -99 19 -142t56 -43z" />
    <glyph glyph-name="j" unicode="j" horiz-adv-x="241" 
d="M-3 -85q26 -5 32 0.5t6 22.5v663h167v-684q0 -45 -14.5 -74t-41.5 -43t-65 -13.5t-84 13.5v115zM23 735q0 43 26 68.5t69 25.5t69 -25.5t26 -68.5q0 -44 -26 -69.5t-69 -25.5t-69 25.5t-26 69.5z" />
    <glyph glyph-name="k" unicode="k" horiz-adv-x="479" 
d="M35 0v810h167v-457l124 248h171l-156 -274l154 -327h-167l-98 222l-28 -15v-207h-167z" />
    <glyph glyph-name="p" unicode="p" horiz-adv-x="545" 
d="M515 300q0 -81 -15 -141t-42 -99.5t-63.5 -59.5t-79.5 -20q-35 0 -63.5 10.5t-49.5 35.5v-236h-167v811h135l12 -60q21 45 55 62.5t78 17.5q41 0 77.5 -20t63.5 -59.5t43 -100t16 -141.5zM273 496q-12 0 -24.5 -7t-22.5 -22.5t-16.5 -41.5t-7.5 -64v-113q0 -41 6.5 -68.5
t16.5 -44t23 -23.5t25 -7q44 0 59.5 47.5t15.5 147.5t-15.5 148t-59.5 48z" />
    <glyph glyph-name="q" unicode="q" horiz-adv-x="544" 
d="M29 300q0 81 16 141.5t43 100t63.5 59.5t77.5 20q43 0 77 -17t55 -62l12 59h136v-811h-167v236q-21 -25 -49.5 -35.5t-63.5 -10.5q-43 0 -79.5 20t-63.5 59.5t-42 99.5t-15 141zM271 105q12 0 24.5 6.5t22.5 22.5t16.5 41.5t7.5 64.5v113q0 41 -6.5 68.5t-16.5 44
t-23 23.5t-25 7q-44 0 -59.5 -48t-15.5 -148t15.5 -147.5t59.5 -47.5z" />
    <glyph glyph-name="r" unicode="r" horiz-adv-x="333" 
d="M36 0v601h115l20 -73q12 47 34 68t47.5 25.5t51.5 -1.5t44 -13v-144q-31 6 -57 8t-45 -8t-30.5 -36.5t-12.5 -75.5v-351h-167z" />
    <glyph glyph-name="s" unicode="s" horiz-adv-x="470" 
d="M37 443q0 36 12.5 68.5t37.5 56.5t61.5 38.5t83.5 14.5q53 0 92.5 -15t65.5 -41.5t38.5 -62.5t11.5 -79l-155 -12q4 37 -6.5 61t-40.5 24q-24 0 -36.5 -15.5t-12.5 -38.5q0 -30 19 -46t48 -27.5t62 -22.5t62 -31t48 -52.5t19 -87.5q0 -42 -13.5 -77.5t-40 -61.5
t-64.5 -41t-86 -15q-54 0 -96.5 15t-71 43t-42 68t-8.5 89l146 10q-2 -26 3 -45t14.5 -31t21 -18t23.5 -6q25 0 38 18.5t13 40.5q0 31 -18.5 48.5t-45.5 30t-59.5 24.5t-59.5 32.5t-45.5 54t-18.5 89.5z" />
    <glyph glyph-name="t" unicode="t" horiz-adv-x="323" 
d="M10 601h54v180h167v-180h67v-125h-67v-299q0 -20 2.5 -34.5t10 -22t22.5 -7t41 11.5v-125q-51 -20 -95 -17.5t-77 25.5t-52 66t-19 103v299h-54v125z" />
    <glyph glyph-name="u" unicode="u" 
d="M202 601v-382q0 -34 5.5 -56t14.5 -35t20 -18t22 -5q24 0 41 21t17 63v412h167v-601h-135l-14 53q-22 -36 -57.5 -54.5t-81.5 -18.5q-34 0 -64.5 12t-53 40t-35.5 73.5t-13 113.5v382h167z" />
    <glyph glyph-name="v" unicode="v" horiz-adv-x="490" 
d="M-15 601h155l104 -433l105 433h156l-163 -601h-194z" />
    <glyph glyph-name="w" unicode="w" horiz-adv-x="757" 
d="M378 324l-83 -324h-142l-155 601h159l73 -363l74 323h149l72 -323l75 363h159l-156 -601h-141z" />
    <glyph glyph-name="x" unicode="x" horiz-adv-x="481" 
d="M161 313l-163 288h160l83 -147l83 147h161l-164 -288l178 -313h-161l-97 171l-97 -171h-160z" />
    <glyph glyph-name="y" unicode="y" horiz-adv-x="496" 
d="M246 -210h-144l70 235l-174 576h168l72 -315l-16 -92l122 407h154z" />
    <glyph glyph-name="z" unicode="z" horiz-adv-x="453" 
d="M27 601h401v-83l-229 -393h229v-125h-401v83l236 393h-236v125z" />
    <glyph glyph-name="h" unicode="h" 
d="M35 0v810h167v-239q45 50 117 50q34 0 65 -12t54 -40t37 -74t14 -113v-382h-167v382q0 66 -18.5 90t-45.5 24q-8 0 -17.5 -5t-17.5 -14.5t-14 -23.5t-7 -33v-420h-167z" />
    <glyph glyph-name="n" unicode="n" 
d="M35 0v601h135l14 -55q23 37 57.5 56t77.5 19q34 0 65 -12t54 -40t37 -74t14 -113v-382h-167v382q0 66 -18.5 90t-45.5 24q-8 0 -17.5 -5t-17.5 -14.5t-14 -23.5t-7 -33v-420h-167z" />
    <glyph glyph-name="F" unicode="F" horiz-adv-x="478" 
d="M35 0v800h439v-125h-272v-248h192v-125h-192v-302h-167z" />
    <glyph glyph-name="ampersand" unicode="&#x26;" horiz-adv-x="588" 
d="M262 740q40 0 71.5 -17.5t51.5 -46.5t28 -65.5t1 -74.5q-7 -32 -21.5 -57.5t-34 -46.5t-41.5 -39t-44 -35q40 -48 104 -68q2 32 0 71h111q1 -45 0 -84q33 2 64 10v-125q-43 -10 -86 -12q-27 -83 -85.5 -126.5t-147.5 -43.5q-47 0 -85 17.5t-65 47.5t-41.5 68.5
t-14.5 80.5q0 68 24.5 108.5t61.5 69.5q-30 70 -30 160q0 49 16 87.5t41.5 65.5t57.5 41t64 14zM349 163q-98 26 -165 98q-11 -27 -11 -55q0 -44 21.5 -74t63.5 -30q29 0 52 14.5t39 46.5zM215 532q0 -42 9 -76q14 12 26.5 26t24.5 31q11 18 13 36t-1.5 32.5t-12 24
t-18.5 9.5q-3 0 -10 -5t-14 -15t-12 -25.5t-5 -37.5z" />
    <glyph glyph-name="one" unicode="1" horiz-adv-x="1272" 
d="M364 266h43q5 -60 8.5 -118t5.5 -117q3 45 5.5 89t7.5 89l6 57h40q5 -48 9 -96l8 -96l3 -43q3 47 4.5 93t5.5 91q2 13 2.5 25.5t1.5 25.5h31l-21 -283h-47q-5 56 -9.5 112t-6.5 113q-2 -42 -5 -84t-7 -84l-4 -57h-48l-12 159l-12 -159h-46l-10 112t-7 113
q-2 -42 -4.5 -84t-6.5 -84l-5 -57h-47l-12 162l-12 -162h-47q-5 56 -9.5 111.5t-6.5 112.5q-1 -43 -4 -84t-7 -83l-6 -57h-46l-22 283h31q5 -60 8.5 -118t5.5 -117q3 45 6 89t8 89l6 57h39q6 -48 10 -96t7 -96l3 -43q3 47 4.5 93t5.5 91l5 51h42q5 -60 8.5 -118t6.5 -117
q3 45 5.5 89t6.5 89q3 14 4 28t3 29h40q5 -48 9 -96l8 -96l2 -43q3 47 5 93t6 91zM1227 876h-1153v26h1153v-26zM1227 -197h-1153v25h1153v-25zM754 -17h-36v283h37h22t21 -5q18 -9 23 -31.5t5 -42.5v-22t-2.5 -25.5t-8 -22.5t-14.5 -14l31 -120h-40l-21 113h-17v-113z
M1001 46v-63h-33v283h32q13 -50 25.5 -98.5t22.5 -99.5q-4 50 -4.5 99t-0.5 99h33v-283h-34q-12 48 -25 96.5t-22 97.5q2 -33 3 -65.5t3 -65.5zM617 -17h-34l30 283h58l31 -283h-36l-7 67h-34zM1175 160q1 14 0 28.5t-5 26.5q-4 9 -11.5 14.5t-14.5 -5.5q-6 -10 -7 -24.5
t-2 -26.5q-1 -14 -1 -27v-26v-26.5t2 -26.5q0 -11 2 -25.5t11 -21.5q11 -7 16.5 2t8 23.5t3 29t0.5 19.5h-26v33h59v-142h-26l-1 38q-2 -12 -7.5 -25t-17.5 -17q-11 -4 -22 2t-18 15q-14 20 -16.5 49t-2.5 52q-2 29 -1 60t8 59q2 12 7.5 24t15.5 18q21 14 46 4
q12 -6 19 -17.5t10 -26t4 -29.5t1 -27zM227 409q5 9 12.5 16t16.5 9q8 3 16 -1t18 -1l-19 -39q-2 -4 -5.5 -12t0.5 -10q5 -5 11.5 2t11.5 15q2 6 5 11.5t6 11.5l8 21q9 0 15 5l-19 -44q-2 -4 -5 -11.5t1 -10.5q4 -5 10 1.5t10 14.5q4 11 9.5 22t10.5 22t9 21t9 21q7 -3 14 3
l-27 -64q-2 -6 -5 -12t-5 -11q-1 -3 -2.5 -7t-1.5 -7t1 -4.5t6 0.5t9.5 7.5t8.5 13.5q2 5 4 9l4 8q5 9 12 16t17 9q9 3 17 -1t17 -1q-5 -10 -9 -19t-9 -20q-2 -4 -5 -12t0 -10q3 -3 6.5 -1t7 6.5t6.5 9.5t5 8l1 2l33 77q8 0 13 3q-5 -14 -10 -27.5t-13 -25.5q7 8 16.5 13
t16.5 -7q7 -11 1 -27t-13 -24q6 -1 11.5 2t10.5 8q4 11 9 21.5t10 21.5l18 42q5 -2 14 3q-8 -16 -14 -32t-14 -32q-2 -6 -4.5 -12t-5.5 -11q-1 -3 -2 -7t-1 -7t1 -4.5t6 0.5t10.5 9t8.5 14q3 17 13 25q3 4 9.5 9t14 7.5t13.5 0.5t8 -12q1 -9 -3.5 -17t-12 -13.5t-16.5 -8.5
t-16 -3q-1 -7 3.5 -11t10.5 -4q13 0 24 8.5t18 20.5l4 -2q-8 -16 -23.5 -26t-31.5 -6q-17 3 -17 20q-4 -6 -8 -11t-9 -7q-7 -5 -15 -1.5t-6 14.5v2q-2 -2 -4 -2q-4 -4 -12 -4h-7q-2 0 -3 -2t-3 -2q-10 -8 -22 -6.5t-18 12.5q-8 -10 -17 -13t-13 3.5t0 14.5q-5 -8 -14 -15.5
t-18 -0.5q-7 4 -7 16q-7 -12 -14 -16q-8 -5 -15.5 -2t-6.5 12l-5.5 -5.5t-5.5 -4.5q-8 -5 -15.5 -2t-5.5 13q-5 -4 -9 -7.5t-9 -5.5q-9 -3 -12.5 3.5t0.5 14.5h-1q-5 -8 -13.5 -15.5t-18.5 -0.5q-5 2 -6 7.5t0 10.5q-4 -4 -10 -7q-4 -2 -13 -2q-5 0 -6 -1t-4 -3
q-11 -8 -24 -7t-9 20q2 14 8 26.5t11 23.5q6 0 14 5q-4 -9 -7 -17.5t-7 -16.5q-1 -3 -4 -8.5t-5 -11.5t-2 -10.5t4 -5.5q9 -2 17.5 9.5t11.5 17.5q5 9 8 20t3 22q9 2 10 -6t-1 -15q-4 -19 -18 -36q8 -3 15 3t11 14zM961 547q-11 0 -17.5 6t-10 15t-5 19.5t-1.5 20.5
q-2 22 -2 45.5t6 45.5q3 10 8.5 17.5t14.5 8.5q20 5 32 -15q9 -20 9 -43.5v-44.5q0 -11 -0.5 -24t-4 -24t-10.5 -19t-19 -8zM396 547q-11 0 -17.5 6t-10.5 15t-5 19.5t-2 20.5q-1 22 -1 45.5t6 45.5q3 10 8 17.5t16 8.5q21 5 31 -15q8 -20 8.5 -43.5t0.5 -44.5q0 -11 -1 -24
t-4.5 -24t-10 -19t-18.5 -8zM883 -17h-36v283h36v-283zM228 548h-21v176h23h15t13 -3q10 -6 13 -19t3 -24v-14.5t-1.5 -17t-4.5 -15t-9 -9.5l18 -74h-24l-13 70q-3 0 -6 0.5t-6 0.5v-71zM1025 587v-39h-21v176h20q8 -31 16 -61t14 -62q-2 30 -2.5 61t-0.5 62h21v-176h-22
q-8 29 -15.5 59.5t-13.5 61.5q2 -21 2.5 -41t1.5 -41zM89 548h-23v176h35q25 0 33 -30q4 -16 3 -37.5t-9 -37.5q-7 -11 -17.5 -12t-21.5 -1v-58zM460 587v-39h-21v176h20q8 -31 15.5 -61t13.5 -62q-2 30 -2.5 61t-0.5 62h21v-176h-22q-7 29 -14.5 59.5t-13.5 61.5
q2 -21 2 -41t2 -41zM533 548h-21l18 176h36l19 -176h-21l-5 43h-22zM714 547q-16 0 -23.5 10t-10 24t-2 30.5t0.5 29.5v83h23v-123q0 -5 -0.5 -11.5t1.5 -11.5q2 -6 7 -8.5t10 2.5t5.5 15t0.5 17q1 14 0.5 28t-0.5 28v64h22v-83q0 -13 0.5 -29.5t-1.5 -30.5t-9.5 -24
t-23.5 -10zM1110 433q7 -1 14 4q-3 -7 -5.5 -12.5t-7.5 -10.5v-2q7 8 15.5 16t17.5 9q12 0 11.5 -11t-3.5 -19q-2 -2 -4.5 -7t-5.5 -10t-4.5 -10t0.5 -8q2 -4 5.5 -2t7 6t7 9t5.5 8l20 44h-8l3 7h8l8 19q6 0 14 4l-10 -23h15l-4 -7h-14l-18 -43q-2 -5 -5 -11.5t-1 -11.5
q3 -3 7 -0.5t8.5 8t7.5 10.5t4 7l4 -2q-5 -9 -12 -19.5t-18 -12.5q-10 -3 -13 1.5t-1 11.5l-6 -6t-6 -5q-7 -5 -14.5 -2.5t-6.5 13.5q1 10 6.5 18.5t8.5 16.5q1 4 3.5 11.5t-4.5 6.5q-11 -2 -20.5 -16t-14.5 -24q-4 -6 -6.5 -13t-5.5 -15h-12l7 19l-1 -1q-3 -3 -10 -5h-9
q-5 -7 -11 -9t-9 -2q-9 -6 -18 3q-8 8 -6.5 20.5t5.5 23.5q5 11 14 19.5t22 8.5q10 0 14.5 -7t4.5 -16.5t-3.5 -19.5t-7.5 -16q13 0 20 13zM309 630q-11 8 -18 19t-9 26q-2 13 2 26t16 20q9 5 22 4.5t21 -10.5q9 -10 9 -22.5v-24.5q-6 0 -12 0.5t-11 0.5q0 7 0.5 15t-4.5 13
q-9 10 -14.5 2t-6.5 -18q0 -14 7.5 -21.5t15.5 -14.5t14.5 -15.5t8.5 -19.5q2 -12 0.5 -24t-7 -21.5t-14.5 -14.5t-21 -3q-21 4 -23.5 22t-1.5 37h21q0 -5 -0.5 -11t0.5 -13q2 -7 7.5 -11t11.5 1q5 5 6 14.5t-1 16.5q-2 9 -7 15.5t-12 11.5zM785 630q-23 15 -27 45
q-1 13 2.5 26t14.5 20q10 5 22.5 4.5t20.5 -10.5q9 -10 8.5 -22.5t-0.5 -24.5q-5 0 -10 0.5t-10 0.5q0 7 0.5 15t-5.5 13q-9 10 -14.5 2t-6.5 -18q0 -14 7 -21.5t15 -14.5q18 -13 24 -35q2 -12 0.5 -24t-7 -21.5t-14.5 -14.5t-22 -3q-10 2 -15 8t-7.5 14t-2.5 18v19h22
q0 -5 -1 -11t1 -13t7 -11t11 1q7 5 8 14.5t-1 16.5q-2 9 -7.5 15.5t-12.5 11.5zM201 548h-56v176h56v-24h-34v-49h28v-26h-28v-53h34v-24zM891 548h-55v176h55v-24h-32v-49h27v-26h-27v-53h32v-24zM129 400l-42 -3q-5 -8 -9.5 -19t-5.5 -22q-8 -2 -9.5 3t0 13t4.5 15.5
t5 9.5l-14 -1l-5 10h23q11 20 27 39.5t36 30.5q6 5 16 5.5t12 -11.5q2 -6 -0.5 -12.5t-4.5 -11.5q-5 -11 -9.5 -22t-9.5 -22q-3 -8 -9.5 -20.5t-2.5 -21.5q-9 -2 -11 3t-0.5 12t4.5 14.5t5 10.5zM1185 724h21q-5 -25 -10 -49.5t-10 -49.5q-5 -18 -3.5 -38t1.5 -39h-24
q0 19 0.5 39t-3.5 38q-5 25 -10 49.5t-10 49.5h21q4 -22 8 -44.5t6 -46.5q1 24 5 46t8 45zM815 363q-7 5 -5.5 13t4.5 16l17 40q7 0 14 5l-13 -31q-2 -5 -8 -17t-2 -17q6 -6 14.5 2.5t11.5 13.5t5 9.5t6 9.5l12 27q3 0 6 1l6 2q-4 -11 -8.5 -21.5t-9.5 -21.5q-2 -5 -5 -11.5
t0 -11.5q4 -6 10 1t11 15q4 11 9.5 22t10.5 22q4 11 8.5 21t9.5 21q6 -3 14 3l-28 -64l-10 -23q-1 -3 -2 -7t-1.5 -7t1 -4.5t5.5 0.5q9 3 16 15q4 11 9.5 22.5t10.5 22.5q4 11 8 21t9 21q7 -3 15 3l-28 -64l-10 -23q-1 -3 -2 -7t-1.5 -7t0.5 -4.5t6 0.5q7 2 12 10t8 15l4 -2
q-5 -9 -10 -17t-13 -13q-7 -5 -14 -2t-6 12q-7 -7 -13 -10q-7 -5 -14 -2t-6 13q-5 -6 -9.5 -10.5t-10.5 -4.5q-10 0 -11 7t2 14q-6 -8 -16.5 -16t-18.5 -2zM1135 548h-55v176h22v-154h33v-22zM645 548h-55v176h23v-154h32v-22zM754 125q6 0 12.5 -1t11.5 4q9 9 11 23.5
t2 25.5q0 13 -2 28t-10 24q-5 5 -12 4.5t-13 -0.5v-108zM687 433q6 -1 15 4q-4 -7 -6.5 -12.5t-6.5 -10.5v-2q6 8 15 16t18 9q12 0 11.5 -11t-4.5 -19q-1 -2 -4 -7t-5.5 -10t-4.5 -10t0 -8q2 -5 6.5 -2t8.5 8t7.5 10.5t4.5 7.5l4 -2q-5 -8 -10 -16.5t-13 -13.5
q-7 -5 -14 -2.5t-6 13.5q1 10 6.5 18.5t8.5 16.5q1 4 3 11.5t-5 6.5q-11 -2 -20 -16t-14 -24l-12 -28h-12l4 11l-4 -4t-4 -3q-8 -5 -15.5 -1.5t-5.5 14.5q0 9 4.5 17.5t7.5 16.5q7 9 10 21q10 0 15 5l-19 -44q-2 -4 -5.5 -11.5t-0.5 -10.5t7.5 0t8.5 8t7 10t4 7zM961 704
q-7 0 -10 -9t-4 -20.5t-0.5 -23t0.5 -15.5q0 -5 -0.5 -16t0.5 -22t4 -20t10 -9q6 0 9 9t4 20t0.5 22t-0.5 16q0 4 0.5 15.5t-0.5 23t-4 20.5t-9 9zM396 704q-7 0 -10 -9t-4 -20.5t-0.5 -23t0.5 -15.5q0 -5 -0.5 -16t0.5 -22t4 -20t10 -9q6 0 8.5 9t3.5 20t0.5 22t-0.5 16
q0 4 0.5 15.5t-0.5 23t-3.5 20.5t-8.5 9zM1212 724h23q0 -32 -1 -65t-3 -66h-15q-2 33 -3 65.5t-1 65.5zM154 475q-8 2 -19 -8t-16 -16q-16 -20 -29 -45h43l13 31q1 3 4 9t5 12t2.5 11t-3.5 6zM1058 460q-5 -4 -6.5 0t-0.5 9q-5 2 -9 0t-7 -6.5t-5 -9.5t-3 -9h14l-3 -7h-14
l-45 -104q-7 0 -14 -3l47 107h-16l3 7h16q3 9 8 18.5t15 11.5q6 2 15 -1q2 -2 6 -5.5t-1 -7.5zM850 460q-5 -4 -7 0t-1 9q-5 2 -9 0t-7 -6.5t-5 -9.5t-3 -9h14l-3 -7h-14l-45 -104q-7 0 -13 -3l45 107h-15l4 7h15q3 9 8 18.5t15 11.5q6 2 15 -1l5.5 -5.5t0.5 -7.5zM633 136
q-2 -11 -3 -23t-3 -23h30q-3 34 -8.5 67.5t-7.5 68.5q-1 -23 -3.5 -45t-4.5 -45zM89 626q5 0 9.5 -0.5t7.5 4.5q5 6 5.5 16.5t0.5 18.5t-0.5 18t-5.5 16q-3 5 -7.5 5h-9.5v-78zM1065 431q-8 0 -15.5 -10t-11.5 -22.5t-4 -22.5t8 -10q6 0 13 10.5t11.5 22.5t5 22t-6.5 10z
M945 7q0 -12 -6.5 -17.5t-14 -5.5t-13.5 5.5t-6 17.5t6 17.5t13.5 5.5t14 -5.5t6.5 -17.5zM572 7q0 -12 -6.5 -17.5t-14 -5.5t-13.5 5.5t-6 17.5t6 17.5t13.5 5.5t14 -5.5t6.5 -17.5zM470 428q-7 0 -12.5 -6t-10 -15t-8.5 -18.5t-7 -15.5q6 -5 11.5 -4.5t10.5 4.5t9 9t6 10
q1 3 4 9t4 12t0 10.5t-7 4.5zM235 369q7 0 13 6.5t10.5 16t8 19.5t6.5 17q-10 6 -20 -3.5t-15 -18.5l-4 -8t-4.5 -12.5t-1 -11.5t6.5 -5zM228 637q5 0 9 -0.5t7 1.5q6 5 7 14.5t1 17.5t-1 17.5t-7 14.5q-3 2 -7 2h-9v-67zM372 369q7 0 13.5 6.5t11 16t8 19.5t6.5 17
q-11 6 -21 -3.5t-15 -18.5l-4 -8t-4.5 -12.5t-1 -11.5t6.5 -5zM549 403q-6 -10 -7 -16q11 0 25 11t14 25q0 8 -5.5 7.5t-10.5 -4.5t-9 -10.5t-7 -12.5zM542 643l-3 -28h18q-2 21 -4.5 41.5t-3.5 41.5q-1 -13 -3 -27zM1236 563q0 -8 -4 -11.5t-8.5 -3.5t-8.5 3.5t-4 11.5
q0 7 4 10.5t8.5 3.5t8.5 -3.5t4 -10.5zM679 456q-4 -8 -11.5 -5t-5.5 11q3 10 12 7t5 -13zM332 456q-3 -8 -10.5 -5t-5.5 11q1 5 5 6.5t7.5 0.5t5 -4.5t-1.5 -8.5zM1216 367q-4 -8 -11.5 -4.5t-3.5 11.5q4 9 11.5 5t3.5 -12zM1237 421q-3 -9 -11 -5.5t-3 12.5q4 7 11 4
t3 -11z" />
    <glyph glyph-name="two" unicode="2" horiz-adv-x="1272" 
d="M364 266h43q5 -60 8.5 -118t5.5 -117q3 45 5.5 89t7.5 89l6 57h40q5 -48 9 -96l8 -96l3 -43q3 47 4.5 93t5.5 91q2 13 2.5 25.5t1.5 25.5h31l-21 -283h-47q-5 56 -9.5 112t-6.5 113q-2 -42 -5 -84t-7 -84l-4 -57h-48l-12 159l-12 -159h-46l-10 112t-7 113
q-2 -42 -4.5 -84t-6.5 -84l-5 -57h-47l-12 162l-12 -162h-47q-5 56 -9.5 111.5t-6.5 112.5q-1 -43 -4 -84t-7 -83l-6 -57h-46l-22 283h31q5 -60 8.5 -118t5.5 -117q3 45 6 89t8 89l6 57h39q6 -48 10 -96t7 -96l3 -43q3 47 4.5 93t5.5 91l5 51h42q5 -60 8.5 -118t6.5 -117
q3 45 5.5 89t6.5 89q3 14 4 28t3 29h40q5 -48 9 -96l8 -96l2 -43q3 47 5 93t6 91zM1227 876h-1153v26h1153v-26zM1227 -197h-1153v25h1153v-25zM754 -17h-36v283h37h22t21 -5q18 -9 23 -31.5t5 -42.5v-22t-2.5 -25.5t-8 -22.5t-14.5 -14l31 -120h-40l-21 113h-17v-113z
M1001 46v-63h-33v283h32q13 -50 25.5 -98.5t22.5 -99.5q-4 50 -4.5 99t-0.5 99h33v-283h-34q-12 48 -25 96.5t-22 97.5q2 -33 3 -65.5t3 -65.5zM617 -17h-34l30 283h58l31 -283h-36l-7 67h-34zM1175 160q1 14 0 28.5t-5 26.5q-4 9 -11.5 14.5t-14.5 -5.5q-6 -10 -7 -24.5
t-2 -26.5q-1 -14 -1 -27v-26v-26.5t2 -26.5q0 -11 2 -25.5t11 -21.5q11 -7 16.5 2t8 23.5t3 29t0.5 19.5h-26v33h59v-142h-26l-1 38q-2 -12 -7.5 -25t-17.5 -17q-11 -4 -22 2t-18 15q-14 20 -16.5 49t-2.5 52q-2 29 -1 60t8 59q2 12 7.5 24t15.5 18q21 14 46 4
q12 -6 19 -17.5t10 -26t4 -29.5t1 -27zM227 409q5 9 12.5 16t16.5 9q8 3 16 -1t18 -1l-19 -39q-2 -4 -5.5 -12t0.5 -10q5 -5 11.5 2t11.5 15q2 6 5 11.5t6 11.5l8 21q9 0 15 5l-19 -44q-2 -4 -5 -11.5t1 -10.5q4 -5 10 1.5t10 14.5q4 11 9.5 22t10.5 22t9 21t9 21q7 -3 14 3
l-27 -64q-2 -6 -5 -12t-5 -11q-1 -3 -2.5 -7t-1.5 -7t1 -4.5t6 0.5t9.5 7.5t8.5 13.5q2 5 4 9l4 8q5 9 12 16t17 9q9 3 17 -1t17 -1q-5 -10 -9 -19t-9 -20q-2 -4 -5 -12t0 -10q3 -3 6.5 -1t7 6.5t6.5 9.5t5 8l1 2l33 77q8 0 13 3q-5 -14 -10 -27.5t-13 -25.5q7 8 16.5 13
t16.5 -7q7 -11 1 -27t-13 -24q6 -1 11.5 2t10.5 8q4 11 9 21.5t10 21.5l18 42q5 -2 14 3q-8 -16 -14 -32t-14 -32q-2 -6 -4.5 -12t-5.5 -11q-1 -3 -2 -7t-1 -7t1 -4.5t6 0.5t10.5 9t8.5 14q3 17 13 25q3 4 9.5 9t14 7.5t13.5 0.5t8 -12q1 -9 -3.5 -17t-12 -13.5t-16.5 -8.5
t-16 -3q-1 -7 3.5 -11t10.5 -4q13 0 24 8.5t18 20.5l4 -2q-8 -16 -23.5 -26t-31.5 -6q-17 3 -17 20q-4 -6 -8 -11t-9 -7q-7 -5 -15 -1.5t-6 14.5v2q-2 -2 -4 -2q-4 -4 -12 -4h-7q-2 0 -3 -2t-3 -2q-10 -8 -22 -6.5t-18 12.5q-8 -10 -17 -13t-13 3.5t0 14.5q-5 -8 -14 -15.5
t-18 -0.5q-7 4 -7 16q-7 -12 -14 -16q-8 -5 -15.5 -2t-6.5 12l-5.5 -5.5t-5.5 -4.5q-8 -5 -15.5 -2t-5.5 13q-5 -4 -9 -7.5t-9 -5.5q-9 -3 -12.5 3.5t0.5 14.5h-1q-5 -8 -13.5 -15.5t-18.5 -0.5q-5 2 -6 7.5t0 10.5q-4 -4 -10 -7q-4 -2 -13 -2q-5 0 -6 -1t-4 -3
q-11 -8 -24 -7t-9 20q2 14 8 26.5t11 23.5q6 0 14 5q-4 -9 -7 -17.5t-7 -16.5q-1 -3 -4 -8.5t-5 -11.5t-2 -10.5t4 -5.5q9 -2 17.5 9.5t11.5 17.5q5 9 8 20t3 22q9 2 10 -6t-1 -15q-4 -19 -18 -36q8 -3 15 3t11 14zM961 547q-11 0 -17.5 6t-10 15t-5 19.5t-1.5 20.5
q-2 22 -2 45.5t6 45.5q3 10 8.5 17.5t14.5 8.5q20 5 32 -15q9 -20 9 -43.5v-44.5q0 -11 -0.5 -24t-4 -24t-10.5 -19t-19 -8zM396 547q-11 0 -17.5 6t-10.5 15t-5 19.5t-2 20.5q-1 22 -1 45.5t6 45.5q3 10 8 17.5t16 8.5q21 5 31 -15q8 -20 8.5 -43.5t0.5 -44.5q0 -11 -1 -24
t-4.5 -24t-10 -19t-18.5 -8zM883 -17h-36v283h36v-283zM228 548h-21v176h23h15t13 -3q10 -6 13 -19t3 -24v-14.5t-1.5 -17t-4.5 -15t-9 -9.5l18 -74h-24l-13 70q-3 0 -6 0.5t-6 0.5v-71zM1025 587v-39h-21v176h20q8 -31 16 -61t14 -62q-2 30 -2.5 61t-0.5 62h21v-176h-22
q-8 29 -15.5 59.5t-13.5 61.5q2 -21 2.5 -41t1.5 -41zM89 548h-23v176h35q25 0 33 -30q4 -16 3 -37.5t-9 -37.5q-7 -11 -17.5 -12t-21.5 -1v-58zM460 587v-39h-21v176h20q8 -31 15.5 -61t13.5 -62q-2 30 -2.5 61t-0.5 62h21v-176h-22q-7 29 -14.5 59.5t-13.5 61.5
q2 -21 2 -41t2 -41zM533 548h-21l18 176h36l19 -176h-21l-5 43h-22zM714 547q-16 0 -23.5 10t-10 24t-2 30.5t0.5 29.5v83h23v-123q0 -5 -0.5 -11.5t1.5 -11.5q2 -6 7 -8.5t10 2.5t5.5 15t0.5 17q1 14 0.5 28t-0.5 28v64h22v-83q0 -13 0.5 -29.5t-1.5 -30.5t-9.5 -24
t-23.5 -10zM1110 433q7 -1 14 4q-3 -7 -5.5 -12.5t-7.5 -10.5v-2q7 8 15.5 16t17.5 9q12 0 11.5 -11t-3.5 -19q-2 -2 -4.5 -7t-5.5 -10t-4.5 -10t0.5 -8q2 -4 5.5 -2t7 6t7 9t5.5 8l20 44h-8l3 7h8l8 19q6 0 14 4l-10 -23h15l-4 -7h-14l-18 -43q-2 -5 -5 -11.5t-1 -11.5
q3 -3 7 -0.5t8.5 8t7.5 10.5t4 7l4 -2q-5 -9 -12 -19.5t-18 -12.5q-10 -3 -13 1.5t-1 11.5l-6 -6t-6 -5q-7 -5 -14.5 -2.5t-6.5 13.5q1 10 6.5 18.5t8.5 16.5q1 4 3.5 11.5t-4.5 6.5q-11 -2 -20.5 -16t-14.5 -24q-4 -6 -6.5 -13t-5.5 -15h-12l7 19l-1 -1q-3 -3 -10 -5h-9
q-5 -7 -11 -9t-9 -2q-9 -6 -18 3q-8 8 -6.5 20.5t5.5 23.5q5 11 14 19.5t22 8.5q10 0 14.5 -7t4.5 -16.5t-3.5 -19.5t-7.5 -16q13 0 20 13zM309 630q-11 8 -18 19t-9 26q-2 13 2 26t16 20q9 5 22 4.5t21 -10.5q9 -10 9 -22.5v-24.5q-6 0 -12 0.5t-11 0.5q0 7 0.5 15t-4.5 13
q-9 10 -14.5 2t-6.5 -18q0 -14 7.5 -21.5t15.5 -14.5t14.5 -15.5t8.5 -19.5q2 -12 0.5 -24t-7 -21.5t-14.5 -14.5t-21 -3q-21 4 -23.5 22t-1.5 37h21q0 -5 -0.5 -11t0.5 -13q2 -7 7.5 -11t11.5 1q5 5 6 14.5t-1 16.5q-2 9 -7 15.5t-12 11.5zM785 630q-23 15 -27 45
q-1 13 2.5 26t14.5 20q10 5 22.5 4.5t20.5 -10.5q9 -10 8.5 -22.5t-0.5 -24.5q-5 0 -10 0.5t-10 0.5q0 7 0.5 15t-5.5 13q-9 10 -14.5 2t-6.5 -18q0 -14 7 -21.5t15 -14.5q18 -13 24 -35q2 -12 0.5 -24t-7 -21.5t-14.5 -14.5t-22 -3q-10 2 -15 8t-7.5 14t-2.5 18v19h22
q0 -5 -1 -11t1 -13t7 -11t11 1q7 5 8 14.5t-1 16.5q-2 9 -7.5 15.5t-12.5 11.5zM201 548h-56v176h56v-24h-34v-49h28v-26h-28v-53h34v-24zM891 548h-55v176h55v-24h-32v-49h27v-26h-27v-53h32v-24zM129 400l-42 -3q-5 -8 -9.5 -19t-5.5 -22q-8 -2 -9.5 3t0 13t4.5 15.5
t5 9.5l-14 -1l-5 10h23q11 20 27 39.5t36 30.5q6 5 16 5.5t12 -11.5q2 -6 -0.5 -12.5t-4.5 -11.5q-5 -11 -9.5 -22t-9.5 -22q-3 -8 -9.5 -20.5t-2.5 -21.5q-9 -2 -11 3t-0.5 12t4.5 14.5t5 10.5zM1185 724h21q-5 -25 -10 -49.5t-10 -49.5q-5 -18 -3.5 -38t1.5 -39h-24
q0 19 0.5 39t-3.5 38q-5 25 -10 49.5t-10 49.5h21q4 -22 8 -44.5t6 -46.5q1 24 5 46t8 45zM815 363q-7 5 -5.5 13t4.5 16l17 40q7 0 14 5l-13 -31q-2 -5 -8 -17t-2 -17q6 -6 14.5 2.5t11.5 13.5t5 9.5t6 9.5l12 27q3 0 6 1l6 2q-4 -11 -8.5 -21.5t-9.5 -21.5q-2 -5 -5 -11.5
t0 -11.5q4 -6 10 1t11 15q4 11 9.5 22t10.5 22q4 11 8.5 21t9.5 21q6 -3 14 3l-28 -64l-10 -23q-1 -3 -2 -7t-1.5 -7t1 -4.5t5.5 0.5q9 3 16 15q4 11 9.5 22.5t10.5 22.5q4 11 8 21t9 21q7 -3 15 3l-28 -64l-10 -23q-1 -3 -2 -7t-1.5 -7t0.5 -4.5t6 0.5q7 2 12 10t8 15l4 -2
q-5 -9 -10 -17t-13 -13q-7 -5 -14 -2t-6 12q-7 -7 -13 -10q-7 -5 -14 -2t-6 13q-5 -6 -9.5 -10.5t-10.5 -4.5q-10 0 -11 7t2 14q-6 -8 -16.5 -16t-18.5 -2zM1135 548h-55v176h22v-154h33v-22zM645 548h-55v176h23v-154h32v-22zM754 125q6 0 12.5 -1t11.5 4q9 9 11 23.5
t2 25.5q0 13 -2 28t-10 24q-5 5 -12 4.5t-13 -0.5v-108zM687 433q6 -1 15 4q-4 -7 -6.5 -12.5t-6.5 -10.5v-2q6 8 15 16t18 9q12 0 11.5 -11t-4.5 -19q-1 -2 -4 -7t-5.5 -10t-4.5 -10t0 -8q2 -5 6.5 -2t8.5 8t7.5 10.5t4.5 7.5l4 -2q-5 -8 -10 -16.5t-13 -13.5
q-7 -5 -14 -2.5t-6 13.5q1 10 6.5 18.5t8.5 16.5q1 4 3 11.5t-5 6.5q-11 -2 -20 -16t-14 -24l-12 -28h-12l4 11l-4 -4t-4 -3q-8 -5 -15.5 -1.5t-5.5 14.5q0 9 4.5 17.5t7.5 16.5q7 9 10 21q10 0 15 5l-19 -44q-2 -4 -5.5 -11.5t-0.5 -10.5t7.5 0t8.5 8t7 10t4 7zM961 704
q-7 0 -10 -9t-4 -20.5t-0.5 -23t0.5 -15.5q0 -5 -0.5 -16t0.5 -22t4 -20t10 -9q6 0 9 9t4 20t0.5 22t-0.5 16q0 4 0.5 15.5t-0.5 23t-4 20.5t-9 9zM396 704q-7 0 -10 -9t-4 -20.5t-0.5 -23t0.5 -15.5q0 -5 -0.5 -16t0.5 -22t4 -20t10 -9q6 0 8.5 9t3.5 20t0.5 22t-0.5 16
q0 4 0.5 15.5t-0.5 23t-3.5 20.5t-8.5 9zM1212 724h23q0 -32 -1 -65t-3 -66h-15q-2 33 -3 65.5t-1 65.5zM154 475q-8 2 -19 -8t-16 -16q-16 -20 -29 -45h43l13 31q1 3 4 9t5 12t2.5 11t-3.5 6zM1058 460q-5 -4 -6.5 0t-0.5 9q-5 2 -9 0t-7 -6.5t-5 -9.5t-3 -9h14l-3 -7h-14
l-45 -104q-7 0 -14 -3l47 107h-16l3 7h16q3 9 8 18.5t15 11.5q6 2 15 -1q2 -2 6 -5.5t-1 -7.5zM850 460q-5 -4 -7 0t-1 9q-5 2 -9 0t-7 -6.5t-5 -9.5t-3 -9h14l-3 -7h-14l-45 -104q-7 0 -13 -3l45 107h-15l4 7h15q3 9 8 18.5t15 11.5q6 2 15 -1l5.5 -5.5t0.5 -7.5zM633 136
q-2 -11 -3 -23t-3 -23h30q-3 34 -8.5 67.5t-7.5 68.5q-1 -23 -3.5 -45t-4.5 -45zM89 626q5 0 9.5 -0.5t7.5 4.5q5 6 5.5 16.5t0.5 18.5t-0.5 18t-5.5 16q-3 5 -7.5 5h-9.5v-78zM1065 431q-8 0 -15.5 -10t-11.5 -22.5t-4 -22.5t8 -10q6 0 13 10.5t11.5 22.5t5 22t-6.5 10z
M945 7q0 -12 -6.5 -17.5t-14 -5.5t-13.5 5.5t-6 17.5t6 17.5t13.5 5.5t14 -5.5t6.5 -17.5zM572 7q0 -12 -6.5 -17.5t-14 -5.5t-13.5 5.5t-6 17.5t6 17.5t13.5 5.5t14 -5.5t6.5 -17.5zM470 428q-7 0 -12.5 -6t-10 -15t-8.5 -18.5t-7 -15.5q6 -5 11.5 -4.5t10.5 4.5t9 9t6 10
q1 3 4 9t4 12t0 10.5t-7 4.5zM235 369q7 0 13 6.5t10.5 16t8 19.5t6.5 17q-10 6 -20 -3.5t-15 -18.5l-4 -8t-4.5 -12.5t-1 -11.5t6.5 -5zM228 637q5 0 9 -0.5t7 1.5q6 5 7 14.5t1 17.5t-1 17.5t-7 14.5q-3 2 -7 2h-9v-67zM372 369q7 0 13.5 6.5t11 16t8 19.5t6.5 17
q-11 6 -21 -3.5t-15 -18.5l-4 -8t-4.5 -12.5t-1 -11.5t6.5 -5zM549 403q-6 -10 -7 -16q11 0 25 11t14 25q0 8 -5.5 7.5t-10.5 -4.5t-9 -10.5t-7 -12.5zM542 643l-3 -28h18q-2 21 -4.5 41.5t-3.5 41.5q-1 -13 -3 -27zM1236 563q0 -8 -4 -11.5t-8.5 -3.5t-8.5 3.5t-4 11.5
q0 7 4 10.5t8.5 3.5t8.5 -3.5t4 -10.5zM679 456q-4 -8 -11.5 -5t-5.5 11q3 10 12 7t5 -13zM332 456q-3 -8 -10.5 -5t-5.5 11q1 5 5 6.5t7.5 0.5t5 -4.5t-1.5 -8.5zM1216 367q-4 -8 -11.5 -4.5t-3.5 11.5q4 9 11.5 5t3.5 -12zM1237 421q-3 -9 -11 -5.5t-3 12.5q4 7 11 4
t3 -11z" />
    <glyph glyph-name="zero" unicode="0" horiz-adv-x="1272" 
d="M364 266h43q5 -60 8.5 -118t5.5 -117q3 45 5.5 89t7.5 89l6 57h40q5 -48 9 -96l8 -96l3 -43q3 47 4.5 93t5.5 91q2 13 2.5 25.5t1.5 25.5h31l-21 -283h-47q-5 56 -9.5 112t-6.5 113q-2 -42 -5 -84t-7 -84l-4 -57h-48l-12 159l-12 -159h-46l-10 112t-7 113
q-2 -42 -4.5 -84t-6.5 -84l-5 -57h-47l-12 162l-12 -162h-47q-5 56 -9.5 111.5t-6.5 112.5q-1 -43 -4 -84t-7 -83l-6 -57h-46l-22 283h31q5 -60 8.5 -118t5.5 -117q3 45 6 89t8 89l6 57h39q6 -48 10 -96t7 -96l3 -43q3 47 4.5 93t5.5 91l5 51h42q5 -60 8.5 -118t6.5 -117
q3 45 5.5 89t6.5 89q3 14 4 28t3 29h40q5 -48 9 -96l8 -96l2 -43q3 47 5 93t6 91zM1227 876h-1153v26h1153v-26zM1227 -197h-1153v25h1153v-25zM754 -17h-36v283h37h22t21 -5q18 -9 23 -31.5t5 -42.5v-22t-2.5 -25.5t-8 -22.5t-14.5 -14l31 -120h-40l-21 113h-17v-113z
M1001 46v-63h-33v283h32q13 -50 25.5 -98.5t22.5 -99.5q-4 50 -4.5 99t-0.5 99h33v-283h-34q-12 48 -25 96.5t-22 97.5q2 -33 3 -65.5t3 -65.5zM617 -17h-34l30 283h58l31 -283h-36l-7 67h-34zM1175 160q1 14 0 28.5t-5 26.5q-4 9 -11.5 14.5t-14.5 -5.5q-6 -10 -7 -24.5
t-2 -26.5q-1 -14 -1 -27v-26v-26.5t2 -26.5q0 -11 2 -25.5t11 -21.5q11 -7 16.5 2t8 23.5t3 29t0.5 19.5h-26v33h59v-142h-26l-1 38q-2 -12 -7.5 -25t-17.5 -17q-11 -4 -22 2t-18 15q-14 20 -16.5 49t-2.5 52q-2 29 -1 60t8 59q2 12 7.5 24t15.5 18q21 14 46 4
q12 -6 19 -17.5t10 -26t4 -29.5t1 -27zM227 409q5 9 12.5 16t16.5 9q8 3 16 -1t18 -1l-19 -39q-2 -4 -5.5 -12t0.5 -10q5 -5 11.5 2t11.5 15q2 6 5 11.5t6 11.5l8 21q9 0 15 5l-19 -44q-2 -4 -5 -11.5t1 -10.5q4 -5 10 1.5t10 14.5q4 11 9.5 22t10.5 22t9 21t9 21q7 -3 14 3
l-27 -64q-2 -6 -5 -12t-5 -11q-1 -3 -2.5 -7t-1.5 -7t1 -4.5t6 0.5t9.5 7.5t8.5 13.5q2 5 4 9l4 8q5 9 12 16t17 9q9 3 17 -1t17 -1q-5 -10 -9 -19t-9 -20q-2 -4 -5 -12t0 -10q3 -3 6.5 -1t7 6.5t6.5 9.5t5 8l1 2l33 77q8 0 13 3q-5 -14 -10 -27.5t-13 -25.5q7 8 16.5 13
t16.5 -7q7 -11 1 -27t-13 -24q6 -1 11.5 2t10.5 8q4 11 9 21.5t10 21.5l18 42q5 -2 14 3q-8 -16 -14 -32t-14 -32q-2 -6 -4.5 -12t-5.5 -11q-1 -3 -2 -7t-1 -7t1 -4.5t6 0.5t10.5 9t8.5 14q3 17 13 25q3 4 9.5 9t14 7.5t13.5 0.5t8 -12q1 -9 -3.5 -17t-12 -13.5t-16.5 -8.5
t-16 -3q-1 -7 3.5 -11t10.5 -4q13 0 24 8.5t18 20.5l4 -2q-8 -16 -23.5 -26t-31.5 -6q-17 3 -17 20q-4 -6 -8 -11t-9 -7q-7 -5 -15 -1.5t-6 14.5v2q-2 -2 -4 -2q-4 -4 -12 -4h-7q-2 0 -3 -2t-3 -2q-10 -8 -22 -6.5t-18 12.5q-8 -10 -17 -13t-13 3.5t0 14.5q-5 -8 -14 -15.5
t-18 -0.5q-7 4 -7 16q-7 -12 -14 -16q-8 -5 -15.5 -2t-6.5 12l-5.5 -5.5t-5.5 -4.5q-8 -5 -15.5 -2t-5.5 13q-5 -4 -9 -7.5t-9 -5.5q-9 -3 -12.5 3.5t0.5 14.5h-1q-5 -8 -13.5 -15.5t-18.5 -0.5q-5 2 -6 7.5t0 10.5q-4 -4 -10 -7q-4 -2 -13 -2q-5 0 -6 -1t-4 -3
q-11 -8 -24 -7t-9 20q2 14 8 26.5t11 23.5q6 0 14 5q-4 -9 -7 -17.5t-7 -16.5q-1 -3 -4 -8.5t-5 -11.5t-2 -10.5t4 -5.5q9 -2 17.5 9.5t11.5 17.5q5 9 8 20t3 22q9 2 10 -6t-1 -15q-4 -19 -18 -36q8 -3 15 3t11 14zM961 547q-11 0 -17.5 6t-10 15t-5 19.5t-1.5 20.5
q-2 22 -2 45.5t6 45.5q3 10 8.5 17.5t14.5 8.5q20 5 32 -15q9 -20 9 -43.5v-44.5q0 -11 -0.5 -24t-4 -24t-10.5 -19t-19 -8zM396 547q-11 0 -17.5 6t-10.5 15t-5 19.5t-2 20.5q-1 22 -1 45.5t6 45.5q3 10 8 17.5t16 8.5q21 5 31 -15q8 -20 8.5 -43.5t0.5 -44.5q0 -11 -1 -24
t-4.5 -24t-10 -19t-18.5 -8zM883 -17h-36v283h36v-283zM228 548h-21v176h23h15t13 -3q10 -6 13 -19t3 -24v-14.5t-1.5 -17t-4.5 -15t-9 -9.5l18 -74h-24l-13 70q-3 0 -6 0.5t-6 0.5v-71zM1025 587v-39h-21v176h20q8 -31 16 -61t14 -62q-2 30 -2.5 61t-0.5 62h21v-176h-22
q-8 29 -15.5 59.5t-13.5 61.5q2 -21 2.5 -41t1.5 -41zM89 548h-23v176h35q25 0 33 -30q4 -16 3 -37.5t-9 -37.5q-7 -11 -17.5 -12t-21.5 -1v-58zM460 587v-39h-21v176h20q8 -31 15.5 -61t13.5 -62q-2 30 -2.5 61t-0.5 62h21v-176h-22q-7 29 -14.5 59.5t-13.5 61.5
q2 -21 2 -41t2 -41zM533 548h-21l18 176h36l19 -176h-21l-5 43h-22zM714 547q-16 0 -23.5 10t-10 24t-2 30.5t0.5 29.5v83h23v-123q0 -5 -0.5 -11.5t1.5 -11.5q2 -6 7 -8.5t10 2.5t5.5 15t0.5 17q1 14 0.5 28t-0.5 28v64h22v-83q0 -13 0.5 -29.5t-1.5 -30.5t-9.5 -24
t-23.5 -10zM1110 433q7 -1 14 4q-3 -7 -5.5 -12.5t-7.5 -10.5v-2q7 8 15.5 16t17.5 9q12 0 11.5 -11t-3.5 -19q-2 -2 -4.5 -7t-5.5 -10t-4.5 -10t0.5 -8q2 -4 5.5 -2t7 6t7 9t5.5 8l20 44h-8l3 7h8l8 19q6 0 14 4l-10 -23h15l-4 -7h-14l-18 -43q-2 -5 -5 -11.5t-1 -11.5
q3 -3 7 -0.5t8.5 8t7.5 10.5t4 7l4 -2q-5 -9 -12 -19.5t-18 -12.5q-10 -3 -13 1.5t-1 11.5l-6 -6t-6 -5q-7 -5 -14.5 -2.5t-6.5 13.5q1 10 6.5 18.5t8.5 16.5q1 4 3.5 11.5t-4.5 6.5q-11 -2 -20.5 -16t-14.5 -24q-4 -6 -6.5 -13t-5.5 -15h-12l7 19l-1 -1q-3 -3 -10 -5h-9
q-5 -7 -11 -9t-9 -2q-9 -6 -18 3q-8 8 -6.5 20.5t5.5 23.5q5 11 14 19.5t22 8.5q10 0 14.5 -7t4.5 -16.5t-3.5 -19.5t-7.5 -16q13 0 20 13zM309 630q-11 8 -18 19t-9 26q-2 13 2 26t16 20q9 5 22 4.5t21 -10.5q9 -10 9 -22.5v-24.5q-6 0 -12 0.5t-11 0.5q0 7 0.5 15t-4.5 13
q-9 10 -14.5 2t-6.5 -18q0 -14 7.5 -21.5t15.5 -14.5t14.5 -15.5t8.5 -19.5q2 -12 0.5 -24t-7 -21.5t-14.5 -14.5t-21 -3q-21 4 -23.5 22t-1.5 37h21q0 -5 -0.5 -11t0.5 -13q2 -7 7.5 -11t11.5 1q5 5 6 14.5t-1 16.5q-2 9 -7 15.5t-12 11.5zM785 630q-23 15 -27 45
q-1 13 2.5 26t14.5 20q10 5 22.5 4.5t20.5 -10.5q9 -10 8.5 -22.5t-0.5 -24.5q-5 0 -10 0.5t-10 0.5q0 7 0.5 15t-5.5 13q-9 10 -14.5 2t-6.5 -18q0 -14 7 -21.5t15 -14.5q18 -13 24 -35q2 -12 0.5 -24t-7 -21.5t-14.5 -14.5t-22 -3q-10 2 -15 8t-7.5 14t-2.5 18v19h22
q0 -5 -1 -11t1 -13t7 -11t11 1q7 5 8 14.5t-1 16.5q-2 9 -7.5 15.5t-12.5 11.5zM201 548h-56v176h56v-24h-34v-49h28v-26h-28v-53h34v-24zM891 548h-55v176h55v-24h-32v-49h27v-26h-27v-53h32v-24zM129 400l-42 -3q-5 -8 -9.5 -19t-5.5 -22q-8 -2 -9.5 3t0 13t4.5 15.5
t5 9.5l-14 -1l-5 10h23q11 20 27 39.5t36 30.5q6 5 16 5.5t12 -11.5q2 -6 -0.5 -12.5t-4.5 -11.5q-5 -11 -9.5 -22t-9.5 -22q-3 -8 -9.5 -20.5t-2.5 -21.5q-9 -2 -11 3t-0.5 12t4.5 14.5t5 10.5zM1185 724h21q-5 -25 -10 -49.5t-10 -49.5q-5 -18 -3.5 -38t1.5 -39h-24
q0 19 0.5 39t-3.5 38q-5 25 -10 49.5t-10 49.5h21q4 -22 8 -44.5t6 -46.5q1 24 5 46t8 45zM815 363q-7 5 -5.5 13t4.5 16l17 40q7 0 14 5l-13 -31q-2 -5 -8 -17t-2 -17q6 -6 14.5 2.5t11.5 13.5t5 9.5t6 9.5l12 27q3 0 6 1l6 2q-4 -11 -8.5 -21.5t-9.5 -21.5q-2 -5 -5 -11.5
t0 -11.5q4 -6 10 1t11 15q4 11 9.5 22t10.5 22q4 11 8.5 21t9.5 21q6 -3 14 3l-28 -64l-10 -23q-1 -3 -2 -7t-1.5 -7t1 -4.5t5.5 0.5q9 3 16 15q4 11 9.5 22.5t10.5 22.5q4 11 8 21t9 21q7 -3 15 3l-28 -64l-10 -23q-1 -3 -2 -7t-1.5 -7t0.5 -4.5t6 0.5q7 2 12 10t8 15l4 -2
q-5 -9 -10 -17t-13 -13q-7 -5 -14 -2t-6 12q-7 -7 -13 -10q-7 -5 -14 -2t-6 13q-5 -6 -9.5 -10.5t-10.5 -4.5q-10 0 -11 7t2 14q-6 -8 -16.5 -16t-18.5 -2zM1135 548h-55v176h22v-154h33v-22zM645 548h-55v176h23v-154h32v-22zM754 125q6 0 12.5 -1t11.5 4q9 9 11 23.5
t2 25.5q0 13 -2 28t-10 24q-5 5 -12 4.5t-13 -0.5v-108zM687 433q6 -1 15 4q-4 -7 -6.5 -12.5t-6.5 -10.5v-2q6 8 15 16t18 9q12 0 11.5 -11t-4.5 -19q-1 -2 -4 -7t-5.5 -10t-4.5 -10t0 -8q2 -5 6.5 -2t8.5 8t7.5 10.5t4.5 7.5l4 -2q-5 -8 -10 -16.5t-13 -13.5
q-7 -5 -14 -2.5t-6 13.5q1 10 6.5 18.5t8.5 16.5q1 4 3 11.5t-5 6.5q-11 -2 -20 -16t-14 -24l-12 -28h-12l4 11l-4 -4t-4 -3q-8 -5 -15.5 -1.5t-5.5 14.5q0 9 4.5 17.5t7.5 16.5q7 9 10 21q10 0 15 5l-19 -44q-2 -4 -5.5 -11.5t-0.5 -10.5t7.5 0t8.5 8t7 10t4 7zM961 704
q-7 0 -10 -9t-4 -20.5t-0.5 -23t0.5 -15.5q0 -5 -0.5 -16t0.5 -22t4 -20t10 -9q6 0 9 9t4 20t0.5 22t-0.5 16q0 4 0.5 15.5t-0.5 23t-4 20.5t-9 9zM396 704q-7 0 -10 -9t-4 -20.5t-0.5 -23t0.5 -15.5q0 -5 -0.5 -16t0.5 -22t4 -20t10 -9q6 0 8.5 9t3.5 20t0.5 22t-0.5 16
q0 4 0.5 15.5t-0.5 23t-3.5 20.5t-8.5 9zM1212 724h23q0 -32 -1 -65t-3 -66h-15q-2 33 -3 65.5t-1 65.5zM154 475q-8 2 -19 -8t-16 -16q-16 -20 -29 -45h43l13 31q1 3 4 9t5 12t2.5 11t-3.5 6zM1058 460q-5 -4 -6.5 0t-0.5 9q-5 2 -9 0t-7 -6.5t-5 -9.5t-3 -9h14l-3 -7h-14
l-45 -104q-7 0 -14 -3l47 107h-16l3 7h16q3 9 8 18.5t15 11.5q6 2 15 -1q2 -2 6 -5.5t-1 -7.5zM850 460q-5 -4 -7 0t-1 9q-5 2 -9 0t-7 -6.5t-5 -9.5t-3 -9h14l-3 -7h-14l-45 -104q-7 0 -13 -3l45 107h-15l4 7h15q3 9 8 18.5t15 11.5q6 2 15 -1l5.5 -5.5t0.5 -7.5zM633 136
q-2 -11 -3 -23t-3 -23h30q-3 34 -8.5 67.5t-7.5 68.5q-1 -23 -3.5 -45t-4.5 -45zM89 626q5 0 9.5 -0.5t7.5 4.5q5 6 5.5 16.5t0.5 18.5t-0.5 18t-5.5 16q-3 5 -7.5 5h-9.5v-78zM1065 431q-8 0 -15.5 -10t-11.5 -22.5t-4 -22.5t8 -10q6 0 13 10.5t11.5 22.5t5 22t-6.5 10z
M945 7q0 -12 -6.5 -17.5t-14 -5.5t-13.5 5.5t-6 17.5t6 17.5t13.5 5.5t14 -5.5t6.5 -17.5zM572 7q0 -12 -6.5 -17.5t-14 -5.5t-13.5 5.5t-6 17.5t6 17.5t13.5 5.5t14 -5.5t6.5 -17.5zM470 428q-7 0 -12.5 -6t-10 -15t-8.5 -18.5t-7 -15.5q6 -5 11.5 -4.5t10.5 4.5t9 9t6 10
q1 3 4 9t4 12t0 10.5t-7 4.5zM235 369q7 0 13 6.5t10.5 16t8 19.5t6.5 17q-10 6 -20 -3.5t-15 -18.5l-4 -8t-4.5 -12.5t-1 -11.5t6.5 -5zM228 637q5 0 9 -0.5t7 1.5q6 5 7 14.5t1 17.5t-1 17.5t-7 14.5q-3 2 -7 2h-9v-67zM372 369q7 0 13.5 6.5t11 16t8 19.5t6.5 17
q-11 6 -21 -3.5t-15 -18.5l-4 -8t-4.5 -12.5t-1 -11.5t6.5 -5zM549 403q-6 -10 -7 -16q11 0 25 11t14 25q0 8 -5.5 7.5t-10.5 -4.5t-9 -10.5t-7 -12.5zM542 643l-3 -28h18q-2 21 -4.5 41.5t-3.5 41.5q-1 -13 -3 -27zM1236 563q0 -8 -4 -11.5t-8.5 -3.5t-8.5 3.5t-4 11.5
q0 7 4 10.5t8.5 3.5t8.5 -3.5t4 -10.5zM679 456q-4 -8 -11.5 -5t-5.5 11q3 10 12 7t5 -13zM332 456q-3 -8 -10.5 -5t-5.5 11q1 5 5 6.5t7.5 0.5t5 -4.5t-1.5 -8.5zM1216 367q-4 -8 -11.5 -4.5t-3.5 11.5q4 9 11.5 5t3.5 -12zM1237 421q-3 -9 -11 -5.5t-3 12.5q4 7 11 4
t3 -11z" />
    <glyph glyph-name="eight" unicode="8" horiz-adv-x="1272" 
d="M364 266h43q5 -60 8.5 -118t5.5 -117q3 45 5.5 89t7.5 89l6 57h40q5 -48 9 -96l8 -96l3 -43q3 47 4.5 93t5.5 91q2 13 2.5 25.5t1.5 25.5h31l-21 -283h-47q-5 56 -9.5 112t-6.5 113q-2 -42 -5 -84t-7 -84l-4 -57h-48l-12 159l-12 -159h-46l-10 112t-7 113
q-2 -42 -4.5 -84t-6.5 -84l-5 -57h-47l-12 162l-12 -162h-47q-5 56 -9.5 111.5t-6.5 112.5q-1 -43 -4 -84t-7 -83l-6 -57h-46l-22 283h31q5 -60 8.5 -118t5.5 -117q3 45 6 89t8 89l6 57h39q6 -48 10 -96t7 -96l3 -43q3 47 4.5 93t5.5 91l5 51h42q5 -60 8.5 -118t6.5 -117
q3 45 5.5 89t6.5 89q3 14 4 28t3 29h40q5 -48 9 -96l8 -96l2 -43q3 47 5 93t6 91zM1227 876h-1153v26h1153v-26zM1227 -197h-1153v25h1153v-25zM754 -17h-36v283h37h22t21 -5q18 -9 23 -31.5t5 -42.5v-22t-2.5 -25.5t-8 -22.5t-14.5 -14l31 -120h-40l-21 113h-17v-113z
M1001 46v-63h-33v283h32q13 -50 25.5 -98.5t22.5 -99.5q-4 50 -4.5 99t-0.5 99h33v-283h-34q-12 48 -25 96.5t-22 97.5q2 -33 3 -65.5t3 -65.5zM617 -17h-34l30 283h58l31 -283h-36l-7 67h-34zM1175 160q1 14 0 28.5t-5 26.5q-4 9 -11.5 14.5t-14.5 -5.5q-6 -10 -7 -24.5
t-2 -26.5q-1 -14 -1 -27v-26v-26.5t2 -26.5q0 -11 2 -25.5t11 -21.5q11 -7 16.5 2t8 23.5t3 29t0.5 19.5h-26v33h59v-142h-26l-1 38q-2 -12 -7.5 -25t-17.5 -17q-11 -4 -22 2t-18 15q-14 20 -16.5 49t-2.5 52q-2 29 -1 60t8 59q2 12 7.5 24t15.5 18q21 14 46 4
q12 -6 19 -17.5t10 -26t4 -29.5t1 -27zM227 409q5 9 12.5 16t16.5 9q8 3 16 -1t18 -1l-19 -39q-2 -4 -5.5 -12t0.5 -10q5 -5 11.5 2t11.5 15q2 6 5 11.5t6 11.5l8 21q9 0 15 5l-19 -44q-2 -4 -5 -11.5t1 -10.5q4 -5 10 1.5t10 14.5q4 11 9.5 22t10.5 22t9 21t9 21q7 -3 14 3
l-27 -64q-2 -6 -5 -12t-5 -11q-1 -3 -2.5 -7t-1.5 -7t1 -4.5t6 0.5t9.5 7.5t8.5 13.5q2 5 4 9l4 8q5 9 12 16t17 9q9 3 17 -1t17 -1q-5 -10 -9 -19t-9 -20q-2 -4 -5 -12t0 -10q3 -3 6.5 -1t7 6.5t6.5 9.5t5 8l1 2l33 77q8 0 13 3q-5 -14 -10 -27.5t-13 -25.5q7 8 16.5 13
t16.5 -7q7 -11 1 -27t-13 -24q6 -1 11.5 2t10.5 8q4 11 9 21.5t10 21.5l18 42q5 -2 14 3q-8 -16 -14 -32t-14 -32q-2 -6 -4.5 -12t-5.5 -11q-1 -3 -2 -7t-1 -7t1 -4.5t6 0.5t10.5 9t8.5 14q3 17 13 25q3 4 9.5 9t14 7.5t13.5 0.5t8 -12q1 -9 -3.5 -17t-12 -13.5t-16.5 -8.5
t-16 -3q-1 -7 3.5 -11t10.5 -4q13 0 24 8.5t18 20.5l4 -2q-8 -16 -23.5 -26t-31.5 -6q-17 3 -17 20q-4 -6 -8 -11t-9 -7q-7 -5 -15 -1.5t-6 14.5v2q-2 -2 -4 -2q-4 -4 -12 -4h-7q-2 0 -3 -2t-3 -2q-10 -8 -22 -6.5t-18 12.5q-8 -10 -17 -13t-13 3.5t0 14.5q-5 -8 -14 -15.5
t-18 -0.5q-7 4 -7 16q-7 -12 -14 -16q-8 -5 -15.5 -2t-6.5 12l-5.5 -5.5t-5.5 -4.5q-8 -5 -15.5 -2t-5.5 13q-5 -4 -9 -7.5t-9 -5.5q-9 -3 -12.5 3.5t0.5 14.5h-1q-5 -8 -13.5 -15.5t-18.5 -0.5q-5 2 -6 7.5t0 10.5q-4 -4 -10 -7q-4 -2 -13 -2q-5 0 -6 -1t-4 -3
q-11 -8 -24 -7t-9 20q2 14 8 26.5t11 23.5q6 0 14 5q-4 -9 -7 -17.5t-7 -16.5q-1 -3 -4 -8.5t-5 -11.5t-2 -10.5t4 -5.5q9 -2 17.5 9.5t11.5 17.5q5 9 8 20t3 22q9 2 10 -6t-1 -15q-4 -19 -18 -36q8 -3 15 3t11 14zM961 547q-11 0 -17.5 6t-10 15t-5 19.5t-1.5 20.5
q-2 22 -2 45.5t6 45.5q3 10 8.5 17.5t14.5 8.5q20 5 32 -15q9 -20 9 -43.5v-44.5q0 -11 -0.5 -24t-4 -24t-10.5 -19t-19 -8zM396 547q-11 0 -17.5 6t-10.5 15t-5 19.5t-2 20.5q-1 22 -1 45.5t6 45.5q3 10 8 17.5t16 8.5q21 5 31 -15q8 -20 8.5 -43.5t0.5 -44.5q0 -11 -1 -24
t-4.5 -24t-10 -19t-18.5 -8zM883 -17h-36v283h36v-283zM228 548h-21v176h23h15t13 -3q10 -6 13 -19t3 -24v-14.5t-1.5 -17t-4.5 -15t-9 -9.5l18 -74h-24l-13 70q-3 0 -6 0.5t-6 0.5v-71zM1025 587v-39h-21v176h20q8 -31 16 -61t14 -62q-2 30 -2.5 61t-0.5 62h21v-176h-22
q-8 29 -15.5 59.5t-13.5 61.5q2 -21 2.5 -41t1.5 -41zM89 548h-23v176h35q25 0 33 -30q4 -16 3 -37.5t-9 -37.5q-7 -11 -17.5 -12t-21.5 -1v-58zM460 587v-39h-21v176h20q8 -31 15.5 -61t13.5 -62q-2 30 -2.5 61t-0.5 62h21v-176h-22q-7 29 -14.5 59.5t-13.5 61.5
q2 -21 2 -41t2 -41zM533 548h-21l18 176h36l19 -176h-21l-5 43h-22zM714 547q-16 0 -23.5 10t-10 24t-2 30.5t0.5 29.5v83h23v-123q0 -5 -0.5 -11.5t1.5 -11.5q2 -6 7 -8.5t10 2.5t5.5 15t0.5 17q1 14 0.5 28t-0.5 28v64h22v-83q0 -13 0.5 -29.5t-1.5 -30.5t-9.5 -24
t-23.5 -10zM1110 433q7 -1 14 4q-3 -7 -5.5 -12.5t-7.5 -10.5v-2q7 8 15.5 16t17.5 9q12 0 11.5 -11t-3.5 -19q-2 -2 -4.5 -7t-5.5 -10t-4.5 -10t0.5 -8q2 -4 5.5 -2t7 6t7 9t5.5 8l20 44h-8l3 7h8l8 19q6 0 14 4l-10 -23h15l-4 -7h-14l-18 -43q-2 -5 -5 -11.5t-1 -11.5
q3 -3 7 -0.5t8.5 8t7.5 10.5t4 7l4 -2q-5 -9 -12 -19.5t-18 -12.5q-10 -3 -13 1.5t-1 11.5l-6 -6t-6 -5q-7 -5 -14.5 -2.5t-6.5 13.5q1 10 6.5 18.5t8.5 16.5q1 4 3.5 11.5t-4.5 6.5q-11 -2 -20.5 -16t-14.5 -24q-4 -6 -6.5 -13t-5.5 -15h-12l7 19l-1 -1q-3 -3 -10 -5h-9
q-5 -7 -11 -9t-9 -2q-9 -6 -18 3q-8 8 -6.5 20.5t5.5 23.5q5 11 14 19.5t22 8.5q10 0 14.5 -7t4.5 -16.5t-3.5 -19.5t-7.5 -16q13 0 20 13zM309 630q-11 8 -18 19t-9 26q-2 13 2 26t16 20q9 5 22 4.5t21 -10.5q9 -10 9 -22.5v-24.5q-6 0 -12 0.5t-11 0.5q0 7 0.5 15t-4.5 13
q-9 10 -14.5 2t-6.5 -18q0 -14 7.5 -21.5t15.5 -14.5t14.5 -15.5t8.5 -19.5q2 -12 0.5 -24t-7 -21.5t-14.5 -14.5t-21 -3q-21 4 -23.5 22t-1.5 37h21q0 -5 -0.5 -11t0.5 -13q2 -7 7.5 -11t11.5 1q5 5 6 14.5t-1 16.5q-2 9 -7 15.5t-12 11.5zM785 630q-23 15 -27 45
q-1 13 2.5 26t14.5 20q10 5 22.5 4.5t20.5 -10.5q9 -10 8.5 -22.5t-0.5 -24.5q-5 0 -10 0.5t-10 0.5q0 7 0.5 15t-5.5 13q-9 10 -14.5 2t-6.5 -18q0 -14 7 -21.5t15 -14.5q18 -13 24 -35q2 -12 0.5 -24t-7 -21.5t-14.5 -14.5t-22 -3q-10 2 -15 8t-7.5 14t-2.5 18v19h22
q0 -5 -1 -11t1 -13t7 -11t11 1q7 5 8 14.5t-1 16.5q-2 9 -7.5 15.5t-12.5 11.5zM201 548h-56v176h56v-24h-34v-49h28v-26h-28v-53h34v-24zM891 548h-55v176h55v-24h-32v-49h27v-26h-27v-53h32v-24zM129 400l-42 -3q-5 -8 -9.5 -19t-5.5 -22q-8 -2 -9.5 3t0 13t4.5 15.5
t5 9.5l-14 -1l-5 10h23q11 20 27 39.5t36 30.5q6 5 16 5.5t12 -11.5q2 -6 -0.5 -12.5t-4.5 -11.5q-5 -11 -9.5 -22t-9.5 -22q-3 -8 -9.5 -20.5t-2.5 -21.5q-9 -2 -11 3t-0.5 12t4.5 14.5t5 10.5zM1185 724h21q-5 -25 -10 -49.5t-10 -49.5q-5 -18 -3.5 -38t1.5 -39h-24
q0 19 0.5 39t-3.5 38q-5 25 -10 49.5t-10 49.5h21q4 -22 8 -44.5t6 -46.5q1 24 5 46t8 45zM815 363q-7 5 -5.5 13t4.5 16l17 40q7 0 14 5l-13 -31q-2 -5 -8 -17t-2 -17q6 -6 14.5 2.5t11.5 13.5t5 9.5t6 9.5l12 27q3 0 6 1l6 2q-4 -11 -8.5 -21.5t-9.5 -21.5q-2 -5 -5 -11.5
t0 -11.5q4 -6 10 1t11 15q4 11 9.5 22t10.5 22q4 11 8.5 21t9.5 21q6 -3 14 3l-28 -64l-10 -23q-1 -3 -2 -7t-1.5 -7t1 -4.5t5.5 0.5q9 3 16 15q4 11 9.5 22.5t10.5 22.5q4 11 8 21t9 21q7 -3 15 3l-28 -64l-10 -23q-1 -3 -2 -7t-1.5 -7t0.5 -4.5t6 0.5q7 2 12 10t8 15l4 -2
q-5 -9 -10 -17t-13 -13q-7 -5 -14 -2t-6 12q-7 -7 -13 -10q-7 -5 -14 -2t-6 13q-5 -6 -9.5 -10.5t-10.5 -4.5q-10 0 -11 7t2 14q-6 -8 -16.5 -16t-18.5 -2zM1135 548h-55v176h22v-154h33v-22zM645 548h-55v176h23v-154h32v-22zM754 125q6 0 12.5 -1t11.5 4q9 9 11 23.5
t2 25.5q0 13 -2 28t-10 24q-5 5 -12 4.5t-13 -0.5v-108zM687 433q6 -1 15 4q-4 -7 -6.5 -12.5t-6.5 -10.5v-2q6 8 15 16t18 9q12 0 11.5 -11t-4.5 -19q-1 -2 -4 -7t-5.5 -10t-4.5 -10t0 -8q2 -5 6.5 -2t8.5 8t7.5 10.5t4.5 7.5l4 -2q-5 -8 -10 -16.5t-13 -13.5
q-7 -5 -14 -2.5t-6 13.5q1 10 6.5 18.5t8.5 16.5q1 4 3 11.5t-5 6.5q-11 -2 -20 -16t-14 -24l-12 -28h-12l4 11l-4 -4t-4 -3q-8 -5 -15.5 -1.5t-5.5 14.5q0 9 4.5 17.5t7.5 16.5q7 9 10 21q10 0 15 5l-19 -44q-2 -4 -5.5 -11.5t-0.5 -10.5t7.5 0t8.5 8t7 10t4 7zM961 704
q-7 0 -10 -9t-4 -20.5t-0.5 -23t0.5 -15.5q0 -5 -0.5 -16t0.5 -22t4 -20t10 -9q6 0 9 9t4 20t0.5 22t-0.5 16q0 4 0.5 15.5t-0.5 23t-4 20.5t-9 9zM396 704q-7 0 -10 -9t-4 -20.5t-0.5 -23t0.5 -15.5q0 -5 -0.5 -16t0.5 -22t4 -20t10 -9q6 0 8.5 9t3.5 20t0.5 22t-0.5 16
q0 4 0.5 15.5t-0.5 23t-3.5 20.5t-8.5 9zM1212 724h23q0 -32 -1 -65t-3 -66h-15q-2 33 -3 65.5t-1 65.5zM154 475q-8 2 -19 -8t-16 -16q-16 -20 -29 -45h43l13 31q1 3 4 9t5 12t2.5 11t-3.5 6zM1058 460q-5 -4 -6.5 0t-0.5 9q-5 2 -9 0t-7 -6.5t-5 -9.5t-3 -9h14l-3 -7h-14
l-45 -104q-7 0 -14 -3l47 107h-16l3 7h16q3 9 8 18.5t15 11.5q6 2 15 -1q2 -2 6 -5.5t-1 -7.5zM850 460q-5 -4 -7 0t-1 9q-5 2 -9 0t-7 -6.5t-5 -9.5t-3 -9h14l-3 -7h-14l-45 -104q-7 0 -13 -3l45 107h-15l4 7h15q3 9 8 18.5t15 11.5q6 2 15 -1l5.5 -5.5t0.5 -7.5zM633 136
q-2 -11 -3 -23t-3 -23h30q-3 34 -8.5 67.5t-7.5 68.5q-1 -23 -3.5 -45t-4.5 -45zM89 626q5 0 9.5 -0.5t7.5 4.5q5 6 5.5 16.5t0.5 18.5t-0.5 18t-5.5 16q-3 5 -7.5 5h-9.5v-78zM1065 431q-8 0 -15.5 -10t-11.5 -22.5t-4 -22.5t8 -10q6 0 13 10.5t11.5 22.5t5 22t-6.5 10z
M945 7q0 -12 -6.5 -17.5t-14 -5.5t-13.5 5.5t-6 17.5t6 17.5t13.5 5.5t14 -5.5t6.5 -17.5zM572 7q0 -12 -6.5 -17.5t-14 -5.5t-13.5 5.5t-6 17.5t6 17.5t13.5 5.5t14 -5.5t6.5 -17.5zM470 428q-7 0 -12.5 -6t-10 -15t-8.5 -18.5t-7 -15.5q6 -5 11.5 -4.5t10.5 4.5t9 9t6 10
q1 3 4 9t4 12t0 10.5t-7 4.5zM235 369q7 0 13 6.5t10.5 16t8 19.5t6.5 17q-10 6 -20 -3.5t-15 -18.5l-4 -8t-4.5 -12.5t-1 -11.5t6.5 -5zM228 637q5 0 9 -0.5t7 1.5q6 5 7 14.5t1 17.5t-1 17.5t-7 14.5q-3 2 -7 2h-9v-67zM372 369q7 0 13.5 6.5t11 16t8 19.5t6.5 17
q-11 6 -21 -3.5t-15 -18.5l-4 -8t-4.5 -12.5t-1 -11.5t6.5 -5zM549 403q-6 -10 -7 -16q11 0 25 11t14 25q0 8 -5.5 7.5t-10.5 -4.5t-9 -10.5t-7 -12.5zM542 643l-3 -28h18q-2 21 -4.5 41.5t-3.5 41.5q-1 -13 -3 -27zM1236 563q0 -8 -4 -11.5t-8.5 -3.5t-8.5 3.5t-4 11.5
q0 7 4 10.5t8.5 3.5t8.5 -3.5t4 -10.5zM679 456q-4 -8 -11.5 -5t-5.5 11q3 10 12 7t5 -13zM332 456q-3 -8 -10.5 -5t-5.5 11q1 5 5 6.5t7.5 0.5t5 -4.5t-1.5 -8.5zM1216 367q-4 -8 -11.5 -4.5t-3.5 11.5q4 9 11.5 5t3.5 -12zM1237 421q-3 -9 -11 -5.5t-3 12.5q4 7 11 4
t3 -11z" />
    <glyph glyph-name="three" unicode="3" horiz-adv-x="1272" 
d="M364 266h43q5 -60 8.5 -118t5.5 -117q3 45 5.5 89t7.5 89l6 57h40q5 -48 9 -96l8 -96l3 -43q3 47 4.5 93t5.5 91q2 13 2.5 25.5t1.5 25.5h31l-21 -283h-47q-5 56 -9.5 112t-6.5 113q-2 -42 -5 -84t-7 -84l-4 -57h-48l-12 159l-12 -159h-46l-10 112t-7 113
q-2 -42 -4.5 -84t-6.5 -84l-5 -57h-47l-12 162l-12 -162h-47q-5 56 -9.5 111.5t-6.5 112.5q-1 -43 -4 -84t-7 -83l-6 -57h-46l-22 283h31q5 -60 8.5 -118t5.5 -117q3 45 6 89t8 89l6 57h39q6 -48 10 -96t7 -96l3 -43q3 47 4.5 93t5.5 91l5 51h42q5 -60 8.5 -118t6.5 -117
q3 45 5.5 89t6.5 89q3 14 4 28t3 29h40q5 -48 9 -96l8 -96l2 -43q3 47 5 93t6 91zM1227 876h-1153v26h1153v-26zM1227 -197h-1153v25h1153v-25zM754 -17h-36v283h37h22t21 -5q18 -9 23 -31.5t5 -42.5v-22t-2.5 -25.5t-8 -22.5t-14.5 -14l31 -120h-40l-21 113h-17v-113z
M1001 46v-63h-33v283h32q13 -50 25.5 -98.5t22.5 -99.5q-4 50 -4.5 99t-0.5 99h33v-283h-34q-12 48 -25 96.5t-22 97.5q2 -33 3 -65.5t3 -65.5zM617 -17h-34l30 283h58l31 -283h-36l-7 67h-34zM1175 160q1 14 0 28.5t-5 26.5q-4 9 -11.5 14.5t-14.5 -5.5q-6 -10 -7 -24.5
t-2 -26.5q-1 -14 -1 -27v-26v-26.5t2 -26.5q0 -11 2 -25.5t11 -21.5q11 -7 16.5 2t8 23.5t3 29t0.5 19.5h-26v33h59v-142h-26l-1 38q-2 -12 -7.5 -25t-17.5 -17q-11 -4 -22 2t-18 15q-14 20 -16.5 49t-2.5 52q-2 29 -1 60t8 59q2 12 7.5 24t15.5 18q21 14 46 4
q12 -6 19 -17.5t10 -26t4 -29.5t1 -27zM227 409q5 9 12.5 16t16.5 9q8 3 16 -1t18 -1l-19 -39q-2 -4 -5.5 -12t0.5 -10q5 -5 11.5 2t11.5 15q2 6 5 11.5t6 11.5l8 21q9 0 15 5l-19 -44q-2 -4 -5 -11.5t1 -10.5q4 -5 10 1.5t10 14.5q4 11 9.5 22t10.5 22t9 21t9 21q7 -3 14 3
l-27 -64q-2 -6 -5 -12t-5 -11q-1 -3 -2.5 -7t-1.5 -7t1 -4.5t6 0.5t9.5 7.5t8.5 13.5q2 5 4 9l4 8q5 9 12 16t17 9q9 3 17 -1t17 -1q-5 -10 -9 -19t-9 -20q-2 -4 -5 -12t0 -10q3 -3 6.5 -1t7 6.5t6.5 9.5t5 8l1 2l33 77q8 0 13 3q-5 -14 -10 -27.5t-13 -25.5q7 8 16.5 13
t16.5 -7q7 -11 1 -27t-13 -24q6 -1 11.5 2t10.5 8q4 11 9 21.5t10 21.5l18 42q5 -2 14 3q-8 -16 -14 -32t-14 -32q-2 -6 -4.5 -12t-5.5 -11q-1 -3 -2 -7t-1 -7t1 -4.5t6 0.5t10.5 9t8.5 14q3 17 13 25q3 4 9.5 9t14 7.5t13.5 0.5t8 -12q1 -9 -3.5 -17t-12 -13.5t-16.5 -8.5
t-16 -3q-1 -7 3.5 -11t10.5 -4q13 0 24 8.5t18 20.5l4 -2q-8 -16 -23.5 -26t-31.5 -6q-17 3 -17 20q-4 -6 -8 -11t-9 -7q-7 -5 -15 -1.5t-6 14.5v2q-2 -2 -4 -2q-4 -4 -12 -4h-7q-2 0 -3 -2t-3 -2q-10 -8 -22 -6.5t-18 12.5q-8 -10 -17 -13t-13 3.5t0 14.5q-5 -8 -14 -15.5
t-18 -0.5q-7 4 -7 16q-7 -12 -14 -16q-8 -5 -15.5 -2t-6.5 12l-5.5 -5.5t-5.5 -4.5q-8 -5 -15.5 -2t-5.5 13q-5 -4 -9 -7.5t-9 -5.5q-9 -3 -12.5 3.5t0.5 14.5h-1q-5 -8 -13.5 -15.5t-18.5 -0.5q-5 2 -6 7.5t0 10.5q-4 -4 -10 -7q-4 -2 -13 -2q-5 0 -6 -1t-4 -3
q-11 -8 -24 -7t-9 20q2 14 8 26.5t11 23.5q6 0 14 5q-4 -9 -7 -17.5t-7 -16.5q-1 -3 -4 -8.5t-5 -11.5t-2 -10.5t4 -5.5q9 -2 17.5 9.5t11.5 17.5q5 9 8 20t3 22q9 2 10 -6t-1 -15q-4 -19 -18 -36q8 -3 15 3t11 14zM961 547q-11 0 -17.5 6t-10 15t-5 19.5t-1.5 20.5
q-2 22 -2 45.5t6 45.5q3 10 8.5 17.5t14.5 8.5q20 5 32 -15q9 -20 9 -43.5v-44.5q0 -11 -0.5 -24t-4 -24t-10.5 -19t-19 -8zM396 547q-11 0 -17.5 6t-10.5 15t-5 19.5t-2 20.5q-1 22 -1 45.5t6 45.5q3 10 8 17.5t16 8.5q21 5 31 -15q8 -20 8.5 -43.5t0.5 -44.5q0 -11 -1 -24
t-4.5 -24t-10 -19t-18.5 -8zM883 -17h-36v283h36v-283zM228 548h-21v176h23h15t13 -3q10 -6 13 -19t3 -24v-14.5t-1.5 -17t-4.5 -15t-9 -9.5l18 -74h-24l-13 70q-3 0 -6 0.5t-6 0.5v-71zM1025 587v-39h-21v176h20q8 -31 16 -61t14 -62q-2 30 -2.5 61t-0.5 62h21v-176h-22
q-8 29 -15.5 59.5t-13.5 61.5q2 -21 2.5 -41t1.5 -41zM89 548h-23v176h35q25 0 33 -30q4 -16 3 -37.5t-9 -37.5q-7 -11 -17.5 -12t-21.5 -1v-58zM460 587v-39h-21v176h20q8 -31 15.5 -61t13.5 -62q-2 30 -2.5 61t-0.5 62h21v-176h-22q-7 29 -14.5 59.5t-13.5 61.5
q2 -21 2 -41t2 -41zM533 548h-21l18 176h36l19 -176h-21l-5 43h-22zM714 547q-16 0 -23.5 10t-10 24t-2 30.5t0.5 29.5v83h23v-123q0 -5 -0.5 -11.5t1.5 -11.5q2 -6 7 -8.5t10 2.5t5.5 15t0.5 17q1 14 0.5 28t-0.5 28v64h22v-83q0 -13 0.5 -29.5t-1.5 -30.5t-9.5 -24
t-23.5 -10zM1110 433q7 -1 14 4q-3 -7 -5.5 -12.5t-7.5 -10.5v-2q7 8 15.5 16t17.5 9q12 0 11.5 -11t-3.5 -19q-2 -2 -4.5 -7t-5.5 -10t-4.5 -10t0.5 -8q2 -4 5.5 -2t7 6t7 9t5.5 8l20 44h-8l3 7h8l8 19q6 0 14 4l-10 -23h15l-4 -7h-14l-18 -43q-2 -5 -5 -11.5t-1 -11.5
q3 -3 7 -0.5t8.5 8t7.5 10.5t4 7l4 -2q-5 -9 -12 -19.5t-18 -12.5q-10 -3 -13 1.5t-1 11.5l-6 -6t-6 -5q-7 -5 -14.5 -2.5t-6.5 13.5q1 10 6.5 18.5t8.5 16.5q1 4 3.5 11.5t-4.5 6.5q-11 -2 -20.5 -16t-14.5 -24q-4 -6 -6.5 -13t-5.5 -15h-12l7 19l-1 -1q-3 -3 -10 -5h-9
q-5 -7 -11 -9t-9 -2q-9 -6 -18 3q-8 8 -6.5 20.5t5.5 23.5q5 11 14 19.5t22 8.5q10 0 14.5 -7t4.5 -16.5t-3.5 -19.5t-7.5 -16q13 0 20 13zM309 630q-11 8 -18 19t-9 26q-2 13 2 26t16 20q9 5 22 4.5t21 -10.5q9 -10 9 -22.5v-24.5q-6 0 -12 0.5t-11 0.5q0 7 0.5 15t-4.5 13
q-9 10 -14.5 2t-6.5 -18q0 -14 7.5 -21.5t15.5 -14.5t14.5 -15.5t8.5 -19.5q2 -12 0.5 -24t-7 -21.5t-14.5 -14.5t-21 -3q-21 4 -23.5 22t-1.5 37h21q0 -5 -0.5 -11t0.5 -13q2 -7 7.5 -11t11.5 1q5 5 6 14.5t-1 16.5q-2 9 -7 15.5t-12 11.5zM785 630q-23 15 -27 45
q-1 13 2.5 26t14.5 20q10 5 22.5 4.5t20.5 -10.5q9 -10 8.5 -22.5t-0.5 -24.5q-5 0 -10 0.5t-10 0.5q0 7 0.5 15t-5.5 13q-9 10 -14.5 2t-6.5 -18q0 -14 7 -21.5t15 -14.5q18 -13 24 -35q2 -12 0.5 -24t-7 -21.5t-14.5 -14.5t-22 -3q-10 2 -15 8t-7.5 14t-2.5 18v19h22
q0 -5 -1 -11t1 -13t7 -11t11 1q7 5 8 14.5t-1 16.5q-2 9 -7.5 15.5t-12.5 11.5zM201 548h-56v176h56v-24h-34v-49h28v-26h-28v-53h34v-24zM891 548h-55v176h55v-24h-32v-49h27v-26h-27v-53h32v-24zM129 400l-42 -3q-5 -8 -9.5 -19t-5.5 -22q-8 -2 -9.5 3t0 13t4.5 15.5
t5 9.5l-14 -1l-5 10h23q11 20 27 39.5t36 30.5q6 5 16 5.5t12 -11.5q2 -6 -0.5 -12.5t-4.5 -11.5q-5 -11 -9.5 -22t-9.5 -22q-3 -8 -9.5 -20.5t-2.5 -21.5q-9 -2 -11 3t-0.5 12t4.5 14.5t5 10.5zM1185 724h21q-5 -25 -10 -49.5t-10 -49.5q-5 -18 -3.5 -38t1.5 -39h-24
q0 19 0.5 39t-3.5 38q-5 25 -10 49.5t-10 49.5h21q4 -22 8 -44.5t6 -46.5q1 24 5 46t8 45zM815 363q-7 5 -5.5 13t4.5 16l17 40q7 0 14 5l-13 -31q-2 -5 -8 -17t-2 -17q6 -6 14.5 2.5t11.5 13.5t5 9.5t6 9.5l12 27q3 0 6 1l6 2q-4 -11 -8.5 -21.5t-9.5 -21.5q-2 -5 -5 -11.5
t0 -11.5q4 -6 10 1t11 15q4 11 9.5 22t10.5 22q4 11 8.5 21t9.5 21q6 -3 14 3l-28 -64l-10 -23q-1 -3 -2 -7t-1.5 -7t1 -4.5t5.5 0.5q9 3 16 15q4 11 9.5 22.5t10.5 22.5q4 11 8 21t9 21q7 -3 15 3l-28 -64l-10 -23q-1 -3 -2 -7t-1.5 -7t0.5 -4.5t6 0.5q7 2 12 10t8 15l4 -2
q-5 -9 -10 -17t-13 -13q-7 -5 -14 -2t-6 12q-7 -7 -13 -10q-7 -5 -14 -2t-6 13q-5 -6 -9.5 -10.5t-10.5 -4.5q-10 0 -11 7t2 14q-6 -8 -16.5 -16t-18.5 -2zM1135 548h-55v176h22v-154h33v-22zM645 548h-55v176h23v-154h32v-22zM754 125q6 0 12.5 -1t11.5 4q9 9 11 23.5
t2 25.5q0 13 -2 28t-10 24q-5 5 -12 4.5t-13 -0.5v-108zM687 433q6 -1 15 4q-4 -7 -6.5 -12.5t-6.5 -10.5v-2q6 8 15 16t18 9q12 0 11.5 -11t-4.5 -19q-1 -2 -4 -7t-5.5 -10t-4.5 -10t0 -8q2 -5 6.5 -2t8.5 8t7.5 10.5t4.5 7.5l4 -2q-5 -8 -10 -16.5t-13 -13.5
q-7 -5 -14 -2.5t-6 13.5q1 10 6.5 18.5t8.5 16.5q1 4 3 11.5t-5 6.5q-11 -2 -20 -16t-14 -24l-12 -28h-12l4 11l-4 -4t-4 -3q-8 -5 -15.5 -1.5t-5.5 14.5q0 9 4.5 17.5t7.5 16.5q7 9 10 21q10 0 15 5l-19 -44q-2 -4 -5.5 -11.5t-0.5 -10.5t7.5 0t8.5 8t7 10t4 7zM961 704
q-7 0 -10 -9t-4 -20.5t-0.5 -23t0.5 -15.5q0 -5 -0.5 -16t0.5 -22t4 -20t10 -9q6 0 9 9t4 20t0.5 22t-0.5 16q0 4 0.5 15.5t-0.5 23t-4 20.5t-9 9zM396 704q-7 0 -10 -9t-4 -20.5t-0.5 -23t0.5 -15.5q0 -5 -0.5 -16t0.5 -22t4 -20t10 -9q6 0 8.5 9t3.5 20t0.5 22t-0.5 16
q0 4 0.5 15.5t-0.5 23t-3.5 20.5t-8.5 9zM1212 724h23q0 -32 -1 -65t-3 -66h-15q-2 33 -3 65.5t-1 65.5zM154 475q-8 2 -19 -8t-16 -16q-16 -20 -29 -45h43l13 31q1 3 4 9t5 12t2.5 11t-3.5 6zM1058 460q-5 -4 -6.5 0t-0.5 9q-5 2 -9 0t-7 -6.5t-5 -9.5t-3 -9h14l-3 -7h-14
l-45 -104q-7 0 -14 -3l47 107h-16l3 7h16q3 9 8 18.5t15 11.5q6 2 15 -1q2 -2 6 -5.5t-1 -7.5zM850 460q-5 -4 -7 0t-1 9q-5 2 -9 0t-7 -6.5t-5 -9.5t-3 -9h14l-3 -7h-14l-45 -104q-7 0 -13 -3l45 107h-15l4 7h15q3 9 8 18.5t15 11.5q6 2 15 -1l5.5 -5.5t0.5 -7.5zM633 136
q-2 -11 -3 -23t-3 -23h30q-3 34 -8.5 67.5t-7.5 68.5q-1 -23 -3.5 -45t-4.5 -45zM89 626q5 0 9.5 -0.5t7.5 4.5q5 6 5.5 16.5t0.5 18.5t-0.5 18t-5.5 16q-3 5 -7.5 5h-9.5v-78zM1065 431q-8 0 -15.5 -10t-11.5 -22.5t-4 -22.5t8 -10q6 0 13 10.5t11.5 22.5t5 22t-6.5 10z
M945 7q0 -12 -6.5 -17.5t-14 -5.5t-13.5 5.5t-6 17.5t6 17.5t13.5 5.5t14 -5.5t6.5 -17.5zM572 7q0 -12 -6.5 -17.5t-14 -5.5t-13.5 5.5t-6 17.5t6 17.5t13.5 5.5t14 -5.5t6.5 -17.5zM470 428q-7 0 -12.5 -6t-10 -15t-8.5 -18.5t-7 -15.5q6 -5 11.5 -4.5t10.5 4.5t9 9t6 10
q1 3 4 9t4 12t0 10.5t-7 4.5zM235 369q7 0 13 6.5t10.5 16t8 19.5t6.5 17q-10 6 -20 -3.5t-15 -18.5l-4 -8t-4.5 -12.5t-1 -11.5t6.5 -5zM228 637q5 0 9 -0.5t7 1.5q6 5 7 14.5t1 17.5t-1 17.5t-7 14.5q-3 2 -7 2h-9v-67zM372 369q7 0 13.5 6.5t11 16t8 19.5t6.5 17
q-11 6 -21 -3.5t-15 -18.5l-4 -8t-4.5 -12.5t-1 -11.5t6.5 -5zM549 403q-6 -10 -7 -16q11 0 25 11t14 25q0 8 -5.5 7.5t-10.5 -4.5t-9 -10.5t-7 -12.5zM542 643l-3 -28h18q-2 21 -4.5 41.5t-3.5 41.5q-1 -13 -3 -27zM1236 563q0 -8 -4 -11.5t-8.5 -3.5t-8.5 3.5t-4 11.5
q0 7 4 10.5t8.5 3.5t8.5 -3.5t4 -10.5zM679 456q-4 -8 -11.5 -5t-5.5 11q3 10 12 7t5 -13zM332 456q-3 -8 -10.5 -5t-5.5 11q1 5 5 6.5t7.5 0.5t5 -4.5t-1.5 -8.5zM1216 367q-4 -8 -11.5 -4.5t-3.5 11.5q4 9 11.5 5t3.5 -12zM1237 421q-3 -9 -11 -5.5t-3 12.5q4 7 11 4
t3 -11z" />
    <glyph glyph-name="four" unicode="4" horiz-adv-x="1272" 
d="M364 266h43q5 -60 8.5 -118t5.5 -117q3 45 5.5 89t7.5 89l6 57h40q5 -48 9 -96l8 -96l3 -43q3 47 4.5 93t5.5 91q2 13 2.5 25.5t1.5 25.5h31l-21 -283h-47q-5 56 -9.5 112t-6.5 113q-2 -42 -5 -84t-7 -84l-4 -57h-48l-12 159l-12 -159h-46l-10 112t-7 113
q-2 -42 -4.5 -84t-6.5 -84l-5 -57h-47l-12 162l-12 -162h-47q-5 56 -9.5 111.5t-6.5 112.5q-1 -43 -4 -84t-7 -83l-6 -57h-46l-22 283h31q5 -60 8.5 -118t5.5 -117q3 45 6 89t8 89l6 57h39q6 -48 10 -96t7 -96l3 -43q3 47 4.5 93t5.5 91l5 51h42q5 -60 8.5 -118t6.5 -117
q3 45 5.5 89t6.5 89q3 14 4 28t3 29h40q5 -48 9 -96l8 -96l2 -43q3 47 5 93t6 91zM1227 876h-1153v26h1153v-26zM1227 -197h-1153v25h1153v-25zM754 -17h-36v283h37h22t21 -5q18 -9 23 -31.5t5 -42.5v-22t-2.5 -25.5t-8 -22.5t-14.5 -14l31 -120h-40l-21 113h-17v-113z
M1001 46v-63h-33v283h32q13 -50 25.5 -98.5t22.5 -99.5q-4 50 -4.5 99t-0.5 99h33v-283h-34q-12 48 -25 96.5t-22 97.5q2 -33 3 -65.5t3 -65.5zM617 -17h-34l30 283h58l31 -283h-36l-7 67h-34zM1175 160q1 14 0 28.5t-5 26.5q-4 9 -11.5 14.5t-14.5 -5.5q-6 -10 -7 -24.5
t-2 -26.5q-1 -14 -1 -27v-26v-26.5t2 -26.5q0 -11 2 -25.5t11 -21.5q11 -7 16.5 2t8 23.5t3 29t0.5 19.5h-26v33h59v-142h-26l-1 38q-2 -12 -7.5 -25t-17.5 -17q-11 -4 -22 2t-18 15q-14 20 -16.5 49t-2.5 52q-2 29 -1 60t8 59q2 12 7.5 24t15.5 18q21 14 46 4
q12 -6 19 -17.5t10 -26t4 -29.5t1 -27zM227 409q5 9 12.5 16t16.5 9q8 3 16 -1t18 -1l-19 -39q-2 -4 -5.5 -12t0.5 -10q5 -5 11.5 2t11.5 15q2 6 5 11.5t6 11.5l8 21q9 0 15 5l-19 -44q-2 -4 -5 -11.5t1 -10.5q4 -5 10 1.5t10 14.5q4 11 9.5 22t10.5 22t9 21t9 21q7 -3 14 3
l-27 -64q-2 -6 -5 -12t-5 -11q-1 -3 -2.5 -7t-1.5 -7t1 -4.5t6 0.5t9.5 7.5t8.5 13.5q2 5 4 9l4 8q5 9 12 16t17 9q9 3 17 -1t17 -1q-5 -10 -9 -19t-9 -20q-2 -4 -5 -12t0 -10q3 -3 6.5 -1t7 6.5t6.5 9.5t5 8l1 2l33 77q8 0 13 3q-5 -14 -10 -27.5t-13 -25.5q7 8 16.5 13
t16.5 -7q7 -11 1 -27t-13 -24q6 -1 11.5 2t10.5 8q4 11 9 21.5t10 21.5l18 42q5 -2 14 3q-8 -16 -14 -32t-14 -32q-2 -6 -4.5 -12t-5.5 -11q-1 -3 -2 -7t-1 -7t1 -4.5t6 0.5t10.5 9t8.5 14q3 17 13 25q3 4 9.5 9t14 7.5t13.5 0.5t8 -12q1 -9 -3.5 -17t-12 -13.5t-16.5 -8.5
t-16 -3q-1 -7 3.5 -11t10.5 -4q13 0 24 8.5t18 20.5l4 -2q-8 -16 -23.5 -26t-31.5 -6q-17 3 -17 20q-4 -6 -8 -11t-9 -7q-7 -5 -15 -1.5t-6 14.5v2q-2 -2 -4 -2q-4 -4 -12 -4h-7q-2 0 -3 -2t-3 -2q-10 -8 -22 -6.5t-18 12.5q-8 -10 -17 -13t-13 3.5t0 14.5q-5 -8 -14 -15.5
t-18 -0.5q-7 4 -7 16q-7 -12 -14 -16q-8 -5 -15.5 -2t-6.5 12l-5.5 -5.5t-5.5 -4.5q-8 -5 -15.5 -2t-5.5 13q-5 -4 -9 -7.5t-9 -5.5q-9 -3 -12.5 3.5t0.5 14.5h-1q-5 -8 -13.5 -15.5t-18.5 -0.5q-5 2 -6 7.5t0 10.5q-4 -4 -10 -7q-4 -2 -13 -2q-5 0 -6 -1t-4 -3
q-11 -8 -24 -7t-9 20q2 14 8 26.5t11 23.5q6 0 14 5q-4 -9 -7 -17.5t-7 -16.5q-1 -3 -4 -8.5t-5 -11.5t-2 -10.5t4 -5.5q9 -2 17.5 9.5t11.5 17.5q5 9 8 20t3 22q9 2 10 -6t-1 -15q-4 -19 -18 -36q8 -3 15 3t11 14zM961 547q-11 0 -17.5 6t-10 15t-5 19.5t-1.5 20.5
q-2 22 -2 45.5t6 45.5q3 10 8.5 17.5t14.5 8.5q20 5 32 -15q9 -20 9 -43.5v-44.5q0 -11 -0.5 -24t-4 -24t-10.5 -19t-19 -8zM396 547q-11 0 -17.5 6t-10.5 15t-5 19.5t-2 20.5q-1 22 -1 45.5t6 45.5q3 10 8 17.5t16 8.5q21 5 31 -15q8 -20 8.5 -43.5t0.5 -44.5q0 -11 -1 -24
t-4.5 -24t-10 -19t-18.5 -8zM883 -17h-36v283h36v-283zM228 548h-21v176h23h15t13 -3q10 -6 13 -19t3 -24v-14.5t-1.5 -17t-4.5 -15t-9 -9.5l18 -74h-24l-13 70q-3 0 -6 0.5t-6 0.5v-71zM1025 587v-39h-21v176h20q8 -31 16 -61t14 -62q-2 30 -2.5 61t-0.5 62h21v-176h-22
q-8 29 -15.5 59.5t-13.5 61.5q2 -21 2.5 -41t1.5 -41zM89 548h-23v176h35q25 0 33 -30q4 -16 3 -37.5t-9 -37.5q-7 -11 -17.5 -12t-21.5 -1v-58zM460 587v-39h-21v176h20q8 -31 15.5 -61t13.5 -62q-2 30 -2.5 61t-0.5 62h21v-176h-22q-7 29 -14.5 59.5t-13.5 61.5
q2 -21 2 -41t2 -41zM533 548h-21l18 176h36l19 -176h-21l-5 43h-22zM714 547q-16 0 -23.5 10t-10 24t-2 30.5t0.5 29.5v83h23v-123q0 -5 -0.5 -11.5t1.5 -11.5q2 -6 7 -8.5t10 2.5t5.5 15t0.5 17q1 14 0.5 28t-0.5 28v64h22v-83q0 -13 0.5 -29.5t-1.5 -30.5t-9.5 -24
t-23.5 -10zM1110 433q7 -1 14 4q-3 -7 -5.5 -12.5t-7.5 -10.5v-2q7 8 15.5 16t17.5 9q12 0 11.5 -11t-3.5 -19q-2 -2 -4.5 -7t-5.5 -10t-4.5 -10t0.5 -8q2 -4 5.5 -2t7 6t7 9t5.5 8l20 44h-8l3 7h8l8 19q6 0 14 4l-10 -23h15l-4 -7h-14l-18 -43q-2 -5 -5 -11.5t-1 -11.5
q3 -3 7 -0.5t8.5 8t7.5 10.5t4 7l4 -2q-5 -9 -12 -19.5t-18 -12.5q-10 -3 -13 1.5t-1 11.5l-6 -6t-6 -5q-7 -5 -14.5 -2.5t-6.5 13.5q1 10 6.5 18.5t8.5 16.5q1 4 3.5 11.5t-4.5 6.5q-11 -2 -20.5 -16t-14.5 -24q-4 -6 -6.5 -13t-5.5 -15h-12l7 19l-1 -1q-3 -3 -10 -5h-9
q-5 -7 -11 -9t-9 -2q-9 -6 -18 3q-8 8 -6.5 20.5t5.5 23.5q5 11 14 19.5t22 8.5q10 0 14.5 -7t4.5 -16.5t-3.5 -19.5t-7.5 -16q13 0 20 13zM309 630q-11 8 -18 19t-9 26q-2 13 2 26t16 20q9 5 22 4.5t21 -10.5q9 -10 9 -22.5v-24.5q-6 0 -12 0.5t-11 0.5q0 7 0.5 15t-4.5 13
q-9 10 -14.5 2t-6.5 -18q0 -14 7.5 -21.5t15.5 -14.5t14.5 -15.5t8.5 -19.5q2 -12 0.5 -24t-7 -21.5t-14.5 -14.5t-21 -3q-21 4 -23.5 22t-1.5 37h21q0 -5 -0.5 -11t0.5 -13q2 -7 7.5 -11t11.5 1q5 5 6 14.5t-1 16.5q-2 9 -7 15.5t-12 11.5zM785 630q-23 15 -27 45
q-1 13 2.5 26t14.5 20q10 5 22.5 4.5t20.5 -10.5q9 -10 8.5 -22.5t-0.5 -24.5q-5 0 -10 0.5t-10 0.5q0 7 0.5 15t-5.5 13q-9 10 -14.5 2t-6.5 -18q0 -14 7 -21.5t15 -14.5q18 -13 24 -35q2 -12 0.5 -24t-7 -21.5t-14.5 -14.5t-22 -3q-10 2 -15 8t-7.5 14t-2.5 18v19h22
q0 -5 -1 -11t1 -13t7 -11t11 1q7 5 8 14.5t-1 16.5q-2 9 -7.5 15.5t-12.5 11.5zM201 548h-56v176h56v-24h-34v-49h28v-26h-28v-53h34v-24zM891 548h-55v176h55v-24h-32v-49h27v-26h-27v-53h32v-24zM129 400l-42 -3q-5 -8 -9.5 -19t-5.5 -22q-8 -2 -9.5 3t0 13t4.5 15.5
t5 9.5l-14 -1l-5 10h23q11 20 27 39.5t36 30.5q6 5 16 5.5t12 -11.5q2 -6 -0.5 -12.5t-4.5 -11.5q-5 -11 -9.5 -22t-9.5 -22q-3 -8 -9.5 -20.5t-2.5 -21.5q-9 -2 -11 3t-0.5 12t4.5 14.5t5 10.5zM1185 724h21q-5 -25 -10 -49.5t-10 -49.5q-5 -18 -3.5 -38t1.5 -39h-24
q0 19 0.5 39t-3.5 38q-5 25 -10 49.5t-10 49.5h21q4 -22 8 -44.5t6 -46.5q1 24 5 46t8 45zM815 363q-7 5 -5.5 13t4.5 16l17 40q7 0 14 5l-13 -31q-2 -5 -8 -17t-2 -17q6 -6 14.5 2.5t11.5 13.5t5 9.5t6 9.5l12 27q3 0 6 1l6 2q-4 -11 -8.5 -21.5t-9.5 -21.5q-2 -5 -5 -11.5
t0 -11.5q4 -6 10 1t11 15q4 11 9.5 22t10.5 22q4 11 8.5 21t9.5 21q6 -3 14 3l-28 -64l-10 -23q-1 -3 -2 -7t-1.5 -7t1 -4.5t5.5 0.5q9 3 16 15q4 11 9.5 22.5t10.5 22.5q4 11 8 21t9 21q7 -3 15 3l-28 -64l-10 -23q-1 -3 -2 -7t-1.5 -7t0.5 -4.5t6 0.5q7 2 12 10t8 15l4 -2
q-5 -9 -10 -17t-13 -13q-7 -5 -14 -2t-6 12q-7 -7 -13 -10q-7 -5 -14 -2t-6 13q-5 -6 -9.5 -10.5t-10.5 -4.5q-10 0 -11 7t2 14q-6 -8 -16.5 -16t-18.5 -2zM1135 548h-55v176h22v-154h33v-22zM645 548h-55v176h23v-154h32v-22zM754 125q6 0 12.5 -1t11.5 4q9 9 11 23.5
t2 25.5q0 13 -2 28t-10 24q-5 5 -12 4.5t-13 -0.5v-108zM687 433q6 -1 15 4q-4 -7 -6.5 -12.5t-6.5 -10.5v-2q6 8 15 16t18 9q12 0 11.5 -11t-4.5 -19q-1 -2 -4 -7t-5.5 -10t-4.5 -10t0 -8q2 -5 6.5 -2t8.5 8t7.5 10.5t4.5 7.5l4 -2q-5 -8 -10 -16.5t-13 -13.5
q-7 -5 -14 -2.5t-6 13.5q1 10 6.5 18.5t8.5 16.5q1 4 3 11.5t-5 6.5q-11 -2 -20 -16t-14 -24l-12 -28h-12l4 11l-4 -4t-4 -3q-8 -5 -15.5 -1.5t-5.5 14.5q0 9 4.5 17.5t7.5 16.5q7 9 10 21q10 0 15 5l-19 -44q-2 -4 -5.5 -11.5t-0.5 -10.5t7.5 0t8.5 8t7 10t4 7zM961 704
q-7 0 -10 -9t-4 -20.5t-0.5 -23t0.5 -15.5q0 -5 -0.5 -16t0.5 -22t4 -20t10 -9q6 0 9 9t4 20t0.5 22t-0.5 16q0 4 0.5 15.5t-0.5 23t-4 20.5t-9 9zM396 704q-7 0 -10 -9t-4 -20.5t-0.5 -23t0.5 -15.5q0 -5 -0.5 -16t0.5 -22t4 -20t10 -9q6 0 8.5 9t3.5 20t0.5 22t-0.5 16
q0 4 0.5 15.5t-0.5 23t-3.5 20.5t-8.5 9zM1212 724h23q0 -32 -1 -65t-3 -66h-15q-2 33 -3 65.5t-1 65.5zM154 475q-8 2 -19 -8t-16 -16q-16 -20 -29 -45h43l13 31q1 3 4 9t5 12t2.5 11t-3.5 6zM1058 460q-5 -4 -6.5 0t-0.5 9q-5 2 -9 0t-7 -6.5t-5 -9.5t-3 -9h14l-3 -7h-14
l-45 -104q-7 0 -14 -3l47 107h-16l3 7h16q3 9 8 18.5t15 11.5q6 2 15 -1q2 -2 6 -5.5t-1 -7.5zM850 460q-5 -4 -7 0t-1 9q-5 2 -9 0t-7 -6.5t-5 -9.5t-3 -9h14l-3 -7h-14l-45 -104q-7 0 -13 -3l45 107h-15l4 7h15q3 9 8 18.5t15 11.5q6 2 15 -1l5.5 -5.5t0.5 -7.5zM633 136
q-2 -11 -3 -23t-3 -23h30q-3 34 -8.5 67.5t-7.5 68.5q-1 -23 -3.5 -45t-4.5 -45zM89 626q5 0 9.5 -0.5t7.5 4.5q5 6 5.5 16.5t0.5 18.5t-0.5 18t-5.5 16q-3 5 -7.5 5h-9.5v-78zM1065 431q-8 0 -15.5 -10t-11.5 -22.5t-4 -22.5t8 -10q6 0 13 10.5t11.5 22.5t5 22t-6.5 10z
M945 7q0 -12 -6.5 -17.5t-14 -5.5t-13.5 5.5t-6 17.5t6 17.5t13.5 5.5t14 -5.5t6.5 -17.5zM572 7q0 -12 -6.5 -17.5t-14 -5.5t-13.5 5.5t-6 17.5t6 17.5t13.5 5.5t14 -5.5t6.5 -17.5zM470 428q-7 0 -12.5 -6t-10 -15t-8.5 -18.5t-7 -15.5q6 -5 11.5 -4.5t10.5 4.5t9 9t6 10
q1 3 4 9t4 12t0 10.5t-7 4.5zM235 369q7 0 13 6.5t10.5 16t8 19.5t6.5 17q-10 6 -20 -3.5t-15 -18.5l-4 -8t-4.5 -12.5t-1 -11.5t6.5 -5zM228 637q5 0 9 -0.5t7 1.5q6 5 7 14.5t1 17.5t-1 17.5t-7 14.5q-3 2 -7 2h-9v-67zM372 369q7 0 13.5 6.5t11 16t8 19.5t6.5 17
q-11 6 -21 -3.5t-15 -18.5l-4 -8t-4.5 -12.5t-1 -11.5t6.5 -5zM549 403q-6 -10 -7 -16q11 0 25 11t14 25q0 8 -5.5 7.5t-10.5 -4.5t-9 -10.5t-7 -12.5zM542 643l-3 -28h18q-2 21 -4.5 41.5t-3.5 41.5q-1 -13 -3 -27zM1236 563q0 -8 -4 -11.5t-8.5 -3.5t-8.5 3.5t-4 11.5
q0 7 4 10.5t8.5 3.5t8.5 -3.5t4 -10.5zM679 456q-4 -8 -11.5 -5t-5.5 11q3 10 12 7t5 -13zM332 456q-3 -8 -10.5 -5t-5.5 11q1 5 5 6.5t7.5 0.5t5 -4.5t-1.5 -8.5zM1216 367q-4 -8 -11.5 -4.5t-3.5 11.5q4 9 11.5 5t3.5 -12zM1237 421q-3 -9 -11 -5.5t-3 12.5q4 7 11 4
t3 -11z" />
    <glyph glyph-name="five" unicode="5" horiz-adv-x="1272" 
d="M364 266h43q5 -60 8.5 -118t5.5 -117q3 45 5.5 89t7.5 89l6 57h40q5 -48 9 -96l8 -96l3 -43q3 47 4.5 93t5.5 91q2 13 2.5 25.5t1.5 25.5h31l-21 -283h-47q-5 56 -9.5 112t-6.5 113q-2 -42 -5 -84t-7 -84l-4 -57h-48l-12 159l-12 -159h-46l-10 112t-7 113
q-2 -42 -4.5 -84t-6.5 -84l-5 -57h-47l-12 162l-12 -162h-47q-5 56 -9.5 111.5t-6.5 112.5q-1 -43 -4 -84t-7 -83l-6 -57h-46l-22 283h31q5 -60 8.5 -118t5.5 -117q3 45 6 89t8 89l6 57h39q6 -48 10 -96t7 -96l3 -43q3 47 4.5 93t5.5 91l5 51h42q5 -60 8.5 -118t6.5 -117
q3 45 5.5 89t6.5 89q3 14 4 28t3 29h40q5 -48 9 -96l8 -96l2 -43q3 47 5 93t6 91zM1227 876h-1153v26h1153v-26zM1227 -197h-1153v25h1153v-25zM754 -17h-36v283h37h22t21 -5q18 -9 23 -31.5t5 -42.5v-22t-2.5 -25.5t-8 -22.5t-14.5 -14l31 -120h-40l-21 113h-17v-113z
M1001 46v-63h-33v283h32q13 -50 25.5 -98.5t22.5 -99.5q-4 50 -4.5 99t-0.5 99h33v-283h-34q-12 48 -25 96.5t-22 97.5q2 -33 3 -65.5t3 -65.5zM617 -17h-34l30 283h58l31 -283h-36l-7 67h-34zM1175 160q1 14 0 28.5t-5 26.5q-4 9 -11.5 14.5t-14.5 -5.5q-6 -10 -7 -24.5
t-2 -26.5q-1 -14 -1 -27v-26v-26.5t2 -26.5q0 -11 2 -25.5t11 -21.5q11 -7 16.5 2t8 23.5t3 29t0.5 19.5h-26v33h59v-142h-26l-1 38q-2 -12 -7.5 -25t-17.5 -17q-11 -4 -22 2t-18 15q-14 20 -16.5 49t-2.5 52q-2 29 -1 60t8 59q2 12 7.5 24t15.5 18q21 14 46 4
q12 -6 19 -17.5t10 -26t4 -29.5t1 -27zM227 409q5 9 12.5 16t16.5 9q8 3 16 -1t18 -1l-19 -39q-2 -4 -5.5 -12t0.5 -10q5 -5 11.5 2t11.5 15q2 6 5 11.5t6 11.5l8 21q9 0 15 5l-19 -44q-2 -4 -5 -11.5t1 -10.5q4 -5 10 1.5t10 14.5q4 11 9.5 22t10.5 22t9 21t9 21q7 -3 14 3
l-27 -64q-2 -6 -5 -12t-5 -11q-1 -3 -2.5 -7t-1.5 -7t1 -4.5t6 0.5t9.5 7.5t8.5 13.5q2 5 4 9l4 8q5 9 12 16t17 9q9 3 17 -1t17 -1q-5 -10 -9 -19t-9 -20q-2 -4 -5 -12t0 -10q3 -3 6.5 -1t7 6.5t6.5 9.5t5 8l1 2l33 77q8 0 13 3q-5 -14 -10 -27.5t-13 -25.5q7 8 16.5 13
t16.5 -7q7 -11 1 -27t-13 -24q6 -1 11.5 2t10.5 8q4 11 9 21.5t10 21.5l18 42q5 -2 14 3q-8 -16 -14 -32t-14 -32q-2 -6 -4.5 -12t-5.5 -11q-1 -3 -2 -7t-1 -7t1 -4.5t6 0.5t10.5 9t8.5 14q3 17 13 25q3 4 9.5 9t14 7.5t13.5 0.5t8 -12q1 -9 -3.5 -17t-12 -13.5t-16.5 -8.5
t-16 -3q-1 -7 3.5 -11t10.5 -4q13 0 24 8.5t18 20.5l4 -2q-8 -16 -23.5 -26t-31.5 -6q-17 3 -17 20q-4 -6 -8 -11t-9 -7q-7 -5 -15 -1.5t-6 14.5v2q-2 -2 -4 -2q-4 -4 -12 -4h-7q-2 0 -3 -2t-3 -2q-10 -8 -22 -6.5t-18 12.5q-8 -10 -17 -13t-13 3.5t0 14.5q-5 -8 -14 -15.5
t-18 -0.5q-7 4 -7 16q-7 -12 -14 -16q-8 -5 -15.5 -2t-6.5 12l-5.5 -5.5t-5.5 -4.5q-8 -5 -15.5 -2t-5.5 13q-5 -4 -9 -7.5t-9 -5.5q-9 -3 -12.5 3.5t0.5 14.5h-1q-5 -8 -13.5 -15.5t-18.5 -0.5q-5 2 -6 7.5t0 10.5q-4 -4 -10 -7q-4 -2 -13 -2q-5 0 -6 -1t-4 -3
q-11 -8 -24 -7t-9 20q2 14 8 26.5t11 23.5q6 0 14 5q-4 -9 -7 -17.5t-7 -16.5q-1 -3 -4 -8.5t-5 -11.5t-2 -10.5t4 -5.5q9 -2 17.5 9.5t11.5 17.5q5 9 8 20t3 22q9 2 10 -6t-1 -15q-4 -19 -18 -36q8 -3 15 3t11 14zM961 547q-11 0 -17.5 6t-10 15t-5 19.5t-1.5 20.5
q-2 22 -2 45.5t6 45.5q3 10 8.5 17.5t14.5 8.5q20 5 32 -15q9 -20 9 -43.5v-44.5q0 -11 -0.5 -24t-4 -24t-10.5 -19t-19 -8zM396 547q-11 0 -17.5 6t-10.5 15t-5 19.5t-2 20.5q-1 22 -1 45.5t6 45.5q3 10 8 17.5t16 8.5q21 5 31 -15q8 -20 8.5 -43.5t0.5 -44.5q0 -11 -1 -24
t-4.5 -24t-10 -19t-18.5 -8zM883 -17h-36v283h36v-283zM228 548h-21v176h23h15t13 -3q10 -6 13 -19t3 -24v-14.5t-1.5 -17t-4.5 -15t-9 -9.5l18 -74h-24l-13 70q-3 0 -6 0.5t-6 0.5v-71zM1025 587v-39h-21v176h20q8 -31 16 -61t14 -62q-2 30 -2.5 61t-0.5 62h21v-176h-22
q-8 29 -15.5 59.5t-13.5 61.5q2 -21 2.5 -41t1.5 -41zM89 548h-23v176h35q25 0 33 -30q4 -16 3 -37.5t-9 -37.5q-7 -11 -17.5 -12t-21.5 -1v-58zM460 587v-39h-21v176h20q8 -31 15.5 -61t13.5 -62q-2 30 -2.5 61t-0.5 62h21v-176h-22q-7 29 -14.5 59.5t-13.5 61.5
q2 -21 2 -41t2 -41zM533 548h-21l18 176h36l19 -176h-21l-5 43h-22zM714 547q-16 0 -23.5 10t-10 24t-2 30.5t0.5 29.5v83h23v-123q0 -5 -0.5 -11.5t1.5 -11.5q2 -6 7 -8.5t10 2.5t5.5 15t0.5 17q1 14 0.5 28t-0.5 28v64h22v-83q0 -13 0.5 -29.5t-1.5 -30.5t-9.5 -24
t-23.5 -10zM1110 433q7 -1 14 4q-3 -7 -5.5 -12.5t-7.5 -10.5v-2q7 8 15.5 16t17.5 9q12 0 11.5 -11t-3.5 -19q-2 -2 -4.5 -7t-5.5 -10t-4.5 -10t0.5 -8q2 -4 5.5 -2t7 6t7 9t5.5 8l20 44h-8l3 7h8l8 19q6 0 14 4l-10 -23h15l-4 -7h-14l-18 -43q-2 -5 -5 -11.5t-1 -11.5
q3 -3 7 -0.5t8.5 8t7.5 10.5t4 7l4 -2q-5 -9 -12 -19.5t-18 -12.5q-10 -3 -13 1.5t-1 11.5l-6 -6t-6 -5q-7 -5 -14.5 -2.5t-6.5 13.5q1 10 6.5 18.5t8.5 16.5q1 4 3.5 11.5t-4.5 6.5q-11 -2 -20.5 -16t-14.5 -24q-4 -6 -6.5 -13t-5.5 -15h-12l7 19l-1 -1q-3 -3 -10 -5h-9
q-5 -7 -11 -9t-9 -2q-9 -6 -18 3q-8 8 -6.5 20.5t5.5 23.5q5 11 14 19.5t22 8.5q10 0 14.5 -7t4.5 -16.5t-3.5 -19.5t-7.5 -16q13 0 20 13zM309 630q-11 8 -18 19t-9 26q-2 13 2 26t16 20q9 5 22 4.5t21 -10.5q9 -10 9 -22.5v-24.5q-6 0 -12 0.5t-11 0.5q0 7 0.5 15t-4.5 13
q-9 10 -14.5 2t-6.5 -18q0 -14 7.5 -21.5t15.5 -14.5t14.5 -15.5t8.5 -19.5q2 -12 0.5 -24t-7 -21.5t-14.5 -14.5t-21 -3q-21 4 -23.5 22t-1.5 37h21q0 -5 -0.5 -11t0.5 -13q2 -7 7.5 -11t11.5 1q5 5 6 14.5t-1 16.5q-2 9 -7 15.5t-12 11.5zM785 630q-23 15 -27 45
q-1 13 2.5 26t14.5 20q10 5 22.5 4.5t20.5 -10.5q9 -10 8.5 -22.5t-0.5 -24.5q-5 0 -10 0.5t-10 0.5q0 7 0.5 15t-5.5 13q-9 10 -14.5 2t-6.5 -18q0 -14 7 -21.5t15 -14.5q18 -13 24 -35q2 -12 0.5 -24t-7 -21.5t-14.5 -14.5t-22 -3q-10 2 -15 8t-7.5 14t-2.5 18v19h22
q0 -5 -1 -11t1 -13t7 -11t11 1q7 5 8 14.5t-1 16.5q-2 9 -7.5 15.5t-12.5 11.5zM201 548h-56v176h56v-24h-34v-49h28v-26h-28v-53h34v-24zM891 548h-55v176h55v-24h-32v-49h27v-26h-27v-53h32v-24zM129 400l-42 -3q-5 -8 -9.5 -19t-5.5 -22q-8 -2 -9.5 3t0 13t4.5 15.5
t5 9.5l-14 -1l-5 10h23q11 20 27 39.5t36 30.5q6 5 16 5.5t12 -11.5q2 -6 -0.5 -12.5t-4.5 -11.5q-5 -11 -9.5 -22t-9.5 -22q-3 -8 -9.5 -20.5t-2.5 -21.5q-9 -2 -11 3t-0.5 12t4.5 14.5t5 10.5zM1185 724h21q-5 -25 -10 -49.5t-10 -49.5q-5 -18 -3.5 -38t1.5 -39h-24
q0 19 0.5 39t-3.5 38q-5 25 -10 49.5t-10 49.5h21q4 -22 8 -44.5t6 -46.5q1 24 5 46t8 45zM815 363q-7 5 -5.5 13t4.5 16l17 40q7 0 14 5l-13 -31q-2 -5 -8 -17t-2 -17q6 -6 14.5 2.5t11.5 13.5t5 9.5t6 9.5l12 27q3 0 6 1l6 2q-4 -11 -8.5 -21.5t-9.5 -21.5q-2 -5 -5 -11.5
t0 -11.5q4 -6 10 1t11 15q4 11 9.5 22t10.5 22q4 11 8.5 21t9.5 21q6 -3 14 3l-28 -64l-10 -23q-1 -3 -2 -7t-1.5 -7t1 -4.5t5.5 0.5q9 3 16 15q4 11 9.5 22.5t10.5 22.5q4 11 8 21t9 21q7 -3 15 3l-28 -64l-10 -23q-1 -3 -2 -7t-1.5 -7t0.5 -4.5t6 0.5q7 2 12 10t8 15l4 -2
q-5 -9 -10 -17t-13 -13q-7 -5 -14 -2t-6 12q-7 -7 -13 -10q-7 -5 -14 -2t-6 13q-5 -6 -9.5 -10.5t-10.5 -4.5q-10 0 -11 7t2 14q-6 -8 -16.5 -16t-18.5 -2zM1135 548h-55v176h22v-154h33v-22zM645 548h-55v176h23v-154h32v-22zM754 125q6 0 12.5 -1t11.5 4q9 9 11 23.5
t2 25.5q0 13 -2 28t-10 24q-5 5 -12 4.5t-13 -0.5v-108zM687 433q6 -1 15 4q-4 -7 -6.5 -12.5t-6.5 -10.5v-2q6 8 15 16t18 9q12 0 11.5 -11t-4.5 -19q-1 -2 -4 -7t-5.5 -10t-4.5 -10t0 -8q2 -5 6.5 -2t8.5 8t7.5 10.5t4.5 7.5l4 -2q-5 -8 -10 -16.5t-13 -13.5
q-7 -5 -14 -2.5t-6 13.5q1 10 6.5 18.5t8.5 16.5q1 4 3 11.5t-5 6.5q-11 -2 -20 -16t-14 -24l-12 -28h-12l4 11l-4 -4t-4 -3q-8 -5 -15.5 -1.5t-5.5 14.5q0 9 4.5 17.5t7.5 16.5q7 9 10 21q10 0 15 5l-19 -44q-2 -4 -5.5 -11.5t-0.5 -10.5t7.5 0t8.5 8t7 10t4 7zM961 704
q-7 0 -10 -9t-4 -20.5t-0.5 -23t0.5 -15.5q0 -5 -0.5 -16t0.5 -22t4 -20t10 -9q6 0 9 9t4 20t0.5 22t-0.5 16q0 4 0.5 15.5t-0.5 23t-4 20.5t-9 9zM396 704q-7 0 -10 -9t-4 -20.5t-0.5 -23t0.5 -15.5q0 -5 -0.5 -16t0.5 -22t4 -20t10 -9q6 0 8.5 9t3.5 20t0.5 22t-0.5 16
q0 4 0.5 15.5t-0.5 23t-3.5 20.5t-8.5 9zM1212 724h23q0 -32 -1 -65t-3 -66h-15q-2 33 -3 65.5t-1 65.5zM154 475q-8 2 -19 -8t-16 -16q-16 -20 -29 -45h43l13 31q1 3 4 9t5 12t2.5 11t-3.5 6zM1058 460q-5 -4 -6.5 0t-0.5 9q-5 2 -9 0t-7 -6.5t-5 -9.5t-3 -9h14l-3 -7h-14
l-45 -104q-7 0 -14 -3l47 107h-16l3 7h16q3 9 8 18.5t15 11.5q6 2 15 -1q2 -2 6 -5.5t-1 -7.5zM850 460q-5 -4 -7 0t-1 9q-5 2 -9 0t-7 -6.5t-5 -9.5t-3 -9h14l-3 -7h-14l-45 -104q-7 0 -13 -3l45 107h-15l4 7h15q3 9 8 18.5t15 11.5q6 2 15 -1l5.5 -5.5t0.5 -7.5zM633 136
q-2 -11 -3 -23t-3 -23h30q-3 34 -8.5 67.5t-7.5 68.5q-1 -23 -3.5 -45t-4.5 -45zM89 626q5 0 9.5 -0.5t7.5 4.5q5 6 5.5 16.5t0.5 18.5t-0.5 18t-5.5 16q-3 5 -7.5 5h-9.5v-78zM1065 431q-8 0 -15.5 -10t-11.5 -22.5t-4 -22.5t8 -10q6 0 13 10.5t11.5 22.5t5 22t-6.5 10z
M945 7q0 -12 -6.5 -17.5t-14 -5.5t-13.5 5.5t-6 17.5t6 17.5t13.5 5.5t14 -5.5t6.5 -17.5zM572 7q0 -12 -6.5 -17.5t-14 -5.5t-13.5 5.5t-6 17.5t6 17.5t13.5 5.5t14 -5.5t6.5 -17.5zM470 428q-7 0 -12.5 -6t-10 -15t-8.5 -18.5t-7 -15.5q6 -5 11.5 -4.5t10.5 4.5t9 9t6 10
q1 3 4 9t4 12t0 10.5t-7 4.5zM235 369q7 0 13 6.5t10.5 16t8 19.5t6.5 17q-10 6 -20 -3.5t-15 -18.5l-4 -8t-4.5 -12.5t-1 -11.5t6.5 -5zM228 637q5 0 9 -0.5t7 1.5q6 5 7 14.5t1 17.5t-1 17.5t-7 14.5q-3 2 -7 2h-9v-67zM372 369q7 0 13.5 6.5t11 16t8 19.5t6.5 17
q-11 6 -21 -3.5t-15 -18.5l-4 -8t-4.5 -12.5t-1 -11.5t6.5 -5zM549 403q-6 -10 -7 -16q11 0 25 11t14 25q0 8 -5.5 7.5t-10.5 -4.5t-9 -10.5t-7 -12.5zM542 643l-3 -28h18q-2 21 -4.5 41.5t-3.5 41.5q-1 -13 -3 -27zM1236 563q0 -8 -4 -11.5t-8.5 -3.5t-8.5 3.5t-4 11.5
q0 7 4 10.5t8.5 3.5t8.5 -3.5t4 -10.5zM679 456q-4 -8 -11.5 -5t-5.5 11q3 10 12 7t5 -13zM332 456q-3 -8 -10.5 -5t-5.5 11q1 5 5 6.5t7.5 0.5t5 -4.5t-1.5 -8.5zM1216 367q-4 -8 -11.5 -4.5t-3.5 11.5q4 9 11.5 5t3.5 -12zM1237 421q-3 -9 -11 -5.5t-3 12.5q4 7 11 4
t3 -11z" />
    <glyph glyph-name="seven" unicode="7" horiz-adv-x="1272" 
d="M364 266h43q5 -60 8.5 -118t5.5 -117q3 45 5.5 89t7.5 89l6 57h40q5 -48 9 -96l8 -96l3 -43q3 47 4.5 93t5.5 91q2 13 2.5 25.5t1.5 25.5h31l-21 -283h-47q-5 56 -9.5 112t-6.5 113q-2 -42 -5 -84t-7 -84l-4 -57h-48l-12 159l-12 -159h-46l-10 112t-7 113
q-2 -42 -4.5 -84t-6.5 -84l-5 -57h-47l-12 162l-12 -162h-47q-5 56 -9.5 111.5t-6.5 112.5q-1 -43 -4 -84t-7 -83l-6 -57h-46l-22 283h31q5 -60 8.5 -118t5.5 -117q3 45 6 89t8 89l6 57h39q6 -48 10 -96t7 -96l3 -43q3 47 4.5 93t5.5 91l5 51h42q5 -60 8.5 -118t6.5 -117
q3 45 5.5 89t6.5 89q3 14 4 28t3 29h40q5 -48 9 -96l8 -96l2 -43q3 47 5 93t6 91zM1227 876h-1153v26h1153v-26zM1227 -197h-1153v25h1153v-25zM754 -17h-36v283h37h22t21 -5q18 -9 23 -31.5t5 -42.5v-22t-2.5 -25.5t-8 -22.5t-14.5 -14l31 -120h-40l-21 113h-17v-113z
M1001 46v-63h-33v283h32q13 -50 25.5 -98.5t22.5 -99.5q-4 50 -4.5 99t-0.5 99h33v-283h-34q-12 48 -25 96.5t-22 97.5q2 -33 3 -65.5t3 -65.5zM617 -17h-34l30 283h58l31 -283h-36l-7 67h-34zM1175 160q1 14 0 28.5t-5 26.5q-4 9 -11.5 14.5t-14.5 -5.5q-6 -10 -7 -24.5
t-2 -26.5q-1 -14 -1 -27v-26v-26.5t2 -26.5q0 -11 2 -25.5t11 -21.5q11 -7 16.5 2t8 23.5t3 29t0.5 19.5h-26v33h59v-142h-26l-1 38q-2 -12 -7.5 -25t-17.5 -17q-11 -4 -22 2t-18 15q-14 20 -16.5 49t-2.5 52q-2 29 -1 60t8 59q2 12 7.5 24t15.5 18q21 14 46 4
q12 -6 19 -17.5t10 -26t4 -29.5t1 -27zM227 409q5 9 12.5 16t16.5 9q8 3 16 -1t18 -1l-19 -39q-2 -4 -5.5 -12t0.5 -10q5 -5 11.5 2t11.5 15q2 6 5 11.5t6 11.5l8 21q9 0 15 5l-19 -44q-2 -4 -5 -11.5t1 -10.5q4 -5 10 1.5t10 14.5q4 11 9.5 22t10.5 22t9 21t9 21q7 -3 14 3
l-27 -64q-2 -6 -5 -12t-5 -11q-1 -3 -2.5 -7t-1.5 -7t1 -4.5t6 0.5t9.5 7.5t8.5 13.5q2 5 4 9l4 8q5 9 12 16t17 9q9 3 17 -1t17 -1q-5 -10 -9 -19t-9 -20q-2 -4 -5 -12t0 -10q3 -3 6.5 -1t7 6.5t6.5 9.5t5 8l1 2l33 77q8 0 13 3q-5 -14 -10 -27.5t-13 -25.5q7 8 16.5 13
t16.5 -7q7 -11 1 -27t-13 -24q6 -1 11.5 2t10.5 8q4 11 9 21.5t10 21.5l18 42q5 -2 14 3q-8 -16 -14 -32t-14 -32q-2 -6 -4.5 -12t-5.5 -11q-1 -3 -2 -7t-1 -7t1 -4.5t6 0.5t10.5 9t8.5 14q3 17 13 25q3 4 9.5 9t14 7.5t13.5 0.5t8 -12q1 -9 -3.5 -17t-12 -13.5t-16.5 -8.5
t-16 -3q-1 -7 3.5 -11t10.5 -4q13 0 24 8.5t18 20.5l4 -2q-8 -16 -23.5 -26t-31.5 -6q-17 3 -17 20q-4 -6 -8 -11t-9 -7q-7 -5 -15 -1.5t-6 14.5v2q-2 -2 -4 -2q-4 -4 -12 -4h-7q-2 0 -3 -2t-3 -2q-10 -8 -22 -6.5t-18 12.5q-8 -10 -17 -13t-13 3.5t0 14.5q-5 -8 -14 -15.5
t-18 -0.5q-7 4 -7 16q-7 -12 -14 -16q-8 -5 -15.5 -2t-6.5 12l-5.5 -5.5t-5.5 -4.5q-8 -5 -15.5 -2t-5.5 13q-5 -4 -9 -7.5t-9 -5.5q-9 -3 -12.5 3.5t0.5 14.5h-1q-5 -8 -13.5 -15.5t-18.5 -0.5q-5 2 -6 7.5t0 10.5q-4 -4 -10 -7q-4 -2 -13 -2q-5 0 -6 -1t-4 -3
q-11 -8 -24 -7t-9 20q2 14 8 26.5t11 23.5q6 0 14 5q-4 -9 -7 -17.5t-7 -16.5q-1 -3 -4 -8.5t-5 -11.5t-2 -10.5t4 -5.5q9 -2 17.5 9.5t11.5 17.5q5 9 8 20t3 22q9 2 10 -6t-1 -15q-4 -19 -18 -36q8 -3 15 3t11 14zM961 547q-11 0 -17.5 6t-10 15t-5 19.5t-1.5 20.5
q-2 22 -2 45.5t6 45.5q3 10 8.5 17.5t14.5 8.5q20 5 32 -15q9 -20 9 -43.5v-44.5q0 -11 -0.5 -24t-4 -24t-10.5 -19t-19 -8zM396 547q-11 0 -17.5 6t-10.5 15t-5 19.5t-2 20.5q-1 22 -1 45.5t6 45.5q3 10 8 17.5t16 8.5q21 5 31 -15q8 -20 8.5 -43.5t0.5 -44.5q0 -11 -1 -24
t-4.5 -24t-10 -19t-18.5 -8zM883 -17h-36v283h36v-283zM228 548h-21v176h23h15t13 -3q10 -6 13 -19t3 -24v-14.5t-1.5 -17t-4.5 -15t-9 -9.5l18 -74h-24l-13 70q-3 0 -6 0.5t-6 0.5v-71zM1025 587v-39h-21v176h20q8 -31 16 -61t14 -62q-2 30 -2.5 61t-0.5 62h21v-176h-22
q-8 29 -15.5 59.5t-13.5 61.5q2 -21 2.5 -41t1.5 -41zM89 548h-23v176h35q25 0 33 -30q4 -16 3 -37.5t-9 -37.5q-7 -11 -17.5 -12t-21.5 -1v-58zM460 587v-39h-21v176h20q8 -31 15.5 -61t13.5 -62q-2 30 -2.5 61t-0.5 62h21v-176h-22q-7 29 -14.5 59.5t-13.5 61.5
q2 -21 2 -41t2 -41zM533 548h-21l18 176h36l19 -176h-21l-5 43h-22zM714 547q-16 0 -23.5 10t-10 24t-2 30.5t0.5 29.5v83h23v-123q0 -5 -0.5 -11.5t1.5 -11.5q2 -6 7 -8.5t10 2.5t5.5 15t0.5 17q1 14 0.5 28t-0.5 28v64h22v-83q0 -13 0.5 -29.5t-1.5 -30.5t-9.5 -24
t-23.5 -10zM1110 433q7 -1 14 4q-3 -7 -5.5 -12.5t-7.5 -10.5v-2q7 8 15.5 16t17.5 9q12 0 11.5 -11t-3.5 -19q-2 -2 -4.5 -7t-5.5 -10t-4.5 -10t0.5 -8q2 -4 5.5 -2t7 6t7 9t5.5 8l20 44h-8l3 7h8l8 19q6 0 14 4l-10 -23h15l-4 -7h-14l-18 -43q-2 -5 -5 -11.5t-1 -11.5
q3 -3 7 -0.5t8.5 8t7.5 10.5t4 7l4 -2q-5 -9 -12 -19.5t-18 -12.5q-10 -3 -13 1.5t-1 11.5l-6 -6t-6 -5q-7 -5 -14.5 -2.5t-6.5 13.5q1 10 6.5 18.5t8.5 16.5q1 4 3.5 11.5t-4.5 6.5q-11 -2 -20.5 -16t-14.5 -24q-4 -6 -6.5 -13t-5.5 -15h-12l7 19l-1 -1q-3 -3 -10 -5h-9
q-5 -7 -11 -9t-9 -2q-9 -6 -18 3q-8 8 -6.5 20.5t5.5 23.5q5 11 14 19.5t22 8.5q10 0 14.5 -7t4.5 -16.5t-3.5 -19.5t-7.5 -16q13 0 20 13zM309 630q-11 8 -18 19t-9 26q-2 13 2 26t16 20q9 5 22 4.5t21 -10.5q9 -10 9 -22.5v-24.5q-6 0 -12 0.5t-11 0.5q0 7 0.5 15t-4.5 13
q-9 10 -14.5 2t-6.5 -18q0 -14 7.5 -21.5t15.5 -14.5t14.5 -15.5t8.5 -19.5q2 -12 0.5 -24t-7 -21.5t-14.5 -14.5t-21 -3q-21 4 -23.5 22t-1.5 37h21q0 -5 -0.5 -11t0.5 -13q2 -7 7.5 -11t11.5 1q5 5 6 14.5t-1 16.5q-2 9 -7 15.5t-12 11.5zM785 630q-23 15 -27 45
q-1 13 2.5 26t14.5 20q10 5 22.5 4.5t20.5 -10.5q9 -10 8.5 -22.5t-0.5 -24.5q-5 0 -10 0.5t-10 0.5q0 7 0.5 15t-5.5 13q-9 10 -14.5 2t-6.5 -18q0 -14 7 -21.5t15 -14.5q18 -13 24 -35q2 -12 0.5 -24t-7 -21.5t-14.5 -14.5t-22 -3q-10 2 -15 8t-7.5 14t-2.5 18v19h22
q0 -5 -1 -11t1 -13t7 -11t11 1q7 5 8 14.5t-1 16.5q-2 9 -7.5 15.5t-12.5 11.5zM201 548h-56v176h56v-24h-34v-49h28v-26h-28v-53h34v-24zM891 548h-55v176h55v-24h-32v-49h27v-26h-27v-53h32v-24zM129 400l-42 -3q-5 -8 -9.5 -19t-5.5 -22q-8 -2 -9.5 3t0 13t4.5 15.5
t5 9.5l-14 -1l-5 10h23q11 20 27 39.5t36 30.5q6 5 16 5.5t12 -11.5q2 -6 -0.5 -12.5t-4.5 -11.5q-5 -11 -9.5 -22t-9.5 -22q-3 -8 -9.5 -20.5t-2.5 -21.5q-9 -2 -11 3t-0.5 12t4.5 14.5t5 10.5zM1185 724h21q-5 -25 -10 -49.5t-10 -49.5q-5 -18 -3.5 -38t1.5 -39h-24
q0 19 0.5 39t-3.5 38q-5 25 -10 49.5t-10 49.5h21q4 -22 8 -44.5t6 -46.5q1 24 5 46t8 45zM815 363q-7 5 -5.5 13t4.5 16l17 40q7 0 14 5l-13 -31q-2 -5 -8 -17t-2 -17q6 -6 14.5 2.5t11.5 13.5t5 9.5t6 9.5l12 27q3 0 6 1l6 2q-4 -11 -8.5 -21.5t-9.5 -21.5q-2 -5 -5 -11.5
t0 -11.5q4 -6 10 1t11 15q4 11 9.5 22t10.5 22q4 11 8.5 21t9.5 21q6 -3 14 3l-28 -64l-10 -23q-1 -3 -2 -7t-1.5 -7t1 -4.5t5.5 0.5q9 3 16 15q4 11 9.5 22.5t10.5 22.5q4 11 8 21t9 21q7 -3 15 3l-28 -64l-10 -23q-1 -3 -2 -7t-1.5 -7t0.5 -4.5t6 0.5q7 2 12 10t8 15l4 -2
q-5 -9 -10 -17t-13 -13q-7 -5 -14 -2t-6 12q-7 -7 -13 -10q-7 -5 -14 -2t-6 13q-5 -6 -9.5 -10.5t-10.5 -4.5q-10 0 -11 7t2 14q-6 -8 -16.5 -16t-18.5 -2zM1135 548h-55v176h22v-154h33v-22zM645 548h-55v176h23v-154h32v-22zM754 125q6 0 12.5 -1t11.5 4q9 9 11 23.5
t2 25.5q0 13 -2 28t-10 24q-5 5 -12 4.5t-13 -0.5v-108zM687 433q6 -1 15 4q-4 -7 -6.5 -12.5t-6.5 -10.5v-2q6 8 15 16t18 9q12 0 11.5 -11t-4.5 -19q-1 -2 -4 -7t-5.5 -10t-4.5 -10t0 -8q2 -5 6.5 -2t8.5 8t7.5 10.5t4.5 7.5l4 -2q-5 -8 -10 -16.5t-13 -13.5
q-7 -5 -14 -2.5t-6 13.5q1 10 6.5 18.5t8.5 16.5q1 4 3 11.5t-5 6.5q-11 -2 -20 -16t-14 -24l-12 -28h-12l4 11l-4 -4t-4 -3q-8 -5 -15.5 -1.5t-5.5 14.5q0 9 4.5 17.5t7.5 16.5q7 9 10 21q10 0 15 5l-19 -44q-2 -4 -5.5 -11.5t-0.5 -10.5t7.5 0t8.5 8t7 10t4 7zM961 704
q-7 0 -10 -9t-4 -20.5t-0.5 -23t0.5 -15.5q0 -5 -0.5 -16t0.5 -22t4 -20t10 -9q6 0 9 9t4 20t0.5 22t-0.5 16q0 4 0.5 15.5t-0.5 23t-4 20.5t-9 9zM396 704q-7 0 -10 -9t-4 -20.5t-0.5 -23t0.5 -15.5q0 -5 -0.5 -16t0.5 -22t4 -20t10 -9q6 0 8.5 9t3.5 20t0.5 22t-0.5 16
q0 4 0.5 15.5t-0.5 23t-3.5 20.5t-8.5 9zM1212 724h23q0 -32 -1 -65t-3 -66h-15q-2 33 -3 65.5t-1 65.5zM154 475q-8 2 -19 -8t-16 -16q-16 -20 -29 -45h43l13 31q1 3 4 9t5 12t2.5 11t-3.5 6zM1058 460q-5 -4 -6.5 0t-0.5 9q-5 2 -9 0t-7 -6.5t-5 -9.5t-3 -9h14l-3 -7h-14
l-45 -104q-7 0 -14 -3l47 107h-16l3 7h16q3 9 8 18.5t15 11.5q6 2 15 -1q2 -2 6 -5.5t-1 -7.5zM850 460q-5 -4 -7 0t-1 9q-5 2 -9 0t-7 -6.5t-5 -9.5t-3 -9h14l-3 -7h-14l-45 -104q-7 0 -13 -3l45 107h-15l4 7h15q3 9 8 18.5t15 11.5q6 2 15 -1l5.5 -5.5t0.5 -7.5zM633 136
q-2 -11 -3 -23t-3 -23h30q-3 34 -8.5 67.5t-7.5 68.5q-1 -23 -3.5 -45t-4.5 -45zM89 626q5 0 9.5 -0.5t7.5 4.5q5 6 5.5 16.5t0.5 18.5t-0.5 18t-5.5 16q-3 5 -7.5 5h-9.5v-78zM1065 431q-8 0 -15.5 -10t-11.5 -22.5t-4 -22.5t8 -10q6 0 13 10.5t11.5 22.5t5 22t-6.5 10z
M945 7q0 -12 -6.5 -17.5t-14 -5.5t-13.5 5.5t-6 17.5t6 17.5t13.5 5.5t14 -5.5t6.5 -17.5zM572 7q0 -12 -6.5 -17.5t-14 -5.5t-13.5 5.5t-6 17.5t6 17.5t13.5 5.5t14 -5.5t6.5 -17.5zM470 428q-7 0 -12.5 -6t-10 -15t-8.5 -18.5t-7 -15.5q6 -5 11.5 -4.5t10.5 4.5t9 9t6 10
q1 3 4 9t4 12t0 10.5t-7 4.5zM235 369q7 0 13 6.5t10.5 16t8 19.5t6.5 17q-10 6 -20 -3.5t-15 -18.5l-4 -8t-4.5 -12.5t-1 -11.5t6.5 -5zM228 637q5 0 9 -0.5t7 1.5q6 5 7 14.5t1 17.5t-1 17.5t-7 14.5q-3 2 -7 2h-9v-67zM372 369q7 0 13.5 6.5t11 16t8 19.5t6.5 17
q-11 6 -21 -3.5t-15 -18.5l-4 -8t-4.5 -12.5t-1 -11.5t6.5 -5zM549 403q-6 -10 -7 -16q11 0 25 11t14 25q0 8 -5.5 7.5t-10.5 -4.5t-9 -10.5t-7 -12.5zM542 643l-3 -28h18q-2 21 -4.5 41.5t-3.5 41.5q-1 -13 -3 -27zM1236 563q0 -8 -4 -11.5t-8.5 -3.5t-8.5 3.5t-4 11.5
q0 7 4 10.5t8.5 3.5t8.5 -3.5t4 -10.5zM679 456q-4 -8 -11.5 -5t-5.5 11q3 10 12 7t5 -13zM332 456q-3 -8 -10.5 -5t-5.5 11q1 5 5 6.5t7.5 0.5t5 -4.5t-1.5 -8.5zM1216 367q-4 -8 -11.5 -4.5t-3.5 11.5q4 9 11.5 5t3.5 -12zM1237 421q-3 -9 -11 -5.5t-3 12.5q4 7 11 4
t3 -11z" />
    <glyph glyph-name="six" unicode="6" horiz-adv-x="1272" 
d="M364 266h43q5 -60 8.5 -118t5.5 -117q3 45 5.5 89t7.5 89l6 57h40q5 -48 9 -96l8 -96l3 -43q3 47 4.5 93t5.5 91q2 13 2.5 25.5t1.5 25.5h31l-21 -283h-47q-5 56 -9.5 112t-6.5 113q-2 -42 -5 -84t-7 -84l-4 -57h-48l-12 159l-12 -159h-46l-10 112t-7 113
q-2 -42 -4.5 -84t-6.5 -84l-5 -57h-47l-12 162l-12 -162h-47q-5 56 -9.5 111.5t-6.5 112.5q-1 -43 -4 -84t-7 -83l-6 -57h-46l-22 283h31q5 -60 8.5 -118t5.5 -117q3 45 6 89t8 89l6 57h39q6 -48 10 -96t7 -96l3 -43q3 47 4.5 93t5.5 91l5 51h42q5 -60 8.5 -118t6.5 -117
q3 45 5.5 89t6.5 89q3 14 4 28t3 29h40q5 -48 9 -96l8 -96l2 -43q3 47 5 93t6 91zM1227 876h-1153v26h1153v-26zM1227 -197h-1153v25h1153v-25zM754 -17h-36v283h37h22t21 -5q18 -9 23 -31.5t5 -42.5v-22t-2.5 -25.5t-8 -22.5t-14.5 -14l31 -120h-40l-21 113h-17v-113z
M1001 46v-63h-33v283h32q13 -50 25.5 -98.5t22.5 -99.5q-4 50 -4.5 99t-0.5 99h33v-283h-34q-12 48 -25 96.5t-22 97.5q2 -33 3 -65.5t3 -65.5zM617 -17h-34l30 283h58l31 -283h-36l-7 67h-34zM1175 160q1 14 0 28.5t-5 26.5q-4 9 -11.5 14.5t-14.5 -5.5q-6 -10 -7 -24.5
t-2 -26.5q-1 -14 -1 -27v-26v-26.5t2 -26.5q0 -11 2 -25.5t11 -21.5q11 -7 16.5 2t8 23.5t3 29t0.5 19.5h-26v33h59v-142h-26l-1 38q-2 -12 -7.5 -25t-17.5 -17q-11 -4 -22 2t-18 15q-14 20 -16.5 49t-2.5 52q-2 29 -1 60t8 59q2 12 7.5 24t15.5 18q21 14 46 4
q12 -6 19 -17.5t10 -26t4 -29.5t1 -27zM227 409q5 9 12.5 16t16.5 9q8 3 16 -1t18 -1l-19 -39q-2 -4 -5.5 -12t0.5 -10q5 -5 11.5 2t11.5 15q2 6 5 11.5t6 11.5l8 21q9 0 15 5l-19 -44q-2 -4 -5 -11.5t1 -10.5q4 -5 10 1.5t10 14.5q4 11 9.5 22t10.5 22t9 21t9 21q7 -3 14 3
l-27 -64q-2 -6 -5 -12t-5 -11q-1 -3 -2.5 -7t-1.5 -7t1 -4.5t6 0.5t9.5 7.5t8.5 13.5q2 5 4 9l4 8q5 9 12 16t17 9q9 3 17 -1t17 -1q-5 -10 -9 -19t-9 -20q-2 -4 -5 -12t0 -10q3 -3 6.5 -1t7 6.5t6.5 9.5t5 8l1 2l33 77q8 0 13 3q-5 -14 -10 -27.5t-13 -25.5q7 8 16.5 13
t16.5 -7q7 -11 1 -27t-13 -24q6 -1 11.5 2t10.5 8q4 11 9 21.5t10 21.5l18 42q5 -2 14 3q-8 -16 -14 -32t-14 -32q-2 -6 -4.5 -12t-5.5 -11q-1 -3 -2 -7t-1 -7t1 -4.5t6 0.5t10.5 9t8.5 14q3 17 13 25q3 4 9.5 9t14 7.5t13.5 0.5t8 -12q1 -9 -3.5 -17t-12 -13.5t-16.5 -8.5
t-16 -3q-1 -7 3.5 -11t10.5 -4q13 0 24 8.5t18 20.5l4 -2q-8 -16 -23.5 -26t-31.5 -6q-17 3 -17 20q-4 -6 -8 -11t-9 -7q-7 -5 -15 -1.5t-6 14.5v2q-2 -2 -4 -2q-4 -4 -12 -4h-7q-2 0 -3 -2t-3 -2q-10 -8 -22 -6.5t-18 12.5q-8 -10 -17 -13t-13 3.5t0 14.5q-5 -8 -14 -15.5
t-18 -0.5q-7 4 -7 16q-7 -12 -14 -16q-8 -5 -15.5 -2t-6.5 12l-5.5 -5.5t-5.5 -4.5q-8 -5 -15.5 -2t-5.5 13q-5 -4 -9 -7.5t-9 -5.5q-9 -3 -12.5 3.5t0.5 14.5h-1q-5 -8 -13.5 -15.5t-18.5 -0.5q-5 2 -6 7.5t0 10.5q-4 -4 -10 -7q-4 -2 -13 -2q-5 0 -6 -1t-4 -3
q-11 -8 -24 -7t-9 20q2 14 8 26.5t11 23.5q6 0 14 5q-4 -9 -7 -17.5t-7 -16.5q-1 -3 -4 -8.5t-5 -11.5t-2 -10.5t4 -5.5q9 -2 17.5 9.5t11.5 17.5q5 9 8 20t3 22q9 2 10 -6t-1 -15q-4 -19 -18 -36q8 -3 15 3t11 14zM961 547q-11 0 -17.5 6t-10 15t-5 19.5t-1.5 20.5
q-2 22 -2 45.5t6 45.5q3 10 8.5 17.5t14.5 8.5q20 5 32 -15q9 -20 9 -43.5v-44.5q0 -11 -0.5 -24t-4 -24t-10.5 -19t-19 -8zM396 547q-11 0 -17.5 6t-10.5 15t-5 19.5t-2 20.5q-1 22 -1 45.5t6 45.5q3 10 8 17.5t16 8.5q21 5 31 -15q8 -20 8.5 -43.5t0.5 -44.5q0 -11 -1 -24
t-4.5 -24t-10 -19t-18.5 -8zM883 -17h-36v283h36v-283zM228 548h-21v176h23h15t13 -3q10 -6 13 -19t3 -24v-14.5t-1.5 -17t-4.5 -15t-9 -9.5l18 -74h-24l-13 70q-3 0 -6 0.5t-6 0.5v-71zM1025 587v-39h-21v176h20q8 -31 16 -61t14 -62q-2 30 -2.5 61t-0.5 62h21v-176h-22
q-8 29 -15.5 59.5t-13.5 61.5q2 -21 2.5 -41t1.5 -41zM89 548h-23v176h35q25 0 33 -30q4 -16 3 -37.5t-9 -37.5q-7 -11 -17.5 -12t-21.5 -1v-58zM460 587v-39h-21v176h20q8 -31 15.5 -61t13.5 -62q-2 30 -2.5 61t-0.5 62h21v-176h-22q-7 29 -14.5 59.5t-13.5 61.5
q2 -21 2 -41t2 -41zM533 548h-21l18 176h36l19 -176h-21l-5 43h-22zM714 547q-16 0 -23.5 10t-10 24t-2 30.5t0.5 29.5v83h23v-123q0 -5 -0.5 -11.5t1.5 -11.5q2 -6 7 -8.5t10 2.5t5.5 15t0.5 17q1 14 0.5 28t-0.5 28v64h22v-83q0 -13 0.5 -29.5t-1.5 -30.5t-9.5 -24
t-23.5 -10zM1110 433q7 -1 14 4q-3 -7 -5.5 -12.5t-7.5 -10.5v-2q7 8 15.5 16t17.5 9q12 0 11.5 -11t-3.5 -19q-2 -2 -4.5 -7t-5.5 -10t-4.5 -10t0.5 -8q2 -4 5.5 -2t7 6t7 9t5.5 8l20 44h-8l3 7h8l8 19q6 0 14 4l-10 -23h15l-4 -7h-14l-18 -43q-2 -5 -5 -11.5t-1 -11.5
q3 -3 7 -0.5t8.5 8t7.5 10.5t4 7l4 -2q-5 -9 -12 -19.5t-18 -12.5q-10 -3 -13 1.5t-1 11.5l-6 -6t-6 -5q-7 -5 -14.5 -2.5t-6.5 13.5q1 10 6.5 18.5t8.5 16.5q1 4 3.5 11.5t-4.5 6.5q-11 -2 -20.5 -16t-14.5 -24q-4 -6 -6.5 -13t-5.5 -15h-12l7 19l-1 -1q-3 -3 -10 -5h-9
q-5 -7 -11 -9t-9 -2q-9 -6 -18 3q-8 8 -6.5 20.5t5.5 23.5q5 11 14 19.5t22 8.5q10 0 14.5 -7t4.5 -16.5t-3.5 -19.5t-7.5 -16q13 0 20 13zM309 630q-11 8 -18 19t-9 26q-2 13 2 26t16 20q9 5 22 4.5t21 -10.5q9 -10 9 -22.5v-24.5q-6 0 -12 0.5t-11 0.5q0 7 0.5 15t-4.5 13
q-9 10 -14.5 2t-6.5 -18q0 -14 7.5 -21.5t15.5 -14.5t14.5 -15.5t8.5 -19.5q2 -12 0.5 -24t-7 -21.5t-14.5 -14.5t-21 -3q-21 4 -23.5 22t-1.5 37h21q0 -5 -0.5 -11t0.5 -13q2 -7 7.5 -11t11.5 1q5 5 6 14.5t-1 16.5q-2 9 -7 15.5t-12 11.5zM785 630q-23 15 -27 45
q-1 13 2.5 26t14.5 20q10 5 22.5 4.5t20.5 -10.5q9 -10 8.5 -22.5t-0.5 -24.5q-5 0 -10 0.5t-10 0.5q0 7 0.5 15t-5.5 13q-9 10 -14.5 2t-6.5 -18q0 -14 7 -21.5t15 -14.5q18 -13 24 -35q2 -12 0.5 -24t-7 -21.5t-14.5 -14.5t-22 -3q-10 2 -15 8t-7.5 14t-2.5 18v19h22
q0 -5 -1 -11t1 -13t7 -11t11 1q7 5 8 14.5t-1 16.5q-2 9 -7.5 15.5t-12.5 11.5zM201 548h-56v176h56v-24h-34v-49h28v-26h-28v-53h34v-24zM891 548h-55v176h55v-24h-32v-49h27v-26h-27v-53h32v-24zM129 400l-42 -3q-5 -8 -9.5 -19t-5.5 -22q-8 -2 -9.5 3t0 13t4.5 15.5
t5 9.5l-14 -1l-5 10h23q11 20 27 39.5t36 30.5q6 5 16 5.5t12 -11.5q2 -6 -0.5 -12.5t-4.5 -11.5q-5 -11 -9.5 -22t-9.5 -22q-3 -8 -9.5 -20.5t-2.5 -21.5q-9 -2 -11 3t-0.5 12t4.5 14.5t5 10.5zM1185 724h21q-5 -25 -10 -49.5t-10 -49.5q-5 -18 -3.5 -38t1.5 -39h-24
q0 19 0.5 39t-3.5 38q-5 25 -10 49.5t-10 49.5h21q4 -22 8 -44.5t6 -46.5q1 24 5 46t8 45zM815 363q-7 5 -5.5 13t4.5 16l17 40q7 0 14 5l-13 -31q-2 -5 -8 -17t-2 -17q6 -6 14.5 2.5t11.5 13.5t5 9.5t6 9.5l12 27q3 0 6 1l6 2q-4 -11 -8.5 -21.5t-9.5 -21.5q-2 -5 -5 -11.5
t0 -11.5q4 -6 10 1t11 15q4 11 9.5 22t10.5 22q4 11 8.5 21t9.5 21q6 -3 14 3l-28 -64l-10 -23q-1 -3 -2 -7t-1.5 -7t1 -4.5t5.5 0.5q9 3 16 15q4 11 9.5 22.5t10.5 22.5q4 11 8 21t9 21q7 -3 15 3l-28 -64l-10 -23q-1 -3 -2 -7t-1.5 -7t0.5 -4.5t6 0.5q7 2 12 10t8 15l4 -2
q-5 -9 -10 -17t-13 -13q-7 -5 -14 -2t-6 12q-7 -7 -13 -10q-7 -5 -14 -2t-6 13q-5 -6 -9.5 -10.5t-10.5 -4.5q-10 0 -11 7t2 14q-6 -8 -16.5 -16t-18.5 -2zM1135 548h-55v176h22v-154h33v-22zM645 548h-55v176h23v-154h32v-22zM754 125q6 0 12.5 -1t11.5 4q9 9 11 23.5
t2 25.5q0 13 -2 28t-10 24q-5 5 -12 4.5t-13 -0.5v-108zM687 433q6 -1 15 4q-4 -7 -6.5 -12.5t-6.5 -10.5v-2q6 8 15 16t18 9q12 0 11.5 -11t-4.5 -19q-1 -2 -4 -7t-5.5 -10t-4.5 -10t0 -8q2 -5 6.5 -2t8.5 8t7.5 10.5t4.5 7.5l4 -2q-5 -8 -10 -16.5t-13 -13.5
q-7 -5 -14 -2.5t-6 13.5q1 10 6.5 18.5t8.5 16.5q1 4 3 11.5t-5 6.5q-11 -2 -20 -16t-14 -24l-12 -28h-12l4 11l-4 -4t-4 -3q-8 -5 -15.5 -1.5t-5.5 14.5q0 9 4.5 17.5t7.5 16.5q7 9 10 21q10 0 15 5l-19 -44q-2 -4 -5.5 -11.5t-0.5 -10.5t7.5 0t8.5 8t7 10t4 7zM961 704
q-7 0 -10 -9t-4 -20.5t-0.5 -23t0.5 -15.5q0 -5 -0.5 -16t0.5 -22t4 -20t10 -9q6 0 9 9t4 20t0.5 22t-0.5 16q0 4 0.5 15.5t-0.5 23t-4 20.5t-9 9zM396 704q-7 0 -10 -9t-4 -20.5t-0.5 -23t0.5 -15.5q0 -5 -0.5 -16t0.5 -22t4 -20t10 -9q6 0 8.5 9t3.5 20t0.5 22t-0.5 16
q0 4 0.5 15.5t-0.5 23t-3.5 20.5t-8.5 9zM1212 724h23q0 -32 -1 -65t-3 -66h-15q-2 33 -3 65.5t-1 65.5zM154 475q-8 2 -19 -8t-16 -16q-16 -20 -29 -45h43l13 31q1 3 4 9t5 12t2.5 11t-3.5 6zM1058 460q-5 -4 -6.5 0t-0.5 9q-5 2 -9 0t-7 -6.5t-5 -9.5t-3 -9h14l-3 -7h-14
l-45 -104q-7 0 -14 -3l47 107h-16l3 7h16q3 9 8 18.5t15 11.5q6 2 15 -1q2 -2 6 -5.5t-1 -7.5zM850 460q-5 -4 -7 0t-1 9q-5 2 -9 0t-7 -6.5t-5 -9.5t-3 -9h14l-3 -7h-14l-45 -104q-7 0 -13 -3l45 107h-15l4 7h15q3 9 8 18.5t15 11.5q6 2 15 -1l5.5 -5.5t0.5 -7.5zM633 136
q-2 -11 -3 -23t-3 -23h30q-3 34 -8.5 67.5t-7.5 68.5q-1 -23 -3.5 -45t-4.5 -45zM89 626q5 0 9.5 -0.5t7.5 4.5q5 6 5.5 16.5t0.5 18.5t-0.5 18t-5.5 16q-3 5 -7.5 5h-9.5v-78zM1065 431q-8 0 -15.5 -10t-11.5 -22.5t-4 -22.5t8 -10q6 0 13 10.5t11.5 22.5t5 22t-6.5 10z
M945 7q0 -12 -6.5 -17.5t-14 -5.5t-13.5 5.5t-6 17.5t6 17.5t13.5 5.5t14 -5.5t6.5 -17.5zM572 7q0 -12 -6.5 -17.5t-14 -5.5t-13.5 5.5t-6 17.5t6 17.5t13.5 5.5t14 -5.5t6.5 -17.5zM470 428q-7 0 -12.5 -6t-10 -15t-8.5 -18.5t-7 -15.5q6 -5 11.5 -4.5t10.5 4.5t9 9t6 10
q1 3 4 9t4 12t0 10.5t-7 4.5zM235 369q7 0 13 6.5t10.5 16t8 19.5t6.5 17q-10 6 -20 -3.5t-15 -18.5l-4 -8t-4.5 -12.5t-1 -11.5t6.5 -5zM228 637q5 0 9 -0.5t7 1.5q6 5 7 14.5t1 17.5t-1 17.5t-7 14.5q-3 2 -7 2h-9v-67zM372 369q7 0 13.5 6.5t11 16t8 19.5t6.5 17
q-11 6 -21 -3.5t-15 -18.5l-4 -8t-4.5 -12.5t-1 -11.5t6.5 -5zM549 403q-6 -10 -7 -16q11 0 25 11t14 25q0 8 -5.5 7.5t-10.5 -4.5t-9 -10.5t-7 -12.5zM542 643l-3 -28h18q-2 21 -4.5 41.5t-3.5 41.5q-1 -13 -3 -27zM1236 563q0 -8 -4 -11.5t-8.5 -3.5t-8.5 3.5t-4 11.5
q0 7 4 10.5t8.5 3.5t8.5 -3.5t4 -10.5zM679 456q-4 -8 -11.5 -5t-5.5 11q3 10 12 7t5 -13zM332 456q-3 -8 -10.5 -5t-5.5 11q1 5 5 6.5t7.5 0.5t5 -4.5t-1.5 -8.5zM1216 367q-4 -8 -11.5 -4.5t-3.5 11.5q4 9 11.5 5t3.5 -12zM1237 421q-3 -9 -11 -5.5t-3 12.5q4 7 11 4
t3 -11z" />
    <glyph glyph-name="nine" unicode="9" horiz-adv-x="1272" 
d="M364 266h43q5 -60 8.5 -118t5.5 -117q3 45 5.5 89t7.5 89l6 57h40q5 -48 9 -96l8 -96l3 -43q3 47 4.5 93t5.5 91q2 13 2.5 25.5t1.5 25.5h31l-21 -283h-47q-5 56 -9.5 112t-6.5 113q-2 -42 -5 -84t-7 -84l-4 -57h-48l-12 159l-12 -159h-46l-10 112t-7 113
q-2 -42 -4.5 -84t-6.5 -84l-5 -57h-47l-12 162l-12 -162h-47q-5 56 -9.5 111.5t-6.5 112.5q-1 -43 -4 -84t-7 -83l-6 -57h-46l-22 283h31q5 -60 8.5 -118t5.5 -117q3 45 6 89t8 89l6 57h39q6 -48 10 -96t7 -96l3 -43q3 47 4.5 93t5.5 91l5 51h42q5 -60 8.5 -118t6.5 -117
q3 45 5.5 89t6.5 89q3 14 4 28t3 29h40q5 -48 9 -96l8 -96l2 -43q3 47 5 93t6 91zM1227 876h-1153v26h1153v-26zM1227 -197h-1153v25h1153v-25zM754 -17h-36v283h37h22t21 -5q18 -9 23 -31.5t5 -42.5v-22t-2.5 -25.5t-8 -22.5t-14.5 -14l31 -120h-40l-21 113h-17v-113z
M1001 46v-63h-33v283h32q13 -50 25.5 -98.5t22.5 -99.5q-4 50 -4.5 99t-0.5 99h33v-283h-34q-12 48 -25 96.5t-22 97.5q2 -33 3 -65.5t3 -65.5zM617 -17h-34l30 283h58l31 -283h-36l-7 67h-34zM1175 160q1 14 0 28.5t-5 26.5q-4 9 -11.5 14.5t-14.5 -5.5q-6 -10 -7 -24.5
t-2 -26.5q-1 -14 -1 -27v-26v-26.5t2 -26.5q0 -11 2 -25.5t11 -21.5q11 -7 16.5 2t8 23.5t3 29t0.5 19.5h-26v33h59v-142h-26l-1 38q-2 -12 -7.5 -25t-17.5 -17q-11 -4 -22 2t-18 15q-14 20 -16.5 49t-2.5 52q-2 29 -1 60t8 59q2 12 7.5 24t15.5 18q21 14 46 4
q12 -6 19 -17.5t10 -26t4 -29.5t1 -27zM227 409q5 9 12.5 16t16.5 9q8 3 16 -1t18 -1l-19 -39q-2 -4 -5.5 -12t0.5 -10q5 -5 11.5 2t11.5 15q2 6 5 11.5t6 11.5l8 21q9 0 15 5l-19 -44q-2 -4 -5 -11.5t1 -10.5q4 -5 10 1.5t10 14.5q4 11 9.5 22t10.5 22t9 21t9 21q7 -3 14 3
l-27 -64q-2 -6 -5 -12t-5 -11q-1 -3 -2.5 -7t-1.5 -7t1 -4.5t6 0.5t9.5 7.5t8.5 13.5q2 5 4 9l4 8q5 9 12 16t17 9q9 3 17 -1t17 -1q-5 -10 -9 -19t-9 -20q-2 -4 -5 -12t0 -10q3 -3 6.5 -1t7 6.5t6.5 9.5t5 8l1 2l33 77q8 0 13 3q-5 -14 -10 -27.5t-13 -25.5q7 8 16.5 13
t16.5 -7q7 -11 1 -27t-13 -24q6 -1 11.5 2t10.5 8q4 11 9 21.5t10 21.5l18 42q5 -2 14 3q-8 -16 -14 -32t-14 -32q-2 -6 -4.5 -12t-5.5 -11q-1 -3 -2 -7t-1 -7t1 -4.5t6 0.5t10.5 9t8.5 14q3 17 13 25q3 4 9.5 9t14 7.5t13.5 0.5t8 -12q1 -9 -3.5 -17t-12 -13.5t-16.5 -8.5
t-16 -3q-1 -7 3.5 -11t10.5 -4q13 0 24 8.5t18 20.5l4 -2q-8 -16 -23.5 -26t-31.5 -6q-17 3 -17 20q-4 -6 -8 -11t-9 -7q-7 -5 -15 -1.5t-6 14.5v2q-2 -2 -4 -2q-4 -4 -12 -4h-7q-2 0 -3 -2t-3 -2q-10 -8 -22 -6.5t-18 12.5q-8 -10 -17 -13t-13 3.5t0 14.5q-5 -8 -14 -15.5
t-18 -0.5q-7 4 -7 16q-7 -12 -14 -16q-8 -5 -15.5 -2t-6.5 12l-5.5 -5.5t-5.5 -4.5q-8 -5 -15.5 -2t-5.5 13q-5 -4 -9 -7.5t-9 -5.5q-9 -3 -12.5 3.5t0.5 14.5h-1q-5 -8 -13.5 -15.5t-18.5 -0.5q-5 2 -6 7.5t0 10.5q-4 -4 -10 -7q-4 -2 -13 -2q-5 0 -6 -1t-4 -3
q-11 -8 -24 -7t-9 20q2 14 8 26.5t11 23.5q6 0 14 5q-4 -9 -7 -17.5t-7 -16.5q-1 -3 -4 -8.5t-5 -11.5t-2 -10.5t4 -5.5q9 -2 17.5 9.5t11.5 17.5q5 9 8 20t3 22q9 2 10 -6t-1 -15q-4 -19 -18 -36q8 -3 15 3t11 14zM961 547q-11 0 -17.5 6t-10 15t-5 19.5t-1.5 20.5
q-2 22 -2 45.5t6 45.5q3 10 8.5 17.5t14.5 8.5q20 5 32 -15q9 -20 9 -43.5v-44.5q0 -11 -0.5 -24t-4 -24t-10.5 -19t-19 -8zM396 547q-11 0 -17.5 6t-10.5 15t-5 19.5t-2 20.5q-1 22 -1 45.5t6 45.5q3 10 8 17.5t16 8.5q21 5 31 -15q8 -20 8.5 -43.5t0.5 -44.5q0 -11 -1 -24
t-4.5 -24t-10 -19t-18.5 -8zM883 -17h-36v283h36v-283zM228 548h-21v176h23h15t13 -3q10 -6 13 -19t3 -24v-14.5t-1.5 -17t-4.5 -15t-9 -9.5l18 -74h-24l-13 70q-3 0 -6 0.5t-6 0.5v-71zM1025 587v-39h-21v176h20q8 -31 16 -61t14 -62q-2 30 -2.5 61t-0.5 62h21v-176h-22
q-8 29 -15.5 59.5t-13.5 61.5q2 -21 2.5 -41t1.5 -41zM89 548h-23v176h35q25 0 33 -30q4 -16 3 -37.5t-9 -37.5q-7 -11 -17.5 -12t-21.5 -1v-58zM460 587v-39h-21v176h20q8 -31 15.5 -61t13.5 -62q-2 30 -2.5 61t-0.5 62h21v-176h-22q-7 29 -14.5 59.5t-13.5 61.5
q2 -21 2 -41t2 -41zM533 548h-21l18 176h36l19 -176h-21l-5 43h-22zM714 547q-16 0 -23.5 10t-10 24t-2 30.5t0.5 29.5v83h23v-123q0 -5 -0.5 -11.5t1.5 -11.5q2 -6 7 -8.5t10 2.5t5.5 15t0.5 17q1 14 0.5 28t-0.5 28v64h22v-83q0 -13 0.5 -29.5t-1.5 -30.5t-9.5 -24
t-23.5 -10zM1110 433q7 -1 14 4q-3 -7 -5.5 -12.5t-7.5 -10.5v-2q7 8 15.5 16t17.5 9q12 0 11.5 -11t-3.5 -19q-2 -2 -4.5 -7t-5.5 -10t-4.5 -10t0.5 -8q2 -4 5.5 -2t7 6t7 9t5.5 8l20 44h-8l3 7h8l8 19q6 0 14 4l-10 -23h15l-4 -7h-14l-18 -43q-2 -5 -5 -11.5t-1 -11.5
q3 -3 7 -0.5t8.5 8t7.5 10.5t4 7l4 -2q-5 -9 -12 -19.5t-18 -12.5q-10 -3 -13 1.5t-1 11.5l-6 -6t-6 -5q-7 -5 -14.5 -2.5t-6.5 13.5q1 10 6.5 18.5t8.5 16.5q1 4 3.5 11.5t-4.5 6.5q-11 -2 -20.5 -16t-14.5 -24q-4 -6 -6.5 -13t-5.5 -15h-12l7 19l-1 -1q-3 -3 -10 -5h-9
q-5 -7 -11 -9t-9 -2q-9 -6 -18 3q-8 8 -6.5 20.5t5.5 23.5q5 11 14 19.5t22 8.5q10 0 14.5 -7t4.5 -16.5t-3.5 -19.5t-7.5 -16q13 0 20 13zM309 630q-11 8 -18 19t-9 26q-2 13 2 26t16 20q9 5 22 4.5t21 -10.5q9 -10 9 -22.5v-24.5q-6 0 -12 0.5t-11 0.5q0 7 0.5 15t-4.5 13
q-9 10 -14.5 2t-6.5 -18q0 -14 7.5 -21.5t15.5 -14.5t14.5 -15.5t8.5 -19.5q2 -12 0.5 -24t-7 -21.5t-14.5 -14.5t-21 -3q-21 4 -23.5 22t-1.5 37h21q0 -5 -0.5 -11t0.5 -13q2 -7 7.5 -11t11.5 1q5 5 6 14.5t-1 16.5q-2 9 -7 15.5t-12 11.5zM785 630q-23 15 -27 45
q-1 13 2.5 26t14.5 20q10 5 22.5 4.5t20.5 -10.5q9 -10 8.5 -22.5t-0.5 -24.5q-5 0 -10 0.5t-10 0.5q0 7 0.5 15t-5.5 13q-9 10 -14.5 2t-6.5 -18q0 -14 7 -21.5t15 -14.5q18 -13 24 -35q2 -12 0.5 -24t-7 -21.5t-14.5 -14.5t-22 -3q-10 2 -15 8t-7.5 14t-2.5 18v19h22
q0 -5 -1 -11t1 -13t7 -11t11 1q7 5 8 14.5t-1 16.5q-2 9 -7.5 15.5t-12.5 11.5zM201 548h-56v176h56v-24h-34v-49h28v-26h-28v-53h34v-24zM891 548h-55v176h55v-24h-32v-49h27v-26h-27v-53h32v-24zM129 400l-42 -3q-5 -8 -9.5 -19t-5.5 -22q-8 -2 -9.5 3t0 13t4.5 15.5
t5 9.5l-14 -1l-5 10h23q11 20 27 39.5t36 30.5q6 5 16 5.5t12 -11.5q2 -6 -0.5 -12.5t-4.5 -11.5q-5 -11 -9.5 -22t-9.5 -22q-3 -8 -9.5 -20.5t-2.5 -21.5q-9 -2 -11 3t-0.5 12t4.5 14.5t5 10.5zM1185 724h21q-5 -25 -10 -49.5t-10 -49.5q-5 -18 -3.5 -38t1.5 -39h-24
q0 19 0.5 39t-3.5 38q-5 25 -10 49.5t-10 49.5h21q4 -22 8 -44.5t6 -46.5q1 24 5 46t8 45zM815 363q-7 5 -5.5 13t4.5 16l17 40q7 0 14 5l-13 -31q-2 -5 -8 -17t-2 -17q6 -6 14.5 2.5t11.5 13.5t5 9.5t6 9.5l12 27q3 0 6 1l6 2q-4 -11 -8.5 -21.5t-9.5 -21.5q-2 -5 -5 -11.5
t0 -11.5q4 -6 10 1t11 15q4 11 9.5 22t10.5 22q4 11 8.5 21t9.5 21q6 -3 14 3l-28 -64l-10 -23q-1 -3 -2 -7t-1.5 -7t1 -4.5t5.5 0.5q9 3 16 15q4 11 9.5 22.5t10.5 22.5q4 11 8 21t9 21q7 -3 15 3l-28 -64l-10 -23q-1 -3 -2 -7t-1.5 -7t0.5 -4.5t6 0.5q7 2 12 10t8 15l4 -2
q-5 -9 -10 -17t-13 -13q-7 -5 -14 -2t-6 12q-7 -7 -13 -10q-7 -5 -14 -2t-6 13q-5 -6 -9.5 -10.5t-10.5 -4.5q-10 0 -11 7t2 14q-6 -8 -16.5 -16t-18.5 -2zM1135 548h-55v176h22v-154h33v-22zM645 548h-55v176h23v-154h32v-22zM754 125q6 0 12.5 -1t11.5 4q9 9 11 23.5
t2 25.5q0 13 -2 28t-10 24q-5 5 -12 4.5t-13 -0.5v-108zM687 433q6 -1 15 4q-4 -7 -6.5 -12.5t-6.5 -10.5v-2q6 8 15 16t18 9q12 0 11.5 -11t-4.5 -19q-1 -2 -4 -7t-5.5 -10t-4.5 -10t0 -8q2 -5 6.5 -2t8.5 8t7.5 10.5t4.5 7.5l4 -2q-5 -8 -10 -16.5t-13 -13.5
q-7 -5 -14 -2.5t-6 13.5q1 10 6.5 18.5t8.5 16.5q1 4 3 11.5t-5 6.5q-11 -2 -20 -16t-14 -24l-12 -28h-12l4 11l-4 -4t-4 -3q-8 -5 -15.5 -1.5t-5.5 14.5q0 9 4.5 17.5t7.5 16.5q7 9 10 21q10 0 15 5l-19 -44q-2 -4 -5.5 -11.5t-0.5 -10.5t7.5 0t8.5 8t7 10t4 7zM961 704
q-7 0 -10 -9t-4 -20.5t-0.5 -23t0.5 -15.5q0 -5 -0.5 -16t0.5 -22t4 -20t10 -9q6 0 9 9t4 20t0.5 22t-0.5 16q0 4 0.5 15.5t-0.5 23t-4 20.5t-9 9zM396 704q-7 0 -10 -9t-4 -20.5t-0.5 -23t0.5 -15.5q0 -5 -0.5 -16t0.5 -22t4 -20t10 -9q6 0 8.5 9t3.5 20t0.5 22t-0.5 16
q0 4 0.5 15.5t-0.5 23t-3.5 20.5t-8.5 9zM1212 724h23q0 -32 -1 -65t-3 -66h-15q-2 33 -3 65.5t-1 65.5zM154 475q-8 2 -19 -8t-16 -16q-16 -20 -29 -45h43l13 31q1 3 4 9t5 12t2.5 11t-3.5 6zM1058 460q-5 -4 -6.5 0t-0.5 9q-5 2 -9 0t-7 -6.5t-5 -9.5t-3 -9h14l-3 -7h-14
l-45 -104q-7 0 -14 -3l47 107h-16l3 7h16q3 9 8 18.5t15 11.5q6 2 15 -1q2 -2 6 -5.5t-1 -7.5zM850 460q-5 -4 -7 0t-1 9q-5 2 -9 0t-7 -6.5t-5 -9.5t-3 -9h14l-3 -7h-14l-45 -104q-7 0 -13 -3l45 107h-15l4 7h15q3 9 8 18.5t15 11.5q6 2 15 -1l5.5 -5.5t0.5 -7.5zM633 136
q-2 -11 -3 -23t-3 -23h30q-3 34 -8.5 67.5t-7.5 68.5q-1 -23 -3.5 -45t-4.5 -45zM89 626q5 0 9.5 -0.5t7.5 4.5q5 6 5.5 16.5t0.5 18.5t-0.5 18t-5.5 16q-3 5 -7.5 5h-9.5v-78zM1065 431q-8 0 -15.5 -10t-11.5 -22.5t-4 -22.5t8 -10q6 0 13 10.5t11.5 22.5t5 22t-6.5 10z
M945 7q0 -12 -6.5 -17.5t-14 -5.5t-13.5 5.5t-6 17.5t6 17.5t13.5 5.5t14 -5.5t6.5 -17.5zM572 7q0 -12 -6.5 -17.5t-14 -5.5t-13.5 5.5t-6 17.5t6 17.5t13.5 5.5t14 -5.5t6.5 -17.5zM470 428q-7 0 -12.5 -6t-10 -15t-8.5 -18.5t-7 -15.5q6 -5 11.5 -4.5t10.5 4.5t9 9t6 10
q1 3 4 9t4 12t0 10.5t-7 4.5zM235 369q7 0 13 6.5t10.5 16t8 19.5t6.5 17q-10 6 -20 -3.5t-15 -18.5l-4 -8t-4.5 -12.5t-1 -11.5t6.5 -5zM228 637q5 0 9 -0.5t7 1.5q6 5 7 14.5t1 17.5t-1 17.5t-7 14.5q-3 2 -7 2h-9v-67zM372 369q7 0 13.5 6.5t11 16t8 19.5t6.5 17
q-11 6 -21 -3.5t-15 -18.5l-4 -8t-4.5 -12.5t-1 -11.5t6.5 -5zM549 403q-6 -10 -7 -16q11 0 25 11t14 25q0 8 -5.5 7.5t-10.5 -4.5t-9 -10.5t-7 -12.5zM542 643l-3 -28h18q-2 21 -4.5 41.5t-3.5 41.5q-1 -13 -3 -27zM1236 563q0 -8 -4 -11.5t-8.5 -3.5t-8.5 3.5t-4 11.5
q0 7 4 10.5t8.5 3.5t8.5 -3.5t4 -10.5zM679 456q-4 -8 -11.5 -5t-5.5 11q3 10 12 7t5 -13zM332 456q-3 -8 -10.5 -5t-5.5 11q1 5 5 6.5t7.5 0.5t5 -4.5t-1.5 -8.5zM1216 367q-4 -8 -11.5 -4.5t-3.5 11.5q4 9 11.5 5t3.5 -12zM1237 421q-3 -9 -11 -5.5t-3 12.5q4 7 11 4
t3 -11z" />
    <glyph glyph-name="parenleft" unicode="(" horiz-adv-x="417" 
d="M92 315q0 108 16.5 189.5t48 138.5t78 90t107.5 45l27 -77q-20 -15 -40 -41.5t-35.5 -71t-25 -111t-9.5 -162.5t9.5 -162.5t25 -111.5t35.5 -71t40 -41l-27 -77q-61 12 -107.5 45t-78 90t-48 138.5t-16.5 189.5z" />
    <glyph glyph-name="hyphen" unicode="-" horiz-adv-x="357" 
d="M51 376h254v-125h-254v125z" />
    <glyph glyph-name="period" unicode="." horiz-adv-x="252" 
d="M32 98q0 45 26.5 71t70.5 26t70.5 -26t26.5 -71t-26.5 -70.5t-70.5 -25.5t-70.5 25.5t-26.5 70.5z" />
    <glyph glyph-name="slash" unicode="/" horiz-adv-x="551" 
d="M530 810l-361 -810h-149l361 810h149z" />
    <glyph glyph-name="comma" unicode="," horiz-adv-x="260" 
d="M79 -77q11 25 16.5 46t5.5 37q-30 7 -48 31.5t-19 56.5q-1 19 5 37.5t18 32.5t30.5 22.5t41.5 8.5q31 0 57.5 -14t36 -46.5t-2 -84.5t-54.5 -127h-87z" />
    <glyph glyph-name="exclam" unicode="!" horiz-adv-x="223" 
d="M17 98q0 45 26.5 71t70.5 26t70.5 -26t26.5 -71t-26.5 -70.5t-70.5 -25.5t-70.5 25.5t-26.5 70.5zM52 269l-21 531h167l-21 -531h-125z" />
    <glyph glyph-name="question" unicode="?" horiz-adv-x="477" 
d="M139 98q0 45 26.5 71t70.5 26t70.5 -26t26.5 -71t-26.5 -70.5t-70.5 -25.5t-70.5 25.5t-26.5 70.5zM173 269q0 54 18.5 87.5t41.5 62.5t42.5 62.5t21.5 87.5q2 60 -13.5 93t-49.5 33q-31 0 -46 -38t-15 -119l-165 14q0 59 13.5 108t40.5 84.5t67.5 55.5t94.5 20
q64 0 109.5 -18t74 -49.5t41.5 -74t13 -90.5q0 -51 -12 -86t-30.5 -60.5t-39.5 -44.5t-39.5 -37.5t-30.5 -39.5t-12 -51h-125z" />
    <glyph glyph-name="ring" unicode="&#x2da;" horiz-adv-x="352" 
d="M175 634q-30 0 -54.5 10.5t-41 27.5t-25.5 38.5t-9 44.5t9 44.5t25.5 38.5t41 27.5t54.5 10.5t54.5 -10.5t41 -27.5t25.5 -38.5t9 -44.5t-9 -44.5t-25.5 -38.5t-41 -27.5t-54.5 -10.5zM175 709q14 0 23.5 11.5t9.5 34.5t-10 34.5t-23 11.5q-14 0 -23.5 -13t-9.5 -33
q0 -23 9.5 -34.5t23.5 -11.5z" />
    <glyph glyph-name="dieresis" unicode="&#xa8;" horiz-adv-x="418" 
d="M30 730q0 35 21 55.5t55 20.5t55 -20.5t21 -55.5t-21 -55.5t-55 -20.5t-55 20.5t-21 55.5zM241 730q0 35 21 55.5t55 20.5t55 -20.5t21 -55.5t-21 -55.5t-55 -20.5t-55 20.5t-21 55.5z" />
    <glyph glyph-name="dotaccent" unicode="&#x2d9;" horiz-adv-x="213" 
d="M30 730q0 35 21 55.5t55 20.5t55 -20.5t21 -55.5t-21 -55.5t-55 -20.5t-55 20.5t-21 55.5z" />
    <glyph glyph-name="breve" unicode="&#x2d8;" horiz-adv-x="332" 
d="M330 796q0 -27 -10 -52t-30 -44.5t-51 -31.5t-73 -12t-73.5 12t-51.5 31.5t-30 44.5t-10 52h117q0 -27 15.5 -40.5t32.5 -13.5t32 13.5t15 40.5h117z" />
    <glyph glyph-name="macron" unicode="&#xaf;" horiz-adv-x="386" 
d="M16 803h357v-125h-357v125z" />
    <glyph glyph-name="parenright" unicode=")" horiz-adv-x="417" 
d="M307 315q0 -217 -64 -328.5t-185 -134.5l-28 77q20 15 40 41.5t35.5 71t25 111t9.5 162.5t-9.5 162.5t-25 111.5t-35.5 71t-40 41l28 77q121 -23 185 -134.5t64 -328.5z" />
    <glyph glyph-name="caron" unicode="&#x2c7;" horiz-adv-x="386" 
d="M355 723l-166 -92l-166 92v112l166 -99l166 99v-112z" />
    <glyph glyph-name="circumflex" unicode="&#x2c6;" horiz-adv-x="386" 
d="M355 631l-166 99l-166 -99v112l166 92l166 -92v-112z" />
    <glyph glyph-name="asciicircum" unicode="^" horiz-adv-x="486" 
d="M405 589l-166 139l-166 -139v114l166 132l166 -132v-114z" />
    <glyph glyph-name="acute" unicode="&#xb4;" horiz-adv-x="354" 
d="M43 643l111 193h153l-159 -193h-105z" />
    <glyph glyph-name="tilde" unicode="&#x2dc;" horiz-adv-x="569" 
d="M113 744q33 43 63 57t58.5 11.5t56 -14t54.5 -17.5t54 0t56 38v-84q-32 -43 -62 -57t-58.5 -12t-56.5 13.5t-55.5 17.5t-55 0t-54.5 -37v84z" />
    <glyph glyph-name="asciitilde" unicode="~" horiz-adv-x="491" 
d="M71 346q33 43 63 56.5t58.5 11t56 -14t54.5 -17.5t54 0t56 38v-84q-32 -43 -62 -57t-58.5 -12t-56.5 13.5t-55.5 17.5t-55 0t-54.5 -37v85z" />
    <glyph glyph-name="endash" unicode="&#x2013;" horiz-adv-x="608" 
d="M50 376h508v-125h-508v125z" />
    <glyph glyph-name="emdash" unicode="&#x2014;" horiz-adv-x="862" 
d="M50 376h762v-125h-762v125z" />
    <glyph glyph-name="fraction" unicode="&#x2044;" horiz-adv-x="281" 
d="M396 810l-361 -810h-150l361 810h150z" />
    <glyph glyph-name="percent" unicode="%" horiz-adv-x="818" 
d="M712 730l-461 -730h-149l461 730h149zM202 326q-77 0 -115 57.5t-38 154.5t38 154.5t115 57.5q78 0 116 -57.5t38 -154.5t-38 -154.5t-116 -57.5zM202 422q22 0 35.5 25.5t13.5 90.5t-13.5 90.5t-35.5 25.5t-36 -25.5t-14 -90.5t14 -90.5t36 -25.5zM615 -20
q-78 0 -115.5 57.5t-37.5 154.5t37.5 154.5t115.5 57.5t116 -57.5t38 -154.5t-38 -154.5t-116 -57.5zM615 76q21 0 35 25.5t14 90.5t-14 90.5t-35 25.5q-22 0 -36 -25.5t-14 -90.5t14 -90.5t36 -25.5z" />
    <glyph glyph-name="grave" unicode="`" horiz-adv-x="354" 
d="M202 643l-159 193h153l111 -193h-105z" />
    <glyph glyph-name="quotesingle" unicode="'" horiz-adv-x="224" 
d="M51 499l-21 301h167l-21 -301h-125z" />
    <glyph glyph-name="quotedbl" unicode="&#x22;" horiz-adv-x="405" 
d="M51 499l-21 301h149l-12 -301h-116zM232 499l-12 301h149l-21 -301h-116z" />
    <glyph glyph-name="underscore" unicode="_" horiz-adv-x="481" 
d="M50 -24h380v-125h-380v125z" />
    <glyph glyph-name="minus" unicode="&#x2212;" horiz-adv-x="481" 
d="M50 426h380v-125h-380v125z" />
    <glyph glyph-name="plus" unicode="+" horiz-adv-x="481" 
d="M50 426h127v158h125v-158h128v-125h-128v-157h-125v157h-127v125z" />
    <glyph glyph-name="equal" unicode="=" horiz-adv-x="481" 
d="M50 526h380v-125h-380v125zM50 326h380v-125h-380v125z" />
    <glyph glyph-name="colon" unicode=":" horiz-adv-x="252" 
d="M32 98q0 45 26.5 71t70.5 26t70.5 -26t26.5 -71t-26.5 -70.5t-70.5 -25.5t-70.5 25.5t-26.5 70.5zM32 493q0 45 26.5 71t70.5 26t70.5 -26t26.5 -71t-26.5 -70.5t-70.5 -25.5t-70.5 25.5t-26.5 70.5z" />
    <glyph glyph-name="semicolon" unicode=";" horiz-adv-x="252" 
d="M32 493q0 45 26.5 71t70.5 26t70.5 -26t26.5 -71t-26.5 -70.5t-70.5 -25.5t-70.5 25.5t-26.5 70.5zM79 -77q11 25 16.5 46t5.5 37q-30 7 -48 31.5t-19 56.5q-1 19 5 37.5t18 32.5t30.5 22.5t41.5 8.5q31 0 57.5 -14t36 -46.5t-2 -84.5t-54.5 -127h-87z" />
    <glyph glyph-name="quoteright" unicode="&#x2019;" horiz-adv-x="260" 
d="M79 488q23 72 22 113q-32 8 -49 32t-18 56q-1 19 5 37.5t18 33t30.5 22.5t41.5 8q30 0 56.5 -14t37 -48.5t-1 -92.5t-55.5 -147h-87z" />
    <glyph glyph-name="quoteleft" unicode="&#x2018;" horiz-adv-x="260" 
d="M181 791q-23 -73 -22 -114q32 -7 49 -31t19 -57q1 -20 -5.5 -38t-18.5 -32.5t-30.5 -22.5t-41.5 -8q-30 0 -56.5 14t-36.5 48.5t1 93t56 147.5h86z" />
    <glyph glyph-name="quotedblright" unicode="&#x201d;" horiz-adv-x="498" 
d="M79 488q23 72 22 113q-32 8 -49 32t-18 56q-1 19 5 37.5t18 33t30.5 22.5t41.5 8q30 0 56.5 -14t37 -48.5t-1 -92.5t-55.5 -147h-87zM304 488q23 72 22 113q-32 8 -49 32t-19 56q-1 19 5.5 37.5t18.5 33t30.5 22.5t41.5 8q30 0 56.5 -14t37 -48.5t-1 -92.5t-55.5 -147
h-87z" />
    <glyph glyph-name="quotedblleft" unicode="&#x201c;" horiz-adv-x="498" 
d="M406 791q-23 -73 -22 -114q32 -7 49 -31t19 -57q1 -20 -5.5 -38t-18.5 -32.5t-30.5 -22.5t-41.5 -8q-30 0 -56.5 14t-36.5 48.5t1 93t56 147.5h86zM181 791q-23 -73 -22 -114q32 -7 49 -31t19 -57q1 -20 -5.5 -38t-18.5 -32.5t-30.5 -22.5t-41.5 -8q-30 0 -56.5 14
t-36.5 48.5t1 93t56 147.5h86z" />
    <glyph glyph-name="quotesinglbase" unicode="&#x201a;" horiz-adv-x="260" 
d="M79 -112q23 72 22 113q-32 8 -49 32t-18 56q-1 19 5 37.5t18 33t30.5 22.5t41.5 8q30 0 56.5 -14t37 -48.5t-1 -92.5t-55.5 -147h-87z" />
    <glyph glyph-name="quotedblbase" unicode="&#x201e;" horiz-adv-x="498" 
d="M79 -112q23 72 22 113q-32 8 -49 32t-18 56q-1 19 5 37.5t18 33t30.5 22.5t41.5 8q30 0 56.5 -14t37 -48.5t-1 -92.5t-55.5 -147h-87zM304 -112q23 72 22 113q-32 8 -49 32t-19 56q-1 19 5.5 37.5t18.5 33t30.5 22.5t41.5 8q30 0 56.5 -14t37 -48.5t-1 -92.5t-55.5 -147
h-87z" />
    <glyph glyph-name="florin" unicode="&#x192;" horiz-adv-x="321" 
d="M19 551h39v66q0 65 20.5 109.5t56.5 67.5t84.5 25t104.5 -19v-125q-32 11 -51.5 12t-30 -6.5t-14 -24t-3.5 -39.5v-66h91v-125h-91v-499q0 -92 -56 -122.5t-149 -4.5v115q26 -5 32 2t6 24v485h-39v125z" />
    <glyph glyph-name="at" unicode="@" horiz-adv-x="954" 
d="M704 -167q-93 -60 -226 -60q-102 0 -181.5 36t-134.5 103t-83.5 162.5t-28.5 215.5t28.5 215.5t83.5 162.5t134.5 103t181.5 36t181.5 -36t133.5 -103t82.5 -162.5t28.5 -215.5q0 -138 -49.5 -214t-140.5 -76q-49 0 -88 17t-62 60q-22 -45 -60.5 -71t-85.5 -26
q-33 0 -63.5 12.5t-53.5 35t-36.5 54.5t-13.5 71q0 54 21.5 87t53.5 53t69.5 30.5t69.5 19t53.5 19t21.5 31.5q0 51 -11 77t-49 26q-22 0 -41 -26.5t-17 -75.5l-161 15q-4 39 11 77t44 68t70.5 48.5t91.5 18.5q56 0 98.5 -16.5t71 -46.5t43 -72t14.5 -93v-197q2 -37 14 -48
t28 -9q10 1 18 9t13.5 25t8.5 45.5t3 71.5q0 110 -22.5 187.5t-63.5 126t-98.5 71t-127.5 22.5t-128 -22.5t-99 -71t-64 -126t-23 -187.5q0 -111 23 -188.5t64 -126t99 -70.5t128 -22q44 0 83 8t72 27zM540 271q-19 -16 -41 -23t-41 -14.5t-32 -21t-13 -43.5t17 -47t41 -17
q26 0 46 23.5t23 67.5v75z" />
    <glyph glyph-name="less" unicode="&#x3c;" horiz-adv-x="459" 
d="M236 102l-147 229l147 229h138l-140 -229l140 -229h-138z" />
    <glyph glyph-name="greater" unicode="&#x3e;" horiz-adv-x="459" 
d="M89 102l140 229l-140 229h139l146 -229l-146 -229h-139z" />
    <glyph glyph-name="bracketleft" unicode="[" horiz-adv-x="489" 
d="M422 -61v-90h-282v936h282v-90h-122v-756h122z" />
    <glyph glyph-name="bracketright" unicode="]" horiz-adv-x="489" 
d="M162 -61v756h-122v90h282v-936h-282v90h122z" />
    <glyph glyph-name="braceleft" unicode="{" horiz-adv-x="417" 
d="M86 378q28 0 40 13t14.5 36t-0.5 53.5t-3 65.5q-2 120 58 176.5t173 55.5l29 -82q-31 -3 -51.5 -19t-32.5 -41t-16.5 -57.5t-3.5 -68.5q1 -31 4 -63t1 -60t-13.5 -47.5t-39.5 -24.5q29 -6 40.5 -26.5t14 -49t-0.5 -62t-4 -64.5q-1 -35 3 -67.5t15.5 -57.5t32 -40.5
t52.5 -16.5l-30 -84q-63 0 -107 17t-71 47.5t-39 73t-12 93.5q0 35 3 66.5t0.5 55.5t-14.5 38t-42 14v126z" />
    <glyph glyph-name="braceright" unicode="}" horiz-adv-x="417" 
d="M325 252q-30 0 -42 -14t-14 -38t1 -55.5t3 -66.5q0 -51 -12 -93.5t-39.5 -73t-71.5 -47.5t-107 -17l-30 84q32 1 52.5 16.5t32 40.5t15.5 57.5t3 67.5q-1 31 -4 64.5t-0.5 62t14 49t40.5 26.5q-28 5 -39.5 24.5t-13.5 47.5t1 60t4 63q1 36 -3.5 68.5t-16.5 57.5t-32.5 41
t-51.5 19l29 82q112 1 172.5 -55.5t59.5 -176.5q0 -35 -3 -65.5t-1 -53.5t13.5 -36t40.5 -13v-126v0z" />
    <glyph glyph-name="bar" unicode="|" horiz-adv-x="225" 
d="M29 -200v1010h167v-1010h-167z" />
    <glyph glyph-name="brokenbar" unicode="&#xa6;" horiz-adv-x="225" 
d="M29 345v465h167v-465h-167zM196 258v-458h-167v458h167z" />
    <glyph glyph-name="section" unicode="&#xa7;" horiz-adv-x="470" 
d="M447 304q0 -57 -26 -103q12 -18 19 -41.5t7 -55.5q0 -42 -13.5 -77.5t-40 -61.5t-64.5 -41t-86 -15q-54 0 -96.5 15t-71 43t-42 68t-8.5 89l146 10q-2 -26 3 -45t14.5 -31t21 -18t23.5 -6q25 0 38 18.5t13 40.5q0 31 -18.5 48.5t-45.5 30t-59.5 24.5t-59.5 32.5t-45.5 54
t-18.5 89.5q0 52 26 95q-12 20 -19 45.5t-7 59.5q0 36 12.5 68.5t37.5 56.5t61.5 38.5t83.5 14.5q53 0 92.5 -15t65.5 -41.5t38.5 -62.5t11.5 -79l-155 -12q4 37 -6.5 61t-40.5 24q-24 0 -36.5 -15.5t-12.5 -38.5q0 -30 19 -46t48 -27.5t62 -22.5t62 -31t48 -52.5t19 -87.5z
M307 302q0 22 -12 35.5t-32 22.5t-45 16.5t-51 16.5q-1 -6 -1 -11.5v-10.5q0 -22 12 -36t31.5 -24t44.5 -17.5t51 -16.5q1 8 1.5 14t0.5 11z" />
    <glyph glyph-name="backslash" unicode="\" horiz-adv-x="551" 
d="M169 810l361 -810h-149l-361 810h149z" />
    <glyph glyph-name="multiply" unicode="&#xd7;" horiz-adv-x="459" 
d="M15 122l117 229l-117 229h141l56 -158l56 158h142l-118 -229l118 -229h-137l-61 157l-61 -157h-136z" />
    <glyph glyph-name="guilsinglleft" unicode="&#x2039;" horiz-adv-x="459" 
d="M236 102l-147 229l147 229h138l-140 -229l140 -229h-138z" />
    <glyph glyph-name="guilsinglright" unicode="&#x203a;" horiz-adv-x="459" 
d="M89 102l140 229l-140 229h139l146 -229l-146 -229h-139z" />
    <glyph glyph-name="guillemotleft" unicode="&#xab;" horiz-adv-x="630" 
d="M196 102l-146 229l146 229h138l-139 -229l139 -229h-138zM441 102l-146 229l146 229h139l-140 -229l140 -229h-139z" />
    <glyph glyph-name="guillemotright" unicode="&#xbb;" horiz-adv-x="630" 
d="M295 102l140 229l-140 229h138l147 -229l-147 -229h-138zM50 102l140 229l-140 229h138l146 -229l-146 -229h-138z" />
    <glyph glyph-name="asterisk" unicode="*" horiz-adv-x="475" 
d="M10 415h103l-72 165h141l38 -162l40 162h141l-72 -165h100v-125h-102l74 -168h-136l-45 160l-43 -160h-136l73 168h-104v125z" />
    <glyph glyph-name="numbersign" unicode="#" horiz-adv-x="517" 
d="M50 526h57v69h121v-69h60v69h121v-69h58v-111h-58v-103h58v-111h-58v-68h-121v68h-60v-68h-121v68h-57v111h57v103h-57v111zM228 312h60v103h-60v-103z" />
    <glyph glyph-name="dollar" unicode="$" horiz-adv-x="573" 
d="M27 532q0 52 31 102t95 78v90h121v-64h9q5 0 10 -0.5t10 -0.5v65h120v-87q72 -29 103 -83.5t23 -123.5l-167 -12q3 28 -2.5 51.5t-18 40.5t-31.5 27t-43 10q-38 0 -65.5 -23.5t-27.5 -61.5q0 -27 15.5 -45.5t40 -33.5t56.5 -27.5t65.5 -26.5t65.5 -31.5t56.5 -41.5
t40 -57.5t15.5 -79.5q0 -26 -7.5 -53.5t-23.5 -52.5t-39.5 -46.5t-55.5 -36.5v-90h-120v64h-9q-5 0 -10 0.5t-10 0.5v-65h-121v87q-72 29 -103 85.5t-23 129.5l167 12q-3 -29 3 -54t18.5 -43.5t31.5 -29.5t42 -11q20 0 37 7.5t29.5 21t19.5 30.5t7 37q0 28 -15.5 47t-40 33
t-56.5 25.5t-65.5 24t-65.5 29t-56.5 41t-40 59t-15.5 83.5z" />
    <glyph glyph-name="yen" unicode="&#xa5;" horiz-adv-x="557" 
d="M88 293h83l-201 427h183l124 -345l126 345h183l-197 -427h79v-93h-107v-34h107v-94h-107v-72h-167v72h-106v94h106v34h-106v93z" />
    <glyph glyph-name="sterling" unicode="&#xa3;" horiz-adv-x="497" 
d="M202 383h80v-112h-80v-159h272v-112h-439v271h-36v112h36v67q0 75 15.5 129t44.5 89.5t70 52.5t92 17q60 0 101.5 -19.5t67.5 -52.5t37.5 -78t11.5 -96l-166 -12q0 34 -1.5 60.5t-7 45.5t-16 29t-27.5 10q-15 0 -25 -5.5t-17 -24t-10 -53t-3 -92.5v-67z" />
    <glyph glyph-name="Euro" unicode="&#x20ac;" horiz-adv-x="616" 
d="M-12 444h45q15 155 88 224.5t197 69.5q62 0 110.5 -19.5t82 -52.5t50.5 -78t17 -96l-166 -12q0 68 -21.5 106.5t-72.5 38.5q-57 0 -84.5 -44.5t-34.5 -136.5h129v-84h-132v-31h132v-85h-126q10 -77 37.5 -113.5t78.5 -36.5q45 0 70 41.5t24 110.5l167 -12q0 -54 -19 -100
t-53.5 -79.5t-82.5 -53t-106 -19.5q-118 0 -189.5 62t-91.5 200h-49v85h41v31h-41v84z" />
    <glyph glyph-name="cent" unicode="&#xa2;" horiz-adv-x="489" 
d="M302 417q-1 39 -7 65t-13.5 41.5t-16.5 22t-16 6.5q-14 0 -24.5 -10t-17.5 -33.5t-11 -61t-4 -91.5q0 -56 3.5 -93t11 -60t18 -32.5t24.5 -9.5q16 0 33 35t19 103l165 -9q-1 -42 -11 -79.5t-28 -68.5t-43 -54.5t-56 -36.5v-111h-167v114q-64 29 -100 104.5t-36 197.5
t36 198t100 105v121h167v-116q70 -24 103.5 -88t34.5 -150z" />
    <glyph glyph-name="ellipsis" unicode="&#x2026;" horiz-adv-x="815" 
d="M32 98q0 45 26.5 71t70.5 26t70.5 -26t26.5 -71t-26.5 -70.5t-70.5 -25.5t-70.5 25.5t-26.5 70.5zM314 98q0 45 26.5 71t70.5 26t70.5 -26t26.5 -71t-26.5 -70.5t-70.5 -25.5t-70.5 25.5t-26.5 70.5zM596 98q0 45 26.5 71t70.5 26t70.5 -26t26.5 -71t-26.5 -70.5
t-70.5 -25.5t-70.5 25.5t-26.5 70.5z" />
    <glyph glyph-name="logicalnot" unicode="&#xac;" horiz-adv-x="481" 
d="M50 426h380v-244h-125v119h-255v125z" />
    <glyph glyph-name="daggerdbl" unicode="&#x2021;" horiz-adv-x="481" 
d="M50 626h106v184h167v-184h107v-125h-107v-375h107v-125h-107v-201h-167v201h-106v125h106v375h-106v125z" />
    <glyph glyph-name="dagger" unicode="&#x2020;" horiz-adv-x="481" 
d="M50 626h106v184h167v-184h107v-125h-107v-701h-167v701h-106v125z" />
    <glyph glyph-name="perthousand" unicode="&#x2030;" horiz-adv-x="1023" 
d="M819 -20q-63 0 -102 41q-39 -41 -102 -41q-78 0 -115.5 57.5t-37.5 154.5t37.5 154.5t115.5 57.5q63 0 102 -42q39 42 102 42q78 0 116 -57.5t38 -154.5t-38 -154.5t-116 -57.5zM712 730l-461 -730h-149l461 730h149zM202 326q-77 0 -115 57.5t-38 154.5t38 154.5
t115 57.5q78 0 116 -57.5t38 -154.5t-38 -154.5t-116 -57.5zM202 422q22 0 35.5 25.5t13.5 90.5t-13.5 90.5t-35.5 25.5t-36 -25.5t-14 -90.5t14 -90.5t36 -25.5zM615 76q21 0 35 25.5t14 90.5t-14 90.5t-35 25.5q-22 0 -36 -25.5t-14 -90.5t14 -90.5t36 -25.5zM819 76
q22 0 35.5 25.5t13.5 90.5t-13.5 90.5t-35.5 25.5t-35.5 -25.5t-13.5 -90.5t13.5 -90.5t35.5 -25.5z" />
    <glyph glyph-name="copyright" unicode="&#xa9;" horiz-adv-x="954" 
d="M477 -220q-104 0 -184 39.5t-134 109t-81.5 164.5t-27.5 207t27.5 207.5t81.5 165t134 108.5t184 39t183.5 -39t133.5 -108.5t82 -165t28 -207.5t-28 -207t-82 -164.5t-133.5 -109t-183.5 -39.5zM477 -112q69 0 126 26t97.5 78t62.5 129t22 179q0 101 -22 178t-62.5 129
t-97.5 78.5t-126 26.5q-74 0 -131 -28t-96.5 -80.5t-60 -129.5t-20.5 -174q0 -102 22 -179t62.5 -129t97.5 -78t126 -26zM534 361q-1 39 -7 65t-14 41.5t-17 22t-16 6.5q-14 0 -24 -10t-17.5 -33.5t-11 -61t-3.5 -91.5q0 -56 3.5 -93t10.5 -60t17.5 -32.5t24.5 -9.5
q16 0 33 35t19 103l166 -9q-2 -54 -17.5 -100.5t-44 -80.5t-68 -53.5t-87.5 -19.5q-104 0 -164 80t-60 240t60 240.5t164 80.5q55 0 96 -19t67.5 -53t40 -79.5t13.5 -99.5z" />
    <glyph glyph-name="registered" unicode="&#xae;" horiz-adv-x="954" 
d="M477 -220q-104 0 -184 39.5t-134 109t-81.5 164.5t-27.5 207t27.5 207.5t81.5 165t134 108.5t184 39t183.5 -39t133.5 -108.5t82 -165t28 -207.5t-28 -207t-82 -164.5t-133.5 -109t-183.5 -39.5zM263 0v620q-46 -54 -70 -134t-24 -186q0 -102 22 -179t62.5 -129t97.5 -78
t126 -26q72 0 130 28t99 84h-131l-106 133h-57v-133h-149zM477 712q-64 0 -115.5 -21t-89.5 -61h204q51 0 97 -17t80.5 -49.5t55 -78.5t20.5 -104q0 -78 -35 -133.5t-92 -84.5l122 -135q29 51 45 118.5t16 153.5q0 101 -22 178t-62.5 129t-97.5 78.5t-126 26.5zM580 381
q0 31 -8.5 54.5t-21.5 39t-28 23t-28 7.5h-82v-247h82q13 0 28 7.5t28 23t21.5 38.5t8.5 54z" />
    <glyph glyph-name="degree" unicode="&#xb0;" horiz-adv-x="352" 
d="M175 488q-30 0 -54.5 10.5t-41 27.5t-25.5 38.5t-9 44.5t9 44.5t25.5 38.5t41 27.5t54.5 10.5t54.5 -10.5t41 -27.5t25.5 -38.5t9 -44.5t-9 -44.5t-25.5 -38.5t-41 -27.5t-54.5 -10.5zM175 562q14 0 23.5 12t9.5 35q0 22 -10 34t-23 12q-14 0 -23.5 -13t-9.5 -33
q0 -23 9.5 -35t23.5 -12z" />
    <glyph glyph-name="dotlessi" unicode="&#x131;" horiz-adv-x="218" 
d="M26 0v601h167v-601h-167z" />
    <glyph glyph-name="cedilla" unicode="&#xb8;" horiz-adv-x="352" 
d="M205 25l11 -81q42 -13 65.5 -45.5t23.5 -70.5q0 -23 -9 -44.5t-25.5 -38.5t-41 -27.5t-54.5 -10.5t-54.5 10.5t-41 27.5t-25.5 38.5t-9 44.5h97q0 -23 9.5 -34.5t23.5 -11.5t23.5 11.5t9.5 34.5t-10 34.5t-23 11.5h-47l21 151h56z" />
    <glyph glyph-name="ogonek" unicode="&#x2db;" horiz-adv-x="352" 
d="M316 12q-32 -33 -63 -55.5t-55.5 -40.5t-40 -34t-15.5 -37q0 -20 9.5 -31t23.5 -11t23.5 11t9.5 31h97q0 -20 -9 -39.5t-25.5 -35t-41 -25t-54.5 -9.5t-54.5 9.5t-41 25t-25.5 35t-9 39.5q0 38 23.5 62t58.5 43t75 38t73 46z" />
    <glyph glyph-name="germandbls" unicode="&#xdf;" horiz-adv-x="582" 
d="M50 0v539q0 44 15.5 82.5t45 67t73 45t99.5 16.5q113 0 173 -54t60 -143q0 -62 -29 -105.5t-85 -65.5q64 -26 97 -76.5t33 -113.5q0 -107 -67 -159.5t-208 -52.5v125q54 0 81 30t27 85q0 46 -19.5 77t-62.5 31h-18v104h18q26 0 46 25.5t20 70.5q0 44 -18.5 70.5
t-47.5 26.5q-31 0 -48.5 -32t-17.5 -79v-514h-167z" />
    <glyph glyph-name="ordfeminine" unicode="&#xaa;" horiz-adv-x="504" 
d="M469 330h-125l-20 55q17 23 23 52.5t-2 63.5l-40 -5v51q17 13 28.5 35t11.5 62h-40q0 42 -11 62.5t-49 20.5q-11 0 -22 -5.5t-19.5 -16t-13.5 -26t-4 -34.5l-161 12q-4 31 11 61.5t44 54.5t70.5 39t91.5 15q112 0 169.5 -50t57.5 -133v-314zM182 314q-33 0 -63.5 10
t-53.5 28t-36.5 43.5t-13.5 57.5q0 43 21.5 69.5t53.5 42t70 24t70 15.5t53.5 15.5t21.5 24.5v-97q-19 -13 -41 -18.5t-41.5 -11.5t-32.5 -17t-13 -35q0 -23 17 -37t41 -14q26 0 46.5 18.5t23.5 55.5v-49l19 -54q-23 -33 -60 -52t-82 -19z" />
    <glyph glyph-name="twosuperior" unicode="&#xb2;" horiz-adv-x="521" 
d="M36 246q0 73 21 115.5t52.5 67.5t68 40t68 32.5t52.5 44t21 76.5q0 51 -15 79.5t-47 28.5q-29 0 -46 -30.5t-17 -95.5l-162 11q0 46 12 85.5t38.5 68.5t68 45t100.5 16q67 0 112 -15.5t72.5 -42.5t39 -63t11.5 -77q0 -63 -20.5 -100.5t-52.5 -60.5t-70 -36.5t-72.5 -28
t-60.5 -34t-34 -55.5l66 13h247v-100h-453v16z" />
    <glyph glyph-name="threesuperior" unicode="&#xb3;" horiz-adv-x="563" 
d="M48 661q0 36 15.5 66.5t45 53.5t73 36t99.5 13q113 0 173 -43t60 -115q0 -49 -29 -84t-84 -52q63 -21 96 -61t33 -91q0 -36 -16.5 -67t-48 -54t-78 -36t-106.5 -13q-63 0 -109.5 13.5t-77.5 38.5t-46.5 59t-15.5 75l167 23q0 -50 19.5 -79.5t62.5 -29.5q38 0 60 27t22 65
q0 37 -19.5 61.5t-62.5 24.5h-63v84h63q26 0 46 21t20 56t-18.5 56t-47.5 21q-31 0 -48.5 -25.5t-17.5 -62.5z" />
    <glyph glyph-name="onesuperior" unicode="&#xb9;" horiz-adv-x="324" 
d="M83 230v441l-63 -12l-4 40l109 115h125v-584h-167z" />
    <glyph glyph-name="ordmasculine" unicode="&#xba;" horiz-adv-x="616" 
d="M308 214q-69 0 -121 22t-86.5 62t-51.5 97t-17 127t17 127t51.5 97t86.5 62t121 22t121 -22t86.5 -62t51.5 -97t17 -127t-17 -127t-51.5 -97t-86.5 -62t-121 -22zM308 314q23 0 43 10t34.5 34t23 64t8.5 100t-8.5 100t-23 64t-34.5 34t-43 10t-43 -10t-34.5 -34t-23 -64
t-8.5 -100t8.5 -100t23 -64t34.5 -34t43 -10z" />
    <glyph glyph-name="onequarter" unicode="&#xbc;" horiz-adv-x="1078" 
d="M834 534h125v-399h69v-91h-69v-94h-153v94h-291v63zM747 760l-361 -810h-149l361 810h149zM117 180v441l-63 -12l-4 40l109 115h125v-584h-167zM806 135v197l-118 -197h118z" />
    <glyph glyph-name="onehalf" unicode="&#xbd;" horiz-adv-x="1154" 
d="M652 -34q0 73 21 115.5t52 67.5t68 40t68 32.5t52 44t21 76.5q0 51 -15 79.5t-47 28.5q-29 0 -46 -30.5t-17 -95.5l-162 11q0 46 12.5 85.5t38.5 68.5t67.5 45t100.5 16q67 0 112 -15.5t72.5 -42.5t39 -63t11.5 -77q0 -63 -20.5 -100.5t-52.5 -60.5t-70 -36.5t-72 -27.5
t-60 -34t-34 -56l65 13h247v-100h-452v16zM747 760l-361 -810h-149l361 810h149zM117 180v441l-63 -12l-4 40l109 115h125v-584h-167z" />
    <glyph glyph-name="threequarters" unicode="&#xbe;" horiz-adv-x="1274" 
d="M66 611q0 36 15.5 66.5t45 53.5t73 36t99.5 13q113 0 173 -43t60 -115q0 -49 -29 -84t-84 -52q63 -21 96 -61t33 -91q0 -36 -16.5 -67t-48 -54t-78 -36t-106.5 -13q-63 0 -109.5 13.5t-77.5 38.5t-46.5 59t-15.5 75l167 23q0 -50 19.5 -79.5t62.5 -29.5q38 0 60 27t22 65
q0 37 -19.5 61.5t-62.5 24.5h-63v84h63q26 0 46 21t20 56t-18.5 56t-47.5 21q-31 0 -48.5 -25.5t-17.5 -62.5zM1030 534h125v-399h69v-91h-69v-94h-153v94h-291v63zM957 760l-361 -810h-149l361 810h149zM1002 135v197l-118 -197h118z" />
    <glyph glyph-name="periodcentered" unicode="&#xb7;" horiz-adv-x="252" 
d="M32 328q0 45 26.5 71t70.5 26t70.5 -26t26.5 -71t-26.5 -71t-70.5 -26t-70.5 26t-26.5 71z" />
    <glyph glyph-name="bullet" unicode="&#x2022;" horiz-adv-x="652" 
d="M187 328q0 66 39 105t103 39t103.5 -39t39.5 -105t-39.5 -104t-103.5 -38t-103 38t-39 104z" />
    <glyph glyph-name="currency" unicode="&#xa4;" horiz-adv-x="495" 
d="M249 231h-9t-9 1l-45 -110h-136l86 170q-17 29 -17 60q0 30 15 57l-84 171h141l39 -108q5 0 9.5 0.5t9.5 0.5t9 -0.5t9 -0.5l36 108h142l-80 -174q14 -26 14 -54q0 -33 -19 -63l85 -167h-137l-44 110q-5 -1 -15 -1zM249 305q14 0 23.5 12t9.5 35q0 22 -10 34t-23 12
t-22.5 -13t-9.5 -33q0 -23 9.5 -35t22.5 -12z" />
    <glyph glyph-name="exclamdown" unicode="&#xa1;" horiz-adv-x="223" 
d="M211 603q0 -44 -26.5 -70.5t-70.5 -26.5q-43 0 -70 26.5t-27 70.5q0 45 27 71t70 26q44 0 70.5 -26t26.5 -71zM177 432l21 -530h-167l21 530h125z" />
    <glyph glyph-name="questiondown" unicode="&#xbf;" horiz-adv-x="477" 
d="M332 623q0 -44 -26.5 -70.5t-70.5 -26.5t-70.5 26.5t-26.5 70.5q0 45 26.5 71t70.5 26t70.5 -26t26.5 -71zM297 452q0 -36 -9 -62t-22 -47.5t-28.5 -40t-29.5 -40t-23.5 -48t-10.5 -62.5q-3 -60 13 -93t50 -33q30 0 45.5 38t15.5 119l164 -14q0 -59 -13.5 -108t-40.5 -84
t-67 -55t-94 -20q-65 0 -110 18t-74 49.5t-42 73.5t-13 91q0 51 12 86t30.5 60.5t39.5 44.5t39.5 37.5t30.5 39t12 50.5h125z" />
    <glyph glyph-name="divide" unicode="&#xf7;" horiz-adv-x="481" 
d="M147 106q0 45 26 71t70 26t70.5 -26t26.5 -71t-26.5 -70.5t-70.5 -25.5t-70 25.5t-26 70.5zM147 585q0 45 26 71t70 26t70.5 -26t26.5 -71t-26.5 -71t-70.5 -26t-70 26t-26 71zM50 412h380v-125h-380v125z" />
    <glyph glyph-name="hungarumlaut" unicode="&#x2dd;" horiz-adv-x="708" 
d="M120 643l111 193h152l-158 -193h-105zM312 643l111 193h153l-159 -193h-105z" />
    <glyph glyph-name="ae" unicode="&#xe6;" horiz-adv-x="780" 
d="M528 621q105 0 163.5 -67t58.5 -190v-113h-279q-2 -41 1.5 -69t11 -45t18 -24.5t24.5 -7.5q21 0 34 22t18 57h167q-7 -50 -27 -88t-49 -64t-65.5 -39t-75.5 -13q-62 0 -109 29t-76 86q-20 -53 -62.5 -84t-93.5 -31q-33 0 -63.5 12.5t-54 35t-37 54.5t-13.5 71
q0 54 21.5 87t53.5 53t70 30.5t70 19t53.5 19t21.5 31.5q0 51 -11 77t-49 26q-23 0 -41.5 -26.5t-16.5 -75.5l-162 15q-4 39 11 77t44 68t70.5 48.5t91.5 18.5q48 0 85 -12t65 -34q55 46 132 46zM239 105q26 0 48 23t25 66q-3 17 -5 35.5t-3 38.5q-18 -15 -39.5 -21.5
t-40 -14t-30.5 -21t-12 -42.5q0 -30 16.5 -47t40.5 -17zM526 496q-20 0 -34 -22t-19 -70v-11h-1q-1 -8 -1 -16v-17v-8h112v20q0 66 -18 95t-39 29z" />
    <glyph glyph-name="AE" unicode="&#xc6;" horiz-adv-x="893" 
d="M396 800h471v-125h-262v-188h192v-125h-192v-237h272v-125h-439v167h-215l-76 -167h-158zM438 292v344l-158 -344h158z" />
    <glyph glyph-name="Thorn" unicode="&#xde;" horiz-adv-x="574" 
d="M35 0v800h167v-130h85q76 0 128.5 -19t85 -54t47 -84.5t14.5 -110.5t-14.5 -110t-47 -84t-85 -54t-128.5 -19h-85v-135h-167zM287 260q50 0 79 35t29 107q0 70 -29 106.5t-79 36.5h-85v-285h85z" />
    <glyph glyph-name="thorn" unicode="&#xfe;" horiz-adv-x="531" 
d="M515 300q0 -81 -15 -141t-42 -99.5t-63.5 -59.5t-79.5 -20q-35 0 -63.5 10.5t-49.5 35.5v-236h-167v1020h167v-237q21 26 49.5 37t63.5 11q41 0 77.5 -20t63.5 -59.5t43 -100t16 -141.5zM273 496q-12 0 -24.5 -7t-22.5 -22.5t-16.5 -41.5t-7.5 -64v-113q0 -41 6.5 -68.5
t16.5 -44t23 -23.5t25 -7q44 0 59.5 47.5t15.5 147.5t-15.5 148t-59.5 48z" />
    <glyph glyph-name="aring" unicode="&#xe5;" horiz-adv-x="507" 
d="M472 0h-125l-20 67q-23 -41 -60 -64t-81 -23q-33 0 -63.5 12.5t-53.5 35t-36.5 54.5t-13.5 71q0 54 21.5 87t53.5 53t69.5 30.5t69.5 19t53.5 19t21.5 31.5q0 51 -11 77t-49 26q-23 0 -41.5 -26.5t-16.5 -75.5l-161 15q-4 39 10.5 77t44 68t71 48.5t90.5 18.5
q56 0 98.5 -16.5t71 -46.5t43 -72t14.5 -93v-393zM255 634q-30 0 -54.5 10.5t-41 27.5t-25.5 38.5t-9 44.5t9 44.5t25.5 38.5t41 27.5t54.5 10.5t54.5 -10.5t41 -27.5t25.5 -38.5t9 -44.5t-9 -44.5t-25.5 -38.5t-41 -27.5t-54.5 -10.5zM238 105q26 0 47 23.5t23 68.5v75
q-19 -17 -41 -23.5t-41 -14.5t-32 -21.5t-13 -43.5t17 -47t40 -17zM255 709q14 0 23.5 11.5t9.5 34.5t-10 34.5t-23 11.5q-14 0 -23.5 -13t-9.5 -33q0 -23 9.5 -34.5t23.5 -11.5z" />
    <glyph glyph-name="mu" unicode="&#xb5;" 
d="M202 601v-382q0 -35 5 -57t14 -35t20 -17.5t23 -4.5q24 0 41 21t17 63v412h167v-601h-135l-14 53q-22 -36 -57.5 -54.5t-81.5 -18.5q-9 0 -18 1t-17 3l36 -184h-167v801h167z" />
    <glyph glyph-name="paragraph" unicode="&#xb6;" horiz-adv-x="724" 
d="M50 667q0 66 39 104.5t103 38.5h482v-125h-75v-885h-167v885h-73v-885h-167v724q-64 0 -103 38.5t-39 104.5z" />
    <glyph glyph-name="OE" unicode="&#x152;" horiz-adv-x="945" 
d="M311 -20q-59 0 -109.5 27.5t-88.5 81t-59.5 131.5t-21.5 180t21.5 180.5t59.5 131.5t88.5 80.5t109.5 27.5q55 0 98.5 -24.5t73.5 -77.5v82h429v-125h-262v-188h192v-125h-192v-237h272v-125h-439v82q-30 -53 -73.5 -77.5t-98.5 -24.5zM340 105q29 0 55 14.5t45 49t30 91
t11 140.5q0 83 -11 139.5t-30 91t-45 49.5t-55 15t-55 -15t-45 -49.5t-30 -91t-11 -139.5q0 -84 11 -140.5t30 -91t45 -49t55 -14.5z" />
    <glyph glyph-name="oe" unicode="&#x153;" horiz-adv-x="802" 
d="M547 621q105 0 163.5 -67t58.5 -190v-113h-279q-2 -41 1.5 -69t11 -45t18 -24.5t24.5 -7.5q21 0 34 22t18 57h167q-7 -50 -27 -88t-49 -64t-65.5 -39t-75.5 -13q-94 0 -140 70q-49 -70 -150 -70q-110 0 -171 79t-61 241q0 163 61 242t171 79q101 0 150 -70
q23 35 57.5 52.5t82.5 17.5zM257 105q18 0 30 8t20 29.5t11.5 59.5t3.5 98t-3.5 98t-11.5 59.5t-20 30t-30 8.5q-17 0 -29.5 -8.5t-20.5 -30t-11.5 -59.5t-3.5 -98t3.5 -98t11.5 -59.5t20.5 -29.5t29.5 -8zM545 496q-23 0 -39 -32t-16 -104v-8h112v20q0 66 -17.5 95
t-39.5 29z" />
    <glyph glyph-name="trademark" unicode="&#x2122;" horiz-adv-x="1149" 
d="M527 300v500h182l97 -277l18 -56l18 56l96 277h191v-500h-128v350l-36 -99l-68 -205h-147l-75 205l-36 98v-349h-112zM50 800h442v-125h-134v-375h-166v375h-142v125z" />
    <glyph glyph-name="plusminus" unicode="&#xb1;" horiz-adv-x="481" 
d="M50 526h127v145h125v-145h128v-125h-128v-144h-125v144h-127v125zM50 212h380v-125h-380v125z" />
    <glyph glyph-name="Aring" unicode="&#xc5;" horiz-adv-x="601" 
d="M599 0h-163l-38 167h-196l-38 -167h-163l214 800h170zM300 833q-30 0 -54.5 10.5t-41 27.5t-25.5 38.5t-9 44.5t9 44.5t25.5 38.5t41 27.5t54.5 10.5t54.5 -10.5t41 -27.5t25.5 -38.5t9 -44.5t-9 -44.5t-25.5 -38.5t-41 -27.5t-54.5 -10.5zM230 292h139l-56 250l-13 99
l-12 -99zM300 908q14 0 23.5 11.5t9.5 34.5t-10 34.5t-23 11.5q-14 0 -23.5 -13t-9.5 -33q0 -23 9.5 -34.5t23.5 -11.5z" />
    <glyph glyph-name="Adieresis" unicode="&#xc4;" horiz-adv-x="601" 
d="M599 0h-163l-38 167h-196l-38 -167h-163l214 800h170zM230 292h139l-56 250l-13 99l-12 -99zM329 929q0 35 21 55.5t55 20.5t55 -20.5t21 -55.5t-21 -55.5t-55 -20.5t-55 20.5t-21 55.5zM118 929q0 35 21 55.5t55 20.5t55 -20.5t21 -55.5t-21 -55.5t-55 -20.5t-55 20.5
t-21 55.5z" />
    <glyph glyph-name="Scaron" unicode="&#x160;" horiz-adv-x="573" 
d="M27 591q0 41 15.5 82t47.5 73.5t80 53t113 20.5q73 0 125.5 -20t85.5 -54.5t46.5 -81t8.5 -99.5l-167 -14q3 31 -2.5 57.5t-18 45.5t-31.5 30t-43 11q-38 0 -65.5 -26t-27.5 -68q0 -30 15.5 -51t40 -37.5t56.5 -30.5t65.5 -29.5t65.5 -35t56.5 -46.5t40 -64.5t15.5 -88.5
q0 -41 -15.5 -83.5t-47 -77t-79.5 -56t-113 -21.5q-72 0 -125 20t-86 55.5t-47 84t-9 104.5l167 14q-3 -32 3 -59.5t18.5 -48.5t31.5 -33t42 -12q20 0 37 8.5t29.5 23t19.5 34t7 41.5q0 42 -26.5 66t-65.5 42t-85.5 35.5t-85.5 45.5t-65.5 72.5t-26.5 117.5zM453 922
l-166 -92l-166 92v112l166 -99l166 99v-112z" />
    <glyph glyph-name="scaron" unicode="&#x161;" horiz-adv-x="470" 
d="M37 443q0 36 12.5 68.5t37.5 56.5t61.5 38.5t83.5 14.5q53 0 92.5 -15t65.5 -41.5t38.5 -62.5t11.5 -79l-155 -12q4 37 -6.5 61t-40.5 24q-24 0 -36.5 -15.5t-12.5 -38.5q0 -30 19 -46t48 -27.5t62 -22.5t62 -31t48 -52.5t19 -87.5q0 -42 -13.5 -77.5t-40 -61.5
t-64.5 -41t-86 -15q-54 0 -96.5 15t-71 43t-42 68t-8.5 89l146 10q-2 -26 3 -45t14.5 -31t21 -18t23.5 -6q25 0 38 18.5t13 40.5q0 31 -18.5 48.5t-45.5 30t-59.5 24.5t-59.5 32.5t-45.5 54t-18.5 89.5zM401 723l-166 -92l-166 92v112l166 -99l166 99v-112z" />
    <glyph glyph-name="Lslash" unicode="&#x141;" horiz-adv-x="519" 
d="M20 376l40 23v401h167v-302l131 77v-126l-131 -77v-247h272v-125h-439v273l-40 -23v126z" />
    <glyph glyph-name="lslash" unicode="&#x142;" horiz-adv-x="331" 
d="M20 600l66 37v173h167v-78l58 33v-126l-58 -33v-606h-167v511l-66 -37v126z" />
    <glyph glyph-name="Zcaron" unicode="&#x17d;" horiz-adv-x="568" 
d="M34 800h492v-125l-312 -550h312v-125h-492v125l319 550h-319v125zM450 922l-166 -92l-166 92v112l166 -99l166 99v-112z" />
    <glyph glyph-name="zcaron" unicode="&#x17e;" horiz-adv-x="453" 
d="M27 601h401v-83l-229 -393h229v-125h-401v83l236 393h-236v125zM393 723l-166 -92l-166 92v112l166 -99l166 99v-112z" />
    <glyph glyph-name="Ydieresis" unicode="&#x178;" horiz-adv-x="557" 
d="M194 0v272l-224 528h183l125 -382l125 382h183l-225 -542v-258h-167zM96 929q0 35 21 55.5t55 20.5t55 -20.5t21 -55.5t-21 -55.5t-55 -20.5t-55 20.5t-21 55.5zM307 929q0 35 21 55.5t55 20.5t55 -20.5t21 -55.5t-21 -55.5t-55 -20.5t-55 20.5t-21 55.5z" />
    <glyph glyph-name="Yacute" unicode="&#xdd;" horiz-adv-x="557" 
d="M194 0v272l-224 528h183l125 -382l125 382h183l-225 -542v-258h-167zM146 842l111 193h153l-159 -193h-105z" />
    <glyph glyph-name="Udieresis" unicode="&#xdc;" horiz-adv-x="630" 
d="M202 279q0 -87 27 -130.5t86 -43.5t86 43.5t27 130.5v521h167v-521q0 -145 -69 -222t-211 -77t-211 77t-69 222v521h167v-521zM133 929q0 35 21 55.5t55 20.5t55 -20.5t21 -55.5t-21 -55.5t-55 -20.5t-55 20.5t-21 55.5zM344 929q0 35 21 55.5t55 20.5t55 -20.5t21 -55.5
t-21 -55.5t-55 -20.5t-55 20.5t-21 55.5z" />
    <glyph glyph-name="Ucircumflex" unicode="&#xdb;" horiz-adv-x="630" 
d="M202 279q0 -87 27 -130.5t86 -43.5t86 43.5t27 130.5v521h167v-521q0 -145 -69 -222t-211 -77t-211 77t-69 222v521h167v-521zM481 830l-166 99l-166 -99v112l166 92l166 -92v-112z" />
    <glyph glyph-name="Uacute" unicode="&#xda;" horiz-adv-x="630" 
d="M202 279q0 -87 27 -130.5t86 -43.5t86 43.5t27 130.5v521h167v-521q0 -145 -69 -222t-211 -77t-211 77t-69 222v521h167v-521zM183 842l111 193h153l-159 -193h-105z" />
    <glyph glyph-name="Ugrave" unicode="&#xd9;" horiz-adv-x="630" 
d="M202 279q0 -87 27 -130.5t86 -43.5t86 43.5t27 130.5v521h167v-521q0 -145 -69 -222t-211 -77t-211 77t-69 222v521h167v-521zM342 842l-159 193h153l111 -193h-105z" />
    <glyph glyph-name="Oslash" unicode="&#xd8;" horiz-adv-x="681" 
d="M340 -20q-50 0 -97 14l-9 -22h-149l42 99q-47 54 -71 136t-24 193q0 205 81 312.5t227 107.5q50 0 95 -14l11 25h149l-43 -102q47 -53 71.5 -135.5t24.5 -193.5q0 -204 -81 -312t-227 -108zM340 105q29 0 55 14.5t45 49t30 91t11 140.5q0 40 -2.5 73.5t-7.5 61.5
l-177 -421q11 -5 22.5 -7t23.5 -2zM199 400q0 -81 10 -134l176 419q-20 10 -45 10q-29 0 -55 -15t-45 -49.5t-30 -91t-11 -139.5z" />
    <glyph glyph-name="oslash" unicode="&#xf8;" horiz-adv-x="514" 
d="M257 -20q-64 0 -112 27l-26 -47h-100l61 108q-55 81 -55 232q0 163 61 242t171 79q68 0 116 -30l25 44h99l-60 -107q25 -40 38.5 -96.5t13.5 -131.5q0 -162 -61 -241t-171 -79zM192 268l111 199q-8 17 -19 23t-27 6q-17 0 -29.5 -8.5t-20.5 -30t-11.5 -59.5t-3.5 -98v-32
zM257 105q18 0 30 8t20 29.5t11.5 59.5t3.5 98v22l-109 -194q8 -13 19 -18t25 -5z" />
    <glyph glyph-name="Agrave" unicode="&#xc0;" horiz-adv-x="601" 
d="M599 0h-163l-38 167h-196l-38 -167h-163l214 800h170zM327 842l-159 193h153l111 -193h-105zM230 292h139l-56 250l-13 99l-12 -99z" />
    <glyph glyph-name="Aacute" unicode="&#xc1;" horiz-adv-x="601" 
d="M599 0h-163l-38 167h-196l-38 -167h-163l214 800h170zM168 842l111 193h153l-159 -193h-105zM230 292h139l-56 250l-13 99l-12 -99z" />
    <glyph glyph-name="Acircumflex" unicode="&#xc2;" horiz-adv-x="601" 
d="M599 0h-163l-38 167h-196l-38 -167h-163l214 800h170zM466 830l-166 99l-166 -99v112l166 92l166 -92v-112zM230 292h139l-56 250l-13 99l-12 -99z" />
    <glyph glyph-name="Atilde" unicode="&#xc3;" horiz-adv-x="601" 
d="M599 0h-163l-38 167h-196l-38 -167h-163l214 800h170zM129 943q33 44 63 57.5t58.5 11t56 -14t54.5 -17.5t54 0t56 38v-84q-31 -44 -61.5 -57.5t-59 -11.5t-56.5 13.5t-55.5 17.5t-55 0t-54.5 -37v84zM230 292h139l-56 250l-13 99l-12 -99z" />
    <glyph glyph-name="Ccedilla" unicode="&#xc7;" horiz-adv-x="605" 
d="M256 -126l15 109q-118 14 -180 114t-62 303q0 112 19 191.5t55.5 130.5t90.5 74.5t124 23.5q62 0 110.5 -21.5t82 -58.5t50.5 -86.5t17 -106.5l-166 -14q0 75 -21.5 118.5t-72.5 43.5q-68 0 -95 -72.5t-27 -222.5q0 -151 27 -223t95 -72q45 0 70 45t24 123l167 -14
q0 -57 -17 -106t-49 -85.5t-76 -59.5t-98 -27l5 -37q42 -13 65.5 -45.5t23.5 -70.5q0 -23 -9 -44.5t-25.5 -38.5t-41 -27.5t-54.5 -10.5t-54.5 10.5t-41 27.5t-25.5 38.5t-9 44.5h97q0 -23 9.5 -34.5t23.5 -11.5t23.5 11.5t9.5 34.5t-10 34.5t-23 11.5h-47z" />
    <glyph glyph-name="Egrave" unicode="&#xc8;" horiz-adv-x="495" 
d="M35 0v800h429v-125h-262v-188h192v-125h-192v-237h272v-125h-439zM274 842l-159 193h153l111 -193h-105z" />
    <glyph glyph-name="Eacute" unicode="&#xc9;" horiz-adv-x="495" 
d="M35 0v800h429v-125h-262v-188h192v-125h-192v-237h272v-125h-439zM115 842l111 193h153l-159 -193h-105z" />
    <glyph glyph-name="Ecircumflex" unicode="&#xca;" horiz-adv-x="495" 
d="M35 800h429v-125h-262v-188h192v-125h-192v-237h272v-125h-439v800zM414 830l-166 99l-166 -99v112l166 92l166 -92v-112z" />
    <glyph glyph-name="Edieresis" unicode="&#xcb;" horiz-adv-x="495" 
d="M35 800h429v-125h-262v-188h192v-125h-192v-237h272v-125h-439v800zM66 929q0 35 21 55.5t55 20.5t55 -20.5t21 -55.5t-21 -55.5t-55 -20.5t-55 20.5t-21 55.5zM277 929q0 35 21 55.5t55 20.5t55 -20.5t21 -55.5t-21 -55.5t-55 -20.5t-55 20.5t-21 55.5z" />
    <glyph glyph-name="Igrave" unicode="&#xcc;" horiz-adv-x="276" 
d="M55 0v800h166v-800h-166zM156 842l-159 193h153l111 -193h-105z" />
    <glyph glyph-name="Iacute" unicode="&#xcd;" horiz-adv-x="276" 
d="M55 0v800h166v-800h-166zM60 842l111 193h153l-159 -193h-105z" />
    <glyph glyph-name="Icircumflex" unicode="&#xce;" horiz-adv-x="276" 
d="M55 0v800h166v-800h-166zM304 830l-166 99l-166 -99v112l166 92l166 -92v-112z" />
    <glyph glyph-name="Idieresis" unicode="&#xcf;" horiz-adv-x="276" 
d="M55 0v800h166v-800h-166zM-44 929q0 35 21 55.5t55 20.5t55 -20.5t21 -55.5t-21 -55.5t-55 -20.5t-55 20.5t-21 55.5zM167 929q0 35 21 55.5t55 20.5t55 -20.5t21 -55.5t-21 -55.5t-55 -20.5t-55 20.5t-21 55.5z" />
    <glyph glyph-name="Eth" unicode="&#xd0;" horiz-adv-x="590" 
d="M16 459h54v341h179q88 0 149 -23.5t99.5 -72.5t55.5 -124.5t17 -179.5t-17 -179t-55.5 -124.5t-99.5 -73t-149 -23.5h-179v334h-54v125zM403 400q0 77 -8.5 129.5t-27 85t-47.5 46.5t-71 14h-12v-216h75v-125h-75v-209h12q42 0 71 13.5t47.5 46t27 85t8.5 130.5z" />
    <glyph glyph-name="eth" unicode="&#xf0;" horiz-adv-x="512" 
d="M185 810q45 0 82 -9t66 -26l71 44l59 -93l-55 -19q24 -35 40 -79t25 -95.5t12.5 -110.5t3.5 -122q0 -162 -61 -241t-171 -79q-109 0 -170.5 79t-61.5 241q0 72 16.5 128t42.5 95t58 59.5t64 22.5t59.5 -16t45.5 -57q-5 39 -12.5 71.5t-18.5 57.5l-77 -27l-9 56l44 27
q-23 17 -53 17v76zM257 105q18 0 30 8t20 29.5t11.5 59.5t3.5 98v24q-1 55 -6 88.5t-13.5 52t-20 25t-25.5 6.5t-26 -8.5t-20.5 -30t-13.5 -59.5t-5 -98t3.5 -98t11.5 -59.5t20.5 -29.5t29.5 -8z" />
    <glyph glyph-name="idieresis" unicode="&#xef;" horiz-adv-x="218" 
d="M26 0v601h167v-601h-167zM-73 730q0 35 21 55.5t55 20.5t55 -20.5t21 -55.5t-21 -55.5t-55 -20.5t-55 20.5t-21 55.5zM138 730q0 35 21 55.5t55 20.5t55 -20.5t21 -55.5t-21 -55.5t-55 -20.5t-55 20.5t-21 55.5z" />
    <glyph glyph-name="icircumflex" unicode="&#xee;" horiz-adv-x="218" 
d="M26 0v601h167v-601h-167zM275 631l-166 99l-166 -99v112l166 92l166 -92v-112z" />
    <glyph glyph-name="iacute" unicode="&#xed;" horiz-adv-x="218" 
d="M26 0v601h167v-601h-167zM6 643l111 193h153l-159 -193h-105z" />
    <glyph glyph-name="igrave" unicode="&#xec;" horiz-adv-x="218" 
d="M26 0v601h167v-601h-167zM110 643l-159 193h153l111 -193h-105z" />
    <glyph glyph-name="edieresis" unicode="&#xeb;" horiz-adv-x="510" 
d="M256 621q105 0 163.5 -67t58.5 -190v-113h-279q-2 -41 1.5 -69t11 -45t18 -24.5t24.5 -7.5q21 0 34 22t18 57h167q-7 -50 -27 -88t-49 -64t-65.5 -39t-75.5 -13q-103 0 -163.5 80t-60.5 240t60.5 240.5t163.5 80.5zM254 496q-23 0 -39 -32t-16 -104v-8h112v20
q0 66 -18 95t-39 29zM73 730q0 35 21 55.5t55 20.5t55 -20.5t21 -55.5t-21 -55.5t-55 -20.5t-55 20.5t-21 55.5zM284 730q0 35 21 55.5t55 20.5t55 -20.5t21 -55.5t-21 -55.5t-55 -20.5t-55 20.5t-21 55.5z" />
    <glyph glyph-name="ecircumflex" unicode="&#xea;" horiz-adv-x="510" 
d="M256 621q105 0 163.5 -67t58.5 -190v-113h-279q-2 -41 1.5 -69t11 -45t18 -24.5t24.5 -7.5q21 0 34 22t18 57h167q-7 -50 -27 -88t-49 -64t-65.5 -39t-75.5 -13q-103 0 -163.5 80t-60.5 240t60.5 240.5t163.5 80.5zM421 631l-166 99l-166 -99v112l166 92l166 -92v-112z
M254 496q-23 0 -39 -32t-16 -104v-8h112v20q0 66 -18 95t-39 29z" />
    <glyph glyph-name="eacute" unicode="&#xe9;" horiz-adv-x="510" 
d="M256 621q105 0 163.5 -67t58.5 -190v-113h-279q-2 -41 1.5 -69t11 -45t18 -24.5t24.5 -7.5q21 0 34 22t18 57h167q-7 -50 -27 -88t-49 -64t-65.5 -39t-75.5 -13q-103 0 -163.5 80t-60.5 240t60.5 240.5t163.5 80.5zM254 496q-23 0 -39 -32t-16 -104v-8h112v20
q0 66 -18 95t-39 29zM123 643l111 193h153l-159 -193h-105z" />
    <glyph glyph-name="egrave" unicode="&#xe8;" horiz-adv-x="510" 
d="M256 621q105 0 163.5 -67t58.5 -190v-113h-279q-2 -41 1.5 -69t11 -45t18 -24.5t24.5 -7.5q21 0 34 22t18 57h167q-7 -50 -27 -88t-49 -64t-65.5 -39t-75.5 -13q-103 0 -163.5 80t-60.5 240t60.5 240.5t163.5 80.5zM254 496q-23 0 -39 -32t-16 -104v-8h112v20
q0 66 -18 95t-39 29zM282 643l-159 193h153l111 -193h-105z" />
    <glyph glyph-name="ccedilla" unicode="&#xe7;" horiz-adv-x="489" 
d="M302 361q-1 39 -7 65t-14 41.5t-17 22t-16 6.5q-14 0 -24 -10t-17.5 -33.5t-11 -61t-3.5 -91.5q0 -56 3.5 -93t10.5 -60t17.5 -32.5t24.5 -9.5q16 0 33 35t19 103l166 -9q-2 -50 -15.5 -93t-37.5 -76t-57.5 -54.5t-75.5 -27.5l5 -39q42 -13 65.5 -45.5t23.5 -70.5
q0 -23 -9 -44.5t-25.5 -38.5t-41 -27.5t-54.5 -10.5t-54.5 10.5t-41 27.5t-25.5 38.5t-9 44.5h97q0 -23 9.5 -34.5t23.5 -11.5t23.5 11.5t9.5 34.5q0 22 -9.5 33.5t-21.5 12.5h-49l15 109q-88 13 -137.5 92t-49.5 225q0 160 60 240.5t163 80.5q56 0 97 -19t67.5 -53
t39.5 -79.5t13 -99.5z" />
    <glyph glyph-name="adieresis" unicode="&#xe4;" horiz-adv-x="507" 
d="M472 0h-125l-20 67q-23 -41 -60 -64t-81 -23q-33 0 -63.5 12.5t-53.5 35t-36.5 54.5t-13.5 71q0 54 21.5 87t53.5 53t69.5 30.5t69.5 19t53.5 19t21.5 31.5q0 51 -11 77t-49 26q-23 0 -41.5 -26.5t-16.5 -75.5l-161 15q-4 39 10.5 77t44 68t71 48.5t90.5 18.5
q56 0 98.5 -16.5t71 -46.5t43 -72t14.5 -93v-393zM74 730q0 35 21 55.5t55 20.5t55 -20.5t21 -55.5t-21 -55.5t-55 -20.5t-55 20.5t-21 55.5zM285 730q0 35 21 55.5t55 20.5t55 -20.5t21 -55.5t-21 -55.5t-55 -20.5t-55 20.5t-21 55.5zM238 105q26 0 47 23.5t23 68.5v75
q-19 -17 -41 -23.5t-41 -14.5t-32 -21.5t-13 -43.5t17 -47t40 -17z" />
    <glyph glyph-name="atilde" unicode="&#xe3;" horiz-adv-x="507" 
d="M472 0h-125l-20 67q-23 -41 -60 -64t-81 -23q-33 0 -63.5 12.5t-53.5 35t-36.5 54.5t-13.5 71q0 54 21.5 87t53.5 53t69.5 30.5t69.5 19t53.5 19t21.5 31.5q0 51 -11 77t-49 26q-23 0 -41.5 -26.5t-16.5 -75.5l-161 15q-4 39 10.5 77t44 68t71 48.5t90.5 18.5
q56 0 98.5 -16.5t71 -46.5t43 -72t14.5 -93v-393zM85 744q33 43 63 57t58.5 11.5t56 -14t54.5 -17.5t54 0t56 38v-84q-31 -43 -61.5 -57t-59 -12t-56.5 13.5t-55.5 17.5t-55 0t-54.5 -37v84zM238 105q26 0 47 23.5t23 68.5v75q-19 -17 -41 -23.5t-41 -14.5t-32 -21.5
t-13 -43.5t17 -47t40 -17z" />
    <glyph glyph-name="acircumflex" unicode="&#xe2;" horiz-adv-x="507" 
d="M472 0h-125l-20 67q-23 -41 -60 -64t-81 -23q-33 0 -63.5 12.5t-53.5 35t-36.5 54.5t-13.5 71q0 54 21.5 87t53.5 53t69.5 30.5t69.5 19t53.5 19t21.5 31.5q0 51 -11 77t-49 26q-23 0 -41.5 -26.5t-16.5 -75.5l-161 15q-4 39 10.5 77t44 68t71 48.5t90.5 18.5
q56 0 98.5 -16.5t71 -46.5t43 -72t14.5 -93v-393zM421 631l-166 99l-166 -99v112l166 92l166 -92v-112zM308 272q-19 -17 -41 -23.5t-41 -14.5t-32 -21.5t-13 -43.5t17 -47t40 -17q28 0 49 26.5t21 75.5v65z" />
    <glyph glyph-name="aacute" unicode="&#xe1;" horiz-adv-x="507" 
d="M472 0h-125l-20 67q-23 -41 -60 -64t-81 -23q-33 0 -63.5 12.5t-53.5 35t-36.5 54.5t-13.5 71q0 54 21.5 87t53.5 53t69.5 30.5t69.5 19t53.5 19t21.5 31.5q0 51 -11 77t-49 26q-23 0 -41.5 -26.5t-16.5 -75.5l-161 15q-4 39 10.5 77t44 68t71 48.5t90.5 18.5
q56 0 98.5 -16.5t71 -46.5t43 -72t14.5 -93v-393zM155 643l111 193h153l-159 -193h-105zM308 272q-19 -17 -41 -23.5t-41 -14.5t-32 -21.5t-13 -43.5t17 -47t40 -17q28 0 49 26.5t21 75.5v65z" />
    <glyph glyph-name="agrave" unicode="&#xe0;" horiz-adv-x="507" 
d="M472 0h-125l-20 67q-23 -41 -60 -64t-81 -23q-33 0 -63.5 12.5t-53.5 35t-36.5 54.5t-13.5 71q0 54 21.5 87t53.5 53t69.5 30.5t69.5 19t53.5 19t21.5 31.5q0 51 -11 77t-49 26q-23 0 -41.5 -26.5t-16.5 -75.5l-161 15q-4 39 10.5 77t44 68t71 48.5t90.5 18.5
q56 0 98.5 -16.5t71 -46.5t43 -72t14.5 -93v-393zM282 643l-159 193h153l111 -193h-105zM308 272q-19 -17 -41 -23.5t-41 -14.5t-32 -21.5t-13 -43.5t17 -47t40 -17q28 0 49 26.5t21 75.5v65z" />
    <glyph glyph-name="ntilde" unicode="&#xf1;" 
d="M35 0v601h135l14 -55q23 37 57.5 56t77.5 19q34 0 65 -12t54 -40t37 -74t14 -113v-382h-167v382q0 66 -18.5 90t-45.5 24q-8 0 -17.5 -5t-17.5 -14.5t-14 -23.5t-7 -33v-420h-167zM91 744q33 43 63 57t58.5 11.5t56 -14t54.5 -17.5t54 0t56 38v-84q-31 -43 -61.5 -57
t-59 -12t-56.5 13.5t-55.5 17.5t-55 0t-54.5 -37v84z" />
    <glyph glyph-name="ograve" unicode="&#xf2;" horiz-adv-x="514" 
d="M257 -20q-110 0 -171 79t-61 241q0 163 61 242t171 79q109 0 170.5 -79t61.5 -242q0 -162 -61 -241t-171 -79zM257 105q18 0 30 8t20 29.5t11.5 59.5t3.5 98t-3.5 98t-11.5 59.5t-20 30t-30 8.5q-17 0 -29.5 -8.5t-20.5 -30t-11.5 -59.5t-3.5 -98t3.5 -98t11.5 -59.5
t20.5 -29.5t29.5 -8zM284 643l-159 193h153l111 -193h-105z" />
    <glyph glyph-name="oacute" unicode="&#xf3;" horiz-adv-x="514" 
d="M257 -20q-110 0 -171 79t-61 241q0 163 61 242t171 79q109 0 170.5 -79t61.5 -242q0 -162 -61 -241t-171 -79zM257 105q18 0 30 8t20 29.5t11.5 59.5t3.5 98t-3.5 98t-11.5 59.5t-20 30t-30 8.5q-17 0 -29.5 -8.5t-20.5 -30t-11.5 -59.5t-3.5 -98t3.5 -98t11.5 -59.5
t20.5 -29.5t29.5 -8zM162 643l111 193h153l-159 -193h-105z" />
    <glyph glyph-name="ocircumflex" unicode="&#xf4;" horiz-adv-x="514" 
d="M257 -20q-110 0 -171 79t-61 241q0 163 61 242t171 79q109 0 170.5 -79t61.5 -242q0 -162 -61 -241t-171 -79zM257 105q18 0 30 8t20 29.5t11.5 59.5t3.5 98t-3.5 98t-11.5 59.5t-20 30t-30 8.5q-17 0 -29.5 -8.5t-20.5 -30t-11.5 -59.5t-3.5 -98t3.5 -98t11.5 -59.5
t20.5 -29.5t29.5 -8zM423 631l-166 99l-166 -99v112l166 92l166 -92v-112z" />
    <glyph glyph-name="otilde" unicode="&#xf5;" horiz-adv-x="514" 
d="M257 -20q-110 0 -171 79t-61 241q0 163 61 242t171 79q109 0 170.5 -79t61.5 -242q0 -162 -61 -241t-171 -79zM257 105q18 0 30 8t20 29.5t11.5 59.5t3.5 98t-3.5 98t-11.5 59.5t-20 30t-30 8.5q-17 0 -29.5 -8.5t-20.5 -30t-11.5 -59.5t-3.5 -98t3.5 -98t11.5 -59.5
t20.5 -29.5t29.5 -8zM86 744q33 43 63 57t58.5 11.5t56 -14t54.5 -17.5t54 0t56 38v-84q-31 -43 -61.5 -57t-59 -12t-56.5 13.5t-55.5 17.5t-55 0t-54.5 -37v84z" />
    <glyph glyph-name="odieresis" unicode="&#xf6;" horiz-adv-x="514" 
d="M257 -20q-110 0 -171 79t-61 241q0 163 61 242t171 79q109 0 170.5 -79t61.5 -242q0 -162 -61 -241t-171 -79zM257 105q18 0 30 8t20 29.5t11.5 59.5t3.5 98t-3.5 98t-11.5 59.5t-20 30t-30 8.5q-17 0 -29.5 -8.5t-20.5 -30t-11.5 -59.5t-3.5 -98t3.5 -98t11.5 -59.5
t20.5 -29.5t29.5 -8zM75 730q0 35 21 55.5t55 20.5t55 -20.5t21 -55.5t-21 -55.5t-55 -20.5t-55 20.5t-21 55.5zM286 730q0 35 21 55.5t55 20.5t55 -20.5t21 -55.5t-21 -55.5t-55 -20.5t-55 20.5t-21 55.5z" />
    <glyph glyph-name="Odieresis" unicode="&#xd6;" horiz-adv-x="681" 
d="M340 -20q-146 0 -227 108t-81 312q0 205 81 312.5t227 107.5t227 -107.5t81 -312.5q0 -204 -81 -312t-227 -108zM340 105q29 0 55 14.5t45 49t30 91t11 140.5q0 83 -11 139.5t-30 91t-45 49.5t-55 15t-55 -15t-45 -49.5t-30 -91t-11 -139.5q0 -84 11 -140.5t30 -91
t45 -49t55 -14.5zM158 929q0 35 21 55.5t55 20.5t55 -20.5t21 -55.5t-21 -55.5t-55 -20.5t-55 20.5t-21 55.5zM369 929q0 35 21 55.5t55 20.5t55 -20.5t21 -55.5t-21 -55.5t-55 -20.5t-55 20.5t-21 55.5z" />
    <glyph glyph-name="Otilde" unicode="&#xd5;" horiz-adv-x="681" 
d="M340 -20q-146 0 -227 108t-81 312q0 205 81 312.5t227 107.5t227 -107.5t81 -312.5q0 -204 -81 -312t-227 -108zM340 105q29 0 55 14.5t45 49t30 91t11 140.5q0 83 -11 139.5t-30 91t-45 49.5t-55 15t-55 -15t-45 -49.5t-30 -91t-11 -139.5q0 -84 11 -140.5t30 -91
t45 -49t55 -14.5zM169 943q33 44 63 57.5t58.5 11t56 -14t54.5 -17.5t54 0t56 38v-84q-31 -44 -61.5 -57.5t-59 -11.5t-56.5 13.5t-55.5 17.5t-55 0t-54.5 -37v84z" />
    <glyph glyph-name="Ocircumflex" unicode="&#xd4;" horiz-adv-x="681" 
d="M340 -20q-146 0 -227 108t-81 312q0 205 81 312.5t227 107.5t227 -107.5t81 -312.5q0 -204 -81 -312t-227 -108zM340 105q29 0 55 14.5t45 49t30 91t11 140.5q0 83 -11 139.5t-30 91t-45 49.5t-55 15t-55 -15t-45 -49.5t-30 -91t-11 -139.5q0 -84 11 -140.5t30 -91
t45 -49t55 -14.5zM506 830l-166 99l-166 -99v112l166 92l166 -92v-112z" />
    <glyph glyph-name="Oacute" unicode="&#xd3;" horiz-adv-x="681" 
d="M340 -20q-146 0 -227 108t-81 312q0 205 81 312.5t227 107.5t227 -107.5t81 -312.5q0 -204 -81 -312t-227 -108zM340 105q29 0 55 14.5t45 49t30 91t11 140.5q0 83 -11 139.5t-30 91t-45 49.5t-55 15t-55 -15t-45 -49.5t-30 -91t-11 -139.5q0 -84 11 -140.5t30 -91
t45 -49t55 -14.5zM208 842l111 193h153l-159 -193h-105z" />
    <glyph glyph-name="Ograve" unicode="&#xd2;" horiz-adv-x="681" 
d="M340 -20q-146 0 -227 108t-81 312q0 205 81 312.5t227 107.5t227 -107.5t81 -312.5q0 -204 -81 -312t-227 -108zM340 105q29 0 55 14.5t45 49t30 91t11 140.5q0 83 -11 139.5t-30 91t-45 49.5t-55 15t-55 -15t-45 -49.5t-30 -91t-11 -139.5q0 -84 11 -140.5t30 -91
t45 -49t55 -14.5zM367 842l-159 193h153l111 -193h-105z" />
    <glyph glyph-name="Ntilde" unicode="&#xd1;" horiz-adv-x="612" 
d="M35 0v800h158l226 -499v499h158v-800h-158l-226 497v-497h-158zM135 943q33 44 63 57.5t58.5 11t56 -14t54.5 -17.5t54 0t56 38v-84q-31 -44 -61.5 -57.5t-59 -11.5t-56.5 13.5t-55.5 17.5t-55 0t-54.5 -37v84z" />
    <glyph glyph-name="ugrave" unicode="&#xf9;" 
d="M202 601v-382q0 -34 5.5 -56t14.5 -35t20 -18t22 -5q23 0 39.5 19t18.5 57v420h167v-601h-135l-14 53q-22 -36 -57.5 -54.5t-81.5 -18.5q-34 0 -64.5 12t-53 40t-35.5 73.5t-13 113.5v382h167zM289 643l-159 193h153l111 -193h-105z" />
    <glyph glyph-name="uacute" unicode="&#xfa;" 
d="M202 601v-382q0 -34 5.5 -56t14.5 -35t20 -18t22 -5q23 0 39.5 19t18.5 57v420h167v-601h-135l-14 53q-22 -36 -57.5 -54.5t-81.5 -18.5q-34 0 -64.5 12t-53 40t-35.5 73.5t-13 113.5v382h167zM178 643l111 193h153l-159 -193h-105z" />
    <glyph glyph-name="ucircumflex" unicode="&#xfb;" 
d="M202 601v-382q0 -34 5.5 -56t14.5 -35t20 -18t22 -5q24 0 41 21t17 63v412h167v-601h-135l-14 53q-22 -36 -57.5 -54.5t-81.5 -18.5q-34 0 -64.5 12t-53 40t-35.5 73.5t-13 113.5v382h167zM428 631l-166 99l-166 -99v112l166 92l166 -92v-112z" />
    <glyph glyph-name="udieresis" unicode="&#xfc;" 
d="M202 601v-382q0 -34 5.5 -56t14.5 -35t20 -18t22 -5q23 0 39.5 19t18.5 57v420h167v-601h-135l-14 53q-22 -36 -57.5 -54.5t-81.5 -18.5q-34 0 -64.5 12t-53 40t-35.5 73.5t-13 113.5v382h167zM291 730q0 35 21 55.5t55 20.5t55 -20.5t21 -55.5t-21 -55.5t-55 -20.5
t-55 20.5t-21 55.5zM80 730q0 35 21 55.5t55 20.5t55 -20.5t21 -55.5t-21 -55.5t-55 -20.5t-55 20.5t-21 55.5z" />
    <glyph glyph-name="yacute" unicode="&#xfd;" horiz-adv-x="496" 
d="M246 -210h-144l70 235l-174 576h168l72 -315l-16 -92l122 407h154zM156 643l111 193h153l-159 -193h-105z" />
    <glyph glyph-name="ydieresis" unicode="&#xff;" horiz-adv-x="496" 
d="M246 -210h-144l70 235l-174 576h168l72 -315l-16 -92l122 407h154zM277 730q0 35 21 55.5t55 20.5t55 -20.5t21 -55.5t-21 -55.5t-55 -20.5t-55 20.5t-21 55.5zM66 730q0 35 21 55.5t55 20.5t55 -20.5t21 -55.5t-21 -55.5t-55 -20.5t-55 20.5t-21 55.5z" />
    <glyph glyph-name="Aogonek" unicode="&#x104;" horiz-adv-x="601" 
d="M599 0h-1q-32 -33 -63 -55.5t-55.5 -40.5t-40 -34t-15.5 -37q0 -20 9.5 -31t23.5 -11t23.5 11t9.5 31h97q0 -20 -9 -39.5t-25.5 -35t-41 -25t-54.5 -9.5t-54.5 9.5t-41 25t-25.5 35t-9 39.5q0 34 19 56.5t48 40t64 33.5t68 37h-90l-38 167h-196l-38 -167h-163l214 800
h170zM230 292h139l-56 250l-13 99l-12 -99z" />
    <glyph glyph-name="Lcaron" unicode="&#x13d;" horiz-adv-x="497" 
d="M35 800h167v-675h272v-125h-439v800zM361 508q23 72 22 113q-32 8 -49 32t-18 56q-1 19 5 37.5t18 33t30.5 22.5t41.5 8q30 0 56.5 -14t37 -48.5t-1 -92.5t-55.5 -147h-87z" />
    <glyph glyph-name="uni0162" unicode="&#x162;" horiz-adv-x="582" 
d="M211 0v675h-211v125h582v-125h-204v-675h-167zM242 -317q11 25 16.5 46t5.5 37q-30 7 -48 31.5t-19 56.5q-1 19 5 37.5t18 32.5t30.5 22.5t41.5 8.5q31 0 57.5 -14t36 -46.5t-2 -84.5t-54.5 -127h-87z" />
    <glyph glyph-name="uni0163" unicode="&#x163;" horiz-adv-x="309" 
d="M7 601h54v180h167v-180h67v-125h-67v-299q0 -20 2.5 -34.5t10 -22t22.5 -7t41 11.5v-125q-51 -20 -95 -17.5t-77 25.5t-52 66t-19 103v299h-54v125zM145 -336q11 25 16.5 46t5.5 37q-30 7 -48 31.5t-19 56.5q-1 19 5 37.5t18 32.5t30.5 22.5t41.5 8.5q31 0 57.5 -14
t36 -46.5t-2 -84.5t-54.5 -127h-87z" />
    <glyph glyph-name="Uhungarumlaut" unicode="&#x170;" horiz-adv-x="630" 
d="M202 279q0 -87 27 -130.5t86 -43.5t86 43.5t27 130.5v521h167v-521q0 -145 -69 -222t-211 -77t-211 77t-69 222v521h167v-521zM87 842l111 193h152l-158 -193h-105zM279 842l111 193h153l-159 -193h-105z" />
    <glyph glyph-name="uhungarumlaut" unicode="&#x171;" 
d="M202 601v-382q0 -34 5.5 -56t14.5 -35t20 -18t22 -5q23 0 39.5 19t18.5 57v420h167v-601h-135l-14 53q-22 -36 -57.5 -54.5t-81.5 -18.5q-34 0 -64.5 12t-53 40t-35.5 73.5t-13 113.5v382h167zM226 643l111 193h153l-159 -193h-105zM34 643l111 193h152l-158 -193h-105z
" />
    <glyph glyph-name="Uring" unicode="&#x16e;" horiz-adv-x="630" 
d="M202 279q0 -87 27 -130.5t86 -43.5t86 43.5t27 130.5v521h167v-521q0 -145 -69 -222t-211 -77t-211 77t-69 222v521h167v-521zM315 833q-30 0 -54.5 10.5t-41 27.5t-25.5 38.5t-9 44.5t9 44.5t25.5 38.5t41 27.5t54.5 10.5t54.5 -10.5t41 -27.5t25.5 -38.5t9 -44.5
t-9 -44.5t-25.5 -38.5t-41 -27.5t-54.5 -10.5zM315 908q14 0 23.5 11.5t9.5 34.5t-10 34.5t-23 11.5q-14 0 -23.5 -13t-9.5 -33q0 -23 9.5 -34.5t23.5 -11.5z" />
    <glyph glyph-name="uring" unicode="&#x16f;" 
d="M202 601v-382q0 -34 5.5 -56t14.5 -35t20 -18t22 -5q23 0 39.5 19t18.5 57v420h167v-601h-135l-14 53q-22 -36 -57.5 -54.5t-81.5 -18.5q-34 0 -64.5 12t-53 40t-35.5 73.5t-13 113.5v382h167zM262 634q-30 0 -54.5 10.5t-41 27.5t-25.5 38.5t-9 44.5t9 44.5t25.5 38.5
t41 27.5t54.5 10.5t54.5 -10.5t41 -27.5t25.5 -38.5t9 -44.5t-9 -44.5t-25.5 -38.5t-41 -27.5t-54.5 -10.5zM262 709q14 0 23.5 11.5t9.5 34.5t-10 34.5t-23 11.5q-14 0 -23.5 -13t-9.5 -33q0 -23 9.5 -34.5t23.5 -11.5z" />
    <glyph glyph-name="Rcaron" unicode="&#x158;" horiz-adv-x="552" 
d="M35 0v800h253q51 0 94 -17t74.5 -49.5t49 -78.5t17.5 -104q0 -81 -33 -137.5t-90 -85.5l13 -24l124 -304h-170l-102 303h-63v-303h-167zM441 922l-166 -92l-166 92v112l166 -99l166 99v-112zM356 551q0 63 -21 93.5t-47 30.5h-86v-247h86q26 0 47 30t21 93z" />
    <glyph glyph-name="rcaron" unicode="&#x159;" horiz-adv-x="318" 
d="M36 0v601h115l20 -73q12 47 34 68t47.5 25.5t51.5 -1.5t44 -13v-144q-31 6 -57 8t-45 -8t-30.5 -36.5t-12.5 -75.5v-351h-167zM337 726l-166 -92l-166 92v112l166 -99l166 99v-112z" />
    <glyph glyph-name="ohungarumlaut" unicode="&#x151;" horiz-adv-x="514" 
d="M257 -20q-110 0 -171 79t-61 241q0 163 61 242t171 79q109 0 170.5 -79t61.5 -242q0 -162 -61 -241t-171 -79zM257 105q18 0 30 8t20 29.5t11.5 59.5t3.5 98t-3.5 98t-11.5 59.5t-20 30t-30 8.5q-17 0 -29.5 -8.5t-20.5 -30t-11.5 -59.5t-3.5 -98t3.5 -98t11.5 -59.5
t20.5 -29.5t29.5 -8zM30 643l111 193h152l-158 -193h-105zM222 643l111 193h153l-159 -193h-105z" />
    <glyph glyph-name="ncaron" unicode="&#x148;" 
d="M35 0v601h135l14 -55q23 37 57.5 56t77.5 19q34 0 65 -12t54 -40t37 -74t14 -113v-382h-167v382q0 66 -18.5 90t-45.5 24q-8 0 -17.5 -5t-17.5 -14.5t-14 -23.5t-7 -33v-420h-167zM428 723l-166 -92l-166 92v112l166 -99l166 99v-112z" />
    <glyph glyph-name="nacute" unicode="&#x144;" 
d="M35 0v601h135l14 -55q23 37 57.5 56t77.5 19q34 0 65 -12t54 -40t37 -74t14 -113v-382h-167v382q0 66 -18.5 90t-45.5 24q-8 0 -17.5 -5t-17.5 -14.5t-14 -23.5t-7 -33v-420h-167zM130 643l111 193h153l-159 -193h-105z" />
    <glyph glyph-name="dcroat" unicode="&#x111;" horiz-adv-x="531" 
d="M262 762h66v48h167v-48h49v-97h-49v-665h-136l-11 57q-22 -43 -55.5 -60t-77.5 -17q-43 0 -79.5 20t-63.5 59.5t-42 99.5t-15 141t16 141.5t43 100t63.5 59.5t77.5 20q34 0 62.5 -11t50.5 -37v92h-66v97zM257 105q12 0 25 7t23 23.5t16.5 44t6.5 68.5v105q0 41 -6.5 68.5
t-16.5 44t-23 23.5t-25 7q-44 0 -59.5 -48t-15.5 -148t15.5 -147.5t59.5 -47.5z" />
    <glyph glyph-name="Dcroat" unicode="&#x110;" horiz-adv-x="590" 
d="M16 459h54v341h179q88 0 149 -23.5t99.5 -72.5t55.5 -124.5t17 -179.5t-17 -179t-55.5 -124.5t-99.5 -73t-149 -23.5h-179v334h-54v125zM403 400q0 77 -8.5 129.5t-27 85t-47.5 46.5t-71 14h-12v-216h75v-125h-75v-209h12q42 0 71 13.5t47.5 46t27 85t8.5 130.5z" />
    <glyph glyph-name="dcaron" unicode="&#x10f;" horiz-adv-x="791" 
d="M15 300q0 81 16 141.5t43 100t63.5 59.5t77.5 20q34 0 62.5 -11t50.5 -37v237h167v-810h-136l-11 57q-22 -43 -55.5 -60t-77.5 -17q-43 0 -79.5 20t-63.5 59.5t-42 99.5t-15 141zM257 105q12 0 24.5 6.5t22.5 22.5t16.5 41.5t7.5 64.5v113q0 41 -6.5 68.5t-16.5 44
t-23 23.5t-25 7q-44 0 -59.5 -48t-15.5 -148t15.5 -147.5t59.5 -47.5zM610 488q23 72 22 113q-32 8 -49 32t-18 56q-1 19 5 37.5t18 33t30.5 22.5t41.5 8q30 0 56.5 -14t37 -48.5t-1 -92.5t-55.5 -147h-87z" />
    <glyph glyph-name="Ohungarumlaut" unicode="&#x150;" horiz-adv-x="681" 
d="M340 -20q-146 0 -227 108t-81 312q0 205 81 312.5t227 107.5t227 -107.5t81 -312.5q0 -204 -81 -312t-227 -108zM340 105q29 0 55 14.5t45 49t30 91t11 140.5q0 83 -11 139.5t-30 91t-45 49.5t-55 15t-55 -15t-45 -49.5t-30 -91t-11 -139.5q0 -84 11 -140.5t30 -91
t45 -49t55 -14.5zM112 842l111 193h152l-158 -193h-105zM304 842l111 193h153l-159 -193h-105z" />
    <glyph glyph-name="Dcaron" unicode="&#x10e;" horiz-adv-x="555" 
d="M35 0v800h179q88 0 149 -23.5t99.5 -72.5t55.5 -124.5t17 -179.5t-17 -179t-55.5 -124.5t-99.5 -73t-149 -23.5h-179zM214 125q42 0 71 13.5t47.5 46t27 85t8.5 130.5q0 77 -8.5 129.5t-27 85t-47.5 46.5t-71 14h-12v-550h12zM444 922l-166 -92l-166 92v112l166 -99
l166 99v-112z" />
    <glyph glyph-name="Nacute" unicode="&#x143;" horiz-adv-x="612" 
d="M35 0v800h158l226 -499v499h158v-800h-158l-226 497v-497h-158zM174 842l111 193h153l-159 -193h-105z" />
    <glyph glyph-name="Ncaron" unicode="&#x147;" horiz-adv-x="612" 
d="M35 0v800h158l226 -499v499h158v-800h-158l-226 497v-497h-158zM472 922l-166 -92l-166 92v112l166 -99l166 99v-112z" />
    <glyph glyph-name="Ecaron" unicode="&#x11a;" horiz-adv-x="495" 
d="M35 800h429v-125h-262v-188h192v-125h-192v-237h272v-125h-439v800zM414 922l-166 -92l-166 92v112l166 -99l166 99v-112z" />
    <glyph glyph-name="ecaron" unicode="&#x11b;" horiz-adv-x="510" 
d="M256 621q105 0 163.5 -67t58.5 -190v-113h-279q-2 -41 1.5 -69t11 -45t18 -24.5t24.5 -7.5q21 0 34 22t18 57h167q-7 -50 -27 -88t-49 -64t-65.5 -39t-75.5 -13q-103 0 -163.5 80t-60.5 240t60.5 240.5t163.5 80.5zM421 723l-166 -92l-166 92v112l166 -99l166 99v-112z
M254 496q-23 0 -39 -32t-16 -104v-8h112v20q0 66 -18 95t-39 29z" />
    <glyph glyph-name="eogonek" unicode="&#x119;" horiz-adv-x="510" 
d="M256 621q105 0 163.5 -67t58.5 -190v-113h-279q-2 -41 1.5 -69t11 -45t18 -24.5t24.5 -7.5q21 0 34 22t18 57h167q-9 -65 -39.5 -109.5t-73.5 -68.5q-31 -32 -61 -53t-54 -38.5t-38.5 -33t-14.5 -36.5q0 -20 9.5 -31t23.5 -11t23.5 11t9.5 31h97q0 -20 -9 -39.5
t-25.5 -35t-41 -25t-54.5 -9.5t-54.5 9.5t-41 25t-25.5 35t-9 39.5q0 27 12 46.5t32 35t46 28t53 26.5q-96 8 -151 87t-55 232q0 160 60.5 240.5t163.5 80.5zM254 496q-23 0 -39 -32t-16 -104v-8h112v20q0 66 -18 95t-39 29z" />
    <glyph glyph-name="ccaron" unicode="&#x10d;" horiz-adv-x="489" 
d="M302 361q-1 39 -7 65t-14 41.5t-17 22t-16 6.5q-14 0 -24 -10t-17.5 -33.5t-11 -61t-3.5 -91.5q0 -56 3.5 -93t10.5 -60t17.5 -32.5t24.5 -9.5q16 0 33 35t19 103l166 -9q-2 -54 -17.5 -100.5t-44 -80.5t-68 -53.5t-88.5 -19.5q-103 0 -163 80t-60 240t60 240.5t163 80.5
q56 0 97 -19t67.5 -53t39.5 -79.5t13 -99.5zM410 723l-166 -92l-166 92v112l166 -99l166 99v-112z" />
    <glyph glyph-name="cacute" unicode="&#x107;" horiz-adv-x="489" 
d="M302 361q-1 39 -7 65t-14 41.5t-17 22t-16 6.5q-14 0 -24 -10t-17.5 -33.5t-11 -61t-3.5 -91.5q0 -56 3.5 -93t10.5 -60t17.5 -32.5t24.5 -9.5q16 0 33 35t19 103l166 -9q-2 -54 -17.5 -100.5t-44 -80.5t-68 -53.5t-88.5 -19.5q-103 0 -163 80t-60 240t60 240.5t163 80.5
q56 0 97 -19t67.5 -53t39.5 -79.5t13 -99.5zM113 643l111 193h153l-159 -193h-105z" />
    <glyph glyph-name="lacute" unicode="&#x13a;" horiz-adv-x="225" 
d="M38 0v810h167v-810h-167zM-23 826l111 193h153l-159 -193h-105z" />
    <glyph glyph-name="abreve" unicode="&#x103;" horiz-adv-x="507" 
d="M472 0h-125l-20 67q-23 -41 -60 -64t-81 -23q-33 0 -63.5 12.5t-53.5 35t-36.5 54.5t-13.5 71q0 54 21.5 87t53.5 53t69.5 30.5t69.5 19t53.5 19t21.5 31.5q0 51 -11 77t-49 26q-23 0 -41.5 -26.5t-16.5 -75.5l-161 15q-4 39 10.5 77t44 68t71 48.5t90.5 18.5
q56 0 98.5 -16.5t71 -46.5t43 -72t14.5 -93v-393zM420 796q0 -27 -10 -52t-30 -44.5t-51 -31.5t-73 -12t-73.5 12t-51.5 31.5t-30 44.5t-10 52h117q0 -27 15.5 -40.5t32.5 -13.5t32 13.5t15 40.5h117zM308 272q-19 -17 -41 -23.5t-41 -14.5t-32 -21.5t-13 -43.5t17 -47
t40 -17q28 0 49 26.5t21 75.5v65z" />
    <glyph glyph-name="racute" unicode="&#x155;" horiz-adv-x="318" 
d="M36 0v601h115l20 -73q12 47 34 68t47.5 25.5t51.5 -1.5t44 -13v-144q-31 6 -57 8t-45 -8t-30.5 -36.5t-12.5 -75.5v-351h-167zM55 643l111 193h153l-159 -193h-105z" />
    <glyph glyph-name="zdotaccent" unicode="&#x17c;" horiz-adv-x="453" 
d="M27 601h401v-83l-229 -393h229v-125h-401v83l236 393h-236v125zM150 730q0 35 21 55.5t55 20.5t55 -20.5t21 -55.5t-21 -55.5t-55 -20.5t-55 20.5t-21 55.5z" />
    <glyph glyph-name="zacute" unicode="&#x17a;" horiz-adv-x="453" 
d="M27 601h401v-83l-229 -393h229v-125h-401v83l236 393h-236v125zM94 643l111 193h153l-159 -193h-105z" />
    <glyph glyph-name="tcaron" unicode="&#x165;" horiz-adv-x="569" 
d="M7 601h54v180h167v-180h67v-125h-67v-299q0 -20 2.5 -34.5t10 -22t22.5 -7t41 11.5v-125q-51 -20 -95 -17.5t-77 25.5t-52 66t-19 103v299h-54v125zM388 488q23 72 22 113q-32 8 -49 32t-18 56q-1 19 5 37.5t18 33t30.5 22.5t41.5 8q30 0 56.5 -14t37 -48.5t-1 -92.5
t-55.5 -147h-87z" />
    <glyph glyph-name="scedilla" unicode="&#x15f;" horiz-adv-x="470" 
d="M37 443q0 36 12.5 68.5t37.5 56.5t61.5 38.5t83.5 14.5q53 0 92.5 -15t65.5 -41.5t38.5 -62.5t11.5 -79l-155 -12q4 37 -6.5 61t-40.5 24q-24 0 -36.5 -15.5t-12.5 -38.5q0 -30 19 -46t48 -27.5t62 -22.5t62 -31t48 -52.5t19 -87.5q0 -39 -12 -72.5t-34.5 -59t-55 -41.5
t-74.5 -20l5 -38q42 -13 65.5 -45.5t23.5 -70.5q0 -23 -9 -44.5t-25.5 -38.5t-41 -27.5t-54.5 -10.5t-54.5 10.5t-41 27.5t-25.5 38.5t-9 44.5h97q0 -23 9.5 -34.5t23.5 -11.5t23.5 11.5t9.5 34.5q0 22 -9.5 33.5t-21.5 12.5h-49l15 109q-91 11 -138.5 66.5t-39.5 145.5
l146 10q-2 -26 3 -45t14.5 -31t21 -18t23.5 -6q25 0 38 18.5t13 40.5q0 31 -18.5 48.5t-45.5 30t-59.5 24.5t-59.5 32.5t-45.5 54t-18.5 89.5z" />
    <glyph glyph-name="sacute" unicode="&#x15b;" horiz-adv-x="470" 
d="M37 443q0 36 12.5 68.5t37.5 56.5t61.5 38.5t83.5 14.5q53 0 92.5 -15t65.5 -41.5t38.5 -62.5t11.5 -79l-155 -12q4 37 -6.5 61t-40.5 24q-24 0 -36.5 -15.5t-12.5 -38.5q0 -30 19 -46t48 -27.5t62 -22.5t62 -31t48 -52.5t19 -87.5q0 -42 -13.5 -77.5t-40 -61.5
t-64.5 -41t-86 -15q-54 0 -96.5 15t-71 43t-42 68t-8.5 89l146 10q-2 -26 3 -45t14.5 -31t21 -18t23.5 -6q25 0 38 18.5t13 40.5q0 31 -18.5 48.5t-45.5 30t-59.5 24.5t-59.5 32.5t-45.5 54t-18.5 89.5zM103 643l111 193h153l-159 -193h-105z" />
    <glyph glyph-name="lcaron" unicode="&#x13e;" horiz-adv-x="485" 
d="M38 0v810h167v-810h-167zM304 488q23 72 22 113q-32 8 -49 32t-18 56q-1 19 5 37.5t18 33t30.5 22.5t41.5 8q30 0 56.5 -14t37 -48.5t-1 -92.5t-55.5 -147h-87z" />
    <glyph glyph-name="aogonek" unicode="&#x105;" horiz-adv-x="496" 
d="M472 0q-32 -33 -63 -55.5t-55.5 -40.5t-40 -34t-15.5 -37q0 -20 9.5 -31t23.5 -11t23.5 11t9.5 31h97q0 -20 -9 -39.5t-25.5 -35t-41 -25t-54.5 -9.5t-54.5 9.5t-41 25t-25.5 35t-9 39.5q0 34 19 56.5t48 40t64 33.5t68 37h-53l-20 67q-23 -41 -60 -64t-81 -23
q-33 0 -63.5 12.5t-53.5 35t-36.5 54.5t-13.5 71q0 54 21.5 87t53.5 53t69.5 30.5t69.5 19t53.5 19t21.5 31.5q0 51 -11 77t-49 26q-23 0 -41.5 -26.5t-16.5 -75.5l-161 15q-4 39 10.5 77t44 68t71 48.5t90.5 18.5q56 0 98.5 -16.5t71 -46.5t43 -72t14.5 -93v-393zM238 105
q26 0 47 23.5t23 68.5v75q-19 -17 -41 -23.5t-41 -14.5t-32 -21.5t-13 -43.5t17 -47t40 -17z" />
    <glyph glyph-name="Racute" unicode="&#x154;" horiz-adv-x="552" 
d="M35 0v800h253q51 0 94 -17t74.5 -49.5t49 -78.5t17.5 -104q0 -81 -33 -137.5t-90 -85.5l13 -24l124 -304h-170l-102 303h-63v-303h-167zM356 551q0 63 -21 93.5t-47 30.5h-86v-247h86q26 0 47 30t21 93zM144 842l111 193h153l-159 -193h-105z" />
    <glyph glyph-name="Abreve" unicode="&#x102;" horiz-adv-x="601" 
d="M599 0h-163l-38 167h-196l-38 -167h-163l214 800h170zM464 995q0 -27 -10 -52t-30 -44.5t-51 -31.5t-73 -12t-73.5 12t-51.5 31.5t-30 44.5t-10 52h117q0 -27 15.5 -40.5t32.5 -13.5t32 13.5t15 40.5h117zM230 292h139l-56 250l-13 99l-12 -99z" />
    <glyph glyph-name="Lacute" unicode="&#x139;" horiz-adv-x="497" 
d="M35 800h167v-675h272v-125h-439v800zM116 842l111 193h153l-159 -193h-105z" />
    <glyph glyph-name="Cacute" unicode="&#x106;" horiz-adv-x="605" 
d="M579 259q0 -59 -19 -110t-53.5 -88.5t-82.5 -59t-106 -21.5q-70 0 -124 24t-90.5 75t-55.5 130.5t-19 190.5q0 112 19 191.5t55.5 130.5t90.5 74.5t124 23.5q62 0 110.5 -21.5t82 -58.5t50.5 -86.5t17 -106.5l-166 -14q0 75 -21.5 118.5t-72.5 43.5q-68 0 -95 -72.5
t-27 -222.5q0 -151 27 -223t95 -72q45 0 70 45t24 123zM170 842l111 193h153l-159 -193h-105z" />
    <glyph glyph-name="Ccaron" unicode="&#x10c;" horiz-adv-x="605" 
d="M579 259q0 -59 -19 -110t-53.5 -88.5t-82.5 -59t-106 -21.5q-70 0 -124 24t-90.5 75t-55.5 130.5t-19 190.5q0 112 19 191.5t55.5 130.5t90.5 74.5t124 23.5q62 0 110.5 -21.5t82 -58.5t50.5 -86.5t17 -106.5l-166 -14q0 75 -21.5 118.5t-72.5 43.5q-68 0 -95 -72.5
t-27 -222.5q0 -151 27 -223t95 -72q45 0 70 45t24 123zM469 922l-166 -92l-166 92v112l166 -99l166 99v-112z" />
    <glyph glyph-name="Eogonek" unicode="&#x118;" horiz-adv-x="495" 
d="M35 800h429v-125h-262v-188h192v-125h-192v-237h272v-125h-107q-32 -33 -63 -55.5t-55.5 -40.5t-40 -34t-15.5 -37q0 -20 9.5 -31t23.5 -11t23.5 11t9.5 31h97q0 -20 -9 -39.5t-25.5 -35t-41 -25t-54.5 -9.5t-54.5 9.5t-41 25t-25.5 35t-9 39.5q0 34 19 56.5t48 40
t64 33.5t68 37h-260v800z" />
    <glyph glyph-name="Sacute" unicode="&#x15a;" horiz-adv-x="573" 
d="M27 591q0 41 15.5 82t47.5 73.5t80 53t113 20.5q73 0 125.5 -20t85.5 -54.5t46.5 -81t8.5 -99.5l-167 -14q3 31 -2.5 57.5t-18 45.5t-31.5 30t-43 11q-38 0 -65.5 -26t-27.5 -68q0 -30 15.5 -51t40 -37.5t56.5 -30.5t65.5 -29.5t65.5 -35t56.5 -46.5t40 -64.5t15.5 -88.5
q0 -41 -15.5 -83.5t-47 -77t-79.5 -56t-113 -21.5q-72 0 -125 20t-86 55.5t-47 84t-9 104.5l167 14q-3 -32 3 -59.5t18.5 -48.5t31.5 -33t42 -12q20 0 37 8.5t29.5 23t19.5 34t7 41.5q0 42 -26.5 66t-65.5 42t-85.5 35.5t-85.5 45.5t-65.5 72.5t-26.5 117.5zM154 842
l111 193h153l-159 -193h-105z" />
    <glyph glyph-name="Scedilla" unicode="&#x15e;" horiz-adv-x="573" 
d="M240 -126l15 108q-62 6 -107.5 28t-74 56.5t-40 79.5t-6.5 98l167 14q-3 -32 3 -59.5t18.5 -48.5t31.5 -33t42 -12q20 0 37 8.5t29.5 23t19.5 34t7 41.5q0 42 -26.5 66t-65.5 42t-85.5 35.5t-85.5 45.5t-65.5 72.5t-26.5 117.5q0 41 15.5 82t47.5 73.5t80 53t113 20.5
q73 0 125.5 -20t85.5 -54.5t46.5 -81t8.5 -99.5l-167 -14q3 31 -2.5 57.5t-18 45.5t-31.5 30t-43 11q-38 0 -65.5 -26t-27.5 -68q0 -30 15.5 -51t40 -37.5t56.5 -30.5t65.5 -29.5t65.5 -35t56.5 -46.5t40 -64.5t15.5 -88.5q0 -39 -14 -79t-42 -73t-70.5 -56t-99.5 -28l5 -38
q42 -13 65.5 -45.5t23.5 -70.5q0 -23 -9 -44.5t-25.5 -38.5t-41 -27.5t-54.5 -10.5t-54.5 10.5t-41 27.5t-25.5 38.5t-9 44.5h97q0 -23 9.5 -34.5t23.5 -11.5t23.5 11.5t9.5 34.5t-10 34.5t-23 11.5h-47z" />
    <glyph glyph-name="Tcaron" unicode="&#x164;" horiz-adv-x="582" 
d="M0 800h582v-125h-204v-675h-167v675h-211v125zM457 922l-166 -92l-166 92v112l166 -99l166 99v-112z" />
    <glyph glyph-name="Zacute" unicode="&#x179;" horiz-adv-x="568" 
d="M34 800h492v-125l-312 -550h312v-125h-492v125l319 550h-319v125zM152 842l111 193h153l-159 -193h-105z" />
    <glyph glyph-name="Zdotaccent" unicode="&#x17b;" horiz-adv-x="568" 
d="M34 800h492v-125l-312 -550h312v-125h-492v125l319 550h-319v125zM207 929q0 35 21 55.5t55 20.5t55 -20.5t21 -55.5t-21 -55.5t-55 -20.5t-55 20.5t-21 55.5z" />
    <glyph glyph-name="uni00AD" unicode="&#xad;" horiz-adv-x="357" 
d="M51 376h254v-125h-254v125z" />
    <glyph glyph-name="gbreve" unicode="&#x11f;" horiz-adv-x="536" 
d="M22 310q0 81 17 139.5t45.5 97t64 56.5t73.5 18q44 0 78.5 -18t55.5 -66l15 64h131v-609q0 -50 -16.5 -91t-47.5 -70t-74 -45t-97 -16q-53 0 -96.5 13.5t-73.5 38t-44.5 58t-10.5 74.5l169 5q-5 -26 9.5 -46.5t50.5 -20.5q34 -1 49 21t15 57v76q-21 -26 -49.5 -36
t-63.5 -10q-40 0 -76 18t-63.5 56t-44 96.5t-16.5 139.5zM264 125q12 0 24.5 6.5t22.5 22t16.5 41.5t7.5 64v94q0 41 -6.5 68.5t-16.5 44t-23 23.5t-25 7q-37 0 -56 -43t-19 -143q0 -99 19 -142t56 -43zM438 796q0 -27 -10 -52t-30 -44.5t-51 -31.5t-73 -12t-73.5 12
t-51.5 31.5t-30 44.5t-10 52h117q0 -27 15.5 -40.5t32.5 -13.5t32 13.5t15 40.5h117z" />
    <glyph glyph-name="jcircumflex" unicode="&#x135;" horiz-adv-x="218" 
d="M-12 -85q26 -5 32 0.5t6 22.5v663h167v-684q0 -45 -14.5 -74t-41.5 -43t-65 -13.5t-84 13.5v115zM275 631l-166 99l-166 -99v112l166 92l166 -92v-112z" />
    <glyph glyph-name="hcircumflex" unicode="&#x125;" 
d="M35 0v810h167v-239q45 50 117 50q34 0 65 -12t54 -40t37 -74t14 -113v-382h-167v382q0 66 -18.5 90t-45.5 24q-8 0 -17.5 -5t-17.5 -14.5t-14 -23.5t-7 -33v-420h-167zM437 819l-166 99l-166 -99v112l166 92l166 -92v-112z" />
    <glyph glyph-name="Hcircumflex" unicode="&#x124;" horiz-adv-x="594" 
d="M35 0v800h167v-333h189v333h167v-800h-167v342h-189v-342h-167zM463 830l-166 99l-166 -99v112l166 92l166 -92v-112z" />
    <glyph glyph-name="Hbar" unicode="&#x126;" horiz-adv-x="680" 
d="M50 693h30v107h167v-107h189v107h167v-107h27v-125h-27v-568h-167v342h-189v-342h-167v568h-30v125zM247 467h189v101h-189v-101z" />
    <glyph glyph-name="Cdotaccent" unicode="&#x10a;" horiz-adv-x="605" 
d="M579 259q0 -59 -19 -110t-53.5 -88.5t-82.5 -59t-106 -21.5q-70 0 -124 24t-90.5 75t-55.5 130.5t-19 190.5q0 112 19 191.5t55.5 130.5t90.5 74.5t124 23.5q62 0 110.5 -21.5t82 -58.5t50.5 -86.5t17 -106.5l-166 -14q0 75 -21.5 118.5t-72.5 43.5q-68 0 -95 -72.5
t-27 -222.5q0 -151 27 -223t95 -72q45 0 70 45t24 123zM243 943q0 35 21 55.5t55 20.5t55 -20.5t21 -55.5t-21 -55.5t-55 -20.5t-55 20.5t-21 55.5z" />
    <glyph glyph-name="cdotaccent" unicode="&#x10b;" horiz-adv-x="489" 
d="M302 361q-1 39 -7 65t-14 41.5t-17 22t-16 6.5q-14 0 -24 -10t-17.5 -33.5t-11 -61t-3.5 -91.5q0 -56 3.5 -93t10.5 -60t17.5 -32.5t24.5 -9.5q16 0 33 35t19 103l166 -9q-2 -54 -17.5 -100.5t-44 -80.5t-68 -53.5t-88.5 -19.5q-103 0 -163 80t-60 240t60 240.5t163 80.5
q56 0 97 -19t67.5 -53t39.5 -79.5t13 -99.5zM168 730q0 35 21 55.5t55 20.5t55 -20.5t21 -55.5t-21 -55.5t-55 -20.5t-55 20.5t-21 55.5z" />
    <glyph glyph-name="ccircumflex" unicode="&#x109;" horiz-adv-x="489" 
d="M302 361q-1 39 -7 65t-14 41.5t-17 22t-16 6.5q-14 0 -24 -10t-17.5 -33.5t-11 -61t-3.5 -91.5q0 -56 3.5 -93t10.5 -60t17.5 -32.5t24.5 -9.5q16 0 33 35t19 103l166 -9q-2 -54 -17.5 -100.5t-44 -80.5t-68 -53.5t-88.5 -19.5q-103 0 -163 80t-60 240t60 240.5t163 80.5
q56 0 97 -19t67.5 -53t39.5 -79.5t13 -99.5zM422 631l-166 99l-166 -99v112l166 92l166 -92v-112z" />
    <glyph glyph-name="Ccircumflex" unicode="&#x108;" horiz-adv-x="605" 
d="M579 259q0 -59 -19 -110t-53.5 -88.5t-82.5 -59t-106 -21.5q-70 0 -124 24t-90.5 75t-55.5 130.5t-19 190.5q0 112 19 191.5t55.5 130.5t90.5 74.5t124 23.5q62 0 110.5 -21.5t82 -58.5t50.5 -86.5t17 -106.5l-166 -14q0 75 -21.5 118.5t-72.5 43.5q-68 0 -95 -72.5
t-27 -222.5q0 -151 27 -223t95 -72q45 0 70 45t24 123zM476 830l-166 99l-166 -99v112l166 92l166 -92v-112z" />
    <glyph glyph-name="Idotaccent" unicode="&#x130;" horiz-adv-x="276" 
d="M55 0v800h166v-800h-166zM62 929q0 35 21 55.5t55 20.5t55 -20.5t21 -55.5t-21 -55.5t-55 -20.5t-55 20.5t-21 55.5z" />
    <glyph glyph-name="Gbreve" unicode="&#x11e;" horiz-adv-x="600" 
d="M285 437h283v-437h-117l-11 47q-25 -32 -64 -49.5t-98 -17.5q-41 0 -85 23.5t-80.5 74t-60 130t-23.5 192.5q0 110 20.5 189.5t58.5 130.5t91.5 75.5t120.5 24.5q68 0 116 -22.5t78 -59.5t42.5 -83.5t10.5 -95.5h-157q1 28 -6 53t-19.5 43.5t-29.5 29t-35 10.5
q-21 0 -43 -14t-40 -48t-29.5 -91t-11.5 -142q0 -86 11.5 -143t29.5 -90.5t40 -47.5t43 -14q24 0 41.5 11t29 29t16.5 41t5 47v79h-127v125zM465 995q0 -27 -10 -52t-30 -44.5t-51 -31.5t-73 -12t-73.5 12t-51.5 31.5t-30 44.5t-10 52h117q0 -27 15.5 -40.5t32.5 -13.5
t32 13.5t15 40.5h117z" />
    <glyph glyph-name="Jcircumflex" unicode="&#x134;" horiz-adv-x="565" 
d="M527 277q0 -62 -13 -116.5t-43 -94.5t-79 -63t-120 -23q-79 0 -129 24t-78.5 64.5t-39 93.5t-10.5 112h167q0 -46 6.5 -78t18.5 -52.5t28.5 -29.5t36.5 -9q42 0 65 45.5t23 126.5v523h167v-523zM448 830l-166 99l-166 -99v112l166 92l166 -92v-112z" />
    <glyph glyph-name="hbar" unicode="&#x127;" 
d="M-4 768h39v42h167v-42h151v-90h-151v-107q45 50 117 50q34 0 65 -12t54 -40t37 -74t14 -113v-382h-167v382q0 66 -18.5 90t-45.5 24q-8 0 -17.5 -5t-17.5 -14.5t-14 -23.5t-7 -33v-420h-167v678h-39v90z" />
    <glyph glyph-name="Gdotaccent" unicode="&#x120;" horiz-adv-x="600" 
d="M285 437h283v-437h-117l-11 47q-25 -32 -64 -49.5t-98 -17.5q-41 0 -85 23.5t-80.5 74t-60 130t-23.5 192.5q0 110 20.5 189.5t58.5 130.5t91.5 75.5t120.5 24.5q68 0 116 -22.5t78 -59.5t42.5 -83.5t10.5 -95.5h-157q1 28 -6 53t-19.5 43.5t-29.5 29t-35 10.5
q-21 0 -43 -14t-40 -48t-29.5 -91t-11.5 -142q0 -86 11.5 -143t29.5 -90.5t40 -47.5t43 -14q24 0 41.5 11t29 29t16.5 41t5 47v79h-127v125zM239 929q0 35 21 55.5t55 20.5t55 -20.5t21 -55.5t-21 -55.5t-55 -20.5t-55 20.5t-21 55.5z" />
    <glyph glyph-name="gdotaccent" unicode="&#x121;" horiz-adv-x="536" 
d="M22 310q0 81 17 139.5t45.5 97t64 56.5t73.5 18q44 0 78.5 -18t55.5 -66l15 64h131v-609q0 -50 -16.5 -91t-47.5 -70t-74 -45t-97 -16q-53 0 -96.5 13.5t-73.5 38t-44.5 58t-10.5 74.5l169 5q-5 -26 9.5 -46.5t50.5 -20.5q34 -1 49 21t15 57v76q-21 -26 -49.5 -36
t-63.5 -10q-40 0 -76 18t-63.5 56t-44 96.5t-16.5 139.5zM264 125q12 0 25 7t23 23.5t16.5 43.5t6.5 68v94q-1 38 -7.5 64t-16.5 41.5t-22.5 22.5t-24.5 7q-37 0 -56 -43t-19 -143q0 -99 19 -142t56 -43zM197 730q0 35 21 55.5t55 20.5t55 -20.5t21 -55.5t-21 -55.5
t-55 -20.5t-55 20.5t-21 55.5z" />
    <glyph glyph-name="Gcircumflex" unicode="&#x11c;" horiz-adv-x="600" 
d="M285 437h283v-437h-117l-11 47q-25 -32 -64 -49.5t-98 -17.5q-41 0 -85 23.5t-80.5 74t-60 130t-23.5 192.5q0 110 20.5 189.5t58.5 130.5t91.5 75.5t120.5 24.5q68 0 116 -22.5t78 -59.5t42.5 -83.5t10.5 -95.5h-157q1 28 -6 53t-19.5 43.5t-29.5 29t-35 10.5
q-21 0 -43 -14t-40 -48t-29.5 -91t-11.5 -142q0 -86 11.5 -143t29.5 -90.5t40 -47.5t43 -14q23 0 39.5 10t28 26.5t17.5 37.5t7 44v89h-127v125zM472 830l-166 99l-166 -99v112l166 92l166 -92v-112z" />
    <glyph glyph-name="gcircumflex" unicode="&#x11d;" horiz-adv-x="536" 
d="M22 310q0 81 17 139.5t45.5 97t64 56.5t73.5 18q44 0 78.5 -18t55.5 -66l15 64h131v-609q0 -50 -16.5 -91t-47.5 -70t-74 -45t-97 -16q-53 0 -96.5 13.5t-73.5 38t-44.5 58t-10.5 74.5l169 5q-5 -26 9.5 -46.5t50.5 -20.5q34 -1 49 21t15 57v76q-21 -26 -49.5 -36
t-63.5 -10q-40 0 -76 18t-63.5 56t-44 96.5t-16.5 139.5zM264 125q12 0 24.5 6.5t22.5 22t16.5 41.5t7.5 64v94q0 41 -6.5 68.5t-16.5 44t-23 23.5t-25 7q-37 0 -56 -43t-19 -143q0 -99 19 -142t56 -43zM440 631l-166 99l-166 -99v112l166 92l166 -92v-112z" />
    <glyph glyph-name="Ubreve" unicode="&#x16c;" horiz-adv-x="630" 
d="M202 279q0 -87 27 -130.5t86 -43.5t86 43.5t27 130.5v521h167v-521q0 -145 -69 -222t-211 -77t-211 77t-69 222v521h167v-521zM479 995q0 -27 -10 -52t-30 -44.5t-51 -31.5t-73 -12t-73.5 12t-51.5 31.5t-30 44.5t-10 52h117q0 -27 15.5 -40.5t32.5 -13.5t32 13.5
t15 40.5h117z" />
    <glyph glyph-name="ubreve" unicode="&#x16d;" 
d="M202 601v-382q0 -34 5.5 -56t14.5 -35t20 -18t22 -5q24 0 41 21t17 63v412h167v-601h-135l-14 53q-22 -36 -57.5 -54.5t-81.5 -18.5q-34 0 -64.5 12t-53 40t-35.5 73.5t-13 113.5v382h167zM426 796q0 -27 -10 -52t-30 -44.5t-51 -31.5t-73 -12t-73.5 12t-51.5 31.5
t-30 44.5t-10 52h117q0 -27 15.5 -40.5t32.5 -13.5t32 13.5t15 40.5h117z" />
    <glyph glyph-name="Scircumflex" unicode="&#x15c;" horiz-adv-x="573" 
d="M27 591q0 41 15.5 82t47.5 73.5t80 53t113 20.5q73 0 125.5 -20t85.5 -54.5t46.5 -81t8.5 -99.5l-167 -14q3 31 -2.5 57.5t-18 45.5t-31.5 30t-43 11q-38 0 -65.5 -26t-27.5 -68q0 -30 15.5 -51t40 -37.5t56.5 -30.5t65.5 -29.5t65.5 -35t56.5 -46.5t40 -64.5t15.5 -88.5
q0 -41 -15.5 -83.5t-47 -77t-79.5 -56t-113 -21.5q-72 0 -125 20t-86 55.5t-47 84t-9 104.5l167 14q-3 -32 3 -59.5t18.5 -48.5t31.5 -33t42 -12q20 0 37 8.5t29.5 23t19.5 34t7 41.5q0 42 -26.5 66t-65.5 42t-85.5 35.5t-85.5 45.5t-65.5 72.5t-26.5 117.5zM453 830
l-166 99l-166 -99v112l166 92l166 -92v-112z" />
    <glyph glyph-name="scircumflex" unicode="&#x15d;" horiz-adv-x="470" 
d="M37 443q0 36 12.5 68.5t37.5 56.5t61.5 38.5t83.5 14.5q53 0 92.5 -15t65.5 -41.5t38.5 -62.5t11.5 -79l-155 -12q4 37 -6.5 61t-40.5 24q-24 0 -36.5 -15.5t-12.5 -38.5q0 -30 19 -46t48 -27.5t62 -22.5t62 -31t48 -52.5t19 -87.5q0 -42 -13.5 -77.5t-40 -61.5
t-64.5 -41t-86 -15q-54 0 -96.5 15t-71 43t-42 68t-8.5 89l146 10q-2 -26 3 -45t14.5 -31t21 -18t23.5 -6q25 0 38 18.5t13 40.5q0 31 -18.5 48.5t-45.5 30t-59.5 24.5t-59.5 32.5t-45.5 54t-18.5 89.5zM401 631l-166 99l-166 -99v112l166 92l166 -92v-112z" />
    <glyph glyph-name="uni0156" unicode="&#x156;" horiz-adv-x="552" 
d="M35 0v800h253q51 0 94 -17t74.5 -49.5t49 -78.5t17.5 -104q0 -81 -33 -137.5t-90 -85.5l13 -24l124 -304h-170l-102 303h-63v-303h-167zM227 -317q11 25 16.5 46t5.5 37q-30 7 -48 31.5t-19 56.5q-1 19 5 37.5t18 32.5t30.5 22.5t41.5 8.5q31 0 57.5 -14t36 -46.5
t-2 -84.5t-54.5 -127h-87zM356 551q0 63 -21 93.5t-47 30.5h-86v-247h86q26 0 47 30t21 93z" />
    <glyph glyph-name="uni013B" unicode="&#x13b;" horiz-adv-x="497" 
d="M35 800h167v-675h272v-125h-439v800zM227 -317q11 25 16.5 46t5.5 37q-30 7 -48 31.5t-19 56.5q-1 19 5 37.5t18 32.5t30.5 22.5t41.5 8.5q31 0 57.5 -14t36 -46.5t-2 -84.5t-54.5 -127h-87z" />
    <glyph glyph-name="uni0122" unicode="&#x122;" horiz-adv-x="600" 
d="M285 437h283v-437h-117l-11 47q-25 -32 -64 -49.5t-98 -17.5q-41 0 -85 23.5t-80.5 74t-60 130t-23.5 192.5q0 110 20.5 189.5t58.5 130.5t91.5 75.5t120.5 24.5q68 0 116 -22.5t78 -59.5t42.5 -83.5t10.5 -95.5h-157q1 28 -6 53t-19.5 43.5t-29.5 29t-35 10.5
q-21 0 -43 -14t-40 -48t-29.5 -91t-11.5 -142q0 -86 11.5 -143t29.5 -90.5t40 -47.5t43 -14q23 0 39.5 10t28 26.5t17.5 37.5t7 44v89h-127v125zM241 -331q11 25 16.5 46t5.5 37q-30 7 -48 31.5t-19 56.5q-1 19 5 37.5t18 32.5t30.5 22.5t41.5 8.5q31 0 57.5 -14t36 -46.5
t-2 -84.5t-54.5 -127h-87z" />
    <glyph glyph-name="uni0157" unicode="&#x157;" horiz-adv-x="318" 
d="M36 0v601h115l20 -73q12 47 34 68t47.5 25.5t51.5 -1.5t44 -13v-144q-32 7 -58.5 8.5t-45.5 -9.5t-30 -39.5t-11 -81.5v-341h-167zM50 -336q11 25 16.5 46t5.5 37q-30 7 -48 31.5t-19 56.5q-1 19 5 37.5t18 32.5t30.5 22.5t41.5 8.5q31 0 57.5 -14t36 -46.5t-2 -84.5
t-54.5 -127h-87z" />
    <glyph glyph-name="uni013C" unicode="&#x13c;" horiz-adv-x="225" 
d="M38 0v810h167v-810h-167zM50 -336q11 25 16.5 46t5.5 37q-30 7 -48 31.5t-19 56.5q-1 19 5 37.5t18 32.5t30.5 22.5t41.5 8.5q31 0 57.5 -14t36 -46.5t-2 -84.5t-54.5 -127h-87z" />
    <glyph glyph-name="uni0123" unicode="&#x123;" horiz-adv-x="536" 
d="M22 310q0 81 17 139.5t45.5 97t64 56.5t73.5 18q44 0 78.5 -18t55.5 -66l15 64h131v-609q0 -50 -16.5 -91t-47.5 -70t-74 -45t-97 -16q-53 0 -96.5 13.5t-73.5 38t-44.5 58t-10.5 74.5l169 5q-5 -26 9.5 -46.5t50.5 -20.5q34 -1 49 21t15 57v76q-21 -26 -49.5 -36
t-63.5 -10q-40 0 -76 18t-63.5 56t-44 96.5t-16.5 139.5zM264 125q12 0 25 7t23 23.5t16.5 43.5t6.5 68v86q0 41 -6.5 68.5t-16.5 44t-23 23.5t-25 7q-37 0 -56 -43t-19 -143q0 -99 19 -142t56 -43zM321 927q-11 -25 -16.5 -46t-5.5 -37q30 -7 48 -31.5t19 -56.5
q1 -20 -5 -38t-18 -32t-30.5 -22.5t-41.5 -8.5q-32 0 -58 14t-35.5 46.5t1.5 84.5t55 127h87z" />
    <glyph glyph-name="uni0145" unicode="&#x145;" horiz-adv-x="612" 
d="M35 0v800h158l226 -499v499h158v-800h-158l-226 497v-497h-158zM242 -317q11 25 16.5 46t5.5 37q-30 7 -48 31.5t-19 56.5q-1 19 5 37.5t18 32.5t30.5 22.5t41.5 8.5q31 0 57.5 -14t36 -46.5t-2 -84.5t-54.5 -127h-87z" />
    <glyph glyph-name="uni0136" unicode="&#x136;" horiz-adv-x="553" 
d="M35 0v800h167v-341l203 341h180l-243 -371l236 -429h-174l-162 318l-40 -40v-278h-167zM252 -317q11 25 16.5 46t5.5 37q-30 7 -48 31.5t-19 56.5q-1 19 5 37.5t18 32.5t30.5 22.5t41.5 8.5q31 0 57.5 -14t36 -46.5t-2 -84.5t-54.5 -127h-87z" />
    <glyph glyph-name="uni0146" unicode="&#x146;" 
d="M35 0v601h135l14 -55q23 37 57.5 56t77.5 19q34 0 65 -12t54 -40t37 -74t14 -113v-382h-167v382q0 66 -18.5 90t-45.5 24q-8 0 -17.5 -5t-17.5 -14.5t-14 -23.5t-7 -33v-420h-167zM217 -336q11 25 16.5 46t5.5 37q-30 7 -48 31.5t-19 56.5q-1 19 5 37.5t18 32.5
t30.5 22.5t41.5 8.5q31 0 57.5 -14t36 -46.5t-2 -84.5t-54.5 -127h-87z" />
    <glyph glyph-name="uni0137" unicode="&#x137;" horiz-adv-x="479" 
d="M35 0v810h167v-457l124 248h171l-156 -274l154 -327h-167l-98 222l-28 -15v-207h-167zM219 -336q11 25 16.5 46t5.5 37q-30 7 -48 31.5t-19 56.5q-1 19 5 37.5t18 32.5t30.5 22.5t41.5 8.5q31 0 57.5 -14t36 -46.5t-2 -84.5t-54.5 -127h-87z" />
    <glyph glyph-name="kgreenlandic" unicode="&#x138;" horiz-adv-x="479" 
d="M35 0v601h167v-248l124 248h171l-156 -274l154 -327h-167l-98 222l-28 -15v-207h-167z" />
    <glyph glyph-name="Amacron" unicode="&#x100;" horiz-adv-x="601" 
d="M599 0h-163l-38 167h-196l-38 -167h-163l214 800h170zM121 1002h357v-125h-357v125zM230 292h139l-56 250l-13 99l-12 -99z" />
    <glyph glyph-name="eng" unicode="&#x14b;" 
d="M35 0v601h135l14 -55q23 37 57.5 56t77.5 19q34 0 65 -12t54 -40t37 -74t14 -113v-461q0 -46 -14.5 -75.5t-41 -44t-64.5 -14.5t-84 13v115q26 -5 31.5 2.5t5.5 24.5v440q0 66 -18.5 90t-45.5 24q-8 0 -17.5 -5t-17.5 -14.5t-14 -23.5t-7 -33v-420h-167z" />
    <glyph glyph-name="Eng" unicode="&#x14a;" horiz-adv-x="612" 
d="M35 0v800h158l217 -480v6l9 7v467h158v-837q0 -62 -13.5 -116.5t-43.5 -94.5t-78.5 -63t-119.5 -23q-79 0 -129 24t-78.5 64.5t-39 93.5t-10.5 112h167q0 -46 6.5 -78t18.5 -52.5t28.5 -29.5t36.5 -9q42 0 65 45.5t23 126.5v57l-217 477v-497h-158z" />
    <glyph glyph-name="Itilde" unicode="&#x128;" horiz-adv-x="276" 
d="M55 0v800h166v-800h-166zM-33 943q33 44 63 57.5t58.5 11t56 -14t54.5 -17.5t54 0t56 38v-84q-32 -44 -62 -57.5t-58.5 -11.5t-56.5 13.5t-55.5 17.5t-55 0t-54.5 -37v84z" />
    <glyph glyph-name="amacron" unicode="&#x101;" horiz-adv-x="507" 
d="M472 0h-125l-20 67q-23 -41 -60 -64t-81 -23q-33 0 -63.5 12.5t-53.5 35t-36.5 54.5t-13.5 71q0 54 21.5 87t53.5 53t69.5 30.5t69.5 19t53.5 19t21.5 31.5q0 51 -11 77t-49 26q-23 0 -41.5 -26.5t-16.5 -75.5l-161 15q-4 39 10.5 77t44 68t71 48.5t90.5 18.5
q56 0 98.5 -16.5t71 -46.5t43 -72t14.5 -93v-393zM76 803h357v-125h-357v125zM238 105q26 0 47 23.5t23 68.5v75q-19 -17 -41 -23.5t-41 -14.5t-32 -21.5t-13 -43.5t17 -47t40 -17z" />
    <glyph glyph-name="iogonek" unicode="&#x12f;" horiz-adv-x="218" 
d="M192 0q-32 -33 -63 -55.5t-55.5 -40.5t-40 -34t-15.5 -37q0 -20 9.5 -31t23.5 -11t23.5 11t9.5 31h97q0 -20 -9 -39.5t-25.5 -35t-41 -25t-54.5 -9.5t-54.5 9.5t-41 25t-25.5 35t-9 39.5q0 34 19 56.5t48 40t64 33.5t68 37h-85v601h167v-601h-10zM23 735q0 43 26 68.5
t69 25.5t69 -25.5t26 -68.5q0 -44 -26 -69.5t-69 -25.5t-69 25.5t-26 69.5z" />
    <glyph glyph-name="Iogonek" unicode="&#x12e;" horiz-adv-x="276" 
d="M221 0q-32 -33 -63 -55.5t-55.5 -40.5t-40 -34t-15.5 -37q0 -20 9.5 -31t23.5 -11t23.5 11t9.5 31h97q0 -20 -9 -39.5t-25.5 -35t-41 -25t-54.5 -9.5t-54.5 9.5t-41 25t-25.5 35t-9 39.5q0 34 19 56.5t48 40t64 33.5t68 37h-94v800h166v-800v0z" />
    <glyph glyph-name="Emacron" unicode="&#x112;" horiz-adv-x="495" 
d="M35 800h429v-125h-262v-188h192v-125h-192v-237h272v-125h-439v800zM68 1002h357v-125h-357v125z" />
    <glyph glyph-name="Tbar" unicode="&#x166;" horiz-adv-x="582" 
d="M0 800h582v-125h-204v-173h91v-125h-91v-377h-167v377h-99v125h99v173h-211v125z" />
    <glyph glyph-name="itilde" unicode="&#x129;" horiz-adv-x="218" 
d="M26 0v601h167v-601h-167zM-62 744q33 43 63 57t58.5 11.5t56 -14t54.5 -17.5t54 0t56 38v-84q-31 -43 -61.5 -57t-59 -12t-56.5 13.5t-55.5 17.5t-55 0t-54.5 -37v84z" />
    <glyph glyph-name="emacron" unicode="&#x113;" horiz-adv-x="510" 
d="M256 621q105 0 163.5 -67t58.5 -190v-113h-279q-2 -41 1.5 -69t11 -45t18 -24.5t24.5 -7.5q21 0 34 22t18 57h167q-7 -50 -27 -88t-49 -64t-65.5 -39t-75.5 -13q-103 0 -163.5 80t-60.5 240t60.5 240.5t163.5 80.5zM254 496q-23 0 -39 -32t-16 -104v-8h112v20
q0 66 -18 95t-39 29zM76 803h357v-125h-357v125z" />
    <glyph glyph-name="tbar" unicode="&#x167;" horiz-adv-x="309" 
d="M8 741h53v69h167v-69h72v-97h-72v-71h68v-97h-68v-299q0 -20 2.5 -34.5t10.5 -22t23 -7t40 11.5v-125q-51 -20 -95 -17.5t-77 25.5t-52 66t-19 103v299h-53v97h53v71h-53v97z" />
    <glyph glyph-name="Edotaccent" unicode="&#x116;" horiz-adv-x="495" 
d="M35 0v800h429v-125h-262v-188h192v-125h-192v-237h272v-125h-439zM171 929q0 35 21 55.5t55 20.5t55 -20.5t21 -55.5t-21 -55.5t-55 -20.5t-55 20.5t-21 55.5z" />
    <glyph glyph-name="edotaccent" unicode="&#x117;" horiz-adv-x="510" 
d="M256 621q105 0 163.5 -67t58.5 -190v-113h-279q-2 -41 1.5 -69t11 -45t18 -24.5t24.5 -7.5q21 0 34 22t18 57h167q-7 -50 -27 -88t-49 -64t-65.5 -39t-75.5 -13q-103 0 -163.5 80t-60.5 240t60.5 240.5t163.5 80.5zM254 496q-23 0 -39 -32t-16 -104v-8h112v20
q0 66 -18 95t-39 29zM179 730q0 35 21 55.5t55 20.5t55 -20.5t21 -55.5t-21 -55.5t-55 -20.5t-55 20.5t-21 55.5z" />
    <glyph glyph-name="imacron" unicode="&#x12b;" horiz-adv-x="218" 
d="M26 0v601h167v-601h-167zM-69 803h357v-125h-357v125z" />
    <glyph glyph-name="Imacron" unicode="&#x12a;" horiz-adv-x="276" 
d="M55 0v800h166v-800h-166zM-40 1002h357v-125h-357v125z" />
    <glyph glyph-name="Omacron" unicode="&#x14c;" horiz-adv-x="681" 
d="M340 -20q-146 0 -227 108t-81 312q0 205 81 312.5t227 107.5t227 -107.5t81 -312.5q0 -204 -81 -312t-227 -108zM340 105q29 0 55 14.5t45 49t30 91t11 140.5q0 83 -11 139.5t-30 91t-45 49.5t-55 15t-55 -15t-45 -49.5t-30 -91t-11 -139.5q0 -84 11 -140.5t30 -91
t45 -49t55 -14.5zM161 1002h357v-125h-357v125z" />
    <glyph glyph-name="omacron" unicode="&#x14d;" horiz-adv-x="514" 
d="M257 -20q-110 0 -171 79t-61 241q0 163 61 242t171 79q109 0 170.5 -79t61.5 -242q0 -162 -61 -241t-171 -79zM257 105q18 0 30 8t20 29.5t11.5 59.5t3.5 98t-3.5 98t-11.5 59.5t-20 30t-30 8.5q-17 0 -29.5 -8.5t-20.5 -30t-11.5 -59.5t-3.5 -98t3.5 -98t11.5 -59.5
t20.5 -29.5t29.5 -8zM78 803h357v-125h-357v125z" />
    <glyph glyph-name="Uogonek" unicode="&#x172;" horiz-adv-x="630" 
d="M202 279q0 -87 27 -130.5t86 -43.5t86 43.5t27 130.5v521h167v-521q0 -101 -33.5 -169t-101.5 -101q-31 -32 -61.5 -54t-55 -39.5t-39.5 -33.5t-15 -37q0 -20 9.5 -31t23.5 -11t23.5 11t9.5 31h97q0 -20 -9 -39.5t-25.5 -35t-41 -25t-54.5 -9.5t-54.5 9.5t-41 25
t-25.5 35t-9 39.5q0 27 12 46.5t32 35t45.5 28t52.5 26.5q-5 -1 -9.5 -1h-9.5q-142 0 -211 77t-69 222v521h167v-521z" />
    <glyph glyph-name="uogonek" unicode="&#x173;" 
d="M202 601v-382q0 -34 5.5 -56t14.5 -35t20 -18t22 -5q24 0 41 21t17 63v412h167v-601q-32 -33 -63 -55.5t-55.5 -40.5t-40 -34t-15.5 -37q0 -20 9.5 -31t23.5 -11t23.5 11t9.5 31h97q0 -20 -9 -39.5t-25.5 -35t-41 -25t-54.5 -9.5t-54.5 9.5t-41 25t-25.5 35t-9 39.5
q0 34 19 56.5t48 40t64 33.5t68 37h-63l-14 53q-22 -36 -57.5 -54.5t-81.5 -18.5q-34 0 -64.5 12t-53 40t-35.5 73.5t-13 113.5v382h167z" />
    <glyph glyph-name="utilde" unicode="&#x169;" 
d="M202 601v-382q0 -34 5.5 -56t14.5 -35t20 -18t22 -5q24 0 41 21t17 63v412h167v-601h-135l-14 53q-22 -36 -57.5 -54.5t-81.5 -18.5q-34 0 -64.5 12t-53 40t-35.5 73.5t-13 113.5v382h167zM91 744q33 43 63 57t58.5 11.5t56 -14t54.5 -17.5t54 0t56 38v-84
q-31 -43 -61.5 -57t-59 -12t-56.5 13.5t-55.5 17.5t-55 0t-54.5 -37v84z" />
    <glyph glyph-name="Utilde" unicode="&#x168;" horiz-adv-x="630" 
d="M202 279q0 -87 27 -130.5t86 -43.5t86 43.5t27 130.5v521h167v-521q0 -145 -69 -222t-211 -77t-211 77t-69 222v521h167v-521zM144 943q33 44 63 57.5t58.5 11t56 -14t54.5 -17.5t54 0t56 38v-84q-31 -44 -61.5 -57.5t-59 -11.5t-56.5 13.5t-55.5 17.5t-55 0t-54.5 -37
v84z" />
    <glyph glyph-name="Umacron" unicode="&#x16a;" horiz-adv-x="630" 
d="M202 279q0 -87 27 -130.5t86 -43.5t86 43.5t27 130.5v521h167v-521q0 -145 -69 -222t-211 -77t-211 77t-69 222v521h167v-521zM136 1002h357v-125h-357v125z" />
    <glyph glyph-name="umacron" unicode="&#x16b;" 
d="M202 601v-382q0 -34 5.5 -56t14.5 -35t20 -18t22 -5q23 0 39.5 19t18.5 57v420h167v-601h-135l-14 53q-22 -36 -57.5 -54.5t-81.5 -18.5q-34 0 -64.5 12t-53 40t-35.5 73.5t-13 113.5v382h167zM83 803h357v-125h-357v125z" />
    <glyph glyph-name="uni1E02" unicode="&#x1e02;" horiz-adv-x="534" 
d="M35 800h217q62 0 107.5 -16t75.5 -43.5t44.5 -64t14.5 -77.5q0 -62 -28 -104t-76 -65q63 -23 93 -78t30 -127q0 -104 -59 -164.5t-186 -60.5h-233v800zM202 359v-234h66q38 0 58 32.5t20 83.5q0 52 -20 85t-58 33h-66zM327 578q0 42 -20 69.5t-55 27.5h-50v-191h53
q34 2 53 27t19 67zM190 929q0 35 21 55.5t55 20.5t55 -20.5t21 -55.5t-21 -55.5t-55 -20.5t-55 20.5t-21 55.5z" />
    <glyph glyph-name="uni1E03" unicode="&#x1e03;" horiz-adv-x="531" 
d="M35 0v810h167v-237q21 26 49.5 37t63.5 11q41 0 77.5 -20t63.5 -59.5t43 -100t16 -141.5t-15 -141t-42 -99.5t-63.5 -59.5t-79.5 -20q-45 0 -78.5 17t-54.5 61l-12 -58h-135zM273 496q-12 0 -24.5 -7t-22.5 -22.5t-16.5 -41.5t-7.5 -64v-113q0 -41 6.5 -68.5t16.5 -44
t23 -23.5t25 -7q44 0 59.5 47.5t15.5 147.5t-15.5 148t-59.5 48zM259 830q0 35 21 55.5t55 20.5t55 -20.5t21 -55.5t-21 -55.5t-55 -20.5t-55 20.5t-21 55.5z" />
    <glyph glyph-name="uni1E0A" unicode="&#x1e0a;" horiz-adv-x="555" 
d="M35 800h179q88 0 149 -23.5t99.5 -72.5t55.5 -124.5t17 -179.5t-17 -179t-55.5 -124.5t-99.5 -73t-149 -23.5h-179v800zM368 400q0 77 -8.5 129.5t-27 85t-47.5 46.5t-71 14h-12v-550h12q42 0 71 13.5t47.5 46t27 85t8.5 130.5zM201 929q0 35 21 55.5t55 20.5t55 -20.5
t21 -55.5t-21 -55.5t-55 -20.5t-55 20.5t-21 55.5z" />
    <glyph glyph-name="Wgrave" unicode="&#x1e80;" horiz-adv-x="868" 
d="M434 426l-89 -426h-201l-143 800h173l84 -551l108 472h135l110 -479l93 558h163l-143 -800h-202zM461 842l-159 193h153l111 -193h-105z" />
    <glyph glyph-name="Wacute" unicode="&#x1e82;" horiz-adv-x="868" 
d="M434 426l-89 -426h-201l-143 800h173l84 -551l108 472h135l110 -479l93 558h163l-143 -800h-202zM302 842l111 193h153l-159 -193h-105z" />
    <glyph glyph-name="uni1E0B" unicode="&#x1e0b;" horiz-adv-x="531" 
d="M15 300q0 81 16 141.5t43 100t63.5 59.5t77.5 20q34 0 62.5 -11t50.5 -37v237h167v-810h-136l-11 57q-22 -43 -55.5 -60t-77.5 -17q-43 0 -79.5 20t-63.5 59.5t-42 99.5t-15 141zM257 105q12 0 24.5 6.5t22.5 22.5t16.5 41.5t7.5 64.5v113q0 41 -6.5 68.5t-16.5 44
t-23 23.5t-25 7q-44 0 -59.5 -48t-15.5 -148t15.5 -147.5t59.5 -47.5zM119 830q0 35 21 55.5t55 20.5t55 -20.5t21 -55.5t-21 -55.5t-55 -20.5t-55 20.5t-21 55.5z" />
    <glyph glyph-name="Ygrave" unicode="&#x1ef2;" horiz-adv-x="557" 
d="M194 0v272l-224 528h183l125 -382l125 382h183l-225 -542v-258h-167zM305 842l-159 193h153l111 -193h-105z" />
    <glyph glyph-name="uni1E1E" unicode="&#x1e1e;" horiz-adv-x="478" 
d="M35 0v800h439v-125h-272v-248h192v-125h-192v-302h-167zM163 929q0 35 21 55.5t55 20.5t55 -20.5t21 -55.5t-21 -55.5t-55 -20.5t-55 20.5t-21 55.5z" />
    <glyph glyph-name="uni1E1F" unicode="&#x1e1f;" horiz-adv-x="321" 
d="M19 551h39v66q0 65 20.5 109.5t56.5 67.5t84.5 25t104.5 -19v-125q-32 11 -51.5 12t-30 -6.5t-14 -24t-3.5 -39.5v-66h91v-125h-91v-426h-167v426h-39v125zM124 928q0 35 21 55.5t55 20.5t55 -20.5t21 -55.5t-21 -55.5t-55 -20.5t-55 20.5t-21 55.5z" />
    <glyph glyph-name="Wcircumflex" unicode="&#x174;" horiz-adv-x="868" 
d="M1 800h173l84 -551l108 472h135l110 -479l93 558h163l-143 -800h-202l-88 426l-89 -426h-201zM600 830l-166 99l-166 -99v112l166 92l166 -92v-112z" />
    <glyph glyph-name="wcircumflex" unicode="&#x175;" horiz-adv-x="757" 
d="M378 324l-83 -324h-142l-155 601h159l73 -363l74 323h149l72 -323l75 363h159l-156 -601h-141zM544 631l-166 99l-166 -99v112l166 92l166 -92v-112z" />
    <glyph glyph-name="uni1E6A" unicode="&#x1e6a;" horiz-adv-x="582" 
d="M211 0v675h-211v125h582v-125h-204v-675h-167zM215 929q0 35 21 55.5t55 20.5t55 -20.5t21 -55.5t-21 -55.5t-55 -20.5t-55 20.5t-21 55.5z" />
    <glyph glyph-name="uni1E6B" unicode="&#x1e6b;" horiz-adv-x="309" 
d="M7 601h54v180h167v-180h67v-125h-67v-299q0 -20 2.5 -34.5t10 -22t22.5 -7t41 11.5v-125q-51 -20 -95 -17.5t-77 25.5t-52 66t-19 103v299h-54v125zM70 886q0 35 21 55.5t55 20.5t55 -20.5t21 -55.5t-21 -55.5t-55 -20.5t-55 20.5t-21 55.5z" />
    <glyph glyph-name="uni1E40" unicode="&#x1e40;" horiz-adv-x="741" 
d="M35 0v800h209l108 -435l19 -144l18 144l108 435h209v-800h-146v581l-37 -177l-79 -345h-147l-85 344l-38 177v-580h-139zM294 929q0 35 21 55.5t55 20.5t55 -20.5t21 -55.5t-21 -55.5t-55 -20.5t-55 20.5t-21 55.5z" />
    <glyph glyph-name="uni1E41" unicode="&#x1e41;" horiz-adv-x="734" 
d="M532 0v407q0 49 -10 69t-28 20q-14 0 -28.5 -20t-14.5 -69v-407h-167v407q0 49 -12 69t-27 20q-14 0 -28.5 -21.5t-14.5 -77.5v-397h-167v601h111l17 -53q22 38 53.5 55t67.5 17q45 0 76 -17.5t49 -55.5q23 40 57.5 57t72.5 17t68 -11t50.5 -36.5t31 -66t10.5 -100.5
v-407h-167zM291 730q0 35 21 55.5t55 20.5t55 -20.5t21 -55.5t-21 -55.5t-55 -20.5t-55 20.5t-21 55.5z" />
    <glyph glyph-name="uni1E56" unicode="&#x1e56;" horiz-adv-x="574" 
d="M35 0v800h252q76 0 128.5 -19t85 -54t47 -84.5t14.5 -110.5t-14.5 -110t-47 -84t-85 -54t-128.5 -19h-85v-265h-167zM287 390q50 0 79 35t29 107q0 70 -29 106.5t-79 36.5h-85v-285h85zM210 929q0 35 21 55.5t55 20.5t55 -20.5t21 -55.5t-21 -55.5t-55 -20.5t-55 20.5
t-21 55.5z" />
    <glyph glyph-name="wgrave" unicode="&#x1e81;" horiz-adv-x="757" 
d="M378 324l-83 -324h-142l-155 601h159l73 -363l74 323h149l72 -323l75 363h159l-156 -601h-141zM405 643l-159 193h153l111 -193h-105z" />
    <glyph glyph-name="uni1E57" unicode="&#x1e57;" horiz-adv-x="531" 
d="M515 300q0 -81 -15 -141t-42 -99.5t-63.5 -59.5t-79.5 -20q-35 0 -63.5 10.5t-49.5 35.5v-236h-167v811h135l12 -60q21 45 55 62.5t78 17.5q41 0 77.5 -20t63.5 -59.5t43 -100t16 -141.5zM273 496q-12 0 -24.5 -7t-22.5 -22.5t-16.5 -41.5t-7.5 -64v-121q1 -39 7.5 -64.5
t16.5 -41.5t22.5 -22.5t24.5 -6.5q44 0 59.5 47.5t15.5 147.5t-15.5 148t-59.5 48zM189 730q0 35 21 55.5t55 20.5t55 -20.5t21 -55.5t-21 -55.5t-55 -20.5t-55 20.5t-21 55.5z" />
    <glyph glyph-name="wacute" unicode="&#x1e83;" horiz-adv-x="757" 
d="M378 324l-83 -324h-142l-155 601h159l73 -363l74 323h149l72 -323l75 363h159l-156 -601h-141zM246 643l111 193h153l-159 -193h-105z" />
    <glyph glyph-name="uni1E60" unicode="&#x1e60;" horiz-adv-x="573" 
d="M27 591q0 41 15.5 82t47.5 73.5t80 53t113 20.5q73 0 125.5 -20t85.5 -54.5t46.5 -81t8.5 -99.5l-167 -14q3 31 -2.5 57.5t-18 45.5t-31.5 30t-43 11q-38 0 -65.5 -26t-27.5 -68q0 -30 15.5 -51t40 -37.5t56.5 -30.5t65.5 -29.5t65.5 -35t56.5 -46.5t40 -64.5t15.5 -88.5
q0 -41 -15.5 -83.5t-47 -77t-79.5 -56t-113 -21.5q-72 0 -125 20t-86 55.5t-47 84t-9 104.5l167 14q-3 -32 3 -59.5t18.5 -48.5t31.5 -33t42 -12q20 0 37 8.5t29.5 23t19.5 34t7 41.5q0 42 -26.5 66t-65.5 42t-85.5 35.5t-85.5 45.5t-65.5 72.5t-26.5 117.5zM210 929
q0 35 21 55.5t55 20.5t55 -20.5t21 -55.5t-21 -55.5t-55 -20.5t-55 20.5t-21 55.5z" />
    <glyph glyph-name="ygrave" unicode="&#x1ef3;" horiz-adv-x="496" 
d="M246 -210h-144l70 235l-174 576h168l72 -315l-16 -92l122 407h154zM275 643l-159 193h153l111 -193h-105z" />
    <glyph glyph-name="wdieresis" unicode="&#x1e85;" horiz-adv-x="757" 
d="M378 324l-83 -324h-142l-155 601h159l73 -363l74 323h149l72 -323l75 363h159l-156 -601h-141zM196 730q0 35 21 55.5t55 20.5t55 -20.5t21 -55.5t-21 -55.5t-55 -20.5t-55 20.5t-21 55.5zM407 730q0 35 21 55.5t55 20.5t55 -20.5t21 -55.5t-21 -55.5t-55 -20.5t-55 20.5
t-21 55.5z" />
    <glyph glyph-name="Ycircumflex" unicode="&#x176;" horiz-adv-x="557" 
d="M194 0v272l-224 528h183l125 -382l125 382h183l-225 -542v-258h-167zM444 830l-166 99l-166 -99v112l166 92l166 -92v-112z" />
    <glyph glyph-name="ycircumflex" unicode="&#x177;" horiz-adv-x="496" 
d="M246 -210h-144l70 235l-174 576h168l72 -315l-16 -92l122 407h154zM414 631l-166 99l-166 -99v112l166 92l166 -92v-112z" />
    <glyph glyph-name="Wdieresis" unicode="&#x1e84;" horiz-adv-x="868" 
d="M434 426l-89 -426h-201l-143 800h173l84 -551l108 472h135l110 -479l93 558h163l-143 -800h-202zM463 929q0 35 21 55.5t55 20.5t55 -20.5t21 -55.5t-21 -55.5t-55 -20.5t-55 20.5t-21 55.5zM252 929q0 35 21 55.5t55 20.5t55 -20.5t21 -55.5t-21 -55.5t-55 -20.5
t-55 20.5t-21 55.5z" />
    <glyph glyph-name="uni1E61" unicode="&#x1e61;" horiz-adv-x="470" 
d="M37 443q0 36 12.5 68.5t37.5 56.5t61.5 38.5t83.5 14.5q53 0 92.5 -15t65.5 -41.5t38.5 -62.5t11.5 -79l-155 -12q4 37 -6.5 61t-40.5 24q-24 0 -36.5 -15.5t-12.5 -38.5q0 -30 19 -46t48 -27.5t62 -22.5t62 -31t48 -52.5t19 -87.5q0 -42 -13.5 -77.5t-40 -61.5
t-64.5 -41t-86 -15q-54 0 -96.5 15t-71 43t-42 68t-8.5 89l146 10q-2 -26 3 -45t14.5 -31t21 -18t23.5 -6q25 0 38 18.5t13 40.5q0 31 -18.5 48.5t-45.5 30t-59.5 24.5t-59.5 32.5t-45.5 54t-18.5 89.5zM159 730q0 35 21 55.5t55 20.5t55 -20.5t21 -55.5t-21 -55.5
t-55 -20.5t-55 20.5t-21 55.5z" />
    <glyph glyph-name="B" unicode="B" horiz-adv-x="534" 
d="M35 0v800h217q62 0 107.5 -16t75.5 -43.5t44.5 -64t14.5 -77.5q0 -62 -28 -104t-76 -65q63 -23 93 -78t30 -127q0 -104 -59 -164.5t-186 -60.5h-233zM202 359v-234h66q38 0 58 32.5t20 83.5q0 52 -20 85t-58 33h-66zM327 578q0 42 -20 69.5t-55 27.5h-50v-191h53
q34 2 53 27t19 67z" />
    <glyph glyph-name="O" unicode="O" horiz-adv-x="681" 
d="M340 -20q-146 0 -227 108t-81 312q0 205 81 312.5t227 107.5t227 -107.5t81 -312.5q0 -204 -81 -312t-227 -108zM340 105q29 0 55 14.5t45 49t30 91t11 140.5q0 83 -11 139.5t-30 91t-45 49.5t-55 15t-55 -15t-45 -49.5t-30 -91t-11 -139.5q0 -84 11 -140.5t30 -91
t45 -49t55 -14.5z" />
    <glyph glyph-name="A" unicode="A" horiz-adv-x="601" 
d="M599 0h-163l-38 167h-196l-38 -167h-163l214 800h170zM230 292h139l-56 250l-13 99l-12 -99z" />
    </font>
</defs>
</svg>
